<?xml version="1.0" encoding="utf-8"?>
<!-- Generator: Adobe Illustrator 21.0.0, SVG Export Plug-In . SVG Version: 6.00 Build 0)  -->
<svg version="1.1" id="圖層_1" xmlns="http://www.w3.org/2000/svg" xmlns:xlink="http://www.w3.org/1999/xlink" x="0px" y="0px"
	 viewBox="0 0 1920 1081" style="enable-background:new 0 0 1920 1081;" xml:space="preserve">
<style type="text/css">
	.st0{fill:none;stroke:#FFFFFF;stroke-miterlimit:10;}
	.st1{fill:#FFFFFF;stroke:#FFFFFF;stroke-miterlimit:10;}
	.st2{fill:#FFFFFF;}
	.st3{fill:#1A1A1A;}
	.st4{fill:#836E40;}
	.st5{fill:none;stroke:#333333;stroke-miterlimit:10;}
	.st6{fill:#333333;}
	.st7{fill:url(#SVGID_1_);}
	.st8{display:none;}
	.st9{display:inline;fill:#333333;}
	.st10{opacity:0.1;}
	.st11{fill-rule:evenodd;clip-rule:evenodd;fill:#FFFFFF;}
	.st12{opacity:0.2;}
</style>
<g class="st12">
	<path d="M1457.6,330.3c-27.2-64.3-66.1-122.1-115.7-171.6c-49.6-49.6-107.3-88.5-171.6-115.7C1103.6,14.8,1032.9,0.5,960,0.5
		S816.4,14.8,749.8,42.9c-64.3,27.2-122.1,66.1-171.6,115.7c-49.6,49.6-88.5,107.3-115.7,171.6C434.3,396.9,420,467.6,420,540.5
		s14.3,143.6,42.4,210.2c27.2,64.3,66.1,122.1,115.7,171.6c49.6,49.6,107.3,88.5,171.6,115.7c66.6,28.2,137.3,42.4,210.2,42.4
		s143.6-14.3,210.2-42.4c64.3-27.2,122.1-66.1,171.6-115.7c49.6-49.6,88.5-107.3,115.7-171.6c28.2-66.6,42.4-137.3,42.4-210.2
		S1485.7,396.9,1457.6,330.3z M960,1079.5c-297.2,0-539-241.8-539-539s241.8-539,539-539s539,241.8,539,539
		S1257.2,1079.5,960,1079.5z"/>
	<path d="M847.7,767.5l416-240.2l-416-240.2V767.5z M848.7,288.9l413,238.4l-413,238.4V288.9z"/>
</g>
</svg>
