<?xml version="1.0" encoding="utf-8"?>
<!-- Generator: Adobe Illustrator 21.0.0, SVG Export Plug-In . SVG Version: 6.00 Build 0)  -->
<svg version="1.1" id="圖層_1" xmlns="http://www.w3.org/2000/svg" xmlns:xlink="http://www.w3.org/1999/xlink" x="0px" y="0px"
	 viewBox="0 0 1920 1081" style="enable-background:new 0 0 1920 1081;" xml:space="preserve">
<style type="text/css">
	.st0{fill:none;stroke:#FFFFFF;stroke-miterlimit:10;}
	.st1{fill:#FFFFFF;stroke:#FFFFFF;stroke-miterlimit:10;}
	.st2{fill:#FFFFFF;}
	.st3{fill:#1A1A1A;}
	.st4{fill:#836E40;}
	.st5{fill:none;stroke:#333333;stroke-miterlimit:10;}
	.st6{fill:#333333;}
	.st7{fill:url(#SVGID_1_);}
	.st8{display:none;}
	.st9{display:inline;fill:#333333;}
	.st10{opacity:0.1;}
	.st11{fill-rule:evenodd;clip-rule:evenodd;fill:#FFFFFF;}
	.st12{opacity:0.2;}
	.st13{fill:none;stroke:#000000;stroke-miterlimit:10;}
</style>
<g class="st12">
	<path d="M286.1,81.9c0-44.4,36.1-80.4,80.4-80.4h1186.9c44.4,0,80.4,36.1,80.4,80.4v795.7h1V81.9c0-44.9-36.5-81.4-81.4-81.4H366.6
		c-44.9,0-81.4,36.5-81.4,81.4v795.7h1V81.9z"/>
	<path d="M1094.4,944.6v0.5c0,18.3-14.9,33.2-33.2,33.2H858.8c-18.3,0-33.2-14.9-33.2-33.2v-0.5H150.2v54.4
		c0,44.9,36.5,81.4,81.4,81.4h1456.6c44.9,0,81.4-36.5,81.4-81.4v-54.4H1094.4z M1768.8,999.1c0,44.4-36.1,80.4-80.4,80.4H231.7
		c-44.4,0-80.4-36.1-80.4-80.4v-53.4h673.4c0.3,18.6,15.5,33.7,34.2,33.7h202.3c18.7,0,33.9-15.1,34.2-33.7h673.4V999.1z"/>
	<path d="M1500,743.3V135.4H420v607.9H1500z M421,136.4h1078v605.9H421V136.4z"/>
</g>
</svg>
