<?xml version="1.0" encoding="utf-8"?>
<!-- Generator: Adobe Illustrator 21.0.0, SVG Export Plug-In . SVG Version: 6.00 Build 0)  -->
<svg version="1.1" id="圖層_1" xmlns="http://www.w3.org/2000/svg" xmlns:xlink="http://www.w3.org/1999/xlink" x="0px" y="0px"
	 viewBox="0 0 1920 1081" style="enable-background:new 0 0 1920 1081;" xml:space="preserve">
<style type="text/css">
	.st0{fill:none;stroke:#FFFFFF;stroke-miterlimit:10;}
	.st1{fill:#FFFFFF;stroke:#FFFFFF;stroke-miterlimit:10;}
	.st2{fill:#FFFFFF;}
	.st3{fill:#1A1A1A;}
	.st4{fill:#836E40;}
	.st5{fill:none;stroke:#333333;stroke-miterlimit:10;}
	.st6{fill:#333333;}
	.st7{fill:url(#SVGID_1_);}
	.st8{display:none;}
	.st9{display:inline;fill:#333333;}
	.st10{opacity:0.1;}
	.st11{fill-rule:evenodd;clip-rule:evenodd;fill:#FFFFFF;}
	.st12{opacity:0.2;}
	.st13{fill:none;stroke:#000000;stroke-miterlimit:10;}
	.st14{opacity:0.2;fill:none;stroke:#000000;stroke-miterlimit:10;}
</style>
<g class="st12">
	<path d="M1920,167H990.2c-8.4-0.4-16.8-0.5-25.3-0.5c-8.5,0-16.9,0.2-25.3,0.5H0v1h922.1c-63,4.6-124.2,19.3-182.4,43.9
		c-68.9,29.1-130.8,70.9-183.9,124s-94.8,115-124,183.9c-30.1,71.1-45.4,146.7-45.5,224.6h-44.1v88.3h88.3v-88.3h-43.1
		c0.3-309.8,245.8-563.2,552.4-576.3H990c306.6,13.2,552.1,266.6,552.4,576.3h-46.9v88.3h88.3v-88.3h-40.3
		c-0.1-77.9-15.4-153.4-45.5-224.6c-29.1-68.9-70.9-130.8-124-183.9s-115-94.8-183.9-124c-58.2-24.6-119.4-39.3-182.4-43.9H1920V167
		z M429.5,831.6h-86.3v-86.3h86.3V831.6z M1582.7,831.6h-86.3v-86.3h86.3V831.6z"/>
	<path d="M979.3,544.9h-24.2V168.1L766.6,571.4l89.6,180.3v161.7h216.2V751.9l91.7-180.1l0.1-0.2L979,168.5L979.3,544.9z
		 M1071.4,912.5H857.2V752.1h214.2V912.5z M1163.1,571.5l-91.5,179.6H857l-89.3-179.7l186.5-398.8v373.3h26.2L980,173.1
		L1163.1,571.5z"/>
</g>
</svg>
