<?xml version="1.0" encoding="utf-8"?>
<!-- Generator: Adobe Illustrator 21.0.0, SVG Export Plug-In . SVG Version: 6.00 Build 0)  -->
<svg version="1.1" id="圖層_1" xmlns="http://www.w3.org/2000/svg" xmlns:xlink="http://www.w3.org/1999/xlink" x="0px" y="0px"
	 viewBox="0 0 32 13.6" style="enable-background:new 0 0 32 13.6;" xml:space="preserve">
<style type="text/css">
	.st0{fill:#FFFFFF;}
</style>
<path class="st0" d="M31.9,8.3c0,0,0.1-0.1,0.1-0.1c0-0.1,0-0.1,0-0.2c0,0,0,0,0,0s0,0,0,0c0-0.1,0-0.1,0-0.2c0-0.1-0.1-0.1-0.1-0.1
	c0,0,0,0,0,0l0,0c0,0,0,0,0,0l-5-5c-0.2-0.2-0.5-0.2-0.7,0c-0.2,0.2-0.2,0.5,0,0.7l4.2,4.2H1v-7C1,0.2,0.8,0,0.5,0S0,0.2,0,0.5V8
	c0,0.3,0.2,0.5,0.5,0.5h29.8l-4.2,4.2c-0.2,0.2-0.2,0.5,0,0.7c0.1,0.1,0.2,0.1,0.4,0.1c0.1,0,0.3,0,0.4-0.1L31.9,8.3
	C31.9,8.4,31.9,8.4,31.9,8.3L31.9,8.3C31.9,8.3,31.9,8.3,31.9,8.3z"/>
</svg>
