<?xml version="1.0" encoding="utf-8"?>
<!-- Generator: Adobe Illustrator 21.0.0, SVG Export Plug-In . SVG Version: 6.00 Build 0)  -->
<svg version="1.1" id="圖層_1" xmlns="http://www.w3.org/2000/svg" xmlns:xlink="http://www.w3.org/1999/xlink" x="0px" y="0px"
	 viewBox="0 0 1920 1081" style="enable-background:new 0 0 1920 1081;" xml:space="preserve">
<style type="text/css">
	.st0{opacity:0.8;}
</style>
<g class="st0">
	<path d="M420.9,173.6c0-35.5,28.9-64.3,64.3-64.3h949.5c35.5,0,64.3,28.9,64.3,64.3v636.6h0.8V173.6c0-35.9-29.2-65.1-65.1-65.1
		H485.3c-35.9,0-65.1,29.2-65.1,65.1v636.6h0.8L420.9,173.6L420.9,173.6z"/>
	<path d="M1067.5,863.8v0.4c0,14.6-11.9,26.6-26.6,26.6H879c-14.6,0-26.6-11.9-26.6-26.6v-0.4H312.1v43.5
		c0,35.9,29.2,65.1,65.1,65.1h1165.3c35.9,0,65.1-29.2,65.1-65.1v-43.5H1067.5z M1607,907.4c0,35.5-28.9,64.3-64.3,64.3H377.3
		c-35.5,0-64.3-28.9-64.3-64.3v-42.7h538.7c0.2,14.9,12.4,27,27.4,27h161.8c15,0,27.1-12.1,27.4-27H1607V907.4z"/>
	<path d="M1392,702.7V216.4H528v486.3L1392,702.7L1392,702.7z M528.8,217.2h862.4v484.7H528.8V217.2z"/>
</g>
</svg>
