<?xml version="1.0" encoding="utf-8"?>
<!-- Generator: Adobe Illustrator 21.0.0, SVG Export Plug-In . SVG Version: 6.00 Build 0)  -->
<svg version="1.1" id="圖層_1" xmlns="http://www.w3.org/2000/svg" xmlns:xlink="http://www.w3.org/1999/xlink" x="0px" y="0px"
	 viewBox="0 0 1920 1081" style="enable-background:new 0 0 1920 1081;" xml:space="preserve">
<style type="text/css">
	.st0{opacity:0.8;}
	.st1{fill:none;stroke:#000000;stroke-miterlimit:10;}
</style>
<g class="st0">
	<rect x="596.4" y="112.5" class="st1" width="156" height="61.2"/>
	<path class="st1" d="M415,241.8v726.7h1090V241.8H415z M778.3,468.9h-213v-90.8h213V468.9z M1141.7,786.8
		c-100.3,0-181.7-81.3-181.7-181.7c0-100.3,81.3-181.7,181.7-181.7c100.3,0,181.7,81.3,181.7,181.7
		C1323.3,705.5,1242,786.8,1141.7,786.8z"/>
	<path class="st1" d="M1141.7,514.3c-50.1,0-90.8,40.7-90.8,90.8s40.7,90.8,90.8,90.8c50.1,0,90.8-40.7,90.8-90.8
		C1232.5,555.1,1191.8,514.3,1141.7,514.3z"/>
</g>
</svg>
