<?xml version="1.0" encoding="utf-8"?>
<!-- Generator: Adobe Illustrator 21.0.0, SVG Export Plug-In . SVG Version: 6.00 Build 0)  -->
<svg version="1.1" id="圖層_1" xmlns="http://www.w3.org/2000/svg" xmlns:xlink="http://www.w3.org/1999/xlink" x="0px" y="0px"
	 viewBox="0 0 1920 1081" style="enable-background:new 0 0 1920 1081;" xml:space="preserve">
<style type="text/css">
	.st0{opacity:0.8;}
</style>
<g class="st0">
	<path d="M1728,241.6H984.2c-6.7-0.3-13.4-0.4-20.2-0.4c-6.8,0-13.5,0.2-20.2,0.4H192v0.8h737.7c-50.4,3.7-99.4,15.4-145.9,35.1
		c-55.1,23.3-104.6,56.7-147.1,99.2s-75.8,92-99.2,147.1c-24.1,56.9-36.3,117.4-36.4,179.7h-35.3v70.6h70.6v-70.6h-34.5
		c0.2-247.8,196.6-450.6,441.9-461H984c245.3,10.6,441.7,213.3,441.9,461h-37.5v70.6h70.6v-70.6h-32.2
		c-0.1-62.3-12.3-122.7-36.4-179.7c-23.3-55.1-56.7-104.6-99.2-147.1s-92-75.8-147.1-99.2c-46.6-19.7-95.5-31.4-145.9-35.1H1728
		V241.6z M535.6,773.3h-69v-69h69V773.3z M1458.2,773.3h-69v-69h69V773.3z"/>
	<path d="M975.4,543.9h-19.4V242.5L805.3,565.1L877,709.4v129.4h173V709.5l73.4-144.1l0.1-0.2L975.2,242.8L975.4,543.9z M1049.1,838
		H877.8V709.7h171.4V838z M1122.5,565.2l-73.2,143.7H877.6l-71.4-143.8l149.2-319v298.6h21L976,246.5L1122.5,565.2z"/>
</g>
</svg>
