<?xml version="1.0" encoding="utf-8"?>
<!-- Generator: Adobe Illustrator 21.0.0, SVG Export Plug-In . SVG Version: 6.00 Build 0)  -->
<svg version="1.1" id="圖層_1" xmlns="http://www.w3.org/2000/svg" xmlns:xlink="http://www.w3.org/1999/xlink" x="0px" y="0px"
	 viewBox="0 0 1920 1081" style="enable-background:new 0 0 1920 1081;" xml:space="preserve">
<style type="text/css">
	.st0{opacity:0.8;}
</style>
<g class="st0">
	<path d="M1358.1,372.3c-21.8-51.4-52.9-97.7-92.6-137.3c-39.7-39.7-85.8-70.8-137.3-92.6c-53.4-22.6-109.9-34-168.2-34
		s-114.9,11.4-168.2,33.9c-51.4,21.8-97.7,52.9-137.3,92.6c-39.7,39.7-70.8,85.8-92.6,137.3c-22.6,53.4-34,109.9-34,168.2
		s11.4,114.9,33.9,168.2c21.8,51.4,52.9,97.7,92.6,137.3c39.7,39.7,85.8,70.8,137.3,92.6c53.3,22.6,109.8,33.9,168.2,33.9
		c58.3,0,114.9-11.4,168.2-33.9c51.4-21.8,97.7-52.9,137.3-92.6c39.7-39.7,70.8-85.8,92.6-137.3c22.6-53.3,33.9-109.8,33.9-168.2
		C1391.8,482.2,1380.5,425.6,1358.1,372.3z M960,971.7c-237.8,0-431.2-193.4-431.2-431.2S722.2,109.3,960,109.3
		s431.2,193.4,431.2,431.2S1197.7,971.7,960,971.7z"/>
	<path d="M870.1,722.1l332.8-192.2L870.1,337.8L870.1,722.1L870.1,722.1z M870.9,339.2l330.4,190.7L870.9,720.6L870.9,339.2
		L870.9,339.2z"/>
</g>
</svg>
