<?xml version="1.0" encoding="utf-8"?>
<!-- Generator: Adobe Illustrator 21.0.0, SVG Export Plug-In . SVG Version: 6.00 Build 0)  -->
<svg version="1.1" id="圖層_1" xmlns="http://www.w3.org/2000/svg" xmlns:xlink="http://www.w3.org/1999/xlink" x="0px" y="0px"
	 viewBox="0 0 30 30" style="enable-background:new 0 0 30 30;" xml:space="preserve">
<style type="text/css">
	.st0{fill:#FFFFFF;}
</style>
<g>
	<g>
		<rect x="10.2" y="8" class="st0" width="2" height="0.8"/>
		<path class="st0" d="M7.4,20.2h15.2V9.7H7.4V20.2z M8.3,10.6h13.4v8.6H8.3V10.6z"/>
		<path class="st0" d="M17.4,12.5c-1.3,0-2.4,1.1-2.4,2.4c0,1.3,1.1,2.4,2.4,2.4c1.3,0,2.4-1.1,2.4-2.4
			C19.8,13.6,18.7,12.5,17.4,12.5z M17.4,16.1c-0.7,0-1.2-0.5-1.2-1.2c0-0.7,0.5-1.2,1.2-1.2c0.7,0,1.2,0.5,1.2,1.2
			C18.6,15.6,18,16.1,17.4,16.1z"/>
		<rect x="9.8" y="12" class="st0" width="2.8" height="1.2"/>
	</g>
	<path class="st0" d="M15,0.6C7.1,0.6,0.6,7.1,0.6,15c0,7.9,6.4,14.4,14.4,14.4S29.4,22.9,29.4,15C29.4,7.1,22.9,0.6,15,0.6z
		 M15,28.4c-7.4,0-13.4-6-13.4-13.4S7.6,1.6,15,1.6c7.4,0,13.4,6,13.4,13.4S22.4,28.4,15,28.4z"/>
</g>
</svg>
