<?xml version="1.0" encoding="utf-8"?>
<!-- Generator: Adobe Illustrator 21.0.0, SVG Export Plug-In . SVG Version: 6.00 Build 0)  -->
<svg version="1.1" id="圖層_1" xmlns="http://www.w3.org/2000/svg" xmlns:xlink="http://www.w3.org/1999/xlink" x="0px" y="0px"
	 viewBox="0 0 46 30" style="enable-background:new 0 0 46 30;" xml:space="preserve">
<style type="text/css">
	.st0{fill:#FFFFFF;}
	.st1{fill:none;stroke:#FFFFFF;stroke-miterlimit:10;}
	.st2{fill:#FFFFFF;stroke:#FFFFFF;stroke-miterlimit:10;}
	.st3{fill:#1A1A1A;}
	.st4{fill:#856E40;}
	.st5{fill:none;stroke:#333333;stroke-miterlimit:10;}
	.st6{fill:#333333;}
</style>
<g>
	<g>
		<path class="st0" d="M16.2,0l9.2,30H20l-2.5-8.8H8.2L5.6,30H0.7L9.9,0H16.2z M16.5,17.3l-1.8-6.1c-0.2-0.9-0.8-3.3-1.8-7.4h-0.3
			c-0.6,2.8-1.3,5.2-1.8,7.3l-1.6,6.1H16.5z"/>
	</g>
	<path class="st0" d="M37.2,29.1c2.4,0,4.6-0.5,6.7-1.4v1c-2.2,0.9-4.4,1.3-6.7,1.3c-6.9,0-10.3-3.9-10.3-11.8c0-1.9,0.2-3.5,0.6-5
		c0.4-1.4,0.9-2.6,1.5-3.4c0.6-0.9,1.4-1.5,2.2-2.1c0.9-0.5,1.7-0.9,2.6-1.1c0.8-0.2,1.7-0.3,2.7-0.3c5.8,0,8.8,3.8,8.8,11.4v0.4
		H27.8C27.8,25.5,31,29.1,37.2,29.1z M27.8,17.3h16.6c-0.1-6.7-2.7-10.1-7.9-10C31,7.2,28.1,10.6,27.8,17.3z"/>
</g>
</svg>
