<?xml version="1.0" encoding="utf-8"?>
<!-- Generator: Adobe Illustrator 21.0.0, SVG Export Plug-In . SVG Version: 6.00 Build 0)  -->
<svg version="1.1" id="圖層_1" xmlns="http://www.w3.org/2000/svg" xmlns:xlink="http://www.w3.org/1999/xlink" x="0px" y="0px"
	 viewBox="0 0 56 42" style="enable-background:new 0 0 56 42;" xml:space="preserve">
<style type="text/css">
	.st0{fill:#FFFFFF;}
	.st1{fill:none;stroke:#FFFFFF;stroke-miterlimit:10;}
	.st2{fill:#FFFFFF;stroke:#FFFFFF;stroke-miterlimit:10;}
	.st3{fill:#1A1A1A;}
	.st4{fill:#856E40;}
	.st5{fill:none;stroke:#333333;stroke-miterlimit:10;}
	.st6{fill:#333333;}
</style>
<g>
	<g>
		<rect x="9.6" y="1" class="st0" width="7.6" height="1.5"/>
	</g>
	<g>
		<path class="st0" d="M55.2,41.5H0.8V4.9h54.3V41.5z M1.8,40.5h52.3V5.9H1.8V40.5z"/>
	</g>
	<g>
		<path class="st0" d="M36.9,14.3c-4.9,0-8.9,4-8.9,8.9c0,4.9,4,8.9,8.9,8.9c4.9,0,8.9-4,8.9-8.9C45.8,18.3,41.8,14.3,36.9,14.3z
			 M36.9,27.7c-2.5,0-4.4-2-4.4-4.4c0-2.5,2-4.4,4.4-4.4c2.5,0,4.4,2,4.4,4.4C41.3,25.7,39.3,27.7,36.9,27.7z"/>
	</g>
	<g>
		<rect x="8" y="12.1" class="st0" width="11.1" height="4.4"/>
	</g>
</g>
</svg>
