<?xml version="1.0" encoding="utf-8"?>
<!-- Generator: Adobe Illustrator 21.0.0, SVG Export Plug-In . SVG Version: 6.00 Build 0)  -->
<svg version="1.1" id="圖層_1" xmlns="http://www.w3.org/2000/svg" xmlns:xlink="http://www.w3.org/1999/xlink" x="0px" y="0px"
	 viewBox="0 0 42 40" style="enable-background:new 0 0 42 40;" xml:space="preserve">
<style type="text/css">
	.st0{fill:#FFFFFF;}
	.st1{fill:none;stroke:#FFFFFF;stroke-miterlimit:10;}
	.st2{fill:#FFFFFF;stroke:#FFFFFF;stroke-miterlimit:10;}
	.st3{fill:#1A1A1A;}
	.st4{fill:#856E40;}
	.st5{fill:none;stroke:#333333;stroke-miterlimit:10;}
	.st6{fill:#333333;}
</style>
<g>
	<path class="st0" d="M5.6,5.7c0,0,0,0.1-0.1,0.1c-0.7,1.5-1.2,3.1-1.5,4.8c-0.2,1.1-0.2,2.3-0.1,3.4c0.2,3.5,1.3,6.7,3.1,9.7
		c1.7,2.8,3.9,5.1,6.6,6.9c2.3,1.7,4.9,2.9,7.6,3.6c0.7,0.2,1.3,0.3,2,0.4c1.4,0.2,2.8,0.3,4.2,0.3c2.5-0.1,4.9-0.5,7.3-1.5
		c1.9-0.8,3.6-1.9,5-3.4c0.3-0.4,0.7-0.7,1-1.1c0,0,0-0.1,0.1-0.1c-0.1,0.1-0.1,0.3-0.2,0.4c-0.8,1.6-1.7,3.1-2.9,4.4
		c-2.6,2.9-5.7,4.8-9.4,5.7c-1,0.2-2,0.4-3,0.5C24.2,40,23,40,21.8,40c-1.4-0.1-2.7-0.2-4-0.5c-0.6-0.1-1.1-0.3-1.7-0.5
		c-2.9-1-5.5-2.5-7.9-4.5c-2.2-1.9-4.1-4.1-5.5-6.7c-1.1-2-1.9-4.2-2.3-6.5c-0.2-1.3-0.3-2.6-0.3-3.9c0.1-2.9,0.9-5.6,2.5-8
		c0.2-0.3,0.5-0.7,0.8-1c0.7-0.9,1.4-1.7,2-2.6C5.5,5.8,5.5,5.7,5.6,5.7C5.6,5.7,5.6,5.7,5.6,5.7z"/>
	<path class="st0" d="M16.3,1.9c0,0.1-0.1,0.1-0.1,0.2c-0.6,1.2-1,2.5-1.2,3.8c-0.1,0.9-0.2,1.8-0.1,2.8c0.1,1.6,0.5,3.1,1.2,4.5
		c0.9,2,2.1,3.8,3.7,5.3c2.2,2.1,4.8,3.6,7.8,4.4c1.5,0.4,3.1,0.6,4.7,0.5c2.2-0.1,4.3-0.7,6.2-1.9c1.3-0.8,2.4-1.8,3.3-3
		c0,0,0-0.1,0.1-0.1c0,0,0,0,0.1,0c0,0.1-0.1,0.2-0.1,0.2c-0.4,1.1-1,2.1-1.7,3.1c-1.9,2.4-4.3,4-7.3,4.8c-1.6,0.4-3.3,0.5-4.9,0.5
		c-1,0-2-0.1-2.9-0.3c-0.3-0.1-0.6-0.2-0.9-0.2c-3-0.9-5.5-2.6-7.6-4.8c-0.8-0.8-1.5-1.8-2.1-2.8c-0.6-1-1.1-2-1.4-3.1
		c-0.5-1.5-0.7-3-0.7-4.5c0-2,0.5-3.8,1.4-5.5c0.2-0.4,0.5-0.8,0.7-1.1c0.6-0.8,1.2-1.7,1.8-2.5C16.2,2,16.2,2,16.3,1.9
		C16.3,1.9,16.3,1.9,16.3,1.9z"/>
	<path class="st0" d="M40.6,10.9C40.6,11,40.6,11,40.6,10.9c-0.5,1-1.1,1.8-1.9,2.6c-1.1,1-2.3,1.6-3.8,1.9
		c-0.9,0.2-1.9,0.2-2.8,0.1c-0.5,0-1-0.1-1.5-0.2c-0.4-0.1-0.9-0.2-1.3-0.4c-2.4-1-4.3-2.6-5.6-4.9c-0.5-1-0.9-2-1.1-3
		C22.4,4.9,22.8,3,24,1.2c0.3-0.4,0.6-0.8,0.8-1.1c0,0,0-0.1,0.1-0.1c0,0.1-0.1,0.1-0.1,0.2c-0.6,1.2-0.8,2.5-0.7,3.8
		c0.1,1.2,0.5,2.4,1.1,3.5c1.5,2.7,3.7,4.5,6.7,5.4c1.1,0.3,2.1,0.4,3.2,0.4c1,0,1.9-0.2,2.9-0.5c0.9-0.4,1.7-1,2.4-1.8
		C40.5,11,40.5,11,40.6,10.9C40.6,10.9,40.6,10.9,40.6,10.9z"/>
</g>
</svg>
