<?xml version="1.0" encoding="utf-8"?>
<!-- Generator: Adobe Illustrator 21.0.0, SVG Export Plug-In . SVG Version: 6.00 Build 0)  -->
<svg version="1.1" id="圖層_1" xmlns="http://www.w3.org/2000/svg" xmlns:xlink="http://www.w3.org/1999/xlink" x="0px" y="0px"
	 viewBox="0 0 30 30" style="enable-background:new 0 0 30 30;" xml:space="preserve">
<style type="text/css">
	.st0{fill:#FFFFFF;}
</style>
<g>
	<path class="st0" d="M15,0C6.7,0,0,6.7,0,15c0,8.3,6.7,15,15,15s15-6.7,15-15C30,6.7,23.3,0,15,0z M15,29C7.3,29,1,22.7,1,15
		S7.3,1,15,1s14,6.3,14,14S22.7,29,15,29z"/>
	<g>
		<path class="st0" d="M18.6,8.9h2.9v0.2h1.3V7.7h-1.3v0.2h-5.7V7.6h-1.6v0.3H8.2V7.7H6.9v1.3h1.3V8.9h3.1C9,10.1,7.3,12.5,7,15.3
			H6.1v2.8h2.8v-2.8H8C8.3,12,10.9,9.4,14.2,9v0.2h0.2l-2.9,6.2l1.3,2.7v4.3h4.3v-4.3l1.4-2.7l-2.9-6.2h0.2V9c3.3,0.4,5.8,3,6.1,6.3
			h-0.9v2.8h2.8v-2.8h-1C22.7,12.5,21,10.1,18.6,8.9z M8,17.2H7.1v-0.9H8V17.2z M16.1,21.5h-2.3v-2.8l2.3,0V21.5z M15.7,15.1
			c0,0.4-0.3,0.8-0.8,0.8s-0.8-0.3-0.8-0.8c0-0.3,0.2-0.6,0.4-0.7V9.2h0.7v5.3C15.6,14.6,15.7,14.8,15.7,15.1z M23,17.2h-0.9v-0.9
			H23V17.2z"/>
	</g>
</g>
</svg>
