<?xml version="1.0" encoding="utf-8"?>
<!-- Generator: Adobe Illustrator 21.0.0, SVG Export Plug-In . SVG Version: 6.00 Build 0)  -->
<svg version="1.1" id="圖層_1" xmlns="http://www.w3.org/2000/svg" xmlns:xlink="http://www.w3.org/1999/xlink" x="0px" y="0px"
	 viewBox="0 0 62 42" style="enable-background:new 0 0 62 42;" xml:space="preserve">
<style type="text/css">
	.st0{fill:#FFFFFF;}
	.st1{fill:none;stroke:#FFFFFF;stroke-miterlimit:10;}
	.st2{fill:#FFFFFF;stroke:#FFFFFF;stroke-miterlimit:10;}
	.st3{fill:#1A1A1A;}
	.st4{fill:#856E40;}
	.st5{fill:none;stroke:#333333;stroke-miterlimit:10;}
	.st6{fill:#333333;}
</style>
<g>
	<path class="st0" d="M60.5,36v2c0,1.4-1.1,2.5-2.5,2.5H4c-1.4,0-2.5-1.1-2.5-2.5v-2h-1v2c0,1.9,1.6,3.5,3.5,3.5h54
		c1.9,0,3.5-1.6,3.5-3.5v-2H60.5z"/>
	<path class="st0" d="M6.5,4c0-1.4,1.1-2.5,2.5-2.5h44c1.4,0,2.5,1.1,2.5,2.5v32.2h1V4c0-1.9-1.6-3.5-3.5-3.5H9
		C7.1,0.5,5.5,2.1,5.5,4v32.2h1V4z"/>
	<rect x="11" y="6" class="st0" width="40" height="22.5"/>
</g>
</svg>
