<?xml version="1.0" encoding="utf-8"?>
<!-- Generator: Adobe Illustrator 21.0.0, SVG Export Plug-In . SVG Version: 6.00 Build 0)  -->
<svg version="1.1" id="圖層_1" xmlns="http://www.w3.org/2000/svg" xmlns:xlink="http://www.w3.org/1999/xlink" x="0px" y="0px"
	 viewBox="0 0 30 30" style="enable-background:new 0 0 30 30;" xml:space="preserve">
<style type="text/css">
	.st0{fill:#FFFFFF;}
</style>
<g>
	<path class="st0" d="M15,0.6C7.1,0.6,0.6,7.1,0.6,15S7.1,29.4,15,29.4S29.4,22.9,29.4,15S22.9,0.6,15,0.6z M15,28.4
		c-7.4,0-13.4-6-13.4-13.4c0-7.4,6-13.4,13.4-13.4s13.4,6,13.4,13.4C28.4,22.4,22.4,28.4,15,28.4z"/>
	<g>
		<path class="st0" d="M23.1,19.5c0,0.2-0.2,0.4-0.4,0.4H7.3c-0.2,0-0.4-0.2-0.4-0.4v-0.6H5.9v0.6c0,0.7,0.6,1.3,1.3,1.3h15.5
			c0.7,0,1.3-0.6,1.3-1.3v-0.6h-0.9V19.5z"/>
		<path class="st0" d="M11,10.5c-0.3,0-0.5,0.3-0.5,0.6v5.5c0,0.3,0.2,0.6,0.5,0.6h8c0.3,0,0.5-0.3,0.5-0.6v-5.5
			c0-0.3-0.2-0.6-0.5-0.6H11z"/>
		<path class="st0" d="M9,9.5c0-0.2,0.1-0.3,0.3-0.3h11.3c0.2,0,0.3,0.1,0.3,0.3v8.3h0.9V9.5c0-0.7-0.6-1.2-1.2-1.2H9.3
			c-0.7,0-1.2,0.6-1.2,1.2v8.3H9V9.5z"/>
	</g>
</g>
</svg>
