<?xml version="1.0" encoding="utf-8"?>
<!-- Generator: Adobe Illustrator 21.0.0, SVG Export Plug-In . SVG Version: 6.00 Build 0)  -->
<svg version="1.1" id="圖層_1" xmlns="http://www.w3.org/2000/svg" xmlns:xlink="http://www.w3.org/1999/xlink" x="0px" y="0px"
	 viewBox="0 0 74 42" style="enable-background:new 0 0 74 42;" xml:space="preserve">
<style type="text/css">
	.st0{fill:#FFFFFF;}
	.st1{fill:none;stroke:#FFFFFF;stroke-miterlimit:10;}
	.st2{fill:#FFFFFF;stroke:#FFFFFF;stroke-miterlimit:10;}
	.st3{fill:#1A1A1A;}
	.st4{fill:#856E40;}
	.st5{fill:none;stroke:#333333;stroke-miterlimit:10;}
	.st6{fill:#333333;}
</style>
<path class="st0" d="M74,5.9V0.5h-5.4v2.1H39.8V0.5h-5.4v2.1H5.5V0.5H0v5.4h5.4V3.6h25.2C17.5,6.5,7.5,18.2,7.2,32.1H4.9v5.4h5.4
	v-5.4H8.2C8.6,17.4,20,5.4,34.4,4.1v1.9h0.9L27,23.7l4.3,8.7h-0.3v9.2H43v-9.2h-0.2l4.4-8.6L39,5.9h0.8V4.1
	c14.4,1.4,25.7,13.4,26.1,28h-2.2v5.4h5.4v-5.4h-2.2c-0.3-14-10.3-25.6-23.5-28.5h25.1v2.3H74z M9.3,36.6H5.9v-3.4h3.4V36.6z
	 M42,40.5h-9.9v-7.2H42V40.5z M68.1,36.6h-3.4v-3.4h3.4V36.6z M37.8,21.2c0.5,0.3,0.8,0.7,0.8,1.3c0,0.8-0.7,1.5-1.5,1.5
	c-0.8,0-1.5-0.7-1.5-1.5c0-0.6,0.4-1.1,0.9-1.4V5.9h1.3L37.8,21.2z"/>
</svg>
