<?xml version="1.0" encoding="utf-8"?>
<!-- Generator: Adobe Illustrator 21.0.0, SVG Export Plug-In . SVG Version: 6.00 Build 0)  -->
<svg version="1.1" id="圖層_1" xmlns="http://www.w3.org/2000/svg" xmlns:xlink="http://www.w3.org/1999/xlink" x="0px" y="0px"
	 viewBox="0 0 30 30" style="enable-background:new 0 0 30 30;" xml:space="preserve">
<style type="text/css">
	.st0{fill:#FFFFFF;}
</style>
<g>
	<g>
		<path class="st0" d="M10.4,9L7.2,19.5h1.7l0.9-3.1H13l0.9,3.1h1.9L12.6,9H10.4z M10.1,15.1l0.6-2.2c0.2-0.7,0.4-1.6,0.7-2.6h0.1
			c0.3,1.4,0.5,2.3,0.6,2.6l0.6,2.1H10.1z"/>
		<path class="st0" d="M20.1,11.2c-0.3,0-0.6,0-0.9,0.1c-0.3,0.1-0.6,0.2-0.9,0.4c-0.3,0.2-0.6,0.4-0.8,0.7
			c-0.2,0.3-0.4,0.7-0.5,1.2c-0.1,0.5-0.2,1.1-0.2,1.8c0,2.8,1.2,4.2,3.6,4.2c0.8,0,1.6-0.1,2.4-0.5v-0.3c-0.7,0.3-1.5,0.5-2.4,0.5
			c-2.2,0-3.3-1.3-3.3-3.9h6.2v-0.2C23.2,12.6,22.2,11.2,20.1,11.2z M17.1,15.1c0.1-2.4,1.1-3.5,3.1-3.5c1.8,0,2.7,1.2,2.8,3.5H17.1
			z"/>
	</g>
	<path class="st0" d="M15,0.6C7.1,0.6,0.6,7.1,0.6,15c0,7.9,6.4,14.4,14.4,14.4S29.4,22.9,29.4,15C29.4,7.1,22.9,0.6,15,0.6z
		 M15,28.4c-7.4,0-13.4-6-13.4-13.4S7.6,1.6,15,1.6s13.4,6,13.4,13.4S22.4,28.4,15,28.4z"/>
</g>
</svg>
