<?xml version="1.0" encoding="utf-8"?>
<!-- Generator: Adobe Illustrator 21.0.0, SVG Export Plug-In . SVG Version: 6.00 Build 0)  -->
<svg version="1.1" id="圖層_1" xmlns="http://www.w3.org/2000/svg" xmlns:xlink="http://www.w3.org/1999/xlink" x="0px" y="0px"
	 viewBox="0 0 30 30" style="enable-background:new 0 0 30 30;" xml:space="preserve">
<style type="text/css">
	.st0{fill:#FFFFFF;}
</style>
<g>
	<g>
		<path class="st0" d="M10.6,9.2c-0.3,0-0.6,0.2-0.6,0.6c0,0.3,0.2,0.5,0.6,0.5c0.3,0,0.6-0.2,0.6-0.5C11.1,9.4,10.9,9.2,10.6,9.2z"
			/>
		<path class="st0" d="M10.2,18.9c0,0.8-0.1,1.3-0.8,1.3c-0.2,0-0.5-0.1-0.6-0.1l-0.2,0.5c0.2,0.1,0.5,0.2,0.8,0.2
			c1,0,1.5-0.6,1.5-1.9v-7.2h-0.7V18.9z"/>
		<path class="st0" d="M21,18.9c-0.8,0-1.6-0.3-2-0.9c1.7-0.4,2.8-2,2.8-4.4c0-2.8-1.6-4.4-3.9-4.4s-3.9,1.6-3.9,4.4
			c0,2.5,1.2,4.1,3.1,4.4c0.6,1.3,1.8,2.2,3.6,2.2c0.6,0,1.2-0.1,1.4-0.3l-0.3-1.3C21.7,18.8,21.3,18.9,21,18.9z M18,16.7
			c-1.3,0-2.1-1.2-2.1-3.1c0-1.8,0.8-3,2.1-3s2.1,1.1,2.1,3C20.1,15.5,19.3,16.7,18,16.7z"/>
	</g>
	<path class="st0" d="M15,0.6C7.1,0.6,0.6,7.1,0.6,15c0,7.9,6.4,14.4,14.4,14.4S29.4,22.9,29.4,15C29.4,7.1,22.9,0.6,15,0.6z
		 M15,28.4c-7.4,0-13.4-6-13.4-13.4S7.6,1.6,15,1.6s13.4,6,13.4,13.4S22.4,28.4,15,28.4z"/>
</g>
</svg>
