<?xml version="1.0" encoding="utf-8"?>
<!-- Generator: Adobe Illustrator 21.0.0, SVG Export Plug-In . SVG Version: 6.00 Build 0)  -->
<svg version="1.1" id="圖層_1" xmlns="http://www.w3.org/2000/svg" xmlns:xlink="http://www.w3.org/1999/xlink" x="0px" y="0px"
	 viewBox="0 0 30 30" style="enable-background:new 0 0 30 30;" xml:space="preserve">
<style type="text/css">
	.st0{fill:#FFFFFF;}
</style>
<g>
	<g>
		<polygon class="st0" points="20.2,10.8 23.5,15 20.2,19.2 20.9,19.8 24.6,15 20.9,10.2 		"/>
		<polygon class="st0" points="9.1,10.2 5.4,15 9.1,19.8 9.8,19.2 6.5,15 9.8,10.8 		"/>
		<polygon class="st0" points="12.5,19.4 14.1,19.5 17.5,10.6 15.9,10.5 		"/>
	</g>
	<path class="st0" d="M15,0.6C7.1,0.6,0.6,7.1,0.6,15c0,7.9,6.4,14.4,14.4,14.4S29.4,22.9,29.4,15C29.4,7.1,22.9,0.6,15,0.6z
		 M15,28.4c-7.4,0-13.4-6-13.4-13.4S7.6,1.6,15,1.6s13.4,6,13.4,13.4S22.4,28.4,15,28.4z"/>
</g>
</svg>
