<?xml version="1.0" encoding="utf-8"?>
<!-- Generator: Adobe Illustrator 21.0.0, SVG Export Plug-In . SVG Version: 6.00 Build 0)  -->
<svg version="1.1" id="圖層_1" xmlns="http://www.w3.org/2000/svg" xmlns:xlink="http://www.w3.org/1999/xlink" x="0px" y="0px"
	 viewBox="0 0 60 60" style="enable-background:new 0 0 60 60;" xml:space="preserve">
<style type="text/css">
	.st0{fill:#FFFFFF;}
</style>
<g>
	<path class="st0" d="M59,21.7L30.7,8.9c-0.5-0.2-1-0.2-1.5,0L1,21.7c-0.6,0.3-1,0.9-1,1.6c0,0.7,0.4,1.3,1,1.6l28.2,12.8
		c0.2,0.1,0.5,0.2,0.7,0.2s0.5-0.1,0.7-0.2L59,24.9c0.6-0.3,1-0.9,1-1.6C60,22.6,59.6,22,59,21.7z M58.4,23.8L30.2,36.5
		c-0.1,0.1-0.3,0.1-0.4,0L1.6,23.8c-0.3-0.1-0.3-0.4-0.3-0.5c0-0.1,0-0.3,0.3-0.5l28.2-12.8c0.1-0.1,0.3-0.1,0.4,0l28.2,12.8
		c0.3,0.1,0.3,0.4,0.3,0.5C58.7,23.4,58.7,23.6,58.4,23.8z"/>
	<path class="st0" d="M49.4,32.7c-0.3,0-0.6,0.3-0.6,0.6v8.2c0,0.1,0,0.2-0.1,0.3C44,47.9,33.9,50,30,50c-3.9,0-14-2-18.7-8.1
		c-0.1-0.1-0.1-0.2-0.1-0.3v-8.2c0-0.3-0.3-0.6-0.6-0.6c-0.3,0-0.6,0.3-0.6,0.6v8.2c0,0.4,0.1,0.8,0.4,1.1c5,6.5,15.4,8.6,19.7,8.6
		c0,0,0,0,0,0c0,0,0,0,0,0c0,0,0,0,0,0c4.3,0,14.7-2.1,19.7-8.6c0.2-0.3,0.4-0.7,0.4-1.1v-8.2C50,33,49.8,32.7,49.4,32.7z"/>
</g>
</svg>
