<?xml version="1.0" encoding="utf-8"?>
<!-- Generator: Adobe Illustrator 21.0.0, SVG Export Plug-In . SVG Version: 6.00 Build 0)  -->
<svg version="1.1" id="圖層_1" xmlns="http://www.w3.org/2000/svg" xmlns:xlink="http://www.w3.org/1999/xlink" x="0px" y="0px"
	 viewBox="0 0 60 60" style="enable-background:new 0 0 60 60;" xml:space="preserve">
<style type="text/css">
	.st0{fill:#FFFFFF;}
</style>
<g>
	<path class="st0" d="M2.7,26.1h54.6c1,0,1.9-0.6,2.2-1.6c0.3-1,0-2-0.8-2.6L31.4,1.5c-0.8-0.6-2-0.6-2.8,0L1.3,21.9
		c-0.8,0.6-1.2,1.6-0.8,2.6C0.8,25.5,1.7,26.1,2.7,26.1z M2.2,23.1L29.5,2.8h0c0.3-0.2,0.7-0.2,0.9,0l27.3,20.3
		c0.4,0.3,0.3,0.8,0.3,0.9c0,0.1-0.2,0.5-0.7,0.5H2.7C2.2,24.5,2,24.1,2,24C1.9,23.9,1.8,23.4,2.2,23.1z"/>
	<path class="st0" d="M7.7,30H2.4C1.1,30,0,31,0,32.3v24.3c0,1.3,1.1,2.4,2.4,2.4h5.3c1.3,0,2.4-1.1,2.4-2.4V32.3C10,31,9,30,7.7,30
		z M8.5,56.6c0,0.4-0.4,0.8-0.8,0.8H2.4c-0.4,0-0.8-0.4-0.8-0.8V32.3c0-0.4,0.4-0.8,0.8-0.8h5.3c0.4,0,0.8,0.4,0.8,0.8V56.6z"/>
	<path class="st0" d="M57.6,30h-5.3C51,30,50,31,50,32.3v24.3c0,1.3,1.1,2.4,2.4,2.4h5.3c1.3,0,2.4-1.1,2.4-2.4V32.3
		C60,31,58.9,30,57.6,30z M58.4,56.6c0,0.4-0.4,0.8-0.8,0.8h-5.3c-0.4,0-0.8-0.4-0.8-0.8V32.3c0-0.4,0.4-0.8,0.8-0.8h5.3
		c0.4,0,0.8,0.4,0.8,0.8V56.6z"/>
	<path class="st0" d="M30,20.6c2.6,0,4.7-2.1,4.7-4.7s-2.1-4.7-4.7-4.7s-4.7,2.1-4.7,4.7S27.4,20.6,30,20.6z M30,12.7
		c1.7,0,3.2,1.4,3.2,3.2c0,1.7-1.4,3.2-3.2,3.2s-3.2-1.4-3.2-3.2C26.8,14.1,28.3,12.7,30,12.7z"/>
	<path class="st0" d="M30.2,34.3c-0.1,0.1-0.3,0.1-0.4,0c-2.7-1.9-8.6-2.7-12.1,0.2C17.2,34.9,17,35.4,17,36v17.7
		c0,0.7,0.4,1.3,1,1.7c0.6,0.3,1.4,0.3,2-0.1c4.1-2.7,7.8-0.1,8.8,0.7c0.4,0.3,0.8,0.4,1.2,0.4s0.9-0.1,1.2-0.4v0
		c1-0.8,4.7-3.4,8.8-0.7c0.6,0.4,1.3,0.4,2,0.1c0.6-0.3,1-1,1-1.7V36c0-0.6-0.3-1.1-0.7-1.5C38.8,31.6,32.9,32.4,30.2,34.3z
		 M41.4,53.7c0,0.2-0.1,0.3-0.2,0.3c-0.1,0-0.2,0.1-0.4,0c-4-2.6-8.1-1.3-10.7,0.8v0c-0.1,0.1-0.3,0.1-0.5,0c-1.5-1.3-3.7-2.3-6-2.3
		c-1.5,0-3.1,0.4-4.7,1.4c-0.1,0.1-0.3,0-0.4,0c-0.1,0-0.2-0.1-0.2-0.3V36c0-0.1,0-0.2,0.1-0.3c2.9-2.4,8-1.7,10.2-0.1
		c0.1,0.1,0.2,0.1,0.3,0.2v8.8c0,0.4,0.4,0.8,0.8,0.8s0.8-0.4,0.8-0.8v-8.8c0.1,0,0.2-0.1,0.3-0.2c2.2-1.6,7.3-2.3,10.2,0.1
		c0.1,0.1,0.1,0.2,0.1,0.3V53.7z"/>
</g>
</svg>
