<?xml version="1.0" encoding="utf-8"?>
<!-- Generator: Adobe Illustrator 21.0.0, SVG Export Plug-In . SVG Version: 6.00 Build 0)  -->
<svg version="1.1" id="圖層_1" xmlns="http://www.w3.org/2000/svg" xmlns:xlink="http://www.w3.org/1999/xlink" x="0px" y="0px"
	 viewBox="0 0 60 60" style="enable-background:new 0 0 60 60;" xml:space="preserve">
<style type="text/css">
	.st0{fill:#FFFFFF;}
</style>
<g>
	<path class="st0" d="M50.9,11.6H42v-0.7C42,6.5,38.5,3,34.2,3h-8.6c-4.3,0-7.8,3.5-7.8,7.8v0.7H9.1c-5,0-9.1,4.1-9.1,9.1v27.3
		c0,5,4.1,9.1,9.1,9.1h41.9c5,0,9.1-4.1,9.1-9.1V20.6C60,15.6,55.9,11.6,50.9,11.6z M19.5,10.9c0-3.4,2.8-6.2,6.2-6.2h8.6
		c3.4,0,6.2,2.8,6.2,6.2v0.7H19.5V10.9z M9.1,13.2h41.9c4.1,0,7.4,3.3,7.4,7.4v16c-8.4,3.3-18.3,5-28.5,5c-10.1,0-19.9-1.7-28.2-4.9
		V20.6C1.6,16.6,5,13.2,9.1,13.2z M50.9,55.3H9.1c-4.1,0-7.4-3.3-7.4-7.4v-9.4c8.4,3.1,18.1,4.8,28.2,4.8c10.2,0,20-1.7,28.5-4.9
		v9.5C58.4,52,55,55.3,50.9,55.3z"/>
	<path class="st0" d="M29.9,35.8c2.2,0,4.1-1.8,4.1-4.1s-1.8-4.1-4.1-4.1c-2.2,0-4.1,1.8-4.1,4.1S27.6,35.8,29.9,35.8z M29.9,29.4
		c1.3,0,2.4,1.1,2.4,2.4s-1.1,2.4-2.4,2.4c-1.3,0-2.4-1.1-2.4-2.4S28.5,29.4,29.9,29.4z"/>
</g>
</svg>
