<?xml version="1.0" encoding="utf-8"?>
<!-- Generator: Adobe Illustrator 21.0.0, SVG Export Plug-In . SVG Version: 6.00 Build 0)  -->
<svg version="1.1" id="圖層_1" xmlns="http://www.w3.org/2000/svg" xmlns:xlink="http://www.w3.org/1999/xlink" x="0px" y="0px"
	 viewBox="0 0 30 30" style="enable-background:new 0 0 30 30;" xml:space="preserve">
<style type="text/css">
	.st0{fill:#FFFFFF;}
</style>
<g>
	<path class="st0" d="M0,15.9c0-0.6,0-1.1,0-1.7c0-0.1,0-0.2,0-0.2c0.2-2.1,0.7-4.2,1.7-6C2.6,6.4,3.7,5,5,3.9
		c2.2-2,4.8-3.2,7.7-3.7c0.5-0.1,0.9-0.1,1.4-0.2c0.6,0,1.2,0,1.8,0C16,0,16,0,16.1,0c0.8,0.1,1.5,0.2,2.3,0.4
		c2,0.4,3.9,1.3,5.6,2.6c1.3,0.9,2.3,2,3.3,3.3c1.4,2,2.3,4.2,2.7,6.7c0.1,0.4,0.1,0.8,0.1,1.1c0,0.6,0,1.2,0,1.8c0,0.1,0,0.2,0,0.3
		c-0.1,1.6-0.5,3.1-1.1,4.6c-1.1,2.6-2.8,4.7-5.1,6.4c-2,1.5-4.3,2.4-6.8,2.7c-0.4,0-0.7,0.1-1.1,0.1c-0.6,0-1.1,0-1.7,0
		c-0.1,0-0.1,0-0.2,0c-1.7-0.1-3.4-0.5-5-1.2C7.4,28,6,27.1,4.7,25.8c-1.3-1.3-2.4-2.7-3.2-4.4C0.8,20,0.3,18.5,0.1,17
		C0.1,16.6,0,16.3,0,15.9z M13.9,17.3C13.9,17.3,13.8,17.3,13.9,17.3c-0.6-0.4-1-0.9-1.5-1.3c0,0-0.1-0.1-0.1-0.2c0-0.4,0-0.8,0-1.1
		c0-0.1-0.1-0.2-0.1-0.3c-0.3-0.3-0.6-0.5-0.9-0.8c-0.1-0.1-0.2-0.1-0.2-0.1c-0.2,0-0.5-0.1-0.7-0.1c-0.2,0-0.5,0.1-0.6,0.2
		c-0.2,0.2-0.3,0.6-0.3,0.8c-0.1,0.3-0.1,0.6-0.1,0.8c0,0.2-0.1,0.3-0.2,0.5C9,16,8.8,16,8.6,15.8c-0.1-0.2-0.2-0.4-0.4-0.6
		c-0.3-0.5-0.6-0.9-0.5-1.5c0.1-0.3-0.2-0.6-0.5-0.6c-0.8-0.1-1.7-0.2-2.5-0.3c-0.3-0.1-0.6-0.2-0.9-0.4c-0.1-0.1-0.1-0.3-0.1-0.4
		c0,0,0,0,0,0c-0.3,0-0.3,0-0.3,0.3c0,0.1,0,0.2,0,0.2c0,0.1,0.1,0.2,0.1,0.2c0.3,0.2,0.6,0.3,0.9,0.4c0.3,0.1,0.6,0.2,0.9,0.3
		c0.1,0,0.2,0.1,0.2,0.1c0,0.1,0,0.2-0.1,0.3c-0.5,0.4-1,0.7-1.6,1.1c-0.3,0.2-0.8,0.2-1-0.1c-0.1-0.1-0.1-0.3-0.1-0.4
		c0-0.3-0.2-0.4-0.4-0.6c0,0.5-0.1,0.9,0.1,1.3c0.2,0.3,0.4,0.4,0.7,0.3c0.3-0.1,0.6-0.1,0.9-0.2c0.1,0,0.3,0,0.5,0
		c-0.1,0.2-0.2,0.3-0.3,0.4c-0.5,0.7-0.9,1.5-1.6,2.1c0,0-0.1,0.1-0.1,0.2c0.3,1.4,0.8,2.6,1.6,3.8C5,23,6,24.1,7.2,25.1
		c0.8,0.6,1.6,1.1,2.5,1.5c1.5,0.7,3,1,4.7,1.1c1.8,0.1,3.6-0.2,5.3-0.9c2.1-0.9,3.9-2.2,5.3-4c1.3-1.6,2.1-3.4,2.5-5.4
		c0.4-1.8,0.3-3.6-0.1-5.4c-0.7-2.9-2.3-5.3-4.7-7.2c-1.8-1.4-3.9-2.2-6.2-2.5c-2.7-0.3-5.2,0.2-7.6,1.5C8.7,4,8.5,4.1,8.3,4.2
		c0,0,0,0,0,0.1c0.3-0.1,0.6,0.1,0.8,0.2c0.3,0.2,0.7,0.3,1.1,0.3c0.3,0,0.6,0,0.9,0c0.3,0,0.5,0.1,0.8,0.2c0.4,0.4,0.5,0.3,0.9-0.1
		c0.1-0.1,0.2-0.2,0.2-0.2c0.5,0,1,0,1.5,0.3c0.1,0.1,0.3,0.1,0.4,0.1c1.4,0.1,2.9,0.2,4.3,0.2c0.6,0,1.1,0.4,1.6,0.6
		c-0.4,0.2-0.8,0-1.1,0c-0.1,0.2,0.2,0.2,0.2,0.4c-0.1,0-0.3,0.1-0.4,0.1c0,0.2-0.1,0.3-0.3,0.3c-0.2,0-0.4,0-0.6,0
		c0.1,0.2,0.3,0.3,0.4,0.5c0.2,0.2,0.3,0.3,0.3,0.6c0,0.1,0,0.2-0.1,0.3c-0.1,0.1-0.2,0.1-0.4,0c-0.2-0.2-0.4-0.4-0.7-0.6
		C18,7.5,18,7.3,18.1,7.1c0-0.1,0.1-0.2,0.1-0.3c0.1-0.1,0.1-0.2,0-0.3c-0.1,0-0.2,0-0.2,0c-0.2,0.1-0.5,0.3-0.7,0.5
		c-0.2,0.1-0.4,0.2-0.6,0.1c-0.3,0-0.6,0-0.9-0.3c-0.1,0.1-0.2,0.2-0.3,0.4c-0.2,0.3-0.1,0.5,0.3,0.6c0.3,0,0.6,0.1,0.9,0.1
		c0.1,0,0.2,0,0.2,0.1c0.2,0.2,0.3,0.4,0.5,0.5c0,0.1-0.1,0.1-0.2,0.2c-0.1-0.1-0.2-0.3-0.4-0.4c-0.2,0.1-0.2,0.2-0.1,0.4
		C16.9,8.7,16.9,8.9,17,9c0,0.2,0,0.4,0,0.6c0,0.1-0.1,0.1-0.1,0.1c-0.2,0-0.4,0-0.6,0c-0.1,0-0.1,0.1-0.2,0.1
		c-0.1,0.4-0.1,0.5,0.3,0.7c0.1,0,0.1,0.1,0.2,0.1c0.1,0.1,0.2,0.2,0.4,0.4c-0.2,0.1-0.4,0.1-0.6,0c-0.3-0.3-0.7-0.5-1-0.8
		c-0.1-0.1-0.5-0.1-0.5,0c0,0.3-0.1,0.7,0.2,1c0.1,0.1,0.2,0.2,0.3,0.3c0.3,0.2,0.4,0.5,0.4,0.9c0,0.2,0,0.2-0.1,0.4
		c-0.2,0.2-0.5,0.3-0.7,0.4c-0.2,0.1-0.4,0.2-0.7,0.2c0,0.1,0.1,0.2,0.1,0.3c0,0.1-0.1,0.2-0.1,0.2c0,0-0.1,0-0.1,0
		c-0.1-0.2-0.1-0.4-0.2-0.6c-0.1,0-0.2-0.1-0.3,0c-0.2,0.1-0.3,0.7,0,0.9c0.2,0.2,0.4,0.3,0.6,0.5c0.1,0.1,0.2,0.5,0.1,0.6
		c-0.3,0.4-0.7,0.4-1,0c-0.1-0.1-0.3-0.3-0.4-0.4c-0.2,0.3-0.1,0.5,0.1,0.8c0.3,0.4,0.6,0.8,0.9,1.3C13.9,17.1,13.9,17.2,13.9,17.3z
		 M3.2,10.6C3.3,10.7,3.3,10.7,3.2,10.6c0.2,0.1,0.3,0.1,0.4,0.1c0.1,0,0.2,0.1,0.3,0.1c0.3,0.1,0.5-0.1,0.4-0.3
		C4.2,10.4,4.1,10.2,4,10C3.9,9.8,3.7,9.8,3.5,9.6c-0.1,0.2-0.2,0.3,0,0.4c0.1,0.1,0.1,0.2,0,0.3C3.4,10.5,3.3,10.6,3.2,10.6z
		 M3.6,9.3C3.7,9.3,3.7,9.3,3.6,9.3c0.1,0.1,0.2,0.1,0.3,0c0-0.1-0.1-0.1-0.1-0.2C3.8,9.1,3.7,9.2,3.6,9.3z"/>
	<path class="st0" d="M14.5,23.7c-0.1-0.2,0-0.3,0.1-0.5c0.1-0.1,0.2-0.2,0.2-0.4c0-0.4,0-0.9,0-1.3c0-0.1,0.1-0.2,0.2-0.3
		c0.2-0.2,0.5-0.3,0.8-0.3c0.1,0,0.2,0,0.2-0.1c0.2-0.2,0.4-0.4,0.6-0.7c0.2-0.3,0.5-0.4,0.9-0.4c0,0.1,0.1,0.1,0.1,0.2
		c0.1-0.1,0.2-0.1,0.2-0.2c0,0,0-0.1,0.1-0.1c0.2-0.2,0.2-0.5,0.6-0.5c0.3,0,0.6,0,0.8,0.2c0.1,0.1,0.2,0.1,0.3,0.2
		c-0.1,0.2-0.3,0.4-0.6,0.2c-0.1,0.5,0,0.6,0.3,0.6c0.5,0.1,0.5,0.1,0.5-0.4c0-0.2,0.1-0.5,0.1-0.7c0.2-0.1,0.3,0,0.5,0.2
		c0.3,0.3,0.3,0.7,0.3,1.1c0,0.2,0.1,0.3,0.2,0.4c0.3,0.2,0.5,0.5,0.5,0.9c0,0.1,0,0.1,0,0.2c-0.2,0.5-0.5,0.9-0.9,1.3
		c-0.3,0.2-0.5,0.5-0.8,0.7c-0.1,0.1-0.2,0.1-0.2,0.1c-0.4,0-0.8,0-1.3,0c-0.1,0-0.2-0.1-0.3-0.2c-0.1-0.3-0.2-0.5-0.3-0.8
		c0-0.1-0.1-0.2-0.3-0.2c-0.3,0-0.7,0-1,0c-0.2,0-0.4,0.1-0.6,0.2C15.3,23.4,14.9,23.6,14.5,23.7z"/>
	<path class="st0" d="M16,16.8c0.1,0.4-0.1,0.6-0.3,0.9c-0.2,0.3-0.4,0.3-0.7,0.3c-0.4,0-0.6-0.1-0.8-0.4c-0.1-0.1,0-0.3-0.1-0.4
		c0-0.2,0.1-0.3,0.2-0.3c0.3-0.1,0.5-0.3,0.8-0.4c0.1-0.1,0.2-0.2,0.3-0.4c0,0,0.1-0.1,0.1-0.1c0,0,0.1,0.1,0.1,0.1
		C16,16.3,16.1,16.6,16,16.8z"/>
	<path class="st0" d="M19.3,19c0-0.1,0-0.2,0-0.3c0,0,0.1,0,0.1,0c0,0,0.1-0.1,0.1-0.1c0-0.1,0-0.1-0.1-0.2
		c-0.2-0.1-0.5-0.2-0.7-0.2c-0.3,0-0.4-0.2-0.6-0.5c0.1-0.1,0.3-0.2,0.4-0.3c0.1,0,0.2-0.1,0.2-0.1c0.1,0.1,0.3,0.1,0.2,0.3
		c0,0.1,0,0.1,0,0.3c0.2-0.1,0.4-0.1,0.5-0.1c0.2-0.1,0.3-0.1,0.4,0c0.3,0.2,0.7,0.3,1,0.5c0.1,0,0.1,0.1,0.2,0.2c0,0.1,0,0.2,0,0.3
		c0,0.2,0,0.4,0.3,0.3c0,0.1,0,0.1,0,0.2c0,0,0,0,0,0c-0.5,0.1-0.5,0.1-0.5-0.4c0,0,0-0.1,0-0.2c-0.1,0-0.3,0-0.4,0.1
		C20.1,19,19.9,19,19.6,19C19.5,19,19.4,19,19.3,19z"/>
	<path class="st0" d="M12.1,16.2c0.3,0.3,0.7,0.6,1,0.9c0,0,0,0.1,0.1,0.2c0.1,0.2,0.2,0.4,0.4,0.4c0.2,0,0.4,0,0.6,0
		c0,0.1,0,0.2,0,0.4c-0.1,0-0.3,0-0.4,0.1c0,0.1,0,0.2,0,0.4c0.5,0,1-0.1,1.3,0.3c-0.3,0-0.5,0-0.8,0c-0.3,0-0.6,0-0.9,0
		c-0.2,0-0.2,0-0.2-0.2c0.1,0,0.2,0,0.3,0c-0.2-0.2-0.3-0.3-0.5-0.5c-0.4-0.5-0.8-1-1.3-1.5C12,16.4,12.1,16.3,12.1,16.2z"/>
	<path class="st0" d="M23.3,23.1c0,0.2,0,0.3,0,0.4c0,0,0,0,0,0c0.1,0.1,0.2,0.2,0.4,0.3c-0.1,0.1-0.2,0.1-0.2,0.2
		c-0.7,0.4-1.4,0.8-2.1,1.2c-0.3,0.2-0.5,0.2-0.8,0.2c-0.1-0.1,0-0.2,0.1-0.3c0.4-0.3,0.7-0.6,1.1-0.8c0.2-0.1,0.4-0.1,0.6-0.1
		c0.3,0,0.5-0.2,0.6-0.6c0-0.1,0-0.1,0-0.2C22.9,23.1,22.9,23.1,23.3,23.1z"/>
	<path class="st0" d="M16.3,18.4c-0.1,0-0.2,0-0.2,0c-0.1-0.7-0.1-0.9,0.7-1.1c0,0.3,0,0.6,0,0.9c0,0.1-0.1,0.1-0.2,0.2
		c-0.1-0.2,0-0.4-0.3-0.4C16.3,18.2,16.3,18.3,16.3,18.4z"/>
	<path class="st0" d="M18.3,25.1c0.2-0.2,0.3-0.4,0.4-0.5c0.1-0.1,0.3,0,0.5,0c0,0,0.1,0.1,0.1,0.1c0,0.2-0.1,0.2-0.2,0.3
		C18.8,25.2,18.6,25.1,18.3,25.1z"/>
	<path class="st0" d="M9.2,16.4c-0.1-0.2-0.2-0.4,0-0.6c0.1-0.1,0.3-0.2,0.4-0.1c0,0,0.1,0.1,0.1,0.1C9.7,16.2,9.7,16.2,9.2,16.4z"
		/>
	<path class="st0" d="M17.4,18.9c-0.1,0-0.1,0.1-0.2,0.1c-0.1,0.1-0.2,0.1-0.3,0.2c0,0-0.1,0-0.2-0.1c0,0,0.1-0.1,0.1-0.1
		c0.1-0.1,0.2-0.1,0.3-0.1c0.1,0,0.2,0,0.2,0C17.3,18.8,17.3,18.8,17.4,18.9z"/>
	<path class="st0" d="M16.6,18.8c-0.1,0.2-0.3,0.3-0.5,0.3C16.1,18.8,16.3,18.7,16.6,18.8z"/>
</g>
</svg>
