<?xml version="1.0" encoding="utf-8"?>
<!-- Generator: Adobe Illustrator 21.0.0, SVG Export Plug-In . SVG Version: 6.00 Build 0)  -->
<svg version="1.1" id="圖層_1" xmlns="http://www.w3.org/2000/svg" xmlns:xlink="http://www.w3.org/1999/xlink" x="0px" y="0px"
	 viewBox="0 0 34 38" style="enable-background:new 0 0 34 38;" xml:space="preserve">
<style type="text/css">
	.st0{fill:#FAC82D;}
	.st1{fill:#F9B400;}
	.st2{fill:#5E8AB4;}
	.st3{fill:#3C71A4;}
</style>
<g>
	<path class="st0" d="M31.1,5C31.1,5,31.1,5,31.1,5c-0.1-0.8-2-5-3.8-5C22.7-0.1,16.8,7.9,18,9.6C19.8,12.1,30.6,7.8,31.1,5z"/>
	<ellipse transform="matrix(0.9046 -0.4262 0.4262 0.9046 -0.879 11.2359)" class="st1" cx="24.7" cy="7.6" rx="6.1" ry="0.9"/>
	<path class="st0" d="M2.7,5C2.7,5,2.7,5,2.7,5c0.1-0.8,2-5,3.8-5c4.6-0.1,10.5,7.9,9.3,9.6C14,12.1,3.2,7.8,2.7,5z"/>
	<ellipse transform="matrix(0.4262 -0.9046 0.9046 0.4262 -1.6027 12.6379)" class="st1" cx="9.2" cy="7.6" rx="0.9" ry="6.1"/>
	<path class="st1" d="M19.7,10.4V8.9c0-1.6-1.3-2.3-2.8-2.3l0,0c-1.6,0-2.8,0.8-2.8,2.3v1.4H19.7z"/>
	<path class="st2" d="M29,37.6H4.8c-1.1,0-2-0.9-2-2V16.9H31v18.7C31,36.7,30.1,37.6,29,37.6z"/>
	<path class="st2" d="M31.9,16.9H1.9c-1,0-1.9-0.8-1.9-1.9v-3.8c0-1,0.8-1.9,1.9-1.9h30.1c1,0,1.9,0.8,1.9,1.9v3.8
		C33.8,16.1,33,16.9,31.9,16.9z"/>
	<rect x="2.8" y="16.9" class="st3" width="28.2" height="1.9"/>
	<rect x="13.2" y="9.4" class="st0" width="7.5" height="28.2"/>
	<rect x="13.2" y="16.9" class="st1" width="7.5" height="1.9"/>
</g>
</svg>
