<?xml version="1.0" encoding="utf-8"?>
<!-- Generator: Adobe Illustrator 21.0.0, SVG Export Plug-In . SVG Version: 6.00 Build 0)  -->
<svg version="1.1" id="圖層_1" xmlns="http://www.w3.org/2000/svg" xmlns:xlink="http://www.w3.org/1999/xlink" x="0px" y="0px"
	 viewBox="0 0 30 31" style="enable-background:new 0 0 30 31;" xml:space="preserve">
<style type="text/css">
	.st0{fill:#FFFFFF;}
</style>
<g>
	<path class="st0" d="M24.2,5.7c-1.3,0.3-2.7,0.3-3.9-0.2c-2.1-0.7-3.8-2.2-5.9-3c-1.2-0.5-2.6-0.6-3.9-0.4C8.6,2.5,6.9,3.4,5.3,4.5
		c0,5.6,0,11.2,0,16.8c1.6-1.1,3.4-2,5.4-2.3c1.4-0.2,2.9,0,4.2,0.6c1.8,0.7,3.3,1.9,5.1,2.7c1.2,0.5,2.6,0.7,4,0.4
		c2.3-0.5,4.3-1.9,6.1-3.4c0-5.6,0-11.2,0-16.8C28.3,3.8,26.4,5.2,24.2,5.7z M13.3,15.2h-1.2l-2.3-3.7v3.7H8.7V9.5h1.1l2.3,3.8V9.5
		h1.1V15.2z M18.8,15.2h-4.4V9.5h4.2v1h-3.1v1.3h2.9v1h-2.9v1.6h3.2V15.2z M25.4,15.2h-1.2L23,10.9l-1.1,4.3h-1.3l-1.4-5.7h1.2
		l0.9,3.9l1-3.9h1.4l1,4l0.9-4h1.2L25.4,15.2z"/>
	<path class="st0" d="M4.5,2.3C4.5,1,3.5,0,2.3,0C1,0,0,1,0,2.3C0,3,0.4,3.7,1,4.1v22.8c-0.6,0.4-1,1.1-1,1.9C0,30,1,31,2.3,31
		c1.2,0,2.3-1,2.3-2.3c0-0.8-0.4-1.4-1-1.9V4.1C4.1,3.7,4.5,3,4.5,2.3z"/>
</g>
</svg>
