<?xml version="1.0" encoding="utf-8"?>
<!-- Generator: Adobe Illustrator 21.0.0, SVG Export Plug-In . SVG Version: 6.00 Build 0)  -->
<svg version="1.1" id="圖層_1" xmlns="http://www.w3.org/2000/svg" xmlns:xlink="http://www.w3.org/1999/xlink" x="0px" y="0px"
	 viewBox="0 0 60 48" style="enable-background:new 0 0 60 48;" xml:space="preserve">
<style type="text/css">
	.st0{fill:#FFFFFF;}
</style>
<g>
	<path class="st0" d="M20.8,11.1c-0.2,0.2,0,0.3,0.2,0.2c0,0,0,0,0,0c0.3-0.1,0.6-0.1,0.6-0.4c0-0.3,0.1-0.1,0.2-0.2
		c0.1-0.1-0.1-0.3-0.2-0.3c-0.1,0-0.2,0.1-0.3,0.2c0,0-0.1,0-0.1,0c0,0-0.1,0.1-0.1,0.2c0,0.1,0,0.1,0,0.1
		C21,10.9,20.8,11,20.8,11.1z"/>
	<path class="st0" d="M21.7,11.8c0.2,0.3,1.6-0.4,1.4-0.4c0.4-0.2,0.1-0.3-0.2-0.4c-0.1-0.4-0.2-1.1-0.4-1.4c0-0.1,0.2-0.1,0.2-0.2
		c-0.4-0.6-0.7,0.7-0.7,0.7c-0.1,0.1,0.2-0.1,0.2-0.1c0.1,0.1-0.1,0.2-0.1,0.3c0.2,0.3,0,0.5,0,0.7c0,0.2-0.2,0.1-0.3,0.2
		c-0.1,0.1,0.5,0.2,0.5,0.2C22.4,11.5,21.6,11.6,21.7,11.8z"/>
	<path class="st0" d="M36.9,39.2c-3.5,3-8,4.7-12.9,4.7c-5.7,0-10.8-2.4-14.4-6.2c-0.4-0.5-0.8-1.5,0-2c0.2-0.1,0.6-0.1,0.7-0.2
		c0.6-0.5-0.5-2.4-0.1-2.7c1.3-1,0.7-2.1-0.1-3.1c-0.4-0.4-2.3-2.4-2.5-2c0.2-0.5-0.3-1.9-0.7-2.4C6.3,24.5,5.7,24,5.4,23
		c-0.1-0.4-0.1-1.5-0.3-1.8c-0.1-0.1-0.8-0.4-0.8-0.6c0.7-4,2.5-7.5,5.2-10.4c0.4-0.4,1.6-0.4,1.8-0.7c1.1-1.7,1.2-0.4,2.2-0.8
		c0.3,0,0.7-1.4,1.1-1.6c0.6-0.4,0.1-0.4,0-0.6c-0.2-0.4,5.3-2.4,5.4-2c0.1,0.3-2.7,1.8-2.4,1.7c-0.7,0.1-0.8,1.4-0.7,1.4
		c0.4,0,2.6-1.7,3.6-1.3c1,0.4,2.8-0.8,3.6-1.4c0.4-0.3,0.7-0.8,1.2-0.8c2.2,0,5.4,0.9,6.2,1.3c1.1,0.7-0.5,0.6-0.7,1.1
		c-0.1,0.3-0.5,0.8-0.6,1c-0.2,0.3-1,0.2-0.8-0.2C29.4,6.9,30,6.7,29,6.6c-1.1-0.1-1.4-0.8-2.4,0.1c-0.3,0.3-0.6,0.7-0.8,1
		c-0.3,0.5-1,0.5-1.3,1c-0.3,0.5,0.2,1.2,0.7,0.9c0.1-0.1,1.8,1.5,1.6,0.2c-0.1-0.9,0.5-1.5,0.5-2.1c0-0.4,0.7-0.2,0.5,0.1
		C27.6,8,27.3,9,27.9,9.1c0.3,0,1-0.6,1.1-0.1c-0.1-0.4-0.8,0.8-0.8,0.8c-0.3,0.1-0.6,0-0.4,0.5c0.2,0.5-1,0.5-1.2,0.6
		c-0.1,0-1-0.3-1-0.1c-0.3-0.3,0.1-0.9-0.2-1c-0.3,0.4-0.1,1.2-0.7,1.2c-0.5,0-1.2,0.5-1.4,0.9c-0.2,0.2-1.5,0.7-1.6,0.7
		c0.7,0.1,0.7,0.6,0.6,1.1c-0.1,1-2.4,0.1-2.3,0.5c0.1,0.4-0.3,1.4-0.3,1.7c-0.1,0.3,1,0.5,0.9,0.6c0,0,1.4-0.5,1.5-0.6
		c0.2-0.1,0.1-0.5,0.3-0.7c0.3-0.2,0.5-0.3,0.8-0.4c0.1-0.2,0.2-0.4,0.4-0.6c0.1,0,1.5-0.3,1.6-0.2c0.4,0.2,1,0.8,1.3,1.2
		c0.1,0.1,0.5,0.3,0.5,0.5c0.2,0.3-0.1,0.4,0,0.5c0.2,0.5,0.3-1,0.2-0.7c0-0.5,0.3,0.2,0.4,0.1c0.2-0.1-1.2-1-1.6-1.6
		c-0.5-0.8,1.3,0.4,1.5,0.6c0.2,0.2,0.7,1.5,1.3,1.2c0.4-0.2,0-0.3,0.3-0.5c0.4-0.3,0.7,0,1.1-0.2c-0.9,0.6,0.7,1.4,0.4,1.3
		c0.4,0.2,0.6-0.1,0.8-0.1c0.1,0.1,1.6,0,1.4-0.2c0.4,0.2,0.2,1.8-0.1,2c-0.5,0.4-2.8,0.2-3.4-0.1c-0.9-0.6-0.7,0.7-1.1,0.8
		c-0.8,0.3-2.1-1.1-2.9-1.2c0.4,0.1,0-1.1,0-1.1c-0.3-0.4-2.4,0-3,0.1c-1,0.1-2.1,0.1-2.9,0.8c-0.6,0.5-0.6,1.2-1.1,1.6
		c-0.4,0.2-0.8,0.2-1.1,0.5c-0.6,0.5-1.2,1.3-1.5,2c-0.1,0.3,0.2,1,0.1,1.4c-0.7,2.3,0.2,5.5,3,5.9c0.7,0.1,1.4,0.5,2.1,0.3
		c0.6-0.2,1-0.5,1.6-0.6c0.8-0.1,0.5,1.2,1.6,0.8c0.5-0.2,0.8,0.4,0.8,0.8c-0.2,0.9-0.6,1.3,0.2,1.9c0.5,0.4,1,1,1.1,1.7
		c0.1,0.4,0.4,1.1,0,1.3c-0.3,0.2-0.6,1.1-0.6,1.4c0.1,0.4,0.8,1,1,1.4c0.3,0.4,0.1,1,0.3,1.4c0.3,0.5,0.5,0.9,0.7,1.4
		c0.2,0.7,2.1,0,2.5,0c1.5,0,2.2-2.1,3.2-2.7c0.6-0.4,0.4-1.3,1.1-1.8c0.1-0.1,0.3-0.2,0.4-0.3c-0.4-1.2-0.8-2.5-1-3.9
		c-0.2-1.3,0.2-2.7,1-3.8c0.8-1,1.9-1.7,3.2-1.9c-0.1-0.1-0.2-0.2-0.3-0.4c-0.2-0.2-0.3-0.4-0.5-0.6c0,0,0,0,0,0
		c-0.4,0-1.7-1.4-2.1-1.8c-0.7-0.7-1-1.8-1.5-2.7c-0.3-0.5-1.3-1.4-1.3-2c0,0.1,0.4,0.8,0.6,0.6c0-0.1,0.1-0.2,0-0.3
		c0,0.2,1.1,1.5,1.4,1.6c0.6,0.3,0.5,1.2,1.1,1.6c0.1,0.1,0.2,0.2,0.3,0.3c-0.8-1.8-1.1-3.7-1.1-5.8c0-3.6,1.2-6.8,3.5-9.3
		c0.5-0.5,1-1,1.5-1.4C35.7,2.3,30.1,0,24,0C10.7,0,0,10.7,0,24c0,13.3,10.7,24,24,24c6,0,11.5-2.2,15.7-5.8
		c-0.4-0.3-0.8-0.7-1.2-1.1C37.9,40.5,37.4,39.9,36.9,39.2z M32.6,12.5c0.2,0-0.2,0.3-0.2,0.3c0.1,0.5,0.4,0.8,1.2,1
		c0.9,0.3,0.1,0.9-0.4,0.8c-0.3-0.1-1.7-0.5-1.7,0.1c0,0.3-1.3,0-1.1-0.3c0.1-0.2,0.1-0.8,0.4-1.1c0.4-0.5,0.8-0.2,0.8,0.1
		C31.4,14,32.2,12.5,32.6,12.5z"/>
	<path class="st0" d="M27.1,16.1c-0.1,0-0.9,0.1-0.8,0.2C26.7,17,27.3,16.2,27.1,16.1z"/>
	<path class="st0" d="M58.1,24.8c-1.2-1.5-3.6-2.7-7-3.6v-8.4c1.4,0.6,2.2,1.7,2.6,3.4l5.4-0.7c-0.4-2.1-1.2-3.8-2.6-5.1
		c-1.3-1.3-3.1-2-5.4-2.3V6H48v2.1c-1.8,0.2-3.4,0.7-4.7,1.7c-0.4,0.3-0.8,0.7-1.2,1.1c-1.5,1.6-2.2,3.5-2.2,5.9
		c0,0.7,0.1,1.3,0.2,1.9c0,0.2,0.1,0.4,0.1,0.6c0.1,0.4,0.2,0.8,0.4,1.2c0.3,0.8,0.7,1.5,1.3,2.1c0.6,0.7,1.3,1.3,2.1,1.8
		c1.1,0.7,2.4,1.3,3.9,1.7c0,0,0.1,0,0.1,0v8.9c-0.7-0.3-1.4-0.9-2-1.7c0,0-0.1-0.1-0.1-0.1c-0.6-0.8-1.1-1.8-1.3-2.9l-1.8,0.2
		l-3.8,0.4c0.3,1.7,0.7,3.1,1.4,4.3c0.4,0.8,1,1.6,1.6,2.2c0.3,0.3,0.7,0.7,1.1,0.9c1.4,1,3,1.6,4.9,1.8v3.9h3.1v-4
		c2.8-0.4,4.9-1.5,6.5-3.2c1.6-1.8,2.3-3.9,2.3-6.5C59.9,28.1,59.3,26.3,58.1,24.8z M48,20.2c-0.1-0.1-0.2-0.1-0.3-0.2
		c-0.8-0.4-1.3-0.8-1.7-1.4c-0.5-0.6-0.7-1.3-0.7-2.1c0-0.8,0.2-1.5,0.7-2.2c0,0,0,0,0-0.1c0.5-0.7,1.2-1.2,2-1.5V20.2z M53.7,34
		c-0.7,0.8-1.5,1.3-2.6,1.5v-8.3c1.3,0.4,2.2,0.9,2.8,1.6c0.6,0.7,0.8,1.5,0.8,2.5C54.7,32.3,54.4,33.2,53.7,34z"/>
</g>
</svg>
