<?xml version="1.0" encoding="utf-8"?>
<!-- Generator: Adobe Illustrator 21.0.0, SVG Export Plug-In . SVG Version: 6.00 Build 0)  -->
<svg version="1.1" id="圖層_1" xmlns="http://www.w3.org/2000/svg" xmlns:xlink="http://www.w3.org/1999/xlink" x="0px" y="0px"
	 viewBox="0 0 48 48" style="enable-background:new 0 0 48 48;" xml:space="preserve">
<style type="text/css">
	.st0{fill:#FFFFFF;}
</style>
<g>
	<path class="st0" d="M47.4,26.4l-13.1-7.6c-0.1,0.1-0.1,0.3-0.2,0.4v4.6c-0.7,0.1-1.4,0.2-2.1,0.3l-2.2,0.3l-0.1,0
		c-0.9,1.6-2.6,2.6-4.5,2.6h-1.8c-1.9,0-3.6-1-4.5-2.5l-0.8-0.1L16,24.1c-0.7-0.1-1.4-0.2-2.1-0.3v-5.1L0.6,26.4l13.3,7.7V29
		c0.7-0.1,1.4-0.2,2.1-0.3l2.2-0.3l2.2-0.3c0.7-0.1,1.3-0.2,2-0.3c0,0.1,0,0.3-0.1,0.4l-0.3,2.2l-0.3,2.2c-0.1,0.7-0.2,1.4-0.3,2.1
		h-5.1L24,48l7.7-13.3h-5.1c-0.1-0.7-0.2-1.4-0.3-2.1l-0.3-2.2l-0.3-2.2c0-0.1,0-0.3-0.1-0.4c0.7,0.1,1.3,0.2,2,0.3l2.2,0.3l2.2,0.3
		c0.7,0.1,1.4,0.2,2.1,0.3v5.1L47.4,26.4z"/>
	<path class="st0" d="M22.2,15.6c-0.4-0.5-0.6-1-0.7-1.7l-3.2,0.3c0.2,1.6,0.8,2.8,1.7,3.7c0.9,0.9,2,1.4,3.4,1.6v1.5v0.7h1.3h0.5
		v-2.3c1.6-0.2,2.8-0.8,3.7-1.8c0.9-1,1.3-2.2,1.3-3.7c0-1.3-0.4-2.4-1.1-3.2c-0.7-0.8-2-1.5-4-2V3.9c0.8,0.3,1.3,1,1.5,1.9l3.1-0.4
		c-0.2-1.2-0.7-2.2-1.5-2.9c-0.8-0.7-1.8-1.2-3.1-1.3V0h-1.8v1.2c-1.4,0.1-2.5,0.7-3.3,1.6s-1.3,2-1.3,3.3c0,1.3,0.4,2.4,1.1,3.3
		c0.7,0.9,1.9,1.6,3.5,2.1v5.1C23,16.4,22.6,16.1,22.2,15.6z M25.2,12c0.7,0.2,1.3,0.5,1.6,0.9c0.3,0.4,0.5,0.9,0.5,1.4
		c0,0.6-0.2,1.1-0.6,1.6c-0.4,0.4-0.9,0.7-1.5,0.8V12z M22.3,7.2C22,6.8,21.9,6.4,21.9,6c0-0.5,0.1-0.9,0.4-1.3
		C22.6,4.3,23,4,23.4,3.9v4.2C22.9,7.8,22.5,7.5,22.3,7.2z"/>
</g>
</svg>
