<?xml version="1.0" encoding="utf-8"?>
<!-- Generator: Adobe Illustrator 21.0.0, SVG Export Plug-In . SVG Version: 6.00 Build 0)  -->
<svg version="1.1" id="圖層_1" xmlns="http://www.w3.org/2000/svg" xmlns:xlink="http://www.w3.org/1999/xlink" x="0px" y="0px"
	 viewBox="0 0 44 48" style="enable-background:new 0 0 44 48;" xml:space="preserve">
<style type="text/css">
	.st0{fill:#FFFFFF;}
</style>
<path id="currency-5" class="st0" d="M35,30c-5,0-9,4-9,9s4,9,9,9c5,0,9-4,9-9S40,30,35,30z M35,34l5,6h-4v4h-2v-4h-4L35,34z
	 M22.3,41.8c-1.8,1-4,1.7-6.3,2V48h-4v-4c-4.1-0.1-8.4-1.1-12-2.9l1.8-6.6c3.8,1.5,8.9,3.1,12.9,2.2c4.6-1,5.5-5.8,0.5-8
	c-3.7-1.7-15.1-3.2-15.1-13C0.1,10.2,4.2,5.3,12,4.3V0h4v4.1c2.9,0.1,6.1,0.6,9.8,1.7l-1.4,6.6c-3.1-1.1-6.5-2.1-9.8-1.9
	c-6,0.3-6.5,5.5-2.3,7.7c5.7,2.7,12.8,4.8,15.1,10.4C23.2,31.5,21.2,36.6,22.3,41.8z"/>
</svg>
