<?xml version="1.0" encoding="utf-8"?>
<!-- Generator: Adobe Illustrator 21.0.0, SVG Export Plug-In . SVG Version: 6.00 Build 0)  -->
<svg version="1.1" id="圖層_1" xmlns="http://www.w3.org/2000/svg" xmlns:xlink="http://www.w3.org/1999/xlink" x="0px" y="0px"
	 viewBox="0 0 59 70" style="enable-background:new 0 0 59 70;" xml:space="preserve">
<style type="text/css">
	.st0{fill:#5E8AB4;}
	.st1{fill:#9D74B4;}
	.st2{fill:#63666A;}
</style>
<g>
	<g>
		<g>
			<path class="st0" d="M57.1,4L36.3,9.5c-1,0.3-1.3,1.5-0.6,2.2l4.4,4.4c0.5,0.5,0.5,1.3,0,1.8L0.4,57.7c-0.5,0.5-0.5,1.3,0,1.8
				l2.8,2.8c0.5,0.5,1.3,0.5,1.8,0l39.7-39.7c0.5-0.5,1.3-0.5,1.8,0l4.4,4.4c0.7,0.7,1.9,0.4,2.2-0.6l5.6-20.8
				C59,4.6,58.1,3.7,57.1,4z"/>
		</g>
		<g>
			<path class="st1" d="M52.5,39.9l-20.8,5.6c-1,0.3-1.3,1.5-0.6,2.2l4.4,4.4c0.5,0.5,0.5,1.3,0,1.8L25.2,64.2
				c-0.5,0.5-0.5,1.3,0,1.8l2.8,2.8c0.5,0.5,1.3,0.5,1.8,0l10.3-10.3c0.5-0.5,1.3-0.5,1.8,0l4.4,4.4c0.7,0.7,1.9,0.4,2.2-0.6
				l5.6-20.8C54.4,40.5,53.5,39.6,52.5,39.9z"/>
		</g>
		<path class="st2" d="M29.6,0L8.8,5.6c-1,0.3-1.3,1.5-0.6,2.2l4.4,4.4c0.5,0.5,0.5,1.3,0,1.8L5,21.7c-0.5,0.5-0.5,1.3,0,1.8
			l2.8,2.8c0.5,0.5,1.3,0.5,1.8,0l7.7-7.7c0.5-0.5,1.3-0.5,1.8,0l4.4,4.4c0.7,0.7,1.9,0.4,2.2-0.6l5.6-20.8
			C31.5,0.7,30.6-0.2,29.6,0z"/>
	</g>
</g>
</svg>
