<?xml version="1.0" encoding="utf-8"?>
<!-- Generator: Adobe Illustrator 21.0.0, SVG Export Plug-In . SVG Version: 6.00 Build 0)  -->
<svg version="1.1" id="圖層_1" xmlns="http://www.w3.org/2000/svg" xmlns:xlink="http://www.w3.org/1999/xlink" x="0px" y="0px"
	 viewBox="0 0 30 30" style="enable-background:new 0 0 30 30;" xml:space="preserve">
<style type="text/css">
	.st0{fill:#FFFFFF;}
</style>
<path id="globe-3" class="st0" d="M15,0C6.7,0,0,6.7,0,15c0,8.3,6.7,15,15,15s15-6.7,15-15C30,6.7,23.3,0,15,0z M16.3,20.1v-3.8H20
	c-0.1,1.4-0.3,2.8-0.6,4.1C18.4,20.2,17.3,20.1,16.3,20.1z M18.7,22.8c-0.6,1.7-1.4,3.1-2.4,4.3v-4.5C17.1,22.6,17.9,22.7,18.7,22.8
	z M16.3,13.8V10c1.1,0,2.2-0.1,3.2-0.3c0.3,1.3,0.5,2.6,0.6,4H16.3z M16.3,7.5V2.9c1,1.2,1.8,2.7,2.5,4.4
	C17.9,7.4,17.1,7.4,16.3,7.5z M19.6,3.4c1.5,0.6,2.9,1.5,4.1,2.7c-0.8,0.3-1.6,0.6-2.5,0.8C20.8,5.6,20.2,4.5,19.6,3.4z M10.6,20.3
	c-0.3-1.3-0.5-2.7-0.6-4.1h3.7v3.8C12.7,20.1,11.6,20.2,10.6,20.3z M13.8,22.6v4.5c-1-1.2-1.8-2.7-2.4-4.3
	C12.1,22.7,12.9,22.6,13.8,22.6z M10,13.8c0.1-1.4,0.3-2.8,0.6-4c1,0.2,2.1,0.2,3.2,0.3v3.8H10z M11.3,7.3c0.6-1.7,1.5-3.2,2.5-4.4
	v4.6C12.9,7.4,12.1,7.4,11.3,7.3z M8.8,6.8C7.9,6.6,7.1,6.4,6.3,6.1C7.4,4.9,8.8,4,10.4,3.4C9.8,4.5,9.2,5.6,8.8,6.8z M8.1,9.2
	c-0.3,1.4-0.5,2.9-0.6,4.5H2.6c0.2-2.1,0.9-4,2-5.6C5.7,8.6,6.9,8.9,8.1,9.2z M8.1,20.8c-1.2,0.3-2.4,0.7-3.5,1.1
	c-1.1-1.7-1.8-3.6-2-5.7h4.9C7.6,17.8,7.8,19.4,8.1,20.8z M8.8,23.2c0.4,1.2,1,2.4,1.6,3.4C8.8,26,7.5,25.1,6.3,24
	C7.1,23.7,7.9,23.4,8.8,23.2z M21.2,23.2c0.9,0.2,1.7,0.5,2.5,0.7c-1.2,1.1-2.5,2-4.1,2.6C20.2,25.6,20.8,24.4,21.2,23.2z
	 M21.9,20.8c0.3-1.5,0.6-3,0.6-4.6h4.9c-0.2,2.1-0.9,4-2,5.7C24.3,21.5,23.1,21.1,21.9,20.8z M22.5,13.8c-0.1-1.6-0.3-3.1-0.6-4.5
	c1.2-0.3,2.4-0.7,3.5-1.1c1.1,1.7,1.8,3.6,2,5.6H22.5z"/>
</svg>
