<?xml version="1.0" encoding="utf-8"?>
<!-- Generator: Adobe Illustrator 21.0.0, SVG Export Plug-In . SVG Version: 6.00 Build 0)  -->
<svg version="1.1" xmlns="http://www.w3.org/2000/svg" xmlns:xlink="http://www.w3.org/1999/xlink" x="0px" y="0px"
	 viewBox="0 0 180 73" style="enable-background:new 0 0 180 73;" xml:space="preserve">
<style type="text/css">
	.bg-in{fill:#43515C;
		transition: all .3s ease-in;
		-moz-transition: all .3s ease-in;
		-ms-transition: all .3s ease-in;
		-o-transition: all .3s ease-in;
		-webkit-transition: all .3s ease-in;
	}
	.bg-out{fill:#43515C;}
	.font-1{fill:#FFFFFF;}
	.arrow-act{fill:#F2DF92;}
</style>

<path class="bg-in" d="M170.2,7H9.8c-1.7,0-3,1.3-3,3v52.4c0,1.7,1.3,3,3,3h65.6l14.6,0h14.6h65.6c1.7,0,3-1.3,3-3V10
	C173.2,8.4,171.9,7,170.2,7z"/>

<path class="bg-out" d="M90,73H72.1H60.4H3.8C1.7,73,0,71.3,0,69.2V3.8C0,1.7,1.7,0,3.8,0h172.4c2.1,0,3.8,1.7,3.8,3.8v65.4
	c0,2.1-1.7,3.8-3.8,3.8h-55.8h-12.5H90z M3.8,3C3.4,3,3,3.3,3,3.8v65.4C3,69.6,3.4,70,3.8,70l56.6-0.1h12.9H90h16.7h13.7h55.9
	c0.4,0,0.8-0.4,0.8-0.8V3.8c0-0.4-0.4-0.8-0.8-0.8H3.8z"/>
<path class="font-1" d="M22.9,46.1V43h10.5c1.6-3.1,2.8-6.7,3.7-10.7l3.7,0.7c-0.8,3.6-1.9,7-3.4,10h5.9v3.1H22.9z M34.9,28.6h7.9v3
	H23.4v-3h7.9V26h3.7V28.6z M25.9,33.2l3.5-0.8c0.9,3.1,1.6,6.2,2.2,9.2l-3.5,0.6C27.5,39,26.8,36,25.9,33.2z"/>
<path class="font-1" d="M62.4,43.8c-0.4,0-1,0-1.7-0.1l-0.3-3.1c0.6,0,1,0.1,1.4,0.1c0.2,0,0.4,0,0.4-0.1c0-0.1,0.1-0.3,0.1-0.8
	V29.7h-2.4v17.1h-3.4V45l-2.6,1.2c-0.2-0.4-0.5-1.1-1-2c-2.6,0.8-5.2,1.3-7.9,1.5l-0.3-2.9c0.1,0,0.3,0,0.5-0.1
	c0.2,0,0.4-0.1,0.6-0.1V26.8h9.7v11.3h-6.2v4c0.6-0.1,1.4-0.3,2.3-0.5c-0.5-0.9-0.8-1.5-1.1-2l2.9-1.3c1.2,2.1,2.2,4.2,3.1,6.2
	V26.8h9.1v12.9c0,0.7,0,1.2,0,1.6c0,0.4-0.1,0.8-0.2,1.1c-0.1,0.3-0.2,0.6-0.3,0.7c-0.1,0.2-0.3,0.3-0.6,0.4s-0.6,0.2-0.9,0.2
	C63.4,43.8,63,43.8,62.4,43.8z M49.3,31.3h3v-1.7h-3V31.3z M49.3,35.4h3v-1.7h-3V35.4z"/>
<path class="font-1" d="M67.7,26.9h20.4V30h-9.2v2.3c2.6,1.3,5.3,3,8.2,4.8L85.1,40c-2.5-1.7-4.6-3-6.2-3.9v10.3h-3.7V30h-7.5V26.9z
	"/>
<path class="font-1" d="M110.9,42.2V45h-8.8v2h-3.7v-2h-8.8v-2.8h8.8v-0.7h-3.6h-3.5v-8.7h17.8v8.7h-3.5h-3.6v0.7H110.9z M94.3,32.2
	h-3.4v-5.6h8.8v5.6H94.3z M96.6,30v-1h-2.3v1H96.6z M94.9,36.1h3.6v-0.9h-3.6V36.1z M94.9,38.2v0.9h3.6v-0.9H94.9z M104,32.2
	h-3.1v-5.6h8.8v5.6H104z M105.7,36.1v-0.9h-3.6v0.9H105.7z M105.7,38.2h-3.6v0.9h3.6V38.2z M106.3,30v-1H104v1H106.3z"/>

<g>
	<polygon class="arrow-act" points="157.1,36.5 149.2,31 149.2,42 	"/>

	<polygon class="arrow-act" points="142.5,36.5 134.6,31 134.6,42 	"/>

	<polygon class="arrow-act" points="127.9,36.5 120.1,31 120.1,42 	"/>
		<animate attributeName="opacity"
				values="0;1;0"
				dur="3s"
				repeatCount="indefinite"/>
</g>
</svg>
