<?xml version="1.0" encoding="utf-8"?>
<!-- Generator: Adobe Illustrator 20.0.0, SVG Export Plug-In . SVG Version: 6.00 Build 0)  -->
<svg version="1.1" id="圖層_1" xmlns="http://www.w3.org/2000/svg" xmlns:xlink="http://www.w3.org/1999/xlink" x="0px" y="0px"
	 viewBox="0 0 33.8 25.5" style="enable-background:new 0 0 33.8 25.5;" xml:space="preserve">
<style type="text/css">
	.st0{fill:#63666A;}
</style>
<path class="st0" d="M22,25.4L22,25.4c0.7,0.1,1.3,0,1.7-0.5c0.4-0.4,0.8-0.7,1.2-1.1c2.8-2.5,5.6-5,8.5-7.6
	c0.1-0.3,0.3-0.5,0.4-0.8c0.2-1.1-0.1-2-1-2.6c-2.6-1.9-5.3-3.9-7.9-5.8c-0.8-0.6-1.6-1.2-2.4-1.8c-0.1,0-0.1,0-0.2-0.1
	c-0.1,0-0.2,0-0.3,0c-0.6-0.2-1.1,0-1.3,0.6c-0.2,0.4-0.1,0.7-0.1,1.1c-0.1,1,0,1.8,0.1,2.7c-0.7,0-1.3,0.1-1.9,0.2
	c-3.2,0.2-6.3-0.3-9.3-1.5C6.4,6.8,4,4.9,2.2,2.4C1.8,1.8,1.3,1.2,0.9,0.6C0.7,0.4,0.6,0,0.1,0C0.1,0.1,0,0.2,0,0.3
	c0,0.4,0,0.6,0.1,0.9c0.6,3.2,1.6,6.2,3.2,9.1c3.4,6.1,8.5,9.7,15.4,10.7c0.8,0.1,1.6,0.1,2.5,0.2c0,0.9,0.1,1.7,0.1,2.6
	C21.4,24.4,21.5,25,22,25.4z"/>
</svg>
