<?xml version="1.0" encoding="utf-8"?>
<!-- Generator: Adobe Illustrator 21.0.0, SVG Export Plug-In . SVG Version: 6.00 Build 0)  -->
<svg version="1.1" id="圖層_1" xmlns="http://www.w3.org/2000/svg" xmlns:xlink="http://www.w3.org/1999/xlink" x="0px" y="0px"
	 viewBox="0 0 100 114" style="enable-background:new 0 0 100 114;" xml:space="preserve">
<style type="text/css">
	.st0{fill:url(#globe_1_);}
	.st1{fill:#6A6F73;}
	.st2{fill:#CECAC4;}
	.st3{fill:#474B4D;}
	.st4{fill:#D6D1C7;}
	.st5{fill:#E4E1DD;}
	.st6{fill:#F8B727;}
	.st7{fill:#C99520;}
	.st8{fill:#57534E;}
	.st9{fill:#BDB4AC;}
	.st10{fill:#9D262B;}
	.st11{fill:#751820;}
	.st12{fill:none;}
	.st13{fill:#424547;}
	.st14{fill:#F0EDE8;}
	.st15{fill:#64686B;}
</style>
<g>
	<radialGradient id="globe_1_" cx="50" cy="60.4552" r="49.9976" gradientUnits="userSpaceOnUse">
		<stop  offset="0.5351" style="stop-color:#FFF8E1"/>
		<stop  offset="1" style="stop-color:#EDD4A8"/>
	</radialGradient>
	<ellipse id="globe_16_" class="st0" cx="50" cy="60.5" rx="50" ry="50"/>
	<g>
		<g>
			<path class="st1" d="M69.4,72.8H31.6l-21.3,8.1c0,0,9.1,10.8,20.2,10.8h20h20c11.2,0,20.2-10.8,20.2-10.8L69.4,72.8z"/>
			<path class="st2" d="M50.5,86.7c-19.7,0-25.9,3.1-25.9,3.1v3.5v13.3c0,0,3.5,5,25.9,5s25.9-5,25.9-5V93.4v-3.5
				C76.4,89.9,70.2,86.7,50.5,86.7z"/>
			<path class="st3" d="M50.5,80.4c-21.1,0-25.9,3.2-25.9,3.2v6.3c0,0,6.2-3.1,25.9-3.1c19.7,0,25.9,3.1,25.9,3.1v-6.3
				C76.4,83.6,71.7,80.4,50.5,80.4z"/>
			<path class="st1" d="M65,46.2c-7.9-1.7-21-1.7-28.9,0c-7.9,1.7-15.3,6.1-15.3,6.1s4.4,7.6,12,7.6h17.7h17.7c7.6,0,12-7.6,12-7.6
				S72.9,47.9,65,46.2z"/>
			<path class="st4" d="M50.5,53.3c-16.1,0-19.7,1.7-19.7,1.7v12.4h19.7h19.7V55.1C70.3,55.1,66.7,53.3,50.5,53.3z"/>
			<path class="st1" d="M61.1,21.9c-5.7,0-15.5,0-21.3,0s-10.8,3.5-10.8,3.5s0.2,6,9.9,8.7h11.5H62c9.7-2.7,9.9-8.7,9.9-8.7
				S66.9,21.9,61.1,21.9z"/>
			<path class="st4" d="M50.5,30.7c-10.9,0-12,1.4-12,1.4V42h12h12v-9.9C62.6,32.1,61.4,30.7,50.5,30.7z"/>
			<polygon class="st5" points="50.5,7.9 48.1,7.9 48.1,11.6 50.5,11.6 53,11.6 53,7.9 			"/>
			<path class="st6" d="M50.5,0.7C48,0.7,47,1.7,47,4c0,1.7,1.1,2.9,1.1,2.9l2.4,0l2.4,0c0,0,1.1-1.3,1.1-2.9
				C54,1.7,53,0.7,50.5,0.7z"/>
			<path class="st7" d="M53.3,7.4c0,0.3-0.2,0.5-0.5,0.5h-4.6c-0.3,0-0.5-0.2-0.5-0.5l0,0c0-0.3,0.2-0.5,0.5-0.5h4.6
				C53.1,6.9,53.3,7.1,53.3,7.4L53.3,7.4z"/>
			<rect x="34.8" y="97.5" class="st8" width="4.1" height="9.2"/>
			<rect x="46.7" y="95.7" class="st9" width="0.8" height="11"/>
			<polygon class="st8" points="50.5,95 47.5,95 47.5,106.7 50.5,106.7 53.5,106.7 53.5,95 			"/>
			<path class="st10" d="M71.1,102.4v8.2c0,0.5-0.8,0.8-1.8,0.8c-1,0-1.8-0.4-1.8-0.8v-8.2H71.1z"/>
			<path class="st9" d="M76.4,94.5v-1.1c-3.6-1.3-11.2-2.9-25.9-2.9s-22.2,1.6-25.9,2.9v1.1c0.5-0.2,1.2-0.4,1.9-0.6v3
				c-0.7,0.2-1.3,0.4-1.9,0.6v1.1c3.6-1.3,11.2-2.9,25.9-2.9s22.2,1.6,25.9,2.9v-1.1c-0.5-0.2-1.2-0.4-1.9-0.6v-3
				C75.2,94.1,75.8,94.3,76.4,94.5z M36.5,95.2c-3.9,0.4-6.9,0.9-9.1,1.5v-3c2.2-0.5,5.1-1.1,9.1-1.5V95.2z M46.7,94.6
				c-3.6,0.1-6.7,0.3-9.4,0.5v-3c2.7-0.2,5.8-0.4,9.4-0.5V94.6z M53.5,94.6c-1,0-1.9,0-3,0c-1,0-2,0-3,0v-3c1,0,1.9,0,3,0
				c1,0,2,0,3,0V94.6z M63.7,95.1c-2.7-0.2-5.8-0.4-9.4-0.5v-3c3.6,0.1,6.7,0.3,9.4,0.5V95.1z M73.7,96.7c-2.2-0.5-5.1-1.1-9.1-1.5
				v-3c3.9,0.4,6.9,0.9,9.1,1.5V96.7z"/>
			<rect x="62.1" y="97.5" class="st8" width="4.1" height="9.2"/>
			<rect x="53.5" y="95.7" class="st9" width="0.8" height="11"/>
			<polygon class="st11" points="39.9,65.1 37.3,65.1 37.3,53.9 39.9,53.7 			"/>
			<rect x="49.3" y="53.3" class="st11" width="2.6" height="11.4"/>
			<polygon class="st11" points="63.9,64.8 61.3,64.8 61.3,53.7 63.9,53.9 			"/>
			<path class="st12" d="M72.1,23.7c0.1,0,0.2,0,0.2,0c-0.2-0.1-0.5-0.1-0.7-0.2C71.8,23.6,72,23.7,72.1,23.7z"/>
			<path class="st5" d="M71.6,23.6c-2.2-0.6-9.2-2.9-17.3-9.8l-1.5-1.2l-2.3,0.4l-2.3-0.4l-1.5,1.2c-8.9,7.6-16.6,9.7-17.8,10
				c-0.1,0-0.2,0-0.2,0C47.1,19.5,63.7,21.7,71.6,23.6z"/>
			<path class="st13" d="M71.6,23.6c-7.9-1.9-24.5-4.1-42.8,0.2l0.3,1.6c0,0,7.6-2.2,21.4-2.2c13.8,0,21.4,2.2,21.4,2.2l0.4-1.6
				c0,0-0.1,0-0.2,0C72,23.7,71.8,23.6,71.6,23.6z"/>
			<path class="st5" d="M77.9,49.4c-0.1-0.1-0.1-0.1-0.2-0.2c-5.7-5.6-15.1-9.8-15.1-9.8s-3-1.6-12-1.6c-9.1,0-12,1.6-12,1.6
				s-9.1,4.1-14.9,9.6C44.7,44.5,55.7,45,77.9,49.4z"/>
			<path class="st13" d="M23.6,49c-0.1,0.1-0.2,0.2-0.2,0.2c-1,1-1.9,2-2.6,3.1c0,0,9.6-4.3,29.8-4.3s29.8,4.3,29.8,4.3
				c-0.7-1-1.5-1.9-2.4-2.8C55.7,45,44.7,44.5,23.6,49z"/>
			<path class="st14" d="M71.1,81.8v20.6c0,0.5-0.8,0.8-1.8,0.8c-1,0-1.8-0.4-1.8-0.8V81.8H71.1z"/>
			<path class="st15" d="M50.5,10.6c-3,0-3.8,0.8-3.8,0.8l0,2.3c0,0,1.4-0.3,3.8-0.3c2.4,0,3.8,0.3,3.8,0.3l0-2.3
				C54.3,11.4,53.5,10.6,50.5,10.6z"/>
			<g>
				<rect x="44.9" y="23.8" class="st10" width="11.3" height="15.2"/>
				<rect x="47.7" y="27.6" class="st5" width="5.6" height="7.6"/>
				<line class="st12" x1="44.9" y1="23.8" x2="47.7" y2="27.6"/>
				<line class="st12" x1="47.7" y1="35.2" x2="44.9" y2="39"/>
				<line class="st12" x1="53.3" y1="27.6" x2="56.1" y2="23.8"/>
				<line class="st12" x1="53.3" y1="35.2" x2="56.1" y2="39"/>
			</g>
			<path class="st10" d="M50.5,62.5c-18.7,0-19.7,2.1-19.7,2.1v2.9h19.7h19.7v-2.9C70.3,64.6,69.2,62.5,50.5,62.5z"/>
			<path class="st5" d="M86.9,77.3c-3.7-3.1-9.6-7.5-16.6-9.9c0,0-5.6-1.3-19.7-1.3s-19.7,1.3-19.7,1.3c-7.1,2.4-13.1,6.8-16.7,10
				C35.5,72.7,65.7,73.5,86.9,77.3z"/>
			<path class="st10" d="M43.7,104.9v7.6c0,0.5-0.8,0.8-1.8,0.8c-1,0-1.8-0.4-1.8-0.8v-7.6H43.7z"/>
			<path class="st14" d="M43.7,81.8v24c0,0.5-0.8,0.8-1.8,0.8c-1,0-1.8-0.4-1.8-0.8v-24H43.7z"/>
			<path class="st10" d="M43.7,75.9v6.9c0,0.6-0.8,1-1.8,1c-1,0-1.8-0.5-1.8-1v-7L43.7,75.9z"/>
			<path class="st10" d="M61,104.9v7.6c0,0.5-0.8,0.8-1.8,0.8c-1,0-1.8-0.4-1.8-0.8v-7.6H61z"/>
			<path class="st14" d="M61,81.8v24c0,0.5-0.8,0.8-1.8,0.8c-1,0-1.8-0.4-1.8-0.8v-24H61z"/>
			<path class="st10" d="M61,75.9v6.9c0,0.6-0.8,1-1.8,1c-1,0-1.8-0.5-1.8-1v-7L61,75.9z"/>
			<path class="st10" d="M71.1,75.9v6.9c0,0.6-0.8,1-1.8,1c-1,0-1.8-0.5-1.8-1v-7L71.1,75.9z"/>
			<path class="st10" d="M33.5,102.4v8.2c0,0.5-0.8,0.8-1.8,0.8c-1,0-1.8-0.4-1.8-0.8v-8.2H33.5z"/>
			<path class="st14" d="M33.5,81.8v20.6c0,0.5-0.8,0.8-1.8,0.8c-1,0-1.8-0.4-1.8-0.8V81.8H33.5z"/>
			<path class="st10" d="M33.5,75.9v6.9c0,0.6-0.8,1-1.8,1c-1,0-1.8-0.5-1.8-1v-7L33.5,75.9z"/>
			<path class="st13" d="M87.1,77.6c-0.1-0.1-0.2-0.2-0.3-0.2c-21.2-3.8-51.4-4.6-72.8,0.1c0,0-0.1,0.1-0.2,0.1
				c-2.3,2-3.6,3.4-3.6,3.4s11.2-4.5,40.2-4.5c29,0,40.2,4.5,40.2,4.5S89.4,79.5,87.1,77.6z"/>
		</g>
	</g>
</g>
</svg>
