<?xml version="1.0" encoding="utf-8"?>
<!-- Generator: Adobe Illustrator 21.0.0, SVG Export Plug-In . SVG Version: 6.00 Build 0)  -->
<svg version="1.1" id="圖層_1" xmlns="http://www.w3.org/2000/svg" xmlns:xlink="http://www.w3.org/1999/xlink" x="0px" y="0px"
	 viewBox="0 0 90 100" style="enable-background:new 0 0 90 100;" xml:space="preserve">
<style type="text/css">
	.st0{opacity:0.4;}
	.st1{fill:#FFFFFF;}
	.st2{fill:#625272;}
</style>
<g>
	<g>
		<g class="st0">
			<path class="st1" d="M90,17H0c-0.1,0-0.2-0.1-0.2-0.2s0.1-0.2,0.2-0.2H90c0.1,0,0.2,0.1,0.2,0.2S90.1,17,90,17z"/>
		</g>
		<g class="st0">
			<path class="st1" d="M90,33.6H0c-0.1,0-0.2-0.1-0.2-0.2s0.1-0.2,0.2-0.2H90c0.1,0,0.2,0.1,0.2,0.2S90.1,33.6,90,33.6z"/>
		</g>
		<g class="st0">
			<path class="st1" d="M90,50.2H0c-0.1,0-0.2-0.1-0.2-0.2s0.1-0.2,0.2-0.2H90c0.1,0,0.2,0.1,0.2,0.2S90.1,50.2,90,50.2z"/>
		</g>
		<g class="st0">
			<path class="st1" d="M90,66.8H0c-0.1,0-0.2-0.1-0.2-0.2s0.1-0.2,0.2-0.2H90c0.1,0,0.2,0.1,0.2,0.2S90.1,66.8,90,66.8z"/>
		</g>
		<g class="st0">
			<path class="st1" d="M90,83.4H0c-0.1,0-0.2-0.1-0.2-0.2S-0.1,83,0,83H90c0.1,0,0.2,0.1,0.2,0.2S90.1,83.4,90,83.4z"/>
		</g>
		<g class="st0">
			<path class="st1" d="M18,100c-0.1,0-0.2-0.1-0.2-0.2V0.2C17.8,0.1,17.9,0,18,0c0.1,0,0.2,0.1,0.2,0.2v99.7
				C18.2,99.9,18.1,100,18,100z"/>
		</g>
		<g class="st0">
			<path class="st1" d="M36,100c-0.1,0-0.2-0.1-0.2-0.2V0.2C35.8,0.1,35.9,0,36,0s0.2,0.1,0.2,0.2v99.7C36.2,99.9,36.1,100,36,100z"
				/>
		</g>
		<g class="st0">
			<path class="st1" d="M54,100c-0.1,0-0.2-0.1-0.2-0.2V0.2C53.8,0.1,53.9,0,54,0s0.2,0.1,0.2,0.2v99.7C54.2,99.9,54.1,100,54,100z"
				/>
		</g>
		<g class="st0">
			<path class="st1" d="M72,100c-0.1,0-0.2-0.1-0.2-0.2V0.2C71.8,0.1,71.9,0,72,0s0.2,0.1,0.2,0.2v99.7C72.2,99.9,72.1,100,72,100z"
				/>
		</g>
	</g>
	<g>
		<g>
			
				<rect x="4.4" y="57.4" transform="matrix(0.6179 -0.7863 0.7863 0.6179 -41.3636 31.3061)" class="st1" width="14.2" height="1.7"/>
		</g>
		<g>
			
				<rect x="18.7" y="40.9" transform="matrix(0.7289 -0.6846 0.6846 0.7289 -21.2267 29.8695)" class="st1" width="16.8" height="1.7"/>
		</g>
		<g>
			
				<rect x="43.9" y="30.7" transform="matrix(0.4205 -0.9073 0.9073 0.4205 -8.0451 62.2951)" class="st1" width="1.7" height="13.5"/>
		</g>
		<g>
			
				<rect x="51.2" y="28.3" transform="matrix(0.5851 -0.8109 0.8109 0.5851 2.5662 63.2607)" class="st1" width="23.8" height="1.7"/>
		</g>
		<g>
			<path class="st2" d="M18,45c-2.7,0-5,2.2-5,5s2.2,5,5,5s5-2.2,5-5S20.7,45,18,45z M18,52.5c-1.4,0-2.5-1.1-2.5-2.5
				s1.1-2.5,2.5-2.5c1.4,0,2.5,1.1,2.5,2.5S19.3,52.5,18,52.5z"/>
		</g>
		<g>
			<path class="st2" d="M4.9,61.6c-2.7,0-5,2.2-5,5s2.2,5,5,5s5-2.2,5-5S7.7,61.6,4.9,61.6z M4.9,69.1c-1.4,0-2.5-1.1-2.5-2.5
				c0-1.4,1.1-2.5,2.5-2.5s2.5,1.1,2.5,2.5C7.4,68,6.3,69.1,4.9,69.1z"/>
		</g>
		<g>
			<path class="st2" d="M36,28.4c-2.7,0-5,2.2-5,5s2.2,5,5,5c2.7,0,5-2.2,5-5S38.7,28.4,36,28.4z M36,35.8c-1.4,0-2.5-1.1-2.5-2.5
				c0-1.4,1.1-2.5,2.5-2.5c1.4,0,2.5,1.1,2.5,2.5C38.5,34.7,37.4,35.8,36,35.8z"/>
		</g>
		<g>
			<path class="st2" d="M54,36.7c-2.7,0-5,2.2-5,5s2.2,5,5,5s5-2.2,5-5S56.7,36.7,54,36.7z M54,44.2c-1.4,0-2.5-1.1-2.5-2.5
				s1.1-2.5,2.5-2.5s2.5,1.1,2.5,2.5S55.4,44.2,54,44.2z"/>
		</g>
		<g>
			<path class="st2" d="M72,11.8c-2.7,0-5,2.2-5,5s2.2,5,5,5c2.7,0,5-2.2,5-5S74.8,11.8,72,11.8z M72,19.2c-1.4,0-2.5-1.1-2.5-2.5
				s1.1-2.5,2.5-2.5s2.5,1.1,2.5,2.5S73.4,19.2,72,19.2z"/>
		</g>
	</g>
</g>
</svg>
