<?xml version="1.0" encoding="utf-8"?>
<!-- Generator: Adobe Illustrator 20.0.0, SVG Export Plug-In . SVG Version: 6.00 Build 0)  -->
<svg version="1.1" id="圖層_1" xmlns="http://www.w3.org/2000/svg" xmlns:xlink="http://www.w3.org/1999/xlink" x="0px" y="0px"
	 viewBox="0 0 37 37" style="enable-background:new 0 0 37 37;" xml:space="preserve">
<style type="text/css">
	.st0{fill:#5E8AB4;}
</style>
<path id="calendar-9" class="st0" d="M26.2,4.6V1.5c0-0.9,0.7-1.5,1.5-1.5c0.9,0,1.5,0.7,1.5,1.5v3.1c0,0.9-0.7,1.5-1.5,1.5
	C26.9,6.2,26.2,5.5,26.2,4.6z M7.7,6.2c0.9,0,1.5-0.7,1.5-1.5V1.5C9.2,0.7,8.6,0,7.7,0C6.9,0,6.2,0.7,6.2,1.5v3.1
	C6.2,5.5,6.9,6.2,7.7,6.2z M27.8,26.2v-4.6h-1.5v6.2h4.6v-1.5H27.8z M20,27c0,3.8,3.1,6.9,6.9,6.9c3.8,0,6.9-3.1,6.9-6.9
	S30.8,20,27,20C23.2,20,20,23.2,20,27z M37,27c0,5.5-4.5,10-10,10c-5.5,0-10-4.5-10-10s4.5-10,10-10C32.5,17,37,21.4,37,27z
	 M15.1,32.4h-12v-20h29.3v2.7c1.1,0.5,2.2,1.2,3.1,2V3.1h-4.6v1.5c0,2-2,3.6-4.1,2.9c-1.3-0.4-2.1-1.7-2.1-3.1V3.1H10.8v1.5
	c0,2-2,3.6-4.1,2.9C5.4,7.1,4.6,5.8,4.6,4.5V3.1H0v32.4h17C16.2,34.5,15.6,33.5,15.1,32.4z"/>
</svg>
