<?xml version="1.0" encoding="utf-8"?>
<!-- Generator: Adobe Illustrator 21.0.0, SVG Export Plug-In . SVG Version: 6.00 Build 0)  -->
<svg version="1.1" id="圖層_1" xmlns="http://www.w3.org/2000/svg" xmlns:xlink="http://www.w3.org/1999/xlink" x="0px" y="0px"
	 viewBox="0 0 100 100" style="enable-background:new 0 0 100 100;" xml:space="preserve">
<style type="text/css">
	.st0{fill:#FFFFFF;}
	.st1{fill:url(#globe_2_);}
	.st2{fill:#C7D6E5;}
	.st3{fill:#B4C1CA;}
	.st4{fill:#F9748F;}
</style>
<g>
	<ellipse id="globe_8_" class="st0" cx="50" cy="50" rx="50" ry="50"/>
	<radialGradient id="globe_2_" cx="44.622" cy="32.3721" r="43.707" gradientUnits="userSpaceOnUse">
		<stop  offset="0" style="stop-color:#BAC8E0"/>
		<stop  offset="1" style="stop-color:#6A85B6"/>
	</radialGradient>
	<ellipse id="globe_1_" class="st1" cx="50" cy="50" rx="43.7" ry="43.7"/>
	<g id="continents_1_">
		<path class="st2" d="M85.5,50.7c0,0-0.3,0.2-0.4,0.3c-0.2,0.1-0.4,0.1-0.8,0.1c-0.4,0-0.3,0.1-0.7,0.1c-0.3,0-0.2,0.2-0.5,0.2
			c-0.3,0-0.5,0.1-0.7,0.1c-0.2,0-0.2-0.2-0.3-0.2c-0.1,0-0.2-0.1-0.2-0.2c0,0,0,0,0-0.1c0-0.1,0-0.2,0-0.4c0-0.2-0.1-0.3-0.3-0.4
			c-0.2-0.1-0.2-0.2-0.4-0.5c-0.2-0.2-0.5-0.5-0.8-0.6c-0.3-0.1,0-0.2-0.4-0.7c-0.4-0.5-0.2-0.2-0.3-0.6c0-0.2-0.1-0.2-0.1-0.3
			c-0.1-0.1-0.2-0.1-0.4-0.3c-0.3-0.3-0.3-0.2-0.3-0.3c-0.1-0.1,0-0.5,0-0.6c0-0.1-0.4-0.8-0.5-1.1c-0.1-0.3-0.4-0.2-0.3-0.2
			c0-0.1,0-0.1-0.1-0.2c-0.1-0.1-0.1-0.2-0.2-0.5c-0.1-0.5-0.3-0.8-0.6-1.2c-0.3-0.3-0.2-0.3-0.2-0.5c0-0.2-0.5-0.7-0.5-0.8
			c0-0.2-0.2-0.4-0.1-0.3c0.1,0.1,0.3,0.5,0.4,0.6c0.1,0.2,0,0.1,0.5,0.5c0.4,0.3,0.1-0.1,0.1-0.4c0-0.1,0-0.3-0.1-0.4
			c-0.1-0.4-0.3-0.9-0.3-0.9c-0.1,0-0.2,0-0.4,0c-0.3,0-0.2-0.1-0.5-0.1c-0.3,0-0.2-0.2-0.6-0.2c-0.4,0-0.4,0.3-0.8,0.4
			c-0.3,0.1-0.9-0.4-1.1-0.4c-0.2,0-0.7,0-0.8,0c-0.1,0-0.2-0.1-0.3-0.1c0,0-0.1,0-0.2,0c-0.2,0-0.6-0.2-0.6-0.2c0,0,0,0,0,0
			c-0.1,0-0.2-0.1-0.4-0.3c-0.2-0.2-0.5,0-0.7-0.1c-0.2,0-0.3,0.3-0.5,0.4c-0.2,0.1,0,0.5,0,0.7c0,0.2-0.1,0.1-0.3,0.2
			c-0.2,0.1-0.6,0-0.8-0.2c-0.2-0.2-0.1-0.1-0.3-0.3c-0.2-0.2-0.7-0.1-0.8-0.1c-0.1,0-0.2,0-0.3-0.3c-0.1-0.3-0.3-0.4-0.3-0.4
			s-0.6-0.1-0.8-0.1c-0.3,0-0.5-0.1-0.7-0.1c-0.1,0-0.2-0.1-0.3-0.2c-0.1-0.1-0.2-0.1-0.3-0.2c-0.2,0-0.3-0.2-0.3-0.2
			s-0.2-0.2-0.1-0.4c0-0.2,0.2-0.3,0.3-0.4c0.1-0.2-0.1-0.4-0.2-0.5c-0.1-0.1,0.2-0.4,0.2-0.4s-0.3,0.2-0.3,0c0-0.2-0.4-0.3-0.4-0.3
			c-0.2,0-0.3,0-0.5,0.1c0,0-0.4,0-0.5,0c-0.1,0-0.4,0-0.5,0c0,0,0,0,0,0c-0.2,0-0.4,0-0.6,0c0,0,0,0-0.1,0c-0.1,0-0.4,0.1-1,0.1
			c-0.7,0.1-0.8,0-0.9,0c-0.1,0-0.4,0-0.4,0s-0.5,0-0.6,0.1c-0.2,0.1-0.2,0.2-0.3,0.2c-0.2,0-0.3,0-0.6,0.1c-0.3,0.1,0,0-0.1,0.1
			c-0.1,0.1-0.1,0.1-0.2,0.1c0,0-0.1,0-0.1,0c-0.2,0-0.2-0.1-0.3-0.1c-0.1,0-0.2,0-0.4,0c-0.2,0-0.4,0-0.5,0c-0.2,0-0.4-0.2-0.4-0.2
			s-0.2-0.2-0.5-0.3c-0.3,0-0.2,0.1-0.2,0.1s0,0.2-0.1,0.3c0,0.1-0.2,0.3-0.2,0.5c0,0.2-0.3,0.2-0.4,0.3c-0.1,0.1-0.3,0.1-0.5,0.2
			c-0.2,0.1-0.4,0-0.6,0.3c-0.2,0.2-0.4,0.4-0.4,0.6c0,0.2-0.2,0.2-0.2,0.4c0,0.2,0.1,0.4,0.1,0.4c0,0.1,0,0.2,0,0.3
			c0,0-0.3,0.2-0.3,0.5c0,0.2-0.6,0.2-0.6,0.2s-0.5,0.2-0.6,0.3c-0.1,0.1-0.5,0.2-0.6,0.2c0,0,0,0,0,0c-0.1,0,0.1,0.4-0.6,0.7
			c-0.7,0.3-0.7,0.8-0.8,1c-0.1,0.1-0.1,0.2-0.3,0.4c-0.1,0.1-0.2,0.3-0.2,0.4c0,0.1-0.1,0.1-0.1,0.2c-0.1,0.1-0.4,0.4-0.5,0.6
			c-0.2,0.3-0.1,0.1-0.2,0.4c0,0.2,0.1,0.2,0.2,0.4c0.1,0.2,0,0.1,0.3,0.2c0.2,0.1,0,0.4,0,0.8c0,0.3,0,0.2,0,0.5
			c0,0.3-0.1,0.4-0.1,0.8c0,0.1,0,0.2,0,0.3c0,0.1,0,0.1-0.1,0.2c-0.1,0.1-0.4,0.6-0.4,0.6s-0.1,0.2-0.1,0.4c0,0.2,0,0.2,0,0.4
			c0,0.2,0,0-0.1,0.3c-0.1,0.3,0,0,0,0.2c0,0.2,0.3,0.4,0.3,0.4s0,0,0,0c0,0,0.1,0.1,0.2,0.2c0.2,0.2,0.6,0.1,0.6,0.1
			c-0.1,0.2,0.2,0.3,0.3,0.4c0,0,0.1,0,0.1,0s0.2,0.3,0.4,0.4c0.2,0.1,0.1,0.2,0.4,0.3c0.2,0.1,0.3,0.3,0.3,0.4
			c0,0.1,0.1,0.1,0.1,0.1s0,0.3,0,0.4c0,0.1,0.3,0.3,0.4,0.4c0.1,0.1,0.2,0.1,0.5,0.3c0.1,0,0.1,0.1,0.2,0.1
			c0.1,0.1,0.2,0.2,0.3,0.3c0.2,0.1,0.8,0.5,0.9,0.6c0,0,0,0,0,0c0.1,0,0.5,0.2,0.8,0.4c0.3,0.2,0.5,0.1,0.5,0.1c0,0,0.1,0,0.1,0
			c0.1,0,0.2,0,0.4-0.1c0,0,0.4-0.2,0.5-0.2c0.1,0,0.3-0.2,0.7-0.2c0.5,0,0.6,0,0.9,0c0.4,0,0.2,0.1,0.4,0.2c0.1,0.1,0.3,0,0.4,0
			c0.1,0,0.1,0,0.1,0c0.1,0,0.3-0.1,0.4-0.1c0,0,0.3-0.1,0.4-0.1c0.1-0.1,0.4-0.2,0.6-0.2c0.2,0,0.2-0.2,0.5-0.2
			c0.2,0,0.2-0.2,0.2-0.2s0.1,0,0.1,0c0.2,0,0.4-0.1,0.6-0.1c0,0,0,0,0,0c0.2,0,0.5,0,0.8,0c0.3,0,0.3,0.1,0.7,0.4
			c0.4,0.2,0.1,0.3,0,0.5c0,0.3,0.1,0.3,0.4,0.2c0.3,0,0.5-0.1,0.8-0.1c0.2,0,0.8-0.2,0.8-0.2c0,0,0,0,0,0c0.1,0.1,0.2,0.2,0.2,0.3
			c0,0,0.2,0.1,0.4,0.5c0.2,0.3,0.1,0.4,0,0.6c0,0.1-0.1,0.1-0.1,0.2c-0.1,0.1-0.1,0.3-0.2,0.5c0,0.1,0,0.2,0,0.2
			c0,0.2-0.3,0.4-0.4,0.8c-0.1,0.4,0.5,1.1,1.1,1.6c0.1,0.1,0.2,0.2,0.3,0.3c0.1,0.1,0.2,0.2,0.3,0.4c0.1,0.2,0.1,0.3,0.2,0.5
			c0,0.3,0.1,0.6,0.1,0.9c0.2,0.5,0.5,0.6,0.3,0.6c-0.2,0-0.1,0.8,0.1,0.9c0.2,0.1,0.2,0.9-0.2,1.5c-0.4,0.5-0.9,1.8-1.1,2.5
			c0,0.1-0.1,0.2-0.1,0.3c-0.1,0.6,0.9,2.4,1.1,2.8c0,0,0,0.1,0,0.1c0,0.3,0.2,1.5,0.1,2c-0.1,0.5,0.4,1.1,0.6,1.4
			c0,0.1,0.1,0.1,0.1,0.2c0,0.2,0,0.8,0.4,1.4c0.4,0.6-0.3,1.2,0.1,2c0.4,0.8,0.8,0.5,1.4,0.1c0.6-0.4,0.9,0,1.2,0
			c0.3,0,0.9-0.4,1.3-0.4c0.4,0,0.4-0.7,1.2-1c0.8-0.3,1-0.6,1.2-1.3c0.2-0.7,0.7-1,1.2-1.4c0.4-0.3,0.5-0.5,0.3-0.9
			c0-0.1,0-0.1-0.1-0.2c-0.2-0.6,1.2-1,1.2-1c0.2,0,0.4-0.3,0.6-1c0.1-0.7,0.1-1.1-0.3-1.5c-0.4-0.4,0.2-0.5,0.4-0.7
			c0.2-0.1,0.5-0.3,0.7-0.5c0.2-0.2,0.3-0.5,0.4-0.6c0.1-0.1,0.7-0.3,0.9-0.5c0.2-0.1,0.5-0.4,0.8-0.7c0.2-0.3,0.3-0.4,0.2-0.7
			c-0.1-0.4,0-0.4,0.1-1.1c0-0.7,0.1-0.8,0.1-0.8s-0.1-0.2-0.1-0.4c-0.1-0.3-0.2-0.6-0.2-0.8c-0.1-0.4,0-0.6-0.1-0.8
			c-0.1-0.2-0.2-0.4-0.2-0.8c0-0.4,0.3-0.2,0.3-0.5c0,0,0,0,0,0c0-0.3,0.1-0.5,0.2-0.6c0.2-0.1,0-0.6,0.2-0.6
			c0.2-0.1,0.5-0.4,0.5-0.5c0,0,0,0,0,0c0,0,0.4-0.3,0.4-0.4c0.1-0.1,0.5-0.6,0.6-0.8c0.1-0.2,0.6-0.5,0.7-0.6
			c0.1-0.1,0.4-0.1,0.5-0.3c0.1-0.1,0.5-0.7,0.7-0.8c0.2-0.1,0.5-0.5,0.6-0.8c0.1-0.3,0.2-0.6,0.6-1.2c0.4-0.6,0.4-1.9,0.7-2.2
			C85.8,50.6,85.5,50.7,85.5,50.7z M53.6,41.8c0,0,0.1,0,0.2,0c0,0,0.1,0,0.1,0C53.8,41.8,53.7,41.8,53.6,41.8z"/>
		<path class="st2" d="M19.1,26.4c0-0.1,0.1-0.1,0.2-0.2c0.1,0,0.2-0.1,0.3-0.1c0.1-0.1,0.5-0.7,0.6-0.7c0.1,0-0.5,0-0.7,0
			c-0.1,0-0.2,0.1-0.3,0.2c-0.2,0.2-0.4,0.5-0.5,0.6c-0.1,0.1-0.1,0.6-0.2,0.7c-0.1,0-0.3,0.6-0.5,0.7c-0.2,0.1-0.3,0.5-0.3,0.5
			c0.1,0.1,0.1,0.2,0.2,0.3c0.1,0,0.2-0.1,0.4-0.1c0.1-0.1,0.1-0.2,0.2-0.3c0.1-0.1,0.1-0.2,0.2-0.2c0.1,0,0.2-0.1,0.3-0.1
			c0-0.1-0.1-0.2-0.1-0.4c0-0.1,0-0.2,0-0.3c0-0.1,0-0.2,0.1-0.2C18.9,26.6,19,26.5,19.1,26.4z"/>
		<path class="st2" d="M25.7,26.8c0.2-0.1,0.6,0.1,0.7,0.3c0.1,0.2,0.1,0.2,0.4-0.1c0.2-0.3,0-0.4,0.6-0.7c0.5-0.3,0.7-0.5,0.1-0.6
			c-0.6,0-0.5-0.1-1-0.2c-0.4,0-0.8,0.3-0.9,0.1c-0.1-0.2,0.7-0.5,0.7-0.5s0.5-0.5,0.1-0.4c-0.4,0.1-1.2,0.2-0.8,0
			c0.4-0.2-0.3-0.2-0.3-0.2c-0.1-0.1-0.1-0.2-0.2-0.3c0,0-0.6,0.1-0.5-0.1c0.1-0.1-0.5,0-0.4-0.1c0.1-0.1,0.2-0.4,0.1-0.3
			c-0.1,0-0.7-0.1-1.1,0.1c-0.4,0.2-0.1,0.6,0.1,0.5c0.2-0.1,0.4,0,0.4,0s-0.3,0.2-0.4,0.2c0,0,0,0,0,0c-0.1,0.1-0.7,0.4-0.7,0.4
			c0.1-0.1,0.1-0.2,0.2-0.3c0.1-0.1,0.1-0.2,0.2-0.4c0-0.1,0-0.2,0-0.3c-0.2,0.1-0.4,0.2-0.6,0.3c-0.1,0.1-0.3,0.1-0.4,0.2
			c0,0-0.1,0-0.1,0.1c-0.1,0.1-0.2,0.2-0.3,0.2c0.1-0.2,0.1-0.3,0.2-0.5c-0.1,0.2-0.2,0.3-0.3,0.5c-0.1,0.1,0.1,1.2,0,1.2
			c-0.1,0.1-0.4-0.3-0.4-0.3s0.2-0.3,0.2-0.5c0-0.1-0.4-0.3-0.4-0.3c-0.2,0.3-0.4,0.5-0.6,0.8c-0.1,0.1-0.2,0.2-0.2,0.3
			c-0.1,0.1-0.1,0.2-0.1,0.3c0,0.1,0,0.2,0,0.3c0.2-0.1,0.4-0.1,0.5-0.2c-0.2,0.1-0.3,0.3-0.5,0.4c0,0.1,0.1,0.2,0.1,0.2
			c0.1-0.1,0.3-0.1,0.4-0.2c0,0,0.1,0,0.1,0c0.2,0,0.7-0.1,1.1-0.3c0.4-0.1,0.7-0.3,0.9-0.4c0.1,0,0.1-0.1,0.2-0.2c0,0,0,0,0-0.1
			c0.1-0.1,0.2-0.2,0.4-0.2c0.2,0,0.5,0.1,0.5,0.2c0.1,0.3,0.6,0.2,0.6,0.5c0,0.3-0.1,0.5-0.4,0.7c-0.3,0.1-0.4,0.8-0.4,0.8
			c0,0,0,0.2-0.2,0.3c-0.2,0.1-0.6,0.1-0.8,0.2c-0.1,0.1-0.4,0.4-0.4,0.4c0,0-0.4,0.8-0.1,0.6c0.3-0.1,0.2-0.2,0.4-0.3
			c0.2-0.1,1-0.7,1.2-0.1c0.2,0.6,0.6,0.4,0.8,0.4c0.2,0,0.8,0,0.7-0.1c0-0.1,0.5-0.2,0-0.5c-0.5-0.3-0.3-0.6,0-0.3
			c0.3,0.2,0.6,0.3,0.7-0.1c0.1-0.4,0.5-0.6,0.1-0.8c-0.4-0.3-0.5-0.5-0.5-0.5C25.4,27.2,25.6,26.9,25.7,26.8z"/>
		<path class="st2" d="M27.7,33.9c-0.5,0.2-0.5,0.2-0.5,0.2c0,0,0,0,0,0.1c0,0-0.4,0.4-0.5,0.7c-0.1,0.3-0.3,0.6-0.5,0.7
			c-0.2,0.1-0.3,0.9-0.3,0.9c0,0,0,0,0.7-0.3c0.7-0.3,1-0.6,1-0.6c0,0.1,0.1,0.2,0.1,0.2c0.1,0,0.2,0,0.4,0c0,0,0.2-0.1,0.3-0.2
			c0.1-0.1,0.1-0.3,0.1-0.3c0,0-0.1-0.1-0.1-0.1c0-0.1-0.1-0.2-0.1-0.3c0-0.1,0-0.2,0-0.3c0,0-0.4,0-0.6,0.1
			c-0.2,0.2-0.3,0.1-0.3,0.1c0.1-0.1,0.1-0.2,0.2-0.3c0,0-0.4,0-0.5,0.1C27.4,34.5,28.2,33.7,27.7,33.9z"/>
		<path class="st2" d="M18.4,23.6c0.1-0.1,0.3-0.1,0.4-0.2c0,0.1,0.1,0.1,0.1,0.2c0.1,0,0.2-0.1,0.3-0.1c0-0.2,0-0.3-0.1-0.5
			c-0.1,0-0.2,0-0.2-0.1c-0.1,0-0.2,0-0.3,0.1c-0.2,0.1-0.4,0.3-0.6,0.4c0.1,0,0.2,0,0.4,0C18.4,23.5,18.4,23.6,18.4,23.6z"/>
		<path class="st2" d="M18.2,25.4c0.2-0.1,0.4,0,0.4-0.2c0-0.2,0.1-0.4,0.1-0.4c0-0.1,0-0.2,0.1-0.4c-0.2,0-0.3,0-0.5,0.1
			c0,0.1,0,0.2,0,0.3c0,0-0.1,0.5-0.1,0.3c-0.1-0.1-0.1-0.6-0.2-0.5c-0.1,0.1-0.3,0.5-0.3,0.5c0.1,0.1,0.1,0.2,0.2,0.3
			C17.8,25.5,18,25.5,18.2,25.4z"/>
		<path class="st2" d="M16.5,27.4c0.1,0,0.3,0.1,0.4,0.1c0,0-0.1,0.4,0.3,0.3c0.3-0.1,0.3-0.3,0.3-0.3s0.4-0.2,0.6-0.3
			c0.1-0.1-0.1-0.6-0.1-0.6c0.1,0,0.2-0.1,0.3-0.1c0,0,0.3-0.5,0.2-0.7c-0.1-0.2-0.4,0.3-0.6,0.4c-0.1,0.1-0.4,0.2-0.4,0.2
			c-0.1,0.1-0.1,0.2-0.2,0.3c0,0.2,0,0.3,0,0.4c0,0,0,0-0.3,0C16.6,26.9,16.5,27.4,16.5,27.4z"/>
		<path class="st2" d="M45.6,11.3c-0.7,0.2-1.2,0.4-1.4,0.5c-0.2,0.1-0.8,0.3-0.9,0.3c-0.1,0,0.4-0.3,0-0.4c0,0-0.1,0-0.1,0
			c0,0,0,0,0,0s-0.2-0.2-0.2-0.2c0,0-0.3,0-0.3,0c-0.1,0-0.2-0.1-0.3-0.1c0,0-0.3,0.2-0.4,0.2c-0.1,0-0.3,0-0.4,0
			c-0.1,0-0.4,0-0.4,0c-0.1,0.1-0.2,0.2-0.3,0.2c0,0-0.1-0.1-0.1-0.1c-0.1,0-0.2,0.1-0.2,0.1c-0.1,0-0.2,0-0.4,0.1
			c-0.1,0-0.1,0.1-0.2,0.1c0,0,0,0,0,0c-0.1,0-0.1,0-0.2,0.1c-0.1,0.1-0.2,0.1-0.3,0.2c-0.1,0-0.2,0.1-0.3,0.2c0,0-0.1,0-0.1-0.1
			c-0.1,0-0.2,0-0.3,0.1c-0.1,0.1-0.2,0.2-0.3,0.2c-0.1,0-0.1,0.1-0.2,0.1c0,0-0.1,0-0.1-0.1c-0.1,0.1-0.3,0.1-0.4,0.2
			c0,0.1-0.1,0.1-0.1,0.2c0,0-0.1,0-0.1-0.1c-0.1,0-0.2,0.1-0.3,0.1c-0.1,0.1-0.1,0.1-0.2,0.2c-0.1,0.1-0.2,0.2-0.3,0.3
			c-0.1,0-0.1,0-0.2,0c-0.1,0.1-0.2,0.1-0.4,0.2c-0.1,0-0.1,0-0.1,0c-0.1,0.1-0.2,0.2-0.3,0.4c-0.1,0-0.1,0-0.2,0
			c-0.1,0.1-0.1,0.1-0.2,0.2c-0.1,0-0.2,0.1-0.2,0.1c0,0-0.1,0-0.1-0.1c-0.1,0.1-0.2,0.2-0.3,0.2c-0.1,0.1-0.2,0.1-0.3,0.2
			c-0.1,0-0.1,0.1-0.1,0.1c0,0.1-0.1,0.1-0.1,0.2c0,0.1-0.1,0.1-0.2,0.2c-0.1,0.1-0.2,0.1-0.3,0.2c0,0,0.3-0.3-0.4,0
			c-0.7,0.3-1.2,0.5-1.4,0.6c-0.2,0.1-0.7,0.5-0.8,0.6c0,0.1-0.4,0.3-0.5,0.3c0,0,0,0,0,0c-0.2,0.2-1.9,1.3-1.5,1.2
			c0.4-0.1,0.6,0.2,0.1,0.4c-0.5,0.2-1,0.8-1.7,1.1c-0.7,0.3-1.1,0.9-0.5,0.6c0.6-0.3,1.4-0.5,1.4-0.5c0,0-1.7,1.1-0.9,1
			c0.7-0.1,0.6,0,1.1-0.2c0.5-0.2,0.6-0.7,1.3-0.6c0.6,0,0.7-0.1,0.8,0.3c0.1,0.4,0.4,0.7,0.2,1c-0.2,0.4-0.6,0.6-0.6,0.6
			s-0.1,0.4,0.4,0.2c0.4-0.2,0.7-0.7,0.8-0.5c0,0.2,0.4,0.5,0.4,0.5s-0.5,0-0.8,0.1c-0.3,0.1-0.6,0.4-0.3,0.4c0.3,0,0.8-0.1,0.9-0.1
			c0.1,0-0.1,0.4-0.2,0.5c-0.2,0.1-0.7,0.5-0.8,0.6c0,0,0,0,0,0c-0.1,0.1-0.5,0.7-0.4,1.2c0.1,0.6,0.2,0.7,0.3,1
			c0.1,0.3,0,1,0.3,1.1c0.2,0.1,0.3,0.3,0.7,0.2c0.4-0.1,0.6-0.2,0.7-0.2c0.1,0,0.2,0.1,0.3,0.2c0.1,0.1,0.3,0,0.6-0.1
			c0.1,0,0.1-0.1,0.2-0.1c0.1-0.1,0.2-0.2,0.2-0.3c0,0,0,0,0-0.1c0.1-0.3,0.3-0.8,0.3-0.8s0.2-0.4,0.1-0.5c-0.1-0.2,0,0.1,0.4-0.4
			c0.4-0.5,0.5-0.6,0.5-0.9c0-0.2-0.2-0.3-0.1-0.4c0.1,0,0.2-0.4,0.6-0.6c0.4-0.2,0.2,0.2,1-0.5c0.8-0.7,0.8-0.7,1.1-1.1
			c0.4-0.4,0-0.4,0.5-0.7c0.5-0.3,0.5-0.3,1-0.6c0.5-0.4,0.7-0.6,1-0.7c0.2-0.1,1-0.8,1.8-1.3c0.7-0.5,0.6-0.4,0.5-0.3
			c-0.1,0-1.2,0.3-1.5,0.4c-0.3,0.1,0.2-0.4,0.2-0.4c0,0,0.4-0.4,0.4-0.2c0.1,0.2,0.2,0.3,0.7,0.1c0.5-0.2,0.8-0.4,0.4-0.5
			c-0.3-0.2-0.3-0.2-0.5-0.3c-0.2-0.1-0.3-0.1-0.6-0.1c-0.3,0-0.6-0.1-0.5-0.1c0.1-0.1,0.4-0.2,0.8-0.4c0.4-0.2,0.5-0.2,0.7-0.3
			c0.2-0.1,0.5,0,0.5-0.2c0-0.1-0.2-0.1-0.3-0.1c0.2-0.1,0.5-0.2,0.6-0.3c0.3-0.3,0.5-0.5,0.2-0.4c-0.4,0.1,0.2-0.4,0.2-0.3
			c0,0,0.2-0.4-0.3-0.2c-0.5,0.2-1,0-0.4-0.2c0.6-0.2,1-0.5,0.9-0.5c-0.1,0-0.9,0-0.9,0c0,0-0.1-0.1,0.8-0.7c0.8-0.5,0.9-1,1.2-1
			c0.2-0.1,0.4-0.2,0.7-0.3c0.3-0.1,0.4-0.3,0.4-0.3S46.3,11.1,45.6,11.3z"/>
		<path class="st2" d="M44.7,18.9c-0.3,0.3-0.3,0.2-0.6,0.3c-0.3,0.1-0.4,0.2-0.6,0.3c-0.2,0.2-0.4,0.3-0.6,0.4
			c-0.2,0.1-0.1-0.1-0.3-0.2c-0.2-0.1-1.1,0.7-0.9,0.8c0.1,0.1,0.4-0.2,0.8-0.4c0.4-0.2,0,0.2-0.1,0.2c-0.1,0-0.5,0.5-0.5,0.5
			c0.2,0,0.5-0.1,0.7-0.1c-0.1,0.1-0.2,0.3-0.3,0.4c0,0,0.5-0.2,0.7-0.2c0.1,0,0.6,0,0.8-0.1c0.2-0.1,0.5-0.2,0.5-0.3
			c0-0.1,0.6-0.5,1-0.8c0.1-0.1,0.2-0.2,0.3-0.3c0.3-0.3,0-0.8-0.4-0.8C45,18.7,44.8,18.8,44.7,18.9z"/>
		<path class="st2" d="M19,25.2c0,0,0.3-0.2,0.5-0.2c0.1,0,0.4-0.2,0.4-0.2s0-0.5-0.1-0.4c-0.1,0-0.2,0.1-0.4,0.2
			c-0.1,0-0.1,0.1-0.2,0.2C19.1,24.9,19.1,25.1,19,25.2z"/>
		<path class="st2" d="M20.7,50.9c0,0-0.6-0.3-1.5-0.5c-0.8-0.2-0.8,0-1-0.1c-0.2-0.1-0.2-0.1-0.5,0c-0.3,0.1-0.6,0.4-0.7,0.6
			c-0.1,0.2,0,0.3,0,0.3c0.1,0,0.6-0.5,0.7-0.5c0.2,0,0.1,0.2,0.3,0.1c0.2-0.1,0.5-0.1,0.6,0c0.1,0.1,0.4-0.1,0.4-0.1
			s0.2,0.2,0.2,0.3c-0.1,0.1,0.3,0,0.3,0s0.1,0.2,0,0.2C19.4,51.3,20.4,51.2,20.7,50.9z"/>
		<path class="st2" d="M43,59.7c-0.3-0.3,0.1-0.6-0.4-0.6c-0.5,0.1-0.3,0.2-1,0c-0.7-0.2-1-0.4-1.2-0.5c-0.2-0.1-0.8-0.4-1.1-0.4
			c-0.3,0-0.4,0-0.7,0.1c-0.3,0-0.5,0.2-0.7,0.1c-0.2-0.1-0.7-0.3-1.1,0.2c-0.1,0.1-0.1,0.1-0.1,0.2c0-0.1-0.1-0.4-0.1-0.5
			c-0.1-0.2-0.1-0.2-0.6-0.3c-0.5-0.1-0.8-0.2-1.1-0.2c-0.3,0-0.5,0.1-0.5,0.2c0,0.1-0.1,0.1-0.1,0.2c0.1-0.1,0.1-0.3,0-0.4
			c-0.2-0.2-0.4-0.2-0.5-0.1c-0.2,0-0.6,0-0.6,0s-0.3-0.2-0.1-0.3c0.3-0.2,0.3-0.2,0.2-0.4c-0.1-0.2,0.1-0.1-0.4-0.2
			c-0.4-0.2-0.3-0.2-0.4-0.4c-0.2-0.2-0.5-0.6-0.5-0.6c-0.1,0-0.1,0-0.2-0.1c0,0-0.1,0-0.1,0c0,0-1-0.4-1.2-0.3c0,0,0,0-0.1,0
			c-0.2,0-0.5,0-0.8,0c-0.3,0.1-0.5,0.1-0.5,0.1s0,0,0,0c-0.1-0.1-0.5-0.3-0.7-0.2c-0.2,0.1-0.6-0.7-0.9-0.6c0,0,0,0,0,0
			c-0.3,0.1-0.6,0-0.6,0s0.3-0.3,0.1-0.4c-0.2-0.1-0.2,0-0.5-0.1C26.2,54,25.7,54,26,53.9c0.3-0.1,0.2-0.1,0.2-0.1
			c-0.2,0-0.5,0-0.7,0.1c-0.1,0-0.3,0.1-0.3,0.2c0,0.1-0.1,0.1-0.2,0.2c-0.1,0.1-0.3-0.2-0.6-0.1c-0.3,0.1-0.3,0.2-0.5,0.3
			c-0.3,0.1-0.3-0.2-0.3-0.2s-0.1-0.2-0.2-0.1c-0.1,0-0.5,0.1-0.6,0.1c-0.1,0-0.5,0.4-0.3,0.6c0.2,0.2,0.4,0.4,0.3,0.4
			c-0.2,0.1-0.4,0-0.5-0.2c-0.1-0.2,0.2-0.5,0-0.6c-0.1-0.1-0.1-0.1-0.1-0.1c0,0,0-0.1,0.1-0.1c0.1-0.1,0.2-0.2,0.2-0.2
			s0.1-0.2-0.1-0.1C22.1,54,22.1,54,22,54.2c-0.1,0.1-0.1,0.3-0.3,0.3c-0.2,0-0.2,0.1-0.2,0.2c0,0.1-0.1,0.2-0.1,0.2
			s-0.2-0.3-0.2-0.2c-0.1,0.1-0.4,0.2-0.3,0.4c0.1,0.2,0.1,0.5,0.1,0.5s-0.5,0.2-0.4,0.5c0.1,0.3-0.1,0.6-0.1,0.6
			c0,0,0.2-0.6-0.1-0.8c-0.4-0.1-0.4-0.2-0.6-0.1c-0.3,0.1-0.2,0.4-0.4,0.4c-0.1,0-0.1,0-0.1,0.1c-0.1,0-0.2,0.1-0.4-0.1
			c-0.4-0.2-0.4-0.2-0.5-0.3c-0.1,0-0.2-0.1-0.3-0.1c-0.1,0-0.1,0-0.3,0c-0.1,0-0.4,0-0.4,0.1c0.1,0.2,0.2,0.6,0.5,0.6
			c0.4,0,0.4,0,0.5,0.2c0.2,0.1,0.2,0.1,0.4,0.1c0.2-0.1,0.5,0,0.6,0.2c0.1,0.2,0.5,0.2,0.3,0c-0.1-0.1-0.1-0.1-0.2-0.1c0,0,0,0,0,0
			c0,0,0,0,0-0.1c0.1-0.2,0.1-0.3,0.2-0.3c0.1-0.1,0.3-0.2,0.4-0.1c0.1,0.1,0.2,0.3,0.2,0.4c0,0.1,0.2,0.1,0.3,0.2
			c0.1,0.1,0.4,1.2,0.4,1.3c0,0.1,0.1,0.5-0.1,0.6c-0.2,0.1-0.3,0.1-0.2,0.4c0.1,0.2,0.2,0.1,0.1,0.2c0,0,0,0,0,0
			c-0.1,0.1-0.1,0.3-0.2,0.3c-0.1,0-0.3,0-0.2,0.3c0.2,0.3,0,0.4,0,0.5c0,0.1-0.1,0.1,0,0.4c0.1,0.3,0.2,0.6,0.4,0.5
			c0.2-0.2,0.1,0.2,0.1,0.3c0,0.1-0.1,0.1-0.1,0.1c-0.1,0.1-0.1,0.3,0.1,0.9c0,0.1-0.1,0.5,0.2,0.5c0.4,0,0.6,0.1,0.9,0.5
			c0.3,0.4,0.6,0.7,0.8,1.2c0.2,0.4,0.7,0.8,0.9,1c0.2,0.2,0.4,0.4,0.4,0.4s0.2,0.4,0.7,0.6c0.5,0.2,0.8,0.4,1.1,0.5
			c0.3,0.1,0.7,0,0.9,0.2c0.2,0.2,0.5,0.5,0.7,0.6c0,0,0.1,0,0.1,0c0.1,0.1,0.2,0.2,0.2,0.1c0-0.1,0.9,2,1.2,2.7
			c0.2,0.7,1,2.7,1.1,2.9c0,0,0,0,0,0c0.1,0.2,0.6,1.1,0.4,1c-0.2-0.1,0.2,0.4,0.4,0.6c0.1,0.2,0.2,0.2,0.3,0.7
			c0.2,0.5,0.5,1.2,0.5,1.4c0.1,0.2,0.4,1.4,0.4,1.4s-0.3,0,0,0.4c0.4,0.4,0.8,0.6,0.9,0.9c0.1,0.3-0.1,0.7,0.2,1
			c0.3,0.3,0.4,0.8,0.5,0.7c0.2,0,0.1,0.3,0.3,0.7c0.2,0.4,0.4,0.6,0.4,0.4c0.1-0.1-0.2-0.5-0.3-0.8c-0.1-0.3-0.2-0.6-0.1-0.6
			c0.1,0.1,0.4,0.5,0.4,0.6c0,0.1,0.2,0.4,0.4,0.8c0.2,0.3,0.3,0.7,0.3,0.7c0,0.1,0,0.2,0,0.4c0,0-0.3-0.1-0.2,0.1
			c0.1,0.2,0.1,0.7,0.1,0.7s0.4-0.1,0.5-0.1c0.1,0,0.3-0.1,0.4,0c0,0.1,0,0.6-0.1,0.6c-0.1,0-0.1,0.6-0.1,0.6s0.5,0.5,0.6,0.6
			c0.2,0.1,0.6,0.4,0.7,0.6v0c0,0,0.1,0.1,0.2,0.2c0.4,0.5,0.6,0.6,0.6,0.6s0.1-0.1,0.3,0.1c0.2,0.2,0.4,0.3,0.4,0.3
			s0.1,0.2,0.2,0.2c0.1,0,0.3,0.1,0.3,0.1s0.6,0.4,0.7,0.3c0.1,0,0.4-0.2,0.7-0.1c0.2,0,0.6,0,0.7,0c0.1,0,0.5-0.2,0.7-0.2
			c0,0,0.1,0,0.1,0s0.2-0.1,0.2-0.2c0.1,0,0.2-0.1,0.4-0.1c0.1,0,0.4-0.1,0.4-0.1c0.1-0.1,0.3-0.2,0.4-0.3c-0.1,0-1.3,0.5-2.2-0.3
			c-0.9-0.7-0.5-0.5-1-0.9c-0.5-0.3-0.9-0.5-0.6-0.7c0.3-0.1,0.3,0,0.2-0.5c-0.1-0.5-0.2-0.6,0-0.7c0.2-0.1,0.3,0.2,0.1-0.5
			c-0.2-0.6-0.4-0.6-0.7-0.5c-0.3,0.1-0.5,0-0.8-0.3c-0.3-0.4-0.3-0.7,0-0.9c0.3-0.1,0.3-0.5,0.2-0.6c0-0.1-0.4-0.1-0.2-0.5
			c0.2-0.4,0.4-0.5,0.1-0.6c-0.3-0.1-0.7,0-0.8-0.2c-0.1-0.2-0.9-0.6-0.3-0.7c0.6-0.1,0.9,0.2,1-0.1c0.1-0.3,0.2-0.3-0.1-0.6
			c-0.3-0.3-0.8-0.7-0.6-0.7c0.2,0,1.5,0,1.7-0.5c0.2-0.5,0.2-0.7,0.1-1c-0.1-0.3-0.2-0.2-0.6-0.5c-0.3-0.3,0.3-0.4-0.2-0.6
			c-0.5-0.1-0.8-0.1-0.9-0.3c0-0.1,0-0.1,0-0.1c0.1,0,0.3,0,0.7,0c0.5,0,0.7,0.3,1.1,0.1c0.4-0.2,0.7-0.2,0.8-0.5c0,0,0,0,0,0
			c0.1-0.3,0-1.1-0.1-1.4c-0.1-0.4,0-0.8,0-0.8s0.3,0.1,0.2,0.4c0,0.3,0.1,0,0.2-0.5c0-0.5-0.1-0.6,0.2-0.9c0.3-0.3,0.3-0.4,0-0.7
			c-0.4-0.4-0.9-0.7-0.7-1c0.2-0.3,0.5-0.8,0.7-1c0.2-0.2,0.7-0.8,1.1-0.8c0.4,0,1.3,0,1.3-0.1c0-0.1-0.4-0.4,0-0.4
			c0.4,0,0.4-0.2,0.4-0.2c0-0.2-0.1-0.4-0.1-0.6c0-0.1,0-0.1,0-0.2c0-0.1,0.1-0.4,0.1-0.5c-0.1-0.2-0.1-0.4-0.2-0.7
			c-0.1-0.3,0.2-0.2,0-0.6c-0.1-0.4-0.6-1.8-0.9-2.3c-0.2-0.5,0.2-0.2,0.4-0.1c0.1,0.1-0.1-0.1,0-0.4c0.1-0.4,0-0.5,0-0.6
			c0.1-0.2,0.2-0.3,0.5-0.6c0.3-0.3,0.5-0.6,0.3-1.2C43.5,60.3,43.3,60,43,59.7z"/>
		<path class="st2" d="M37.1,87.5C37.1,87.5,37.2,87.6,37.1,87.5L37.1,87.5z"/>
		<path class="st2" d="M84.4,63.5C84,63,84,63.3,84,63.3s-0.1,0.5-0.1,0.7c0,0.2-0.1,0.2-0.3,0.5c-0.2,0.3-0.3,0.4-0.5,0.6
			c-0.2,0.3-0.6,0.2-0.8,0.4c-0.1,0.2-0.6,0.4-0.8,0.6c-0.2,0.2-0.1,0.3-0.1,0.8c0,0.5,0.1,0.5,0.2,0.9c0.2,0.4-0.2,0.2-0.4,0.7
			c-0.3,0.5-0.3,0.4-0.5,0.8c-0.2,0.4,0.1,0.5,0.2,0.6c0.1,0.1,0,0.4-0.1,0.7c-0.1,0.3,0,0.2,0.3,0.7c0.4,0.4,0.7,0,0.9,0
			c0.2,0,0.5-0.3,0.5-0.3c0.5-1.4,1-2.8,1.5-4.1c0,0,0-0.1,0-0.1c0-0.4-0.1-0.6,0.3-0.6c0.3,0,0.1-0.3,0.1-0.3s-0.1-0.1-0.1-0.5
			c0-0.4,0.3,0.1,0.4,0.1c0.1-0.1,0.1-0.5,0.1-1C84.7,63.8,84.7,63.9,84.4,63.5z"/>
		<path class="st2" d="M13.5,26.9c0.2-0.1,1.1-0.3,0.8-0.1c-0.3,0.1-0.5,0.3-0.4,0.4c0.1,0,0.5-0.2,0.8-0.3c0.3-0.1,0.5-0.2,0.6-0.4
			c0.1-0.1,0.5-0.2,0.7-0.3c0.1,0,0.2-0.1,0.2-0.1c0.2-0.2,0.4-0.4,0.5-0.7c-0.2,0-0.4,0.1-0.6,0.1c0,0,0-0.3-0.2-0.3
			c-0.1,0.1-0.3,0.5-0.3,0.7c0,0.2-0.7,0.2-0.7,0.2c0.1-0.1,0.2-0.2,0.3-0.2c-0.2,0-0.5,0-0.7,0c0.1-0.1,0.2-0.2,0.3-0.3
			c0,0-0.3,0.3-0.4,0.2c-0.1,0,0.1-0.4,0.1-0.4s-0.3,0.2-0.6,0.3c-0.1,0-0.2,0.1-0.4,0.1c-0.1,0-0.2,0.1-0.2,0.2
			c-0.1,0.2-0.2,0.3-0.3,0.5c0,0,0,0,0.1,0c0.2-0.1,0.5-0.1,0.3,0.1c-0.2,0.1-0.3,0.3-0.4,0.3C13,27,13.3,27.1,13.5,26.9z"/>
		<path class="st2" d="M13.2,27.9c0,0-0.3-0.3-0.4-0.4c-0.1,0-0.2,0.1-0.4,0.2c-0.2,0.4-0.5,0.8-0.7,1.2c0.5-0.4,1.2-0.7,1.2-0.7
			C13,28.1,13.1,28,13.2,27.9z"/>
		<path class="st2" d="M21.7,41C21.7,41,21.7,41,21.7,41C21.7,41,21.7,41,21.7,41z"/>
		<path class="st2" d="M93.5,45.3c-0.1,0.1-0.2,0.1-0.4,0.1c0.2,0.2,0.3,0.4,0.5,0.6C93.5,45.8,93.5,45.6,93.5,45.3z"/>
		<path class="st2" d="M17.2,55.7c-0.1-0.1-0.2-0.3-0.1-0.3c0.1,0,0.1,0,0.2,0.1c0.1,0.1,0.2,0.1,0.3,0.2c0.2,0.1,0.3,0.1,0.3-0.1
			c0-0.1-0.1-0.2,0-0.5c0-0.2-0.1-0.5-0.1-0.6c0-0.1,0-0.3,0-0.3c0-0.1-0.1-0.2-0.2-0.3c-0.1-0.1-0.2-0.2-0.2-0.2c0,0-0.2-0.1-0.7,0
			c-0.5,0.2-0.5,0.3-0.7,0.3c0,0,0,0-0.1,0c-0.1,0-0.3,0.1-0.3,0.1c0,0,0,0,0-0.1c0.1-0.3,0.1-0.1,0.2-0.4c0.1-0.3,0-0.2,0.1-0.6
			c0-0.2,0.1-0.2,0.1-0.3c0-0.1,0-0.1,0-0.3c-0.1-0.3-0.1-0.4,0-0.6c0.1-0.2,0.2-0.5-0.2-0.4c-0.5,0.1-1.1,0.3-1,0.6
			c0.1,0.3,0.1,0.5,0,0.7c-0.1,0.2-0.2,0.3-0.1,0.4c0.1,0.1,0,0.2-0.2,0.1c-0.2-0.1-0.3,0.2-0.7,0.3c-0.4,0.1-0.2-0.2-0.5-0.1
			c-0.2,0.1-0.2,0.1-0.4-0.1c-0.2-0.2-0.4-0.2-0.6-0.6c-0.1-0.4-0.1-1-0.2-1.4c-0.1-0.4,0.1-0.4,0.1-0.5c0,0,0-0.1,0-0.1
			c0-0.1,0-0.3,0-0.4c0-0.2-0.1-0.4,0.3-0.6c0.3-0.2,0.2-0.1,0.4-0.4c0.1-0.3-0.3-0.2,0.3-0.4c0.6-0.2,0.5-0.1,0.7-0.2
			c0.2-0.1,0.3-0.2,0.4-0.1c0.2,0.1,0.3,0.2,0.4,0c0.2-0.2,0.1-0.4,0.1-0.4s-0.3-0.2,0.4-0.3c0.7,0,0.6-0.4,0.8-0.2
			c0.2,0.2,0.3,0.3,0.4,0.2c0.1-0.2,0.1-0.4,0.3-0.2c0.2,0.2,0.5,0.2,0.5,0.3c0,0.1,0,0.2,0.1,0.4c0.1,0.2,0.2,0.5,0.4,0.7
			c0.2,0.2,0.4,0.6,0.5,0.1c0.1-0.4,0.2-0.2,0-0.8c-0.1-0.5-0.3-0.9-0.4-1c0,0,0,0,0-0.1c-0.1-0.1-0.3-0.5,0.1-1.1
			c0.5-0.6,0.5-0.7,0.8-0.9c0.3-0.2,0.3-0.1,0.4-0.4c0.1-0.3,0.1-0.4,0.2-0.4c0.1,0,0-0.1,0.1-0.2c0.1,0,0.2-0.2,0.2-0.2
			c0-0.1,0-0.2-0.1-0.2c-0.1,0-0.2,0.1-0.2,0.1c0.1-0.1,0.2-0.2,0.3-0.2c0-0.1-0.1-0.1-0.1-0.2c0,0-0.3,0.1-0.2,0
			c0.1,0,0.3-0.2,0.3-0.3c0-0.1-0.1-0.5-0.1-0.5s-0.1-0.8,0.1-0.2c0.2,0.6,0.1,0.9,0.3,0.4c0.2-0.4,0.1-0.6,0.1-0.6
			c0.1,0,0.1,0,0.2,0c0,0,0.3-0.6,0.3-0.8c0-0.2-0.1-0.2,0.3-0.4c0.4-0.2,0.5-0.4,0.7-0.5c0.1,0,0.3-0.1,0.4-0.1c-0.1,0-0.1,0,0-0.4
			c0.1-0.6,0.3-0.7,0.5-0.9c0.3-0.2,0.3-0.4,0.5-0.5c0.1,0,0.1-0.1,0.2-0.1c0.1,0,0.3-0.1,0.2-0.2c0-0.1,0-0.1,0.1-0.2
			c0-0.1,0.1-0.1,0.2-0.2c0.2-0.1,0.3-0.3,0.4-0.4c0.1-0.1-0.4,0.3-0.6,0.7c-0.1,0.4,0.1,0.8,0.3,0.4c0.2-0.4,0.2-0.4,0.4-0.5
			c0.3-0.1,0.4-0.3,0.6-0.4c0.2-0.1,0.5-0.4,0.6-0.5c0.1,0,0.3-0.2,0.4-0.5c0.2-0.3,0.1-0.4-0.1-0.2c-0.2,0.1,0-0.4-0.1-0.4
			c-0.1,0-0.3,0.3-0.3,0.4c0,0.1-0.2,0.2-0.2,0.3c-0.1,0-0.2,0.2-0.4,0.2c-0.2,0-0.5,0.1-0.5-0.1c0-0.1-0.1-0.4,0.1-0.5
			c0.1-0.1,0.1-0.1,0.2-0.3c0.1-0.2,0.4-0.7,0-0.5c-0.4,0.2-0.5,0.1-0.9,0.3c-0.3,0.3-0.6,0.6-0.7,0.6c-0.1,0-0.3,0.3-0.4,0.6
			c-0.1,0.2-0.2,0.3-0.3,0.4c0,0,0,0-0.1,0c-0.1,0.1-0.2,0-0.2,0s0.1-0.2,0.3-0.3c0.2-0.2,0.2-0.4,0.4-0.6c0.2-0.2,0.2-0.2,0.3-0.3
			c0.1-0.1,0.3-0.3,0.3-0.3s0.2-0.1,0.2-0.2c0.1-0.1,0-0.3,0.1-0.3c0.2-0.1,0.7-0.3,1-0.4c0.2-0.1,0.7-0.3,0.8-0.4
			c0.1,0,0.5-0.2,0.6-0.2c0.1,0,0.2-0.1,0.4-0.4c0.2-0.3,0.2-0.4,0.8-0.7c0.6-0.3,0.8-0.4,0.8-0.7c0-0.3,0-0.5,0-0.5
			c-0.1-0.1-0.3,0.2-0.4-0.1c-0.1-0.3-0.2-0.1-0.4,0.1c-0.2,0.2-0.4,0.4-0.6,0.5c-0.2,0.1-0.5,0-0.2-0.2c0.4-0.2,0.4-0.3,0.7-0.5
			c0.2-0.2,0.2-0.2,0.4-0.3c0.2-0.1,0.2-0.2-0.1-0.1c-0.3,0-0.2,0.1-0.6,0.1c-0.3-0.1-0.6-0.1-0.6-0.3c0-0.2,0.1,0,0.2-0.4
			c0-0.2-0.1-0.5-0.2-0.8c-0.1-0.4-0.6-0.4-0.8-0.1c0,0.1-0.1,0.1-0.2,0.2c-0.3,0.4-0.6,0.6-0.7,0.7c-0.1,0.2-0.2,0.3-0.3,0.1
			c-0.1-0.2-0.2-0.2-0.3-0.2c-0.1,0-0.7,0.2-0.1-0.4c0.6-0.6,0.3-0.4,0.2-0.6c0-0.2-0.2-0.2-0.4-0.1c-0.2,0.1-0.3,0-0.3-0.2
			c-0.1-0.2-0.3-0.2-0.6-0.1c-0.3,0.2-0.5,0.4-0.7,0.4c-0.2,0-0.7-0.1-0.7,0.4c0,0.5-0.2,0.6-0.2,0.8c0,0.2,0.1,0.4-0.1,0.4
			c-0.2,0.1-0.7,0.6-0.4,0.8c0.3,0.2,0.4,0.2,0.3,0.5c0,0.3-0.1,0.9-1.2,1.6c-0.1,0.1-0.2,0.2-0.2,0.3c0,0.2,0,0.5,0,0.7
			c0.1,0.2,0,0.3-0.1,0.5c-0.2,0.2-0.1,0.3-0.3,0.4c-0.2,0.1-0.2,0.2-0.3,0c-0.1-0.2-0.2,0-0.2-0.3c0-0.3-0.2-0.2,0.1-0.5
			c0.2-0.4,0-0.1,0.1-0.5c0.1-0.3,0.1-0.5,0.1-0.5c-0.1,0-0.9,0.3-0.9,0.3c0,0-0.2-0.3-0.5-0.2c-0.3,0.1-0.6-0.4-1-0.2
			c-0.4,0.1-0.7,0.3-0.7,0.3s0.2-0.5,0.1-0.7c0,0,0-0.1-0.1-0.1c-0.2-0.1-0.3-0.4-0.2-0.6c0.3-0.7,0.8-1.7,1.6-2
			c0.2-0.1,0.5-0.6,0.1-0.5c-0.4,0.1,0.2-0.2,0.4-0.3c0.2-0.1,0.1-0.1,0.4-0.2c0.3-0.1-0.1,0.2,0.4-0.2c0.5-0.4,0.6-0.5,0.6-0.6
			c0-0.1-0.4,0.1-0.6,0.1c-0.2-0.1-0.3-0.1-0.3-0.1s0.3-0.1,0.4-0.1c0.2,0,0.3-0.1,0.4-0.1c0.1-0.1,0.1,0,0.2-0.2
			c0-0.2,0-0.3,0.2-0.4c0.2-0.1,0.2-0.2,0.5-0.2c0.2,0,0-0.1,0.3-0.1c0.4-0.1,0,0,0.4-0.3c0.5-0.3,0.7-0.4,0.6-0.6
			c-0.1-0.2-0.6,0-0.2-0.4c0.4-0.4,0.5-0.3,0.5-0.5c-0.1-0.2-0.4-0.2-0.5-0.2c-0.1,0-0.2-0.1-0.5,0.2c-0.2,0.3-0.2,0.6-0.3,0.7
			c-0.1,0.1-0.2,0.1-0.4,0.4c-0.1,0.3-0.3,0.3-0.4,0.4c-0.1,0.2,0,0.2-0.1,0.2c-0.1,0-0.3-0.2-0.1-0.3c0.3-0.1,0.5-0.2,0.3-0.5
			c-0.2-0.2-0.5-0.3-0.6,0c-0.2,0.3-0.3,0.5-0.3,0.4c0-0.1-0.1-0.7-0.2-0.5c-0.1,0.2-0.4,0.4-0.6,0.6c-0.2,0.2-0.4,0.3-0.6,0.5
			c-0.1,0.2-0.2,0.4-0.3,0.5c-0.1,0.1,0,0.4-0.1,0.4c-0.1,0-0.2,0.3-0.2,0c-0.1-0.3-0.1-0.3-0.3-0.3c-0.2,0.1-0.5,0.2-0.6,0.2
			c-0.1,0-0.2,0.1-0.4,0.2c-0.2,0.1-0.5,0.3-0.5,0.3s-0.2-0.3-0.6-0.2c-0.4,0.1-0.6,0.1-0.7,0.3c-0.1,0.2-0.3,0.3-0.3,0.5
			c0,0.2,0,0.4-0.1,0.4c-0.1,0-0.1-0.2-0.2-0.3c-0.1-0.2-0.1-0.2-0.4-0.1c-0.3,0.1-1.2,0.5-1.2,0.5c0,0-0.2-0.1,0.2-0.3
			c0.4-0.2,0.4-0.6-0.2-0.5c-0.4,0.1-0.6,0.3-0.7,0.3c-0.1,0.1-0.2,0.2-0.3,0.3c-2.7,5.6-4.2,11.9-4.2,18.6c0,0.1,0.1,0.2,0.1,0.3
			c0.1,0.1,0.1,0.3,0.2,0.4c0.1,0.3,0.2,0.6,0.3,0.7c0.2,0.1,0.4,0,0.4,0.1c0.1,0.2,0.3,0.3,0.5,0.4c0.1,0.1,0,0,0.1,0.3
			c0.1,0.2,0.2,0,0.5,0.3c0.3,0.3,0.9,0.4,1,0.8c0.1,0.4,0.1,0.4,0.1,0.6c-0.1,0.2-0.2,0.4,0,0.5c0.2,0.1,0.9,0.5,1,0.4
			c0.1,0,0.3-0.1,0.4-0.1c0.1,0,0.1,0,0.2,0c0.2,0.1,0.7,0.2,0.9,0.3c0.3,0.1,0.2,0.1,0.5,0.1c0.3,0,0.7,0.1,0.8,0
			c0-0.2,0.2-0.4,0.4-0.4c0.2,0,0.7,0.4,0.8,0.5c0,0,0.1,0,0.1,0c0.1,0,0.3,0.1,0.5,0.1c0.2,0,0.3,0,0.4,0c0.3-0.1,0.2,0,0.6-0.1
			c0.1,0,0.1,0,0.2,0c0,0,0,0,0.1,0c0,0.1,0,0.2,0.2,0.3C16.8,55.6,17.1,55.7,17.2,55.7C17.2,55.7,17.2,55.8,17.2,55.7
			C17.2,55.8,17.3,55.7,17.2,55.7z"/>
		<path class="st2" d="M92.6,44.7c0.3,0.2,0.7,0,0.7-0.4c-1.3-9.6-5.6-18.2-12-24.8c-0.1,0-0.1,0.1-0.2,0.1
			c-0.1,0.1-0.3,0.2-0.4,0.1c-0.2,0-0.3-0.1-0.5-0.1c-0.1,0.1-0.1,0.2-0.2,0.2c-0.2,0-0.4,0-0.6,0c0,0,0.2-0.1,0.2-0.4
			c0-0.2-0.4-0.1-0.5-0.1c-0.1,0-0.3,0.2-0.3,0.2s-0.3,0-0.5,0.1c-0.2,0.1-0.5,0.5-0.5,0.5c0,0.1-0.1,0.2-0.1,0.3
			c0,0-0.7,0.1-0.8-0.1c-0.2-0.2-0.4-0.4,0.1-0.4c0.5,0-0.1-0.5-0.5-0.5c-0.4,0-0.5,0-0.4,0.5c0.1,0.5,0.5,0.7,0.6,0.9
			c0,0.2-0.2,0.1-0.2,0.1s-0.2-0.2-0.4-0.2c-0.2,0-0.8,0.3-0.9,0.5c-0.1,0.2,0.4,0.5,0.3,0.6c-0.2,0.1-0.7,0-1-0.3
			c-0.3-0.2-0.7,0.1-0.2,0.4c0.6,0.3,0.4,0.6,0.1,0.4c-0.3-0.2-0.5-0.4-0.6-0.4c-0.1,0-0.4-0.1-0.4-0.1s0.1-0.1-0.1-0.4
			c-0.1-0.1-0.1-0.2-0.1-0.3c0-0.1-0.1-0.3-0.3-0.3c-0.1-0.1-0.3-0.1-0.4-0.2c-0.3-0.2,0.1-0.1,0.2-0.1c0.1,0,0.8,0.3,1.4,0.4
			c0.6,0.1,1.4-0.1,1.3-0.4c0-0.3-0.3-0.7-0.8-0.8c-0.4-0.1-0.6-0.1-1-0.4c-0.3-0.3-0.8-0.4-1.3-0.4c-0.5,0-0.6-0.1-0.7-0.2
			c-0.1-0.1-0.8,0.1-0.8,0.1s-0.3-0.4-0.2-0.4c0.1,0,0.1,0,0.1,0s-0.2,0-0.3-0.2c-0.2-0.1-0.5-0.2-0.5-0.2c0,0.1,0,0.1,0,0.2
			c0-0.1-0.1-0.3-0.1-0.4c-0.1,0.1-0.2,0.2-0.3,0.2c-0.1,0.1-0.2,0.2-0.3,0.3c0-0.1,0-0.3,0-0.4c-0.1,0.1-0.2,0.2-0.3,0.3
			c0-0.2,0.1-0.3,0.1-0.5c0,0-0.2-0.1-0.5,0c-0.3,0.1-0.4,0.3-0.4,0.4c0,0.1-0.2,0-0.3,0c-0.1,0-0.4,0.1-0.4,0.1s0,0.1-0.3,0.1
			c-0.3,0-0.5-0.2-0.4,0c0,0.2-0.3,0.2-0.4,0.3c-0.1,0-0.1,0.5-0.1,0.5s-0.5,0.1-0.6,0c-0.1-0.1-0.2,0.1-0.2,0.4
			c0,0.3-0.2,0.3-0.3,0.3c-0.1,0-0.4,0.4-0.4,0.4c0,0.1-0.1,0.3-0.1,0.4c0,0-0.1,0.4-0.2,0.4c-0.1,0-0.4,0.4-0.6,0.4
			c-0.2,0-0.2,0.4-0.4,0.4c-0.1,0-0.2,0-0.3,0c-0.1,0-0.6,0-0.6,0s0,0.5-0.1,0.5c-0.1,0.1-0.2,0.1-0.4,0.2c-0.2,0.1-0.4,0.1-0.4,0.2
			c0,0.1,0.2,0.3,0.2,0.3c0.2,0,0.5,0.1,0.7,0.1c-0.3,0-0.6,0-0.9,0c0,0.2,0.1,0.4,0.1,0.6c0.2-0.1,0.4-0.1,0.6-0.2
			c-0.1,0.1-0.2,0.2-0.2,0.3c-0.1,0.2-0.1,0.4,0,0.5c0.1,0.1,0.1,0.2,0.2,0.2c0,0,0,0.3,0.7,0.2c0.7-0.1,0.8-0.3,0.9-0.4
			c0.1,0,0.3-0.6,0.4-0.3c0.1,0.3,0.1,0.3,0.3,0.3c0,0,0.1,0,0.1,0c0.4,0-0.4,0.2,0,0.4c0.4,0.2,0.3,0.2,0.5,0.7
			c0.2,0.5,0.1,0.6,0.1,0.7c0,0.1,0.2,0.4,0.4,0.4c0.2,0,0.3,0,0.3-0.2c0-0.1,0.3-0.1,0.6-0.1c0.2,0,0.5,0,0.4-0.5
			c0-0.2,0-0.4,0-0.6c0-0.2,0.1-0.3,0.3-0.4c0.3-0.1,0.6-0.3,0.5-0.6c-0.1-0.4-0.7-0.3-0.9-1.1c-0.2-0.8,0.5-0.8,0.9-1.1
			c0.4-0.3,0.6-0.5,0.6-0.5s-0.4-0.1-0.2-0.3c0.2-0.1,0.2-0.3,0.4-0.3c0.2,0,0.5-0.1,0.6-0.1c0,0,0.1,0,0.2,0c0.2,0,0.6,0.1,0.5,0.2
			c-0.1,0.2,0,0.3-0.1,0.3c-0.1,0-0.8,0.7-0.8,0.7c0,0-0.5,0.2-0.4,0.6c0.2,0.4,0.3,1,0.3,1s0,0.1,0.2,0.2c0.2,0,0.4,0.3,0.5,0.3
			c0.2,0,0.5,0,0.6,0c0.1,0,0.4-0.1,0.5-0.1c0.1,0,0.2,0.1,0.3,0c0.1,0,0.2-0.2,0.2-0.2c0,0,0.1,0,0.1,0c0.1,0,0.2,0,0.2,0
			c0.1,0,0.3,0.1,0.4,0.1c-0.1,0.1-0.3,0.2-0.4,0.2c-0.1,0-0.1,0.1-0.2,0.1c-0.4,0-0.8,0-1.3,0c0,0-0.9,0.4-0.3,0.7
			c0.1,0.1,0.2,0.1,0.3,0.2c0.3,0.3,0.3,0.6,0.1,0.6c-0.3,0-0.4-0.2-0.4-0.2s-0.4-0.6-0.8-0.4c-0.4,0.2-0.4,0.2-0.1,0.6
			c0.3,0.4,0,0.2,0.1,0.4c0.1,0.1-0.1,0.3,0.1,0.4c0.1,0.1,0,0.1-0.2,0.2c-0.2,0.1-0.3,0.1-0.1,0.2c0.3,0.1-0.7,0.1-0.7,0.1
			c-0.1-0.1-0.2-0.2-0.3-0.3c0,0-0.5,0.1-0.8,0.2c-0.3,0.1-0.8,0.2-0.8,0.2c0,0-0.1,0-0.1,0c-0.1,0-0.2-0.1-0.3-0.1
			c0,0-0.4-0.3-0.5-0.2c-0.1,0.1-0.4,0.2-0.5,0.1c-0.1,0-0.4-0.1-0.5-0.2c-0.1-0.1-0.4,0-0.3-0.3c0-0.3,0.1-0.3,0.3-0.4
			c0.3-0.2,0.3-0.2,0.2-0.3c-0.1-0.1-0.4,0-0.3-0.2c0.1-0.2,0.3-0.5,0.1-0.5c-0.2,0-0.4,0-0.5,0.1c-0.1,0.1-0.3,0.2-0.3,0.2
			s-0.4,0-0.4,0.2c0,0.1,0,0.3,0.1,0.5c0,0.1,0.4,0.6,0.4,0.6s-0.1,0.4-0.2,0.4c-0.1,0,0.1,0-0.6,0.2c0,0-0.1,0-0.1,0
			c-0.8,0.2-0.8-0.1-1.1,0.3c-0.2,0.4,0,0.5-0.5,0.6c0,0,0,0-0.1,0c-0.5,0.1-0.3,0.2-0.4,0.3c-0.1,0.1-0.3,0.1-0.4,0.1
			c0,0,0-0.1-0.1-0.1c-0.3-0.2-0.6,0.1-0.3-0.2c0.2-0.3,0.3-0.2,0.4-0.4c0.1-0.3,0.2-0.3,0-0.4c-0.2-0.1-0.5,0.2-0.7,0
			c-0.2-0.2,0.1-0.1-0.1-0.4c-0.1-0.3,0-0.4-0.3-0.6c-0.3-0.2-0.4-0.1-0.4-0.1s0.2-0.5-0.3-0.7c-0.5-0.2-0.7-0.1-0.7-0.1
			s0-0.1,0.5-0.2c0.5-0.2,0.5-0.5,0.5-0.5s-0.5-0.2-0.8-0.2c-0.2,0-0.4,0.2-0.4,0.1c0-0.1,0-0.3,0.2-0.4c0.2-0.1,0.4-0.2,0.4-0.2
			c-0.2,0-0.4-0.1-0.7-0.1c-0.1,0-0.3,0-0.4,0.2c-0.1,0.1-0.2,0.2-0.3,0.3c-0.2,0.2-0.3,0.3-0.3,0.5c0,0.2,0.5,0.3,0.5,0.3
			s-0.4,0.3-0.2,0.3c0.1,0,0.7,0,0.5,0c-0.2,0-0.4,0.1-0.4,0.1c0.1,0,0.2,0,0.3,0c0,0-0.5,0.3-0.4,0.3c0.1,0,0.7-0.1,0.7-0.1
			s0.2-0.1,0.3,0.2c0,0.3,0.2,0.5,0.2,0.5s0.4,0.1-0.1,0.3c-0.5,0.2-0.5,0.2-0.6,0.2c-0.1,0,0.4,0.4,0.2,0.4c-0.2,0.1-0.6-0.1-0.6,0
			c0,0.1,0.2,0.3,0.4,0.3c0.2,0,0.6,0.3,0.8,0c0,0-0.1,0.4-0.5,0.3c-0.4,0-0.7,0.1-0.8,0.5c0,0,0.3-0.1,0.7-0.1c0.5,0,0.4,0,0.7,0
			c0.3,0,0.3,0,0.6,0c0.3,0,0.6,0,0.9,0c0.1,0,0.3,0,0.5-0.1c0,0-0.1,0.1-0.1,0.1c0,0.2,0,0.4-0.2,0.4c-0.2,0-0.2,0.3-0.2,0.3
			s-0.4,0.1-0.7-0.1c-0.3-0.3-0.3-0.2-0.2,0.1c0.1,0.3,0.2,0.4-0.1,0.3c-0.3,0-0.5,0-0.5,0s-0.6-0.1-0.8-0.1c-0.2,0-0.2,0.4-0.2,0.5
			c0,0.1,0.3-0.2,0.7,0.2c0.4,0.4,0.8,0.7,0.8,0.8c0,0.1,0.1,0.4,0.1,0.6c0,0.3,0.2,1-0.1,1c-0.1,0-0.2,0-0.3,0
			c-0.2,0-0.3,0.1-0.3,0.1c-0.9-0.2-1.9-0.3-2.8-0.5c0,0-0.1,0-0.1,0c-0.2,0-1.1,0.2-0.7,0.7c0,0,0,0.1,0,0.2c0,0.2,0.1,0.4,0.1,0.7
			c0,0.5-0.3,0.7-0.5,0.8c-0.1,0.2-0.3,0.5-0.1,0.5c0.2,0,0.3,0.9,0.3,0.9s-0.1,0.1,0.4,0.1c0.4,0,0.4,0.1,0.4,0.1c0,0,0,0,0,0
			c0.2-0.1,0.6-0.1,0.7,0.2c0.1,0.4,0.2,0.4,0.4,0.4c0.2,0,0.1-0.4,0.5-0.3c0.4,0,0.5-0.1,0.9-0.1l0.5,0c0.1,0,0.3,0,0.4-0.1
			c0.1-0.1,0.2-0.2,0.3-0.2c0.2,0,0.2-0.6,0.5-0.6c0.3,0-0.2-0.6,0.2-0.9c0.4-0.3,0.5-0.6,0.8-0.6c0.1,0,0.2,0,0.3,0
			c0.2,0,0.3-0.2,0.3-0.3c0-0.1,0.1-0.3,0.1-0.4c0,0-0.1-0.5,0.3-0.4c0.5,0,1,0.4,1.3,0.3c0.3,0,0.4-0.2,0.6-0.4c0,0,0-0.1,0.1-0.1
			c0-0.2,0-0.3,0.5-0.2c0.6,0.2,0.8,0.2,0.9,0.6c0,0.4,0,0.3,0.4,0.6c0.4,0.3,0.7,0.6,1.1,0.7c0.3,0.1,0.6,0,1,0.6
			c0.4,0.6,0.8,0.8,0.5,0.8c-0.3,0,0.1,0.3-0.5,0.3c-0.6,0-0.6,0-0.9,0c-0.4,0-0.5,0.1-0.4,0.3c0.1,0.1,0.5,0.3,0.9,0.4
			c0.2,0.1,0.5,0,0.5-0.2c0-0.1,0-0.1,0.1-0.2c0,0,0.4,0,0.5-0.2c0.1-0.2,0.2-0.4,0.4-0.4c0.2,0-0.2-0.5-0.4-0.6
			c-0.2-0.1,0.1-0.5,0.5,0c0.4,0.4,0.8,0.1,0.1-0.4c-0.7-0.5-0.9-0.4-1.1-0.5c-0.1-0.1-0.2-0.3-0.2-0.3c-0.2-0.1-0.4-0.1-0.5-0.2
			c-0.1-0.1-0.1-0.2-0.2-0.4c0,0,0-0.2-0.4-0.4c-0.4-0.3-0.6-0.4-0.6-0.4s-0.2-0.6,0.1-0.6c0.2,0,0.3-0.1,0.4-0.1
			c0,0,0.1,0.1,0.2,0.2c0.3,0.4,0.5,0.5,0.6,0.6c0.1,0.1,0.3,0.4,0.6,0.5c0.3,0.1,0.4,0.3,0.5,0.3c0.1,0,0.4,0.1,0.4,0.1
			c0,0,0,0,0.1,0c0.2,0.1,0.4,0.3,0.5,0.4c0.1,0.1,0.2,0.2,0.2,0.3c0,0.2,0,0.5,0.1,0.6c0.1,0.1,0.3,0.7,0.5,0.6c0,0,0.1,0,0.1,0
			c0.1,0,0.1,0.1,0.2,0.3c0.1,0.2,0.1,0.6,0.1,0.6c0.1,0.1,0.2,0.2,0.3,0.4c0,0,0.3,0.2,0.4,0.2c0.1,0,0.6,0.1,0.6,0.1
			c0-0.1,0-0.2-0.1-0.3c0.1,0,0.1,0,0.2,0c-0.1-0.1-0.2-0.2-0.3-0.3c0.2,0.1,0.3,0.1,0.5,0.2c0.1-0.1,0.1-0.1,0.2-0.2
			c-0.2-0.2-0.3-0.4-0.5-0.5c0,0,0,0-0.1-0.1C71,36,71,35.8,70.9,35.7c0,0-0.1-0.4,0.1-0.2c0.2,0.2,0.2,0.1,0.4,0
			c0.2-0.2-0.2-0.1,0.2-0.2c0.3-0.1,0.4-0.2,0.5-0.1c0,0,0,0,0,0c0.1,0.1,0.4,0.2,0.5,0.3c0,0,0,0,0,0s0,0,0,0c0,0,0,0.1,0,0.3
			c0,0.4,0.1,0.6,0.2,0.8c0.1,0.2,0.2,0.5,0.4,0.5c0.2,0,0.3,0,0.4,0.2c0,0.1,0.1,0.2,0.1,0.2c0.1,0.1,0.2,0.2,0.3,0.2
			c0.1,0,0.3,0,0.4,0.1c0,0,0.2,0.1,0.3,0c0.1-0.1,0.2-0.2,0.2-0.2s0.3-0.2,0.6,0.1c0.3,0.3,0.3,0.3,0.7,0.3c0.4,0,0.2-0.4,0.4-0.3
			c0.2,0.1,0.5,0.1,0.7,0.1c0.1,0,0.1,0,0.2,0.1c0,0,0,0.1,0,0.2c0,0.2,0.1,0.9,0.1,1c0,0.1,0,0.3-0.1,0.4c0,0,0,0,0,0
			c-0.2,0.1-0.3,0.2-0.3,0.4c0,0.2,0.1,0.4,0.1,0.6c0,0.1,0,0.7,0.1,1.2c0.1,0.3,0.1,0.5,0.2,0.7c0.3,0.5,0.2,0.2,0.7,0.8
			c0.5,0.6,0.3,0.9,0.6,1.2c0.3,0.3,0.6,0.1,0.8,0.9c0,0-0.1,0.9,0.3,1.2c0.4,0.3,0.6,0.2,0.8,0.8c0.3,0.6,0.6,0.6,0.8,0.9
			c0.1,0.1,0.1,0.2,0.2,0.2c0,0.1,0,0.2,0,0.3c0,0.3-0.1,0.5,0,0.9c0.1,0.4,0.1,0.5,0.2,0.7c0.2,0.2,0.1,0.3,0.6,0.2
			c0.5-0.2,0.1-0.3,0.6-0.3c0.3,0,0.7-0.1,0.9-0.2c0.1,0,0.2-0.1,0.3-0.2c0-0.1,0.2-0.2,0.4-0.2c0.4,0,0.4-0.2,0.7-0.4
			c0.3-0.1,0.5-0.1,0.5-0.3c0-0.2,0.2-0.4,0.3-0.4c0,0,0,0,0,0c0.1,0,0.1,0,0.3,0c0.2,0,0.4,0,0.6,0c0.2,0-0.3-0.4,0.1-0.4
			c0.4,0,0.5,0.1,0.5-0.2c0-0.3,0.4-0.4,0.4-0.4s0-0.2,0-0.3c0-0.1-0.2-0.4,0.1-0.4c0.3,0,0.1,0,0.5-0.3c0.4-0.3,0.3-0.6,0.2-0.8
			c-0.1-0.1-0.1-0.1-0.2-0.2c-0.1-0.1-0.3-0.4-0.4-0.4c-0.1,0-0.4,0-0.5-0.1c-0.2-0.1-0.4-0.2-0.5-0.4c0,0,0-0.1-0.1-0.2
			c-0.1-0.2-0.1-0.5-0.1-0.5s-0.6,0.8-0.9,0.9c-0.2,0.1-0.8,0-1,0.1c0,0-0.1,0-0.1,0c-0.2-0.1-0.6-0.5-0.8-0.8
			c-0.2-0.4,0-0.4-0.3-0.7c-0.2-0.2-0.5-0.6-0.7-0.8c-0.1-0.1-0.1-0.2-0.1-0.3c0-0.2,0.5-1,0.8-0.5c0.3,0.5,0.5,1,1.2,1.2
			c0,0,0.3,0.5,0.7,0.6c0.5,0.1,1-0.4,1.2-0.3c0.2,0.2,0.2,0.7,0.7,0.8c0.6,0.1,1,0.3,1.3,0.3c0.1,0,0.2,0,0.3,0
			c0.2,0,0.5-0.1,1.1,0c0.9,0,0.9-0.3,1.1,0.1c0.2,0.3,0.1,0.6,0.6,0.6C92.5,44.7,92.6,44.7,92.6,44.7
			C92.6,44.7,92.6,44.7,92.6,44.7z M70.4,29.2C70.4,29.3,70.4,29.3,70.4,29.2C70.4,29.3,70.4,29.3,70.4,29.2
			C70.4,29.3,70.4,29.3,70.4,29.2z M71.8,26.5C71.8,26.5,71.8,26.5,71.8,26.5C71.8,26.5,71.8,26.5,71.8,26.5
			C71.8,26.5,71.8,26.5,71.8,26.5z M85.8,47.1C85.8,47.1,85.8,47.1,85.8,47.1L85.8,47.1C85.7,47.1,85.8,47.1,85.8,47.1z M91.1,37.7
			c0.1,0,0.1,0,0.2,0c0,0,0,0,0,0C91.2,37.7,91.1,37.7,91.1,37.7z"/>
		<path class="st2" d="M63.9,34.5c0.3,0,0.3-0.2,0.3-0.4c0-0.2-0.5-0.4-0.5-0.2C63.7,33.9,63.6,34.5,63.9,34.5z"/>
		<path class="st2" d="M7.5,52.8C7.2,52.8,7.2,52.4,7,52c-0.1-0.3-0.4-0.3-0.6-0.6c-0.1-0.1-0.1-0.2-0.1-0.3c0,0.3,0,0.6,0,0.9
			c0,0,0.1,0,0.1,0.1c0.1,0.2,0.1,0.2,0.2,0.3c0,0.1,0.1,0.4,0.1,0.4C7,53,7.2,53,7.4,53.1c0.1,0,0.1,0.1,0.2,0.1
			c0.1,0.1,0.3,0.4,0.4,0.1C7.9,53,7.8,52.9,7.5,52.8z"/>
		<path class="st2" d="M20.3,24.2c-0.2,0.1,0,0.6,0.1,0.6c0.1,0,0.4-0.2,0.6-0.3c0.3-0.1,0.5-0.2,0.8-0.3c0.3-0.1,0.6-0.2,0.8-0.3
			c0.2-0.1,0.4-0.3,0.8-0.6c0.5-0.3,0.4-0.7,0.4-0.7S23.1,23,23,23c-0.1,0-0.9,0.5-1.8,0.9c-0.8,0.3,0-0.3,0.2-0.4c0,0,0,0,0.1,0
			c0.2-0.1,1-0.5,1.1-0.5c0.1,0,0.6-0.3,0.7-0.4c0,0,0,0,0.1,0c0.4-0.1,0.7-0.3,1.1-0.4c0,0,0.4-0.2,0.3-0.3
			c-0.1-0.1-0.3-0.3,0.1-0.5c0.3-0.1,0.6-0.4,0.6-0.4c0-0.1,0.1-0.2,0.1-0.3c0,0,1-0.5,1.1-0.6c0.1-0.1-0.4,0.2-0.6,0.2
			c-0.2,0.1,0.1-0.6,0.2-0.7c0.2-0.2,1.3-0.5,1.6-0.7c0.3-0.1,0.5-0.2,0.8-0.4c0.2-0.1,0.4-0.7,0.7-0.8c0.3-0.1,0.8-0.5,1-0.6
			c0.3-0.2,1-0.6,1-0.6c0.2-0.1,0.4-0.3,0.6-0.4c0,0-0.4-0.2-0.9-0.1c-0.5,0.2-0.6,0.2-1,0.4c-0.4,0.2-0.5,0.2-0.9,0.4
			c-0.5,0.2-0.7,0.3-1.2,0.5c-0.5,0.2-0.4,0.2-1.3,0.5c-0.8,0.3-0.8,0.4-1.6,0.9c-0.8,0.6-1.2,0.6-1.5,0.7c-0.2,0.1-0.3,0.3-0.4,0.4
			c0,0.1-0.1,0.2,0,0.3c0,0.1,0,0.2,0,0.2c0,0.1,0.1,0.2,0.1,0.3c0,0-0.3,0.1-0.4,0c-0.1-0.1-0.4,0-0.4,0s-0.2,0.2-0.4,0.2
			c-0.1,0-0.6,0.2-0.7,0.3c-0.1,0.1-0.3,0.3-0.3,0.5c0,0.1,0,0.2,0,0.3c0,0.1,0,0.2,0.1,0.3c0,0,0.3,0.2,0.5,0.2
			c0.1-0.1,0.4-0.2,0.6-0.3c0.2-0.1,0.6-0.3,0.7-0.4c0.1,0,0.4,0,0.4,0s0,0.2-0.1,0.2c-0.1,0-0.3,0-0.3,0s-0.3,0.1-0.4,0.2
			c-0.1,0-0.3,0.4-0.5,0.4c-0.2,0.1-0.4,0.2-0.5,0.2c-0.1,0.1-0.2,0.3-0.4,0.3c-0.2,0.1-0.7,0.1-0.9,0.1c-0.2,0-0.3,0.6-0.3,0.6
			c0.2-0.1,0.4-0.2,0.6-0.2C20.4,23.7,20.4,24.1,20.3,24.2z"/>
		<path class="st2" d="M63.7,35.1c0,0.3,0,0.5,0.1,0.8c0.1,0,0.2,0,0.3,0c0-0.1,0.1-0.1,0.1-0.2c0.1,0,0.2,0,0.2,0
			c0,0,0.1-0.8,0.1-0.8c0,0-0.1-0.2-0.2-0.2c-0.1-0.1-0.2,0-0.2,0c-0.1,0-0.1,0.1-0.2,0.1c-0.1,0-0.1,0.1-0.2,0.1
			C63.6,35,63.6,35,63.7,35.1z"/>
		<path class="st2" d="M12.1,30.4c0,0.1,0.1,0.2,0.1,0.3c0,0,0.2-0.1,0.8-0.3c0.6-0.2,1-0.6,1.1-0.8c0.1-0.2,0.1,0.1,0.6,0.1
			c0.5,0,0.4-0.1,0.8-0.3c0.5-0.2,0-0.3,0.1-0.3c0.1,0,0.5-0.2,0.7-0.4c0.2-0.2-0.8,0.1-0.8-0.4c0-0.5,0.5-1.3,0.5-1.3
			c0.1,0,0.1-0.2,0.1-0.2C16,26.9,15.8,27,15.6,27c0,0.2,0.1,0.3,0.1,0.5c0,0-0.1-0.2-0.4-0.2c-0.2,0-0.6,0.5-0.5,0.9c0,0,0,0,0,0
			c0-0.1-0.1-0.3-0.2-0.1c-0.1,0.1,0-0.3-0.1-0.1c-0.1,0.2-0.4,0.2-0.6,0.1c-0.3-0.1-0.3,0.1-0.6,0.2c-0.4,0.1-0.4,0.2-0.8,0.3
			c-0.4,0.1-0.4,0.2-0.5,0.5c-0.1,0.3,0.4,0.3,0.1,0.4c-0.3,0.1-0.5,0.3-0.4,0.3c0.1,0,1.4-0.2,1.4-0.2s-0.4,0.1-0.8,0.2
			c-0.4,0.1-0.9,0.3-0.9,0.6C11.4,30.8,12.1,30.4,12.1,30.4z"/>
		<path class="st2" d="M54.5,28.1c0.4,0.1,0.4,0,0.7-0.1c0.3-0.1,0.3-0.1,0.8-0.1c0.5,0,0.1-0.7,0.2-0.8c0,0,0.2,0.1-0.1-0.1
			c-0.3-0.3-0.5-0.3,0.2-0.3c0.7,0.1,0-0.3-0.2-0.4c-0.2-0.1-0.3,0-0.7-0.1c-0.5,0-0.3,0.4-0.3,0.4s-0.2,0.1-0.5-0.1
			c-0.3-0.2-0.4-0.1-0.4,0.4c0,0.4,0.1,0.3,0.4,0.3c0.3,0,0,0.2-0.2,0.2c-0.2,0-0.4,0.3-0.4,0.4C54.1,28,54.2,28,54.5,28.1z"/>
		<path class="st2" d="M63.5,14.2c0.3,0,0.4-0.3,0.7-0.3c0.3,0,0,0.3,0,0.3c-0.8,0.2-0.8,0.1-0.2,0.5c0.6,0.4,0.5,0,0.8,0.2
			c0.4,0.2,0.2,0,0.4-0.5c0.2-0.5,0.1-0.4,0.6-0.4c0.4-0.1,0.4,0.4,0.6,0.5c0,0,0.4,0.2,0.8,0.2c0.4,0,0.5-0.2,0.3-0.2
			c-0.2,0-0.5,0-0.9-0.4c-0.4-0.4-1.3-0.6-1.3-0.6s0.3,0,0.4,0.1c0.1,0.1,0.7,0.1,1.1,0.1c0.4,0,0.4,0,0.9-0.2
			c0.5-0.2,0.2-0.4,0.2-0.4s-0.8,0-1.2,0c-0.4,0-0.7,0-1.2,0c-0.5,0-0.6,0.2-1.3,0.1c-0.6,0-0.8,0-1,0c-0.2,0-0.4,0.2-0.4,0.3
			C62.6,14.2,63.1,14.2,63.5,14.2z"/>
	</g>
	<g>
		<g>
			<path class="st3" d="M33.5,24.8h-1.3c-0.1,0-0.2-0.1-0.2-0.2V18c0-0.1,0.1-0.2,0.2-0.2h1.3c0.1,0,0.2,0.1,0.2,0.2v6.6
				C33.7,24.7,33.6,24.8,33.5,24.8z"/>
			<path class="st0" d="M32.9,24.8L32.9,24.8c-0.4,0-0.8-0.4-0.8-0.8v-5.3c0-0.4,0.4-0.8,0.8-0.8h0"/>
		</g>
		<path class="st4" d="M32.1,18.7v-1.9c0-0.7,0.9-1.1,1.6-0.8l3.5,1.9c0.9,0.5,0.5,1.7-0.5,1.7h-3.5C32.5,19.6,32.1,19.2,32.1,18.7z
			"/>
	</g>
	<g>
		<g>
			<path class="st3" d="M18.1,41h-1.3c-0.1,0-0.2-0.1-0.2-0.2v-6.6c0-0.1,0.1-0.2,0.2-0.2h1.3c0.1,0,0.2,0.1,0.2,0.2v6.6
				C18.2,41,18.2,41,18.1,41z"/>
			<path class="st0" d="M17.5,41L17.5,41c-0.4,0-0.8-0.4-0.8-0.8v-5.3c0-0.4,0.4-0.8,0.8-0.8l0,0"/>
		</g>
		<path class="st4" d="M16.7,34.9v-1.9c0-0.7,0.9-1.1,1.6-0.8l3.5,1.9c0.9,0.5,0.5,1.7-0.5,1.7h-3.5C17.1,35.8,16.7,35.4,16.7,34.9z
			"/>
	</g>
	<g>
		<g>
			<path class="st3" d="M33,63.5h-1.3c-0.1,0-0.2-0.1-0.2-0.2v-6.6c0-0.1,0.1-0.2,0.2-0.2H33c0.1,0,0.2,0.1,0.2,0.2v6.6
				C33.2,63.4,33.1,63.5,33,63.5z"/>
			<path class="st0" d="M32.4,63.5L32.4,63.5c-0.4,0-0.8-0.4-0.8-0.8v-5.3c0-0.4,0.4-0.8,0.8-0.8h0"/>
		</g>
		<path class="st4" d="M31.6,57.4v-1.9c0-0.7,0.9-1.1,1.6-0.8l3.5,1.9c0.9,0.5,0.5,1.7-0.5,1.7h-3.5C32,58.3,31.6,57.9,31.6,57.4z"
			/>
	</g>
	<g>
		<g>
			<path class="st3" d="M57.4,45.8h-1.3c-0.1,0-0.2-0.1-0.2-0.2V39c0-0.1,0.1-0.2,0.2-0.2h1.3c0.1,0,0.2,0.1,0.2,0.2v6.6
				C57.5,45.7,57.5,45.8,57.4,45.8z"/>
			<path class="st0" d="M56.7,45.8L56.7,45.8c-0.4,0-0.8-0.4-0.8-0.8v-5.3c0-0.4,0.4-0.8,0.8-0.8l0,0"/>
		</g>
		<path class="st4" d="M56,39.7v-1.9c0-0.7,0.9-1.1,1.6-0.8l3.5,1.9c0.9,0.5,0.5,1.7-0.5,1.7H57C56.4,40.6,56,40.2,56,39.7z"/>
	</g>
	<g>
		<g>
			<path class="st3" d="M72.3,30.6H71c-0.1,0-0.2-0.1-0.2-0.2v-6.6c0-0.1,0.1-0.2,0.2-0.2h1.3c0.1,0,0.2,0.1,0.2,0.2v6.6
				C72.4,30.5,72.3,30.6,72.3,30.6z"/>
			<path class="st0" d="M71.6,30.6L71.6,30.6c-0.4,0-0.8-0.4-0.8-0.8v-5.3c0-0.4,0.4-0.8,0.8-0.8l0,0"/>
		</g>
		<path class="st4" d="M70.9,24.5v-1.9c0-0.7,0.9-1.1,1.6-0.8l3.5,1.9c0.9,0.5,0.5,1.7-0.5,1.7h-3.5C71.3,25.4,70.9,25,70.9,24.5z"
			/>
	</g>
	<g>
		<g>
			<path class="st3" d="M73.3,65.4H72c-0.1,0-0.2-0.1-0.2-0.2v-6.6c0-0.1,0.1-0.2,0.2-0.2h1.3c0.1,0,0.2,0.1,0.2,0.2v6.6
				C73.4,65.4,73.3,65.4,73.3,65.4z"/>
			<path class="st0" d="M72.6,65.4L72.6,65.4c-0.4,0-0.8-0.4-0.8-0.8v-5.3c0-0.4,0.4-0.8,0.8-0.8l0,0"/>
		</g>
		<path class="st4" d="M71.8,59.3v-1.9c0-0.7,0.9-1.1,1.6-0.8l3.5,1.9c0.9,0.5,0.5,1.7-0.5,1.7h-3.5C72.3,60.2,71.8,59.8,71.8,59.3z
			"/>
	</g>
</g>
</svg>
