<?xml version="1.0" encoding="utf-8"?>
<!-- Generator: Adobe Illustrator 21.0.0, SVG Export Plug-In . SVG Version: 6.00 Build 0)  -->
<svg version="1.1" id="圖層_1" xmlns="http://www.w3.org/2000/svg" xmlns:xlink="http://www.w3.org/1999/xlink" x="0px" y="0px"
	 viewBox="0 0 18 20" style="enable-background:new 0 0 18 20;" xml:space="preserve">
<style type="text/css">
	.st0{fill:#FFFFFF;}
	.st1{fill:#5E8AB4;}
</style>
<g>
	<path class="st0" d="M11.3,4.1H6.7c-1.2,0-2.1-2.8-2.1-2.8C4.5,0.9,4.8,0.5,5.2,0.5C6.1,0.3,7.5-0.7,9,0.9c1.2-1.1,2.9-0.6,3.8-0.4
		c0.4,0.1,0.6,0.5,0.6,0.8C13.4,1.3,12.6,4.1,11.3,4.1z"/>
	<path class="st0" d="M12.7,4.8H5.3c-0.4,0-0.7,0.3-0.7,0.7v0c0,0.4,0.3,0.7,0.7,0.7h7.3c0.4,0,0.7-0.3,0.7-0.7v0
		C13.4,5.1,13.1,4.8,12.7,4.8z"/>
	<path class="st0" d="M14.4,7.1c-0.2-0.2-0.5-0.3-0.8-0.2c-0.1,0-0.1,0-0.2,0H4.5c0,0-0.1,0-0.1,0c-0.3,0-0.6,0-0.8,0.2
		c-1.6,1.5-2.7,3.7-2.9,6.2C0.2,19,3.9,20,9,20c4.2,0,8.4-0.9,8.4-5.8C17.4,11.3,16.2,8.8,14.4,7.1z"/>
	<path class="st1" d="M12.4,12.6l0.6-0.7l0.6,0.6l0.7-2.8l-2.8,0.8l0.6,0.6l-2.1,2.2l-1.6-1.7c-0.1-0.1-0.3-0.2-0.4-0.2c0,0,0,0,0,0
		c-0.2,0-0.3,0.1-0.4,0.2l-2.3,2.6L4,13.1c-0.2-0.2-0.6-0.2-0.8,0.1C3,13.4,3,13.8,3.3,14L5,15.4c0.1,0.1,0.2,0.1,0.4,0.1
		c0.2,0,0.3-0.1,0.4-0.2l2.3-2.5l1.4,1.6c0,0.2-0.1,0.4-0.1,0.6c0,1.4,1.1,2.5,2.5,2.5s2.5-1.1,2.5-2.5
		C14.4,13.8,13.5,12.8,12.4,12.6z M10.1,15c0-0.1,0-0.2,0-0.3c0.1,0,0.2-0.1,0.3-0.2l1.3-1.3c0,0,0.1,0,0.1,0c1,0,1.8,0.8,1.8,1.8
		c0,1-0.8,1.8-1.8,1.8C10.9,16.8,10.1,16,10.1,15z"/>
	<path class="st1" d="M12.8,14.7h-0.5v-0.5c0-0.2-0.2-0.3-0.3-0.3c-0.2,0-0.3,0.2-0.3,0.3v0.5H11c-0.2,0-0.3,0.2-0.3,0.3
		s0.2,0.3,0.3,0.3h0.5v0.5c0,0.2,0.2,0.3,0.3,0.3c0.2,0,0.3-0.2,0.3-0.3v-0.5h0.5c0.2,0,0.3-0.2,0.3-0.3S13,14.7,12.8,14.7z"/>
</g>
</svg>
