<?xml version="1.0" encoding="utf-8"?>
<!-- Generator: Adobe Illustrator 21.0.0, SVG Export Plug-In . SVG Version: 6.00 Build 0)  -->
<svg version="1.1" id="圖層_1" xmlns="http://www.w3.org/2000/svg" xmlns:xlink="http://www.w3.org/1999/xlink" x="0px" y="0px"
	 viewBox="0 0 110 100" style="enable-background:new 0 0 110 100;" xml:space="preserve">
<style type="text/css">
	.st0{fill:url(#SVGID_1_);}
	.st1{fill:url(#SVGID_2_);}
	.st2{fill:#736357;}
	.st3{opacity:0.4;}
	.st4{fill:#FFFFFF;}
	.st5{fill:#D9E083;}
	.st6{fill:#8C7764;}
	.st7{fill:#998675;}
	.st8{fill:#B1A192;}
</style>
<g>
	<linearGradient id="SVGID_1_" gradientUnits="userSpaceOnUse" x1="48.9614" y1="56.6073" x2="48.9614" y2="84.8037">
		<stop  offset="0" style="stop-color:#D9E083"/>
		<stop  offset="0.4421" style="stop-color:#D9E083;stop-opacity:0"/>
	</linearGradient>
	<polygon class="st0" points="85.1,56.4 96.9,67.5 27.6,73.8 1,56.4 	"/>
	<linearGradient id="SVGID_2_" gradientUnits="userSpaceOnUse" x1="75.3539" y1="75.9859" x2="95.2375" y2="93.2336">
		<stop  offset="0" style="stop-color:#D9E083"/>
		<stop  offset="1" style="stop-color:#D9E083;stop-opacity:0"/>
	</linearGradient>
	<polygon class="st1" points="98.7,81.2 109.8,92.3 89.8,100 64.3,81.4 75.9,69.8 	"/>
	<g>
		<path class="st2" d="M84.7,56.4H1.3c-0.6,0-1.2-0.5-1.2-1.2v0c0-0.6,0.5-1.2,1.2-1.2h83.3c0.6,0,1.2,0.5,1.2,1.2v0
			C85.8,55.9,85.3,56.4,84.7,56.4z"/>
	</g>
	<g class="st3">
		<path class="st4" d="M84.7,63.5H1.3c-0.6,0-1.2-0.5-1.2-1.2v0c0-0.6,0.5-1.2,1.2-1.2h83.3c0.6,0,1.2,0.5,1.2,1.2v0
			C85.8,63,85.3,63.5,84.7,63.5z"/>
	</g>
	<g class="st3">
		<path class="st4" d="M84.7,70.9H1.3c-0.6,0-1.2-0.5-1.2-1.2l0,0c0-0.6,0.5-1.2,1.2-1.2h83.3c0.6,0,1.2,0.5,1.2,1.2l0,0
			C85.8,70.3,85.3,70.9,84.7,70.9z"/>
	</g>
	<g class="st3">
		<path class="st4" d="M84.7,78.2H1.3c-0.6,0-1.2-0.5-1.2-1.2v0c0-0.6,0.5-1.2,1.2-1.2h83.3c0.6,0,1.2,0.5,1.2,1.2v0
			C85.8,77.7,85.3,78.2,84.7,78.2z"/>
	</g>
	<g class="st3">
		<path class="st4" d="M84.7,85H1.3c-0.6,0-1.2-0.5-1.2-1.2l0,0c0-0.6,0.5-1.2,1.2-1.2h83.3c0.6,0,1.2,0.5,1.2,1.2l0,0
			C85.8,84.5,85.3,85,84.7,85z"/>
	</g>
	<g>
		<polygon class="st5" points="0.5,68.2 5.4,68.4 9.4,65.1 17,69.8 25.3,64.6 38.1,75.1 69.1,45.5 62.9,42.9 82.9,36 85.8,52.5 
			79.1,49.7 39,86.2 23,71.6 17,75.6 8.7,69.9 6.5,72.4 		"/>
	</g>
	<g>
		<polygon class="st4" points="0.5,67 5.4,67.2 9.4,63.8 17,68.5 25.3,63.3 38.1,73.8 69.1,44.2 62.9,41.6 82.9,34.7 85.8,51.3 
			79.1,48.4 39,85 23,70.4 17,74.4 8.7,68.6 6.5,71.1 		"/>
	</g>
	<g>
		<g>
			<ellipse class="st6" cx="71.4" cy="81.2" rx="7.1" ry="1.7"/>
		</g>
		<g>
			<rect x="64.2" y="59.9" class="st6" width="14.3" height="21.3"/>
		</g>
		<g>
			<path class="st4" d="M75.5,70.9c0-0.1,0-0.1,0-0.2c0,0,0,0,0,0c-0.1-0.3-0.2-0.6-0.4-0.8c-0.9-1.7-2.2-3.3-3-4.9
				c-0.1-0.3-0.6-0.3-0.7,0c-0.9,1.9-2.8,3.8-3.4,5.7c0,0,0,0,0,0c-0.2,0.5-0.3,1-0.3,1.6c0,2.4,1.8,4.4,4,4.4c2.2,0,4-2,4-4.4
				C75.8,71.8,75.7,71.3,75.5,70.9z"/>
		</g>
		<g>
			<path class="st7" d="M69.3,73.1c-0.3-0.3-0.4-0.7-0.4-1.1c0-0.5,0.1-0.9,0.4-1.2c0.3-0.3,0.6-0.4,1-0.4c0.4,0,0.8,0.1,1.1,0.4
				c0.3,0.3,0.4,0.7,0.4,1.2c0,0.5-0.1,0.9-0.4,1.1c-0.3,0.3-0.6,0.4-1.1,0.4C69.9,73.5,69.6,73.4,69.3,73.1z M71,72.7
				c0.1-0.2,0.2-0.4,0.2-0.8c0-0.3-0.1-0.6-0.2-0.8c-0.1-0.2-0.3-0.3-0.6-0.3c-0.3,0-0.5,0.1-0.6,0.3c-0.1,0.2-0.2,0.4-0.2,0.8
				c0,0.3,0.1,0.6,0.2,0.8c0.1,0.2,0.3,0.3,0.6,0.3C70.6,73,70.8,72.9,71,72.7z"/>
			<path class="st7" d="M72.3,70.4h0.6v0.5h-0.6V70.4z M72.3,71.2h0.3h0.3v2.2h-0.3h-0.3V71.2z"/>
			<path class="st7" d="M73.5,70.4h0.3H74v3h-0.3h-0.3V70.4z"/>
		</g>
		<g>
			<g>
				<ellipse class="st6" cx="71.4" cy="60" rx="7.1" ry="1.6"/>
			</g>
			<g>
				<g>
					<path class="st8" d="M71.4,61.9c-2.6,0-7.4-0.4-7.4-1.9c0-1.5,4.8-1.9,7.4-1.9s7.4,0.4,7.4,1.9C78.8,61.5,73.9,61.9,71.4,61.9z
						 M71.4,58.7c-4.4,0-6.8,0.9-6.8,1.3s2.4,1.3,6.8,1.3c4.4,0,6.8-0.9,6.8-1.3S75.7,58.7,71.4,58.7z"/>
				</g>
			</g>
		</g>
		<g>
			<ellipse class="st6" cx="91.6" cy="81.2" rx="7.1" ry="1.7"/>
		</g>
		<g>
			<rect x="84.4" y="59.9" class="st6" width="14.3" height="21.3"/>
		</g>
		<g>
			<path class="st4" d="M95.8,70.9c0-0.1,0-0.1,0-0.2c0,0,0,0,0,0c-0.1-0.3-0.2-0.6-0.4-0.8c-0.9-1.7-2.2-3.3-3-4.9
				c-0.1-0.3-0.6-0.3-0.7,0c-0.9,1.9-2.8,3.8-3.4,5.7c0,0,0,0,0,0c-0.2,0.5-0.3,1-0.3,1.6c0,2.4,1.8,4.4,4,4.4s4-2,4-4.4
				C96,71.8,95.9,71.3,95.8,70.9z"/>
		</g>
		<g>
			<path class="st7" d="M89.6,73.1c-0.3-0.3-0.4-0.7-0.4-1.1c0-0.5,0.1-0.9,0.4-1.2c0.3-0.3,0.6-0.4,1-0.4c0.4,0,0.8,0.1,1.1,0.4
				c0.3,0.3,0.4,0.7,0.4,1.2c0,0.5-0.1,0.9-0.4,1.1c-0.3,0.3-0.6,0.4-1.1,0.4C90.2,73.5,89.8,73.4,89.6,73.1z M91.2,72.7
				c0.1-0.2,0.2-0.4,0.2-0.8c0-0.3-0.1-0.6-0.2-0.8c-0.1-0.2-0.3-0.3-0.6-0.3c-0.3,0-0.5,0.1-0.6,0.3c-0.1,0.2-0.2,0.4-0.2,0.8
				c0,0.3,0.1,0.6,0.2,0.8c0.1,0.2,0.3,0.3,0.6,0.3C90.9,73,91.1,72.9,91.2,72.7z"/>
			<path class="st7" d="M92.5,70.4h0.6v0.5h-0.6V70.4z M92.5,71.2h0.3h0.3v2.2h-0.3h-0.3V71.2z"/>
			<path class="st7" d="M93.7,70.4H94h0.3v3H94h-0.3V70.4z"/>
		</g>
		<g>
			<g>
				<ellipse class="st6" cx="91.6" cy="60" rx="6.9" ry="1.6"/>
			</g>
			<g>
				<g>
					<path class="st8" d="M91.6,61.9c-3.5,0-7.2-0.6-7.2-1.9c0-1.3,3.7-1.9,7.2-1.9s7.2,0.6,7.2,1.9C98.8,61.3,95,61.9,91.6,61.9z
						 M91.6,58.7c-4.2,0-6.6,0.9-6.6,1.3s2.3,1.3,6.6,1.3s6.6-0.9,6.6-1.3S95.8,58.7,91.6,58.7z"/>
				</g>
			</g>
		</g>
		<g>
			<ellipse class="st6" cx="80.7" cy="87.9" rx="7.1" ry="1.7"/>
		</g>
		<g>
			<rect x="73.5" y="66.6" class="st6" width="14.3" height="21.3"/>
		</g>
		<g>
			<path class="st4" d="M84.9,77.6c0-0.1,0-0.1,0-0.2c0,0,0,0,0,0c-0.1-0.3-0.2-0.6-0.4-0.8c-0.9-1.7-2.2-3.3-3-4.9
				c-0.1-0.3-0.6-0.3-0.7,0c-0.9,1.9-2.8,3.8-3.4,5.7c0,0,0,0,0,0c-0.2,0.5-0.3,1-0.3,1.6c0,2.4,1.8,4.4,4,4.4c2.2,0,4-2,4-4.4
				C85.1,78.5,85,78.1,84.9,77.6z"/>
		</g>
		<g>
			<path class="st7" d="M78.7,79.8c-0.3-0.3-0.4-0.7-0.4-1.1c0-0.5,0.1-0.9,0.4-1.2c0.3-0.3,0.6-0.4,1-0.4c0.4,0,0.8,0.1,1.1,0.4
				c0.3,0.3,0.4,0.7,0.4,1.2c0,0.5-0.1,0.9-0.4,1.1c-0.3,0.3-0.6,0.4-1.1,0.4C79.3,80.2,78.9,80.1,78.7,79.8z M80.3,79.4
				c0.1-0.2,0.2-0.4,0.2-0.8c0-0.3-0.1-0.6-0.2-0.8c-0.1-0.2-0.3-0.3-0.6-0.3c-0.3,0-0.5,0.1-0.6,0.3c-0.1,0.2-0.2,0.4-0.2,0.8
				c0,0.3,0.1,0.6,0.2,0.8c0.1,0.2,0.3,0.3,0.6,0.3C80,79.7,80.2,79.6,80.3,79.4z"/>
			<path class="st7" d="M81.6,77.1h0.6v0.5h-0.6V77.1z M81.6,77.9h0.3h0.3v2.2h-0.3h-0.3V77.9z"/>
			<path class="st7" d="M82.8,77.2h0.3h0.3v3h-0.3h-0.3V77.2z"/>
		</g>
		<g>
			<g>
				<ellipse class="st6" cx="80.7" cy="66.7" rx="7" ry="1.6"/>
			</g>
			<g>
				<g>
					<path class="st8" d="M80.7,68.6c-2.5,0-7.3-0.4-7.3-1.9c0-1.5,4.8-1.9,7.3-1.9c2.5,0,7.3,0.4,7.3,1.9
						C88,68.2,83.2,68.6,80.7,68.6z M80.7,65.4c-4.3,0-6.7,0.9-6.7,1.3s2.4,1.3,6.7,1.3c4.3,0,6.7-0.9,6.7-1.3S85,65.4,80.7,65.4z"
						/>
				</g>
			</g>
		</g>
	</g>
	<g>
		<path class="st5" d="M58,30.6h-5c-1,0-1.8-0.8-1.8-1.8c0-1,0.8-1.8,1.8-1.8h1.9c1,0,1.8-0.8,1.8-1.8c0-1-0.8-1.8-1.8-1.8H36.2
			c-1,0-1.8,0.8-1.8,1.8c0,1,0.8,1.8,1.8,1.8h4.7c1,0,1.8,0.8,1.8,1.8c0,1-0.8,1.8-1.8,1.8h-2.1c-1,0-1.8,0.8-1.8,1.8
			s0.8,1.8,1.8,1.8H58c1,0,1.8-0.8,1.8-1.8S59,30.6,58,30.6z"/>
	</g>
	<g>
		<g>
			<path class="st5" d="M62.7,7.8c0,0.8,0.6,1.5,1.5,1.5h1.1c0.8,0,1.5-0.6,1.5-1.5c0-0.8-0.6-1.5-1.5-1.5h-1.1
				C63.3,6.4,62.7,7,62.7,7.8z"/>
		</g>
		<g>
			<path class="st5" d="M68.4,12.6H56.2h-1.1h-3.3c-0.8,0-1.5-0.6-1.5-1.5c0-0.8,0.6-1.5,1.5-1.5h3.3h1.1h2.1c0.9,0,1.6-0.7,1.6-1.6
				c0-0.9-0.7-1.6-1.6-1.6h-3.6c-0.8,0-1.5-0.6-1.5-1.5c0-0.8,0.6-1.5,1.5-1.5h14.7h2.2C72.4,3.5,73,2.8,73,2c0-0.8-0.6-1.5-1.5-1.5
				H37c-0.8,0-1.5,0.6-1.5,1.5c0,0.8,0.6,1.5,1.5,1.5h0.7h10.2h0.4c0.8,0,1.5,0.6,1.5,1.5c0,0.8-0.6,1.5-1.5,1.5h-0.4h-9.7
				c-0.9,0-1.6,0.7-1.6,1.6c0,0.9,0.7,1.6,1.6,1.6h2.1h0.4c0.8,0,1.5,0.6,1.5,1.5c0,0.8-0.6,1.5-1.5,1.5h-0.4h-8.9
				c-0.9,0-1.6,0.7-1.6,1.6c0,0.9,0.7,1.6,1.6,1.6h37c0.9,0,1.6-0.7,1.6-1.6C70,13.3,69.3,12.6,68.4,12.6z"/>
		</g>
	</g>
	<g>
		<g>
			<path class="st4" d="M61.8,7.3c0,0.8,0.6,1.5,1.5,1.5h1.1c0.8,0,1.5-0.6,1.5-1.5c0-0.8-0.6-1.5-1.5-1.5h-1.1
				C62.5,5.9,61.8,6.5,61.8,7.3z"/>
		</g>
		<g>
			<path class="st5" d="M75.5,2c0,0.8,0.6,1.5,1.5,1.5H78c0.8,0,1.5-0.6,1.5-1.5c0-0.8-0.6-1.5-1.5-1.5h-1.1
				C76.1,0.6,75.5,1.2,75.5,2z"/>
		</g>
		<g>
			<path class="st4" d="M74.6,1.5c0,0.8,0.6,1.5,1.5,1.5h1.1c0.8,0,1.5-0.6,1.5-1.5c0-0.8-0.6-1.5-1.5-1.5h-1.1
				C75.3,0.1,74.6,0.7,74.6,1.5z"/>
		</g>
		<g>
			<path class="st4" d="M67.5,12H55.4h-1.1H51c-0.8,0-1.5-0.6-1.5-1.5c0-0.8,0.6-1.5,1.5-1.5h3.3h1.1h2.1c0.9,0,1.6-0.7,1.6-1.6
				c0-0.9-0.7-1.6-1.6-1.6h-3.6c-0.8,0-1.5-0.6-1.5-1.5C52.4,3.6,53,3,53.8,3h14.7h2.2c0.8,0,1.5-0.6,1.5-1.5c0-0.8-0.6-1.5-1.5-1.5
				H36.1c-0.8,0-1.5,0.6-1.5,1.5c0,0.8,0.6,1.5,1.5,1.5h0.7h10.2h0.4c0.8,0,1.5,0.6,1.5,1.5c0,0.8-0.6,1.5-1.5,1.5h-0.4h-9.7
				c-0.9,0-1.6,0.7-1.6,1.6c0,0.9,0.7,1.6,1.6,1.6h2.1h0.4c0.8,0,1.5,0.6,1.5,1.5c0,0.8-0.6,1.5-1.5,1.5h-0.4h-8.9
				c-0.9,0-1.6,0.7-1.6,1.6c0,0.9,0.7,1.6,1.6,1.6h37c0.9,0,1.6-0.7,1.6-1.6C69.1,12.8,68.4,12,67.5,12z"/>
		</g>
	</g>
	<g>
		<polygon class="st7" points="0.7,25.1 14.4,25.1 14.4,21.6 0.7,21.6 		"/>
	</g>
	<g>
		<polygon class="st7" points="0.8,16.8 14.3,16.8 14.2,13.2 0.8,13.2 		"/>
	</g>
	<g>
		<polygon class="st7" points="0.5,33.5 14.5,33.5 14.5,30 0.6,30 		"/>
	</g>
	<g>
		<polygon class="st7" points="0.4,41.9 14.7,41.9 14.6,38.3 0.5,38.3 		"/>
	</g>
	<g>
		<polygon class="st7" points="0.3,50.3 14.8,50.3 14.7,46.7 0.3,46.7 		"/>
	</g>
	<g>
		<polygon class="st7" points="1,4.8 0.9,8.4 14.2,8.4 14.1,4.8 		"/>
	</g>
	<g>
		<polygon class="st6" points="7.6,0 14.1,0 15.1,55.1 7.6,55.1 		"/>
	</g>
	<g>
		<polygon class="st2" points="14,0 1,0 1,4.8 14.1,4.8 		"/>
	</g>
	<g>
		<polygon class="st2" points="0.8,13.2 14.2,13.2 14.2,8.4 0.9,8.4 		"/>
	</g>
	<g>
		<polygon class="st2" points="0.7,21.6 14.4,21.6 14.3,16.8 0.8,16.8 		"/>
	</g>
	<g>
		<polygon class="st2" points="0.6,30 14.5,30 14.4,25.1 0.7,25.1 		"/>
	</g>
	<g>
		<polygon class="st2" points="0.5,38.3 14.6,38.3 14.5,33.5 0.5,33.5 		"/>
	</g>
	<g>
		<polygon class="st2" points="0.3,46.7 14.7,46.7 14.7,41.9 0.4,41.9 		"/>
	</g>
	<g>
		<polygon class="st2" points="0.2,55.1 14.9,55.1 14.8,50.3 0.3,50.3 		"/>
	</g>
	<g>
		<polygon class="st7" points="14.8,32.2 30.5,32.2 28.9,21.3 16.5,21.3 		"/>
	</g>
	<g>
		<polygon class="st7" points="7.6,55.1 37.5,55.1 30.5,32.2 14.8,32.2 		"/>
	</g>
	<g>
		<polygon class="st6" points="22.8,21.3 22.8,55.1 37.6,55.1 30.5,32.2 28.9,21.3 		"/>
	</g>
	<g>
		<path class="st4" d="M57.5,29.9h-5c-1,0-1.8-0.8-1.8-1.8c0-1,0.8-1.8,1.8-1.8h1.9c1,0,1.8-0.8,1.8-1.8c0-1-0.8-1.8-1.8-1.8H35.7
			c-1,0-1.8,0.8-1.8,1.8c0,1,0.8,1.8,1.8,1.8h4.7c1,0,1.8,0.8,1.8,1.8c0,1-0.8,1.8-1.8,1.8h-2.1c-1,0-1.8,0.8-1.8,1.8
			s0.8,1.8,1.8,1.8h19.3c1,0,1.8-0.8,1.8-1.8S58.5,29.9,57.5,29.9z"/>
	</g>
	<g>
		<polygon class="st7" points="34.8,32.2 50.5,32.2 48.9,21.3 36.5,21.3 		"/>
	</g>
	<g>
		<polygon class="st7" points="27.6,55.1 57.5,55.1 50.5,32.2 34.8,32.2 		"/>
	</g>
	<g>
		<polygon class="st6" points="42.8,21.3 42.8,55.1 57.6,55.1 50.5,32.2 48.9,21.3 		"/>
	</g>
</g>
</svg>
