<?xml version="1.0" encoding="utf-8"?>
<!-- Generator: Adobe Illustrator 20.0.0, SVG Export Plug-In . SVG Version: 6.00 Build 0)  -->
<svg version="1.1" id="圖層_1" xmlns="http://www.w3.org/2000/svg" xmlns:xlink="http://www.w3.org/1999/xlink" x="0px" y="0px"
	 viewBox="0 0 37 35.7" style="enable-background:new 0 0 37 35.7;" xml:space="preserve">
<style type="text/css">
	.st0{fill:#5E8AB4;}
</style>
<g>
	<path class="st0" d="M24.3,0c0.3,0,0.5,0,0.8,0.1C26.2,0.3,27,1,27.6,2c0.3,0.6,0.5,1.2,0.5,1.9c0,3.8,0,7.6,0,11.3
		c0,0.1,0,0.1,0,0.2c0.3,0.1,0.7,0.1,1,0.2c2.2,0.5,4,1.6,5.4,3.3c1.2,1.4,2,2.9,2.3,4.7c0.6,3-0.1,5.7-1.8,8.1
		c-1.4,1.9-3.3,3.1-5.6,3.8c-1.2,0.3-2.4,0.4-3.7,0.3c-2.6-0.3-4.7-1.4-6.5-3.3c-0.5-0.5-0.9-1.1-1.2-1.7c0-0.1-0.1-0.1-0.2-0.1
		c-3.4,0-6.7,0-10.1,0c-1.1,0-2-0.3-2.8-1.1c-0.6-0.6-1-1.3-1.1-2.1c0-0.3-0.1-0.5-0.1-0.8c0-5.8,0-11.7,0-17.5c0-0.1,0-0.1,0-0.2
		c0.9,0,1.7,0,2.6,0c0,0.1,0,0.1,0,0.2c0,5.9,0,11.7,0,17.6c0,0.5,0.2,0.9,0.5,1.1C7.1,28,7.3,28,7.6,28.1c0.1,0,0.1,0,0.2,0
		c3,0,6,0,9,0c0,0,0.1,0,0.1,0c-0.9-4,0.2-7.4,3.1-10.2c-3.3,0-6.5,0-9.8,0c0-0.9,0-1.7,0-2.6c3.4,0,6.8,0,10.2,0c0,0.7,0,1.5,0,2.2
		c1.5-1.2,3.2-1.9,5.1-2.2c0,0,0-0.1,0-0.1c0-3.8,0-7.6,0-11.4c0-0.7-0.4-1.2-1-1.3C23.8,2.4,23,3,23,3.8c0,0.8,0,1.6,0,2.4
		c0,0.5,0,1,0,1.5c-7.7,0-15.3,0-23,0c0,0,0-0.1,0-0.1c0-1.2,0-2.4,0-3.6c0-1.5,0.7-2.6,2-3.4C2.6,0.1,3.2,0,3.8,0
		c6.8,0,13.5,0,20.3,0L24.3,0z M26.8,17.9c-4.2,0-7.6,3.4-7.7,7.6c0,4.2,3.4,7.7,7.6,7.7c4.2,0,7.6-3.4,7.7-7.6
		C34.5,21.3,31,17.9,26.8,17.9z M20.6,2.6c-0.1,0-0.1,0-0.1,0c-5.5,0-11.1,0-16.6,0c-0.8,0-1.3,0.5-1.3,1.3c0,0.4,0,0.7,0,1.1
		c0,0,0,0.1,0,0.1c6,0,11.9,0,17.8,0C20.4,4.2,20.3,3.4,20.6,2.6z"/>
	<path class="st0" d="M10.2,12.7c0-0.8,0-1.7,0-2.5c3.4,0,6.8,0,10.2,0c0,0.8,0,1.7,0,2.5C17,12.7,13.6,12.7,10.2,12.7z"/>
	<path class="st0" d="M16.6,23c-2.1,0-4.2,0-6.4,0c0-0.8,0-1.7,0-2.5c2.1,0,4.2,0,6.4,0C16.6,21.3,16.6,22.1,16.6,23z"/>
	<path class="st0" d="M31.9,26.8c-1.3,0-2.5,0-3.8,0c0,1.3,0,2.5,0,3.8c-0.9,0-1.7,0-2.6,0c0-1.3,0-2.5,0-3.8c-1.3,0-2.5,0-3.8,0
		c0-0.9,0-1.7,0-2.6c1.3,0,2.5,0,3.8,0c0-1.3,0-2.5,0-3.8c0.9,0,1.7,0,2.6,0c0,1.3,0,2.5,0,3.8c1.3,0,2.5,0,3.8,0
		C31.9,25.1,31.9,25.9,31.9,26.8z"/>
</g>
</svg>
