<?xml version="1.0" encoding="utf-8"?>
<!-- Generator: Adobe Illustrator 21.0.0, SVG Export Plug-In . SVG Version: 6.00 Build 0)  -->
<svg version="1.1" id="Layer_1" xmlns="http://www.w3.org/2000/svg" xmlns:xlink="http://www.w3.org/1999/xlink" x="0px" y="0px"
	 viewBox="0 0 74.4 56.2" style="enable-background:new 0 0 74.4 56.2;" xml:space="preserve">
<style type="text/css">
	.st0{fill:#EB8900;}
</style>
<g>
	<g>
		<path class="st0" d="M20.2,8h-3.8v7.9h-1.6V8h-4.4c-0.1,3.2-1.7,5.8-4.8,8l-1.2-1.2c1.4-0.9,2.5-1.9,3.1-2.9
			c0.7-1,1.1-2.3,1.2-3.8H4.6V6.5h4.2c0-0.8,0.1-1.5,0.1-2.1c0-0.4,0-0.8,0-1.1C7.3,3.7,6.3,3.9,5.7,4.1L5,2.6
			c3-0.6,5.5-1.4,7.3-2.5l1.2,1.2c-0.9,0.5-1.9,1-2.9,1.4c0,0.5,0,1,0,1.6c0,0.7,0,1.4-0.1,2.2h4.4V0.2h1.6v6.2h3.8V8z"/>
		<path class="st0" d="M26.1,11.3c-0.7,1.5-1.5,2.9-2.3,4l-1.3-0.9c0.9-1.2,1.7-2.5,2.3-3.8L26.1,11.3z M36.4,10.3H24.5V1.5h3.4
			c0.4-0.5,0.6-1,0.8-1.5l1.8,0.3c-0.2,0.5-0.4,0.9-0.7,1.2h6.6V10.3z M34.8,4V2.9H26V4H34.8z M34.8,6.4V5.3H26v1.1H34.8z M34.8,8.9
			V7.7H26v1.1H34.8z M35.1,13.3c-0.1,1.7-0.9,2.5-2.5,2.5h-3.8c-0.6,0-1-0.2-1.3-0.5s-0.5-0.7-0.5-1.3v-3.1h1.6v2.8
			c0,0.2,0.1,0.4,0.2,0.4s0.5,0.1,1.1,0.1l2.7,0c0.2,0,0.4-0.1,0.6-0.2s0.3-0.6,0.4-1.5L35.1,13.3z M32.8,12.7l-1.4,0.8
			c-0.4-0.6-1-1.3-1.8-2.2l1.3-0.8C31.6,11.1,32.2,11.9,32.8,12.7z M38.5,14.6l-1.4,0.8c-0.5-1.1-1.3-2.4-2.5-3.8l1.4-0.8
			C37.1,12.2,37.9,13.4,38.5,14.6z"/>
		<path class="st0" d="M48.6,2.7c0,2.6-0.1,5.2-0.2,7.6s-0.2,3.9-0.4,4.3s-0.4,0.7-0.7,0.9s-0.9,0.3-1.7,0.3c-0.4,0-0.8,0-1.1,0
			l-0.4-1.6c0.5,0,0.9,0.1,1.2,0.1c0.8,0,1.2-0.2,1.3-0.7s0.2-3.6,0.4-9.4h-2.1c-0.2,5.1-1.2,9-3.1,11.7l-1.4-1
			c1.9-2.8,2.9-6.4,2.9-10.8h-2.4V2.7h2.5l0.1-2.6H45l-0.1,2.6H48.6z M55.9,15.9h-1.6v-1.3h-2.9v1.2h-1.6V1.6h6.1V15.9z M54.3,13.1
			V3.2h-2.9v9.9H54.3z"/>
		<path class="st0" d="M74.4,14.2l-0.5,1.6c-0.7,0-1.6,0-2.6,0c-1.3,0-2.7,0-4.2-0.1c-1.4,0-2.6-0.2-3.4-0.5s-1.6-0.7-2.3-1.2
			c-0.5,0.8-1.1,1.6-1.6,2.2l-1.3-1c1.6-1.6,2.6-3.3,3-5.2h-2.7V8.5c1-1,1.8-2,2.5-3.1h-2.7V4h4.6v1.5c-0.6,1-1.4,2-2.3,3.1h2.3V10
			c-0.2,0.9-0.5,1.8-1,2.7c1.2,1.1,2.7,1.6,4.6,1.6C69.3,14.3,71.8,14.2,74.4,14.2z M62.8,2.4l-1.1,1.2c-0.7-0.8-1.6-1.5-2.8-2.3
			l1.1-1.2C61,0.7,62,1.5,62.8,2.4z M74.3,12l-0.8,1.3c-1.1-0.9-2.3-1.8-3.7-2.5v2.9h-1.6v-3.2c-1.2,1.2-2.5,2.2-3.8,3l-1-1.3
			c1.9-1,3.3-2.1,4.2-3.2h-3.1V4.4h3.8V3.2h-4.3V1.8h4.3V0.3h1.6v1.5h4.4v1.4h-4.4v1.2h3.8v4.5h-3.8v0.2
			C71.7,10.2,73.2,11.1,74.3,12z M68.3,7.6V5.7H66v1.8H68.3z M72.1,7.6V5.7h-2.2v1.8H72.1z"/>
	</g>
</g>
<path class="st0" d="M74.1,29.1l-7.2-6.2c-0.3-0.3-0.8-0.3-1.1,0l-7.2,6.2c-0.3,0.3-0.4,0.8-0.1,1.2c0.3,0.3,0.8,0.4,1.2,0.1l5.8-5
	v30.1c0,0.5,0.4,0.8,0.8,0.8s0.8-0.4,0.8-0.8V25.3l5.8,5c0.2,0.1,0.4,0.2,0.6,0.2c0.2,0,0.5-0.1,0.6-0.3
	C74.5,29.9,74.4,29.4,74.1,29.1z"/>
</svg>
