<?xml version="1.0" encoding="utf-8"?>
<!-- Generator: Adobe Illustrator 16.0.4, SVG Export Plug-In . SVG Version: 6.00 Build 0)  -->
<!DOCTYPE svg PUBLIC "-//W3C//DTD SVG 1.1//EN" "http://www.w3.org/Graphics/SVG/1.1/DTD/svg11.dtd">
<svg version="1.1" id="Layer_1" xmlns="http://www.w3.org/2000/svg" xmlns:xlink="http://www.w3.org/1999/xlink" x="0px" y="0px"
	 width="50px" height="349.93px" viewBox="0 0 50 349.93" enable-background="new 0 0 50 349.93" xml:space="preserve">
<path fill="#FFFFFF" d="M8.947,82.804c-1.706,0-3.096-1.388-3.096-3.095s1.39-3.096,3.096-3.096c1.707,0,3.095,1.389,3.095,3.096
	S10.654,82.804,8.947,82.804 M8.947,78.177c-0.844,0-1.531,0.688-1.531,1.533c0,0.845,0.688,1.532,1.531,1.532
	c0.845,0,1.531-0.688,1.531-1.532C10.478,78.866,9.792,78.177,8.947,78.177"/>
<path fill="#FFFFFF" d="M14.161,75.705c0-0.667-0.541-1.21-1.209-1.21c-0.669,0-1.211,0.543-1.211,1.21
	c0,0.668,0.542,1.211,1.211,1.211C13.62,76.916,14.161,76.373,14.161,75.705"/>
<path fill="#FFFFFF" d="M17.021,72.844c0-0.668-0.541-1.211-1.209-1.211s-1.211,0.543-1.211,1.211c0,0.668,0.543,1.21,1.211,1.21
	S17.021,73.512,17.021,72.844"/>
<g>
	<path fill="#FFFFFF" d="M33.866,39.653H15.809c-1.293,0-2.346-1.051-2.346-2.344V25.885c0-0.617,0.251-1.224,0.689-1.659
		l9.178-9.148c0.915-0.912,2.402-0.91,3.314,0.005l8.881,8.903c0.439,0.442,0.685,1.032,0.685,1.657V37.31
		C36.21,38.601,35.158,39.653,33.866,39.653 M24.984,15.956c-0.2,0-0.399,0.076-0.553,0.229l-9.177,9.146
		c-0.146,0.146-0.229,0.347-0.229,0.554V37.31c0,0.43,0.352,0.78,0.781,0.78h18.06c0.431,0,0.78-0.351,0.78-0.78V25.642
		c0-0.21-0.08-0.406-0.229-0.555l-8.882-8.902C25.386,16.033,25.186,15.956,24.984,15.956"/>
	<path fill="#FFFFFF" d="M9.141,25.236c-0.199,0-0.399-0.077-0.553-0.229c-0.306-0.306-0.306-0.8,0.001-1.104l13.177-13.149
		c0.891-0.89,2.027-1.381,3.207-1.385h0.014c1.182,0,2.324,0.493,3.222,1.389l12.966,12.989c0.308,0.305,0.306,0.8-0.001,1.104
		c-0.306,0.304-0.8,0.305-1.104,0l-12.969-12.99c-1.246-1.246-2.984-1.247-4.229-0.002L9.691,25.008
		C9.54,25.16,9.341,25.236,9.141,25.236"/>
	<rect x="-0.042" fill="none" width="50" height="50"/>
</g>
<g>
	<path fill="#FFFFFF" d="M40.525,71.958c-1.707,0-3.096-1.388-3.096-3.095c0-1.707,1.389-3.097,3.096-3.097s3.096,1.39,3.096,3.097
		C43.621,70.57,42.232,71.958,40.525,71.958 M40.525,67.33c-0.844,0-1.531,0.688-1.531,1.533c0,0.844,0.688,1.532,1.531,1.532
		c0.845,0,1.531-0.688,1.531-1.532C42.059,68.017,41.37,67.33,40.525,67.33"/>
	<path fill="#FFFFFF" d="M30.18,82.787c-1.707,0-3.096-1.388-3.096-3.095s1.389-3.097,3.096-3.097s3.096,1.39,3.096,3.097
		S31.887,82.787,30.18,82.787 M30.18,78.159c-0.846,0-1.533,0.688-1.533,1.533c0,0.845,0.688,1.532,1.533,1.532
		c0.846,0,1.532-0.688,1.532-1.532C31.712,78.848,31.023,78.159,30.18,78.159"/>
	<path fill="#FFFFFF" d="M19.775,71.958c-1.705,0-3.094-1.388-3.094-3.095c0-1.707,1.389-3.097,3.094-3.097
		c1.707,0,3.097,1.39,3.097,3.097C22.872,70.57,21.482,71.958,19.775,71.958 M19.775,67.33c-0.844,0-1.53,0.688-1.53,1.533
		c0,0.844,0.688,1.532,1.53,1.532c0.846,0,1.533-0.688,1.533-1.532C21.309,68.017,20.621,67.33,19.775,67.33"/>
	<path fill="#FFFFFF" d="M27.865,75.705c0-0.667-0.541-1.21-1.211-1.21c-0.668,0-1.209,0.543-1.209,1.21
		c0,0.669,0.542,1.211,1.209,1.211C27.324,76.916,27.865,76.374,27.865,75.705"/>
	<path fill="#FFFFFF" d="M34.911,75.687c0-0.667-0.542-1.21-1.211-1.21c-0.668,0-1.209,0.543-1.209,1.21
		c0,0.668,0.541,1.211,1.209,1.211C34.369,76.898,34.911,76.355,34.911,75.687"/>
	<path fill="#FFFFFF" d="M37.771,72.827c0-0.668-0.543-1.211-1.211-1.211s-1.209,0.543-1.209,1.211s0.541,1.21,1.209,1.21
		S37.771,73.495,37.771,72.827"/>
	<path fill="#FFFFFF" d="M24.971,72.844c0-0.668-0.543-1.211-1.212-1.211c-0.668,0-1.21,0.543-1.21,1.211
		c0,0.668,0.542,1.21,1.21,1.21C24.428,74.054,24.971,73.512,24.971,72.844"/>
	<rect x="-0.042" y="49.929" fill="none" width="50" height="50"/>
</g>
<g>
	<path fill="#FFFFFF" d="M34.616,141.486c-0.41,0-0.826-0.091-1.22-0.276l-7.902-3.706c-0.35-0.164-0.75-0.164-1.1,0l-7.902,3.706
		c-0.956,0.449-2.037,0.348-2.893-0.273c-0.854-0.621-1.285-1.616-1.154-2.664l1.084-8.663c0.048-0.382-0.076-0.763-0.34-1.043
		l-5.969-6.372c-0.721-0.771-0.957-1.83-0.632-2.834c0.326-1.004,1.142-1.724,2.177-1.922l8.574-1.647
		c0.379-0.072,0.702-0.307,0.889-0.645l4.215-7.646c0.511-0.925,1.445-1.477,2.502-1.477c1.056,0,1.989,0.552,2.499,1.477
		l4.218,7.646c0.188,0.338,0.509,0.571,0.888,0.645l8.574,1.647c1.036,0.198,1.852,0.918,2.177,1.922
		c0.326,1.004,0.091,2.062-0.633,2.834l-5.968,6.372c-0.264,0.28-0.387,0.661-0.34,1.043l1.084,8.663
		c0.132,1.048-0.303,2.043-1.154,2.664C35.786,141.301,35.205,141.486,34.616,141.486 M24.945,135.817
		c0.412,0,0.827,0.091,1.211,0.271l7.904,3.706c0.433,0.204,0.922,0.157,1.309-0.124c0.388-0.281,0.582-0.731,0.523-1.206
		l-1.084-8.662c-0.105-0.845,0.168-1.685,0.75-2.306l5.967-6.372c0.326-0.35,0.435-0.828,0.287-1.283
		c-0.147-0.454-0.519-0.778-0.985-0.869l-8.573-1.646c-0.836-0.161-1.551-0.682-1.963-1.426l-4.216-7.646
		c-0.229-0.419-0.653-0.668-1.13-0.668c-0.479,0-0.901,0.249-1.133,0.668l-4.215,7.646c-0.412,0.744-1.127,1.265-1.963,1.426
		l-8.572,1.646c-0.472,0.091-0.838,0.415-0.985,0.869c-0.147,0.455-0.041,0.935,0.284,1.283l5.969,6.372
		c0.582,0.621,0.855,1.461,0.75,2.306l-1.084,8.662c-0.059,0.475,0.138,0.925,0.523,1.206c0.387,0.281,0.875,0.328,1.309,0.124
		l7.904-3.706C24.117,135.908,24.531,135.817,24.945,135.817"/>
	<rect x="-0.042" y="99.929" fill="none" width="50" height="50"/>
</g>
<g>
	<path fill="#FFFFFF" d="M38.23,162.488h-6.99v-1.692c0-0.431-0.35-0.778-0.779-0.778c-0.429,0-0.779,0.35-0.779,0.778v1.692H20.33
		v-1.692c0-0.431-0.35-0.778-0.78-0.778c-0.43,0-0.778,0.35-0.778,0.778v1.692h-7.084c-1.289,0-2.34,1.049-2.34,2.338v18.754
		c0,1.289,1.051,2.339,2.34,2.339h6.201c0.733,3.257,3.649,5.698,7.125,5.698c3.477,0,6.393-2.441,7.125-5.698h6.092
		c1.291,0,2.34-1.05,2.34-2.339v-18.754C40.568,163.537,39.52,162.488,38.23,162.488 M25.014,190.055
		c-3.168,0-5.744-2.574-5.744-5.74c0-3.168,2.576-5.746,5.744-5.746c3.166,0,5.743,2.578,5.743,5.746
		C30.757,187.48,28.18,190.055,25.014,190.055 M39.009,183.58c0,0.43-0.35,0.779-0.778,0.779h-5.914c0-0.019,0-0.03,0-0.045
		c0-4.027-3.273-7.307-7.301-7.307c-4.028,0-7.304,3.276-7.304,7.307c0,0.015,0.001,0.026,0.001,0.045h-6.025
		c-0.43,0-0.778-0.353-0.778-0.779v-18.754c0-0.43,0.35-0.779,0.778-0.779h7.084v1.318c0,0.43,0.35,0.779,0.779,0.779
		c0.429,0,0.78-0.352,0.78-0.779v-1.318h9.354v1.318c0,0.43,0.351,0.779,0.777,0.779c0.432,0,0.777-0.352,0.777-0.779v-1.318h6.99
		c0.432,0,0.778,0.352,0.778,0.779L39.009,183.58L39.009,183.58z"/>
	<path fill="#FFFFFF" d="M32.54,170.71H17.432c-0.432,0-0.781,0.351-0.781,0.779c0,0.432,0.351,0.78,0.781,0.78H32.54
		c0.431,0,0.78-0.351,0.78-0.78C33.32,171.059,32.971,170.71,32.54,170.71"/>
	<path fill="#FFFFFF" d="M27.245,182.701l-2.724,2.361l-1.699-1.164c-0.355-0.243-0.842-0.153-1.084,0.201
		c-0.243,0.354-0.152,0.842,0.201,1.084l2.195,1.506c0.135,0.092,0.287,0.136,0.44,0.136c0.184,0,0.364-0.063,0.511-0.188
		l3.181-2.757c0.324-0.28,0.359-0.772,0.08-1.101C28.062,182.455,27.57,182.419,27.245,182.701"/>
	<rect x="-0.042" y="149.929" fill="none" width="50" height="50"/>
</g>
<g>
	<path fill="#FFFFFF" d="M16.986,282.15c-0.432,0-0.782-0.353-0.782-0.782v-0.089c0-0.521,0.104-1.03,0.31-1.521
		c0.002-0.009,0.008-0.019,0.012-0.025c0.216-0.469,0.483-0.896,0.797-1.271c0.277-0.331,0.558-0.651,0.83-0.953
		c0.225-0.248,0.42-0.522,0.574-0.815c0.129-0.237,0.19-0.463,0.19-0.684c0-0.33-0.099-0.586-0.308-0.803
		c-0.267-0.271-0.58-0.532-1.233-0.467c-0.844,0.085-1.463,0.556-1.737,0.934c-0.255,0.35-0.744,0.428-1.093,0.172
		c-0.351-0.254-0.426-0.74-0.173-1.092c0.486-0.67,1.49-1.434,2.848-1.568c1.307-0.131,2.057,0.472,2.508,0.935
		c0.5,0.513,0.752,1.147,0.752,1.894c0,0.477-0.127,0.95-0.373,1.418c-0.217,0.405-0.484,0.786-0.797,1.133
		c-0.26,0.285-0.525,0.592-0.791,0.906c-0.222,0.266-0.412,0.568-0.569,0.904c-0.123,0.299-0.183,0.598-0.183,0.907v0.089
		C17.768,281.801,17.418,282.15,16.986,282.15"/>
	<path fill="#FFFFFF" d="M17.527,285.245c-0.283,0-0.526-0.091-0.729-0.271c-0.201-0.187-0.303-0.429-0.303-0.729
		c0-0.302,0.102-0.55,0.303-0.737c0.202-0.188,0.445-0.281,0.729-0.281c0.298,0,0.551,0.094,0.76,0.281s0.314,0.436,0.314,0.737
		c0,0.301-0.105,0.546-0.314,0.729C18.078,285.154,17.825,285.245,17.527,285.245"/>
	<path fill="#FFFFFF" d="M29.906,270.74c0-0.575-0.467-1.042-1.041-1.042c-0.576,0-1.043,0.467-1.043,1.042
		c0,0.574,0.467,1.042,1.043,1.042C29.439,271.782,29.906,271.314,29.906,270.74"/>
	<path fill="#FFFFFF" d="M33.971,270.74c0-0.575-0.467-1.042-1.041-1.042c-0.576,0-1.043,0.467-1.043,1.042
		c0,0.574,0.467,1.042,1.043,1.042C33.504,271.782,33.971,271.314,33.971,270.74"/>
	<path fill="#FFFFFF" d="M38.086,270.74c0-0.575-0.466-1.042-1.042-1.042c-0.573,0-1.041,0.467-1.041,1.042
		c0,0.574,0.468,1.042,1.041,1.042C37.62,271.782,38.086,271.314,38.086,270.74"/>
	<path fill="#FFFFFF" d="M17.43,290.018c-3.275,0-6.359-1.148-8.684-3.238c-2.348-2.105-3.641-4.918-3.641-7.91
		c0-2.994,1.293-5.805,3.641-7.913c2.322-2.087,5.406-3.237,8.684-3.237c3.275,0,6.358,1.15,8.681,3.237
		c2.349,2.108,3.642,4.919,3.642,7.913c0,2.992-1.293,5.805-3.642,7.91C23.788,288.868,20.704,290.018,17.43,290.018 M17.43,269.281
		c-5.934,0-10.76,4.3-10.76,9.587c0,5.286,4.826,9.586,10.76,9.586c5.932,0,10.757-4.3,10.757-9.586
		C28.188,273.581,23.361,269.281,17.43,269.281"/>
	<path fill="#FFFFFF" d="M32.486,282.15c-1.348,0-2.674-0.195-3.94-0.582c-0.412-0.127-0.646-0.562-0.519-0.979
		c0.125-0.41,0.562-0.646,0.975-0.52c1.118,0.341,2.29,0.514,3.484,0.514c5.932,0,10.759-4.301,10.759-9.586
		c0-5.286-4.827-9.586-10.759-9.586c-5.098,0-9.532,3.229-10.545,7.669c-0.096,0.421-0.516,0.688-0.937,0.59
		c-0.421-0.097-0.685-0.517-0.588-0.937c0.567-2.487,2.08-4.748,4.263-6.365c2.191-1.626,4.965-2.521,7.807-2.521
		c3.271,0,6.355,1.148,8.683,3.236c2.347,2.107,3.64,4.917,3.64,7.912c0,2.994-1.293,5.805-3.64,7.912
		C38.846,281.001,35.762,282.15,32.486,282.15"/>
	<rect x="-0.042" y="249.93" fill="none" width="50" height="50"/>
</g>
<rect x="-0.042" y="299.93" fill="none" width="50" height="50"/>
<rect x="-0.056" y="199.93" fill="none" width="50" height="50"/>
<path fill="#FFFFFF" d="M23.471,341.29c-0.28,0-0.556-0.015-0.824-0.045c-1.073-0.118-1.917-0.46-2.583-1.043
	c-0.631-0.554-1.036-1.294-1.202-2.202c-0.139-0.762-0.125-1.553,0.044-2.419c0.252-1.291,0.527-2.597,0.792-3.858l0.16-0.762
	c0.225-1.072,0.458-2.162,0.682-3.218c0.104-0.489,0.208-0.979,0.312-1.468c0.135-0.637,0.27-1.271,0.405-1.907h-1.78
	c-0.232,0-0.453-0.103-0.602-0.282c-0.148-0.179-0.209-0.415-0.166-0.645c0.006-0.035,0.013-0.069,0.019-0.104
	c0.014-0.079,0.028-0.151,0.044-0.229l0.213-1c0.182-0.855,0.366-1.715,0.546-2.571c0.092-0.438,0.446-0.728,0.899-0.728h0.001
	c2.095,0.002,4.191,0.002,6.286,0.002h1.832c0.053,0,0.096,0.004,0.131,0.004l0.035,0.004c0.227,0.015,0.438,0.123,0.575,0.306
	c0.137,0.183,0.19,0.411,0.146,0.634l-0.039,0.195c-0.028,0.146-0.06,0.289-0.088,0.434c-0.391,1.838-0.779,3.676-1.17,5.514
	c-0.14,0.662-0.279,1.324-0.421,1.984c-0.247,1.174-0.497,2.346-0.745,3.518l-0.033,0.156c-0.258,1.219-0.521,2.479-0.776,3.721
	c-0.052,0.248-0.078,0.469-0.085,0.674v0.014c0.012,0,0.025,0.004,0.046,0.006c0.325,0.027,0.653-0.074,1.082-0.242
	c0.12-0.049,0.245-0.105,0.38-0.17c0.068-0.032,0.143-0.064,0.215-0.101c0.268-0.12,0.579-0.082,0.811,0.101
	c0.229,0.185,0.338,0.479,0.281,0.767l-0.035,0.172c-0.025,0.128-0.049,0.249-0.076,0.37l-0.059,0.283
	c-0.158,0.76-0.324,1.544-0.49,2.312c-0.06,0.271-0.235,0.521-0.475,0.661c-0.927,0.552-1.957,0.914-3.066,1.074
	C24.279,341.26,23.87,341.29,23.471,341.29 M20.437,322.805h1.778c0.223,0,0.435,0.096,0.583,0.262
	c0.148,0.164,0.219,0.386,0.195,0.605l-0.001,0.012c-0.002,0.029-0.007,0.075-0.019,0.135c-0.197,0.93-0.393,1.854-0.59,2.781
	c-0.104,0.49-0.208,0.979-0.312,1.469c-0.225,1.056-0.456,2.144-0.682,3.216l-0.159,0.761c-0.265,1.258-0.539,2.559-0.788,3.836
	c-0.131,0.672-0.144,1.271-0.042,1.84c0.104,0.561,0.329,0.987,0.694,1.307c0.424,0.373,0.972,0.584,1.726,0.668
	c0.527,0.058,1.066,0.043,1.651-0.041c0.821-0.118,1.589-0.371,2.286-0.752c0.104-0.491,0.21-0.985,0.312-1.477
	c-0.336,0.088-0.69,0.139-1.073,0.104c-0.897-0.075-1.505-0.745-1.476-1.627c0.011-0.295,0.049-0.601,0.118-0.938
	c0.254-1.245,0.521-2.508,0.779-3.729l0.034-0.156c0.248-1.174,0.495-2.346,0.745-3.52c0.141-0.66,0.279-1.322,0.421-1.982
	c0.366-1.734,0.733-3.469,1.102-5.201h-0.993c-1.923,0-3.845,0-5.766-0.002c-0.146,0.688-0.293,1.375-0.439,2.062L20.437,322.805z"
	/>
<path fill="#FFFFFF" d="M26.238,316.352c-0.779,0-1.475-0.238-2.076-0.715c-0.627-0.494-1.01-1.173-1.138-2.01
	c-0.021-0.139-0.031-0.27-0.038-0.363c-0.001-0.027-0.003-0.054-0.006-0.074c-0.002-0.027-0.003-0.057-0.003-0.084
	c0.016-1.097,0.378-2.041,1.107-2.89c0.754-0.879,1.68-1.43,2.754-1.636c1.18-0.229,2.198,0.02,3.025,0.734
	c0.627,0.541,0.996,1.276,1.068,2.135c0.104,1.223-0.315,2.349-1.246,3.342c-0.748,0.801-1.65,1.301-2.682,1.486
	C26.742,316.328,26.486,316.352,26.238,316.352 M24.542,313.092c0,0.02,0.002,0.037,0.004,0.057
	c0.005,0.078,0.012,0.166,0.024,0.242c0.067,0.44,0.252,0.775,0.564,1.021c0.433,0.345,0.94,0.449,1.593,0.331
	c0.703-0.129,1.299-0.462,1.817-1.019c0.624-0.668,0.896-1.369,0.83-2.146c-0.037-0.452-0.211-0.807-0.53-1.081
	c-0.461-0.396-1.004-0.521-1.71-0.384c-0.729,0.141-1.338,0.506-1.863,1.117C24.791,311.793,24.559,312.383,24.542,313.092"/>
<path fill="#FFFFFF" d="M34.718,228.77c-0.522,0-1.135,0.089-1.657,0.177c-0.437-1.05-1.136-1.921-2.095-2.706
	c-1.658-1.396-3.754-2.183-6.021-2.183h-0.087l0,0c-3.929,0-7.156-2.617-7.156-5.935s3.228-5.936,7.156-5.936
	c3.926,0,7.155,2.617,7.155,5.936c0,0.436,0.35,0.785,0.785,0.785c0.438,0,0.785-0.351,0.785-0.785c0-2.008-0.959-3.928-2.617-5.323
	c-1.483-1.223-3.316-1.92-5.323-2.095v-2.271c0-0.436-0.35-0.784-0.785-0.784c-0.438,0-0.786,0.35-0.786,0.784v2.271
	c-2.008,0.175-3.84,0.872-5.323,2.095c-1.658,1.396-2.619,3.315-2.619,5.323c0,2.007,0.961,3.927,2.619,5.323
	c1.657,1.396,3.753,2.182,6.109,2.182h0.087l0,0c3.055,0.088,5.672,1.745,6.633,3.927c-2.095,1.136-3.578,3.317-3.578,5.849
	c0,0.437,0.088,0.96,0.174,1.396c-0.959,0.438-2.095,0.698-3.314,0.698c-3.929,0-7.156-2.618-7.156-5.936
	c0-0.437-0.35-0.784-0.786-0.784s-0.786,0.349-0.786,0.784c0,2.008,0.961,3.928,2.619,5.324c1.483,1.222,3.315,1.92,5.323,2.095
	v2.27c0,0.437,0.349,0.785,0.786,0.785c0.436,0,0.785-0.35,0.785-0.785v-2.27c1.047-0.089,2.094-0.351,2.968-0.697
	c1.047,2.182,3.401,3.752,6.021,3.752c3.666,0,6.635-2.967,6.635-6.633C41.351,231.737,38.384,228.77,34.718,228.77z
	 M34.718,240.465c-2.006,0-3.84-1.223-4.625-2.968c-0.262-0.523-0.35-1.047-0.437-1.571c0-0.175,0-0.349,0-0.522
	c0-1.833,0.959-3.403,2.442-4.276c0.437-0.262,0.961-0.523,1.484-0.61c0.348-0.088,0.784-0.175,1.221-0.175
	c2.793,0,5.062,2.271,5.062,5.062C39.868,238.195,37.511,240.465,34.718,240.465z"/>
<path fill="#FFFFFF" d="M35.454,232.375L35.454,232.375c-0.35-0.351-0.787-0.351-1.138,0l-0.088,0.175l-2.015,2.016
	c-0.264,0.263-0.352,0.787,0,1.139c0.174,0.175,0.351,0.263,0.524,0.263s0.438-0.088,0.524-0.263l0.789-0.788v3.328
	c0,0.438,0.351,0.788,0.789,0.788c0.438,0,0.787-0.351,0.787-0.788v-3.416l0.789,0.788c0.262,0.263,0.787,0.263,1.139,0
	c0.263-0.263,0.263-0.788,0-1.14L35.454,232.375z"/>
</svg>
