<?xml version="1.0" encoding="utf-8"?>
<!-- Generator: Adobe Illustrator 16.0.4, SVG Export Plug-In . SVG Version: 6.00 Build 0)  -->
<!DOCTYPE svg PUBLIC "-//W3C//DTD SVG 1.1//EN" "http://www.w3.org/Graphics/SVG/1.1/DTD/svg11.dtd">
<svg version="1.1" id="Layer_1" xmlns="http://www.w3.org/2000/svg" xmlns:xlink="http://www.w3.org/1999/xlink" x="0px" y="0px"
	 width="71.848px" height="56.41px" viewBox="0 0 71.848 56.41" enable-background="new 0 0 71.848 56.41" xml:space="preserve">
<rect x="32.427" y="0.75" transform="matrix(0.7072 0.707 -0.707 0.7072 13.6443 -24.2073)" fill="#EB8900" width="7.239" height="7.238"/>
<rect x="1.498" y="0.75" transform="matrix(0.707 0.7072 -0.7072 0.707 4.5885 -2.3389)" fill="#EB8900" width="7.237" height="7.237"/>
<rect x="63.027" y="0.75" transform="matrix(0.7072 0.707 -0.707 0.7072 22.6046 -45.8424)" fill="#EB8900" width="7.239" height="7.238"/>
<rect x="31.492" y="27.561" transform="matrix(-0.7071 -0.7071 0.7071 -0.7071 38.6659 80.511)" fill="#EB8900" width="9.031" height="9.373"/>
<polygon fill="#EB8900" points="33.803,23.414 36.13,21.088 38.456,23.414 44.845,29.802 49.373,25.275 36.13,12.031 22.646,25.518 
	27.175,30.044 "/>
<polygon fill="#EB8900" points="27.174,34.695 5.44,56.429 18.185,56.424 20.56,54.064 33.557,41.081 "/>
<polygon fill="#EB8900" points="20.621,27.84 5.517,43.043 5.517,52.097 25.047,32.367 "/>
<polygon fill="#EB8900" points="5.516,12.632 5.516,38.391 18.395,25.515 "/>
<polygon fill="#EB8900" points="35.889,43.414 22.893,56.423 48.88,56.41 "/>
<polygon fill="#EB8900" points="66.452,12.632 53.824,25.27 66.452,37.896 "/>
<polygon fill="#EB8900" points="66.452,51.604 66.452,42.549 51.597,27.596 47.021,32.125 "/>
<polygon fill="#EB8900" points="66.452,56.257 44.746,34.442 38.17,41.065 51.181,54.47 53.215,56.811 66.452,56.811 "/>
</svg>
