<?xml version="1.0" encoding="utf-8"?>
<!-- Generator: Adobe Illustrator 16.0.4, SVG Export Plug-In . SVG Version: 6.00 Build 0)  -->
<!DOCTYPE svg PUBLIC "-//W3C//DTD SVG 1.1//EN" "http://www.w3.org/Graphics/SVG/1.1/DTD/svg11.dtd">
<svg version="1.1" id="Layer_1" xmlns="http://www.w3.org/2000/svg" xmlns:xlink="http://www.w3.org/1999/xlink" x="0px" y="0px"
	 width="960px" height="141.934px" viewBox="0 0 960 141.934" enable-background="new 0 0 960 141.934" xml:space="preserve">
<path fill="#63666A" d="M29.614,67.446c0-2.148-1.743-3.892-3.893-3.892s-3.893,1.743-3.893,3.892c0,2.15,1.743,3.893,3.893,3.893
	S29.614,69.596,29.614,67.446"/>
<path fill="#5E89B3" d="M272.05,100.512c0,2.859,2.318,5.179,5.178,5.179c2.859,0,5.178-2.319,5.178-5.179s-2.318-5.178-5.178-5.178
	C274.369,95.334,272.05,97.653,272.05,100.512"/>
<path fill="#5E89B3" d="M944.867,105.517c0,2.859,2.317,5.178,5.178,5.178c2.859,0,5.178-2.318,5.178-5.178
	s-2.318-5.178-5.178-5.178C947.185,100.339,944.867,102.658,944.867,105.517"/>
<path fill="#5E89B3" d="M848.115,100.252c0-2.148,1.742-3.892,3.892-3.892c2.15,0,3.893,1.743,3.893,3.892
	c0,2.15-1.742,3.893-3.893,3.893C849.857,104.145,848.115,102.403,848.115,100.252"/>
<path fill="#9D74B4" d="M19.689,7.429c0,4.103-3.327,7.43-7.429,7.43c-4.103,0-7.43-3.327-7.43-7.43S8.157,0,12.26,0
	C16.362,0,19.689,3.326,19.689,7.429"/>
<path fill="#5E89B3" d="M786.797,81.939c0,8.886-7.203,16.09-16.09,16.09c-8.886,0-16.09-7.204-16.09-16.09
	s7.204-16.089,16.09-16.089C779.594,65.85,786.797,73.053,786.797,81.939"/>
<path fill="#5E89B3" d="M99.523,78.603c0,8.886-7.204,16.09-16.09,16.09s-16.09-7.204-16.09-16.09s7.204-16.09,16.09-16.09
	S99.523,69.717,99.523,78.603"/>
<path fill="#63666A" d="M811.416,63.554c0-2.149,1.742-3.893,3.892-3.893c2.15,0,3.893,1.743,3.893,3.893s-1.742,3.892-3.893,3.892
	C813.158,67.446,811.416,65.704,811.416,63.554"/>
<path fill="#5E89B3" d="M154.168,32.137c0,2.303-1.867,4.17-4.17,4.17s-4.17-1.867-4.17-4.17c0-2.303,1.867-4.17,4.17-4.17
	S154.168,29.834,154.168,32.137"/>
<path fill="#5E89B3" d="M635.705,89.948c0,2.859-2.318,5.178-5.179,5.178c-2.859,0-5.178-2.318-5.178-5.178s2.318-5.178,5.178-5.178
	C633.387,84.77,635.705,87.088,635.705,89.948"/>
<path fill="#9D74B4" d="M909.75,78.453c0,2.86-2.318,5.178-5.178,5.178s-5.178-2.317-5.178-5.178c0-2.859,2.318-5.178,5.178-5.178
	S909.75,75.593,909.75,78.453"/>
<path fill="#63666A" d="M703.252,58.615c0,5.257-4.261,9.518-9.518,9.518s-9.519-4.261-9.519-9.518s4.262-9.518,9.519-9.518
	S703.252,53.358,703.252,58.615"/>
<path fill="#63666A" d="M190.312,76.899c0,6.143-4.979,11.121-11.121,11.121s-11.121-4.979-11.121-11.121
	c0-6.142,4.979-11.121,11.121-11.121S190.312,70.757,190.312,76.899"/>
<path fill="#63666A" d="M572.801,96.909c0-1.739,1.41-3.151,3.151-3.151c1.74,0,3.151,1.412,3.151,3.151
	c0,1.741-1.411,3.152-3.151,3.152C574.211,100.061,572.801,98.65,572.801,96.909"/>
</svg>
