<?xml version="1.0" encoding="utf-8"?>
<!-- Generator: Adobe Illustrator 16.0.4, SVG Export Plug-In . SVG Version: 6.00 Build 0)  -->
<!DOCTYPE svg PUBLIC "-//W3C//DTD SVG 1.1//EN" "http://www.w3.org/Graphics/SVG/1.1/DTD/svg11.dtd">
<svg version="1.1" id="Layer_1" xmlns="http://www.w3.org/2000/svg" xmlns:xlink="http://www.w3.org/1999/xlink" x="0px" y="0px"
	 width="1774.845px" height="853.16px" viewBox="0 0 1774.845 853.16" enable-background="new 0 0 1774.845 853.16"
	 xml:space="preserve">
<path fill="#63666A" d="M417.871,746.283c0-3.13,2.539-5.668,5.668-5.668c3.131,0,5.668,2.538,5.668,5.668
	c0,3.131-2.537,5.67-5.668,5.67C420.41,751.953,417.871,749.414,417.871,746.283"/>
<path fill="#63666A" d="M1139.722,429.414c0,7.379-5.982,13.36-13.361,13.36s-13.36-5.981-13.36-13.36s5.981-13.359,13.36-13.359
	S1139.722,422.035,1139.722,429.414"/>
<path fill="#63666A" d="M1516.722,714.414c0,7.379-5.982,13.36-13.361,13.36s-13.36-5.981-13.36-13.36s5.981-13.359,13.36-13.359
	S1516.722,707.035,1516.722,714.414"/>
<path fill="#63666A" d="M1068.722,625.414c0,7.379-5.982,13.36-13.361,13.36s-13.36-5.981-13.36-13.36s5.981-13.359,13.36-13.359
	S1068.722,618.035,1068.722,625.414"/>
<path fill="#63666A" d="M30,566.297c0,8.284-6.716,15-15,15s-15-6.716-15-15c0-8.283,6.716-15,15-15S30,558.014,30,566.297"/>
<path fill="#9D74B4" d="M1591,821.764c0,5.143,4.169,9.312,9.312,9.312c5.144,0,9.312-4.17,9.312-9.312s-4.169-9.312-9.312-9.312
	C1595.169,812.452,1591,816.621,1591,821.764"/>
<path fill="#9D74B4" d="M209.15,652.361c0,7.379-5.982,13.36-13.359,13.36c-7.38,0-13.361-5.981-13.361-13.36
	S188.411,639,195.791,639C203.168,639,209.15,644.982,209.15,652.361"/>
<path fill="#5E89B3" d="M131.15,13.361c0,7.379-5.982,13.36-13.359,13.36c-7.379,0-13.361-5.981-13.361-13.36S110.412,0,117.791,0
	C125.168,0,131.15,5.982,131.15,13.361"/>
<path fill="#5E89B3" d="M1410.726,795.361c0,15.98-12.955,28.936-28.937,28.936c-15.98,0-28.936-12.955-28.936-28.936
	s12.955-28.937,28.936-28.937C1397.771,766.425,1410.726,779.381,1410.726,795.361"/>
<path fill="#5E89B3" d="M665.726,672.361c0,15.98-12.955,28.936-28.937,28.936c-15.98,0-28.936-12.955-28.936-28.936
	s12.955-28.937,28.936-28.937C652.771,643.425,665.726,656.381,665.726,672.361"/>
<path fill="#5E89B3" d="M195.726,315.361c0,15.98-12.955,28.936-28.937,28.936c-15.98,0-28.936-12.955-28.936-28.936
	s12.955-28.937,28.936-28.937C182.771,286.425,195.726,299.381,195.726,315.361"/>
<path fill="#9D74B4" d="M578,423.797c0,4.143-3.357,7.5-7.5,7.5s-7.5-3.357-7.5-7.5s3.357-7.5,7.5-7.5S578,419.654,578,423.797"/>
<path fill="#5E89B3" d="M1526,487.764c0,5.143-4.169,9.312-9.312,9.312c-5.143,0-9.312-4.17-9.312-9.312s4.169-9.312,9.312-9.312
	C1521.831,478.452,1526,482.621,1526,487.764"/>
<path fill="#63666A" d="M1572.845,395.091c0,5.144-4.169,9.313-9.312,9.313s-9.312-4.17-9.312-9.313
	c0-5.143,4.169-9.312,9.312-9.312S1572.845,389.948,1572.845,395.091"/>
<path fill="#5E89B3" d="M1774.845,755.091c0,5.144-4.169,9.313-9.312,9.313s-9.312-4.17-9.312-9.313
	c0-5.143,4.169-9.312,9.312-9.312S1774.845,749.948,1774.845,755.091"/>
<path fill="#5E89B3" d="M74.846,759.091c0,5.144-4.17,9.313-9.312,9.313s-9.312-4.17-9.312-9.313c0-5.143,4.17-9.312,9.312-9.312
	S74.846,753.948,74.846,759.091"/>
</svg>
