<?xml version="1.0" encoding="utf-8"?>
<!-- Generator: Adobe Illustrator 16.0.4, SVG Export Plug-In . SVG Version: 6.00 Build 0)  -->
<!DOCTYPE svg PUBLIC "-//W3C//DTD SVG 1.1//EN" "http://www.w3.org/Graphics/SVG/1.1/DTD/svg11.dtd">
<svg version="1.1" id="Layer_1" xmlns="http://www.w3.org/2000/svg" xmlns:xlink="http://www.w3.org/1999/xlink" x="0px" y="0px"
	 width="42.708px" height="41.508px" viewBox="0 0 42.708 41.508" enable-background="new 0 0 42.708 41.508" xml:space="preserve">
<path id="magnifier-6_3_" fill="#FFFFFF" d="M35.078,41.508l-7.983-7.983c-2.727,1.717-5.944,2.726-9.405,2.726
	C7.919,36.25,0,28.331,0,18.561s7.92-17.69,17.69-17.69s17.69,7.92,17.69,17.69c0,3.46-1.009,6.679-2.726,9.405l8.267,8.268
	L35.078,41.508z M17.689,32.318c7.586,0,13.758-6.171,13.758-13.758c0-7.587-6.172-13.759-13.758-13.759
	c-7.585,0-13.759,6.172-13.759,13.759C3.931,26.147,10.104,32.318,17.689,32.318z"/>
</svg>
