<?xml version="1.0" encoding="utf-8"?>
<!-- Generator: Adobe Illustrator 16.0.4, SVG Export Plug-In . SVG Version: 6.00 Build 0)  -->
<!DOCTYPE svg PUBLIC "-//W3C//DTD SVG 1.1//EN" "http://www.w3.org/Graphics/SVG/1.1/DTD/svg11.dtd">
<svg version="1.1" id="Layer_1" xmlns="http://www.w3.org/2000/svg" xmlns:xlink="http://www.w3.org/1999/xlink" x="0px" y="0px"
	 width="37.324px" height="45.928px" viewBox="0 0 37.324 45.928" enable-background="new 0 0 37.324 45.928" xml:space="preserve">
<g>
	<g>
		<path fill="#FFFFFF" d="M15.406,45.928C13.13,45.172,15.406,45.928,15.406,45.928c-4.78-0.824-9.732-9.112-12.753-15.961
			c-1.717-3.891-3.495-8.949-2.218-10.945c0.785-1.228,2.048-1.889,3.466-1.817c1.864,0.096,3.815,1.408,5.619,3.712
			c0.063-2.023,0.135-3.927,0.206-5.794c0.103-2.717,0.2-5.283,0.259-7.946c0.09-4.081,1.423-5.878,2.526-6.667
			c0.972-0.696,2.148-0.877,3.312-0.51c3.13,0.988,3.059,4.754,2.941,10.995c-0.023,1.201-0.047,2.475-0.054,3.839
			c0.874-0.608,1.862-0.595,2.813-0.505c1.225,0.116,2.448,0.854,3.207,2.239c0.447-0.407,0.953-0.713,1.509-0.903
			c1.315-0.45,2.719-0.163,3.755,0.768c0.479,0.431,0.85,0.962,1.105,1.571c0.998-0.624,2.094-0.772,3.024-0.547
			c2.001,0.482,3.767,2.422,3.2,6.275c-0.157,1.074-0.238,1.923-0.323,2.823c-0.146,1.52-0.309,3.244-0.875,6.507
			c-0.81,4.665-2.08,10.74-7.784,12.695C25.816,46.622,17.682,46.685,15.406,45.928z M15.868,43.25
			c3.034,0.523,7.431,1.09,11.593-0.337c3.917-1.343,5.128-5.365,5.986-10.315c0.548-3.16,0.707-4.829,0.847-6.301
			c0.089-0.936,0.173-1.818,0.341-2.961c0.315-2.145-0.374-3.051-1.148-3.237c-0.675-0.164-1.656,0.412-2.216,2.058
			c-0.232,0.685-0.96,1.067-1.655,0.871c-0.696-0.197-1.117-0.903-0.957-1.608c0.298-1.318,0.119-2.426-0.48-2.964
			c-0.301-0.272-0.678-0.35-1.058-0.218c-0.791,0.271-1.42,1.301-1.684,2.757c-0.13,0.715-0.8,1.203-1.52,1.104
			c-0.721-0.098-1.237-0.745-1.171-1.469c0.213-2.353-0.617-3.512-1.479-3.594c-1.025-0.095-2.245,1.106-2.483,3.525
			c-0.07,0.711-0.68,1.246-1.394,1.225c-0.714-0.022-1.291-0.593-1.317-1.307c-0.134-3.582-0.075-7.004-0.027-9.535
			c0.084-4.456,0.151-7.975-1.041-8.351c-0.347-0.11-0.637-0.07-0.912,0.127c-0.308,0.22-1.317,1.197-1.391,4.518
			c-0.06,2.685-0.158,5.261-0.261,7.988c-0.121,3.185-0.245,6.479-0.322,10.279c-0.013,0.625-0.45,1.16-1.059,1.298
			c-0.609,0.138-1.234-0.156-1.515-0.714C7.308,21.641,5.03,19.986,3.76,19.92c-0.44-0.023-0.755,0.144-1.017,0.539
			c-0.416,1.198,1.358,7.195,5.016,13.612C10.774,39.361,13.714,42.878,15.868,43.25L15.868,43.25z M2.75,20.441"/>
	</g>
</g>
</svg>
