<?xml version="1.0" encoding="utf-8"?>
<!-- Generator: Adobe Illustrator 16.0.4, SVG Export Plug-In . SVG Version: 6.00 Build 0)  -->
<!DOCTYPE svg PUBLIC "-//W3C//DTD SVG 1.1//EN" "http://www.w3.org/Graphics/SVG/1.1/DTD/svg11.dtd">
<svg version="1.1" id="Layer_1" xmlns="http://www.w3.org/2000/svg" xmlns:xlink="http://www.w3.org/1999/xlink" x="0px" y="0px"
	 width="42.708px" height="45.928px" viewBox="0 0 42.708 45.928" enable-background="new 0 0 42.708 45.928" xml:space="preserve">
<g>
	<path id="coin-9_3_" fill="#FFFFFF" d="M33.035,41.544c3.661,0,7.457-0.852,9.674-2.466v1.147c0,2.186-4.502,3.957-9.674,3.957
		c-5.17,0-9.673-1.771-9.673-3.957v-1.147C25.577,40.693,29.375,41.544,33.035,41.544z M33.035,32.75
		c3.661,0,7.457-0.853,9.674-2.466v1.147c0,2.185-4.502,3.956-9.674,3.956c-5.17,0-9.673-1.771-9.673-3.956v-1.147
		C25.577,31.898,29.375,32.75,33.035,32.75z M33.035,37.147c3.661,0,7.457-0.853,9.674-2.465v1.146c0,2.186-4.502,3.957-9.674,3.957
		c-5.17,0-9.673-1.771-9.673-3.957v-1.146C25.577,36.294,29.375,37.147,33.035,37.147z M33.035,28.353
		c3.661,0,7.457-0.853,9.674-2.465v1.146c0,2.186-4.502,3.957-9.674,3.957c-5.17,0-9.673-1.771-9.673-3.957v-1.146
		C25.577,27.5,29.375,28.353,33.035,28.353z M33.035,5.488c-5.17,0-9.673,1.771-9.673,3.958c0,2.186,4.503,3.957,9.673,3.957
		c5.172,0,9.674-1.771,9.674-3.957C42.708,7.259,38.207,5.488,33.035,5.488z M33.035,23.957c3.661,0,7.457-0.853,9.674-2.466v1.147
		c0,2.186-4.502,3.957-9.674,3.957c-5.17,0-9.673-1.771-9.673-3.957V21.49C25.577,23.104,29.375,23.957,33.035,23.957z
		 M33.035,15.162c3.661,0,7.457-0.852,9.674-2.466v1.147c0,2.186-4.502,3.957-9.674,3.957c-5.17,0-9.673-1.771-9.673-3.957v-1.147
		C25.577,14.31,29.375,15.162,33.035,15.162z M33.035,19.559c3.661,0,7.457-0.852,9.674-2.465v1.146
		c0,2.186-4.502,3.958-9.674,3.958c-5.17,0-9.673-1.772-9.673-3.958v-1.146C25.577,18.707,29.375,19.559,33.035,19.559z
		 M10.169,23.076c-5.169,0-9.673,1.771-9.673,3.959c0,2.186,4.504,3.956,9.673,3.956c5.171,0,9.674-1.771,9.674-3.956
		C19.843,24.847,15.34,23.076,10.169,23.076z M10.169,41.544c3.66,0,7.456-0.852,9.674-2.466v1.147c0,2.186-4.503,3.957-9.674,3.957
		c-5.169,0-9.673-1.771-9.673-3.957v-1.147C2.713,40.693,6.512,41.544,10.169,41.544z M10.169,32.75c3.66,0,7.456-0.853,9.674-2.466
		v1.147c0,2.185-4.503,3.956-9.674,3.956c-5.169,0-9.673-1.771-9.673-3.956v-1.147C2.713,31.898,6.512,32.75,10.169,32.75z
		 M10.169,37.147c3.66,0,7.456-0.853,9.674-2.465v1.146c0,2.186-4.503,3.957-9.674,3.957c-5.169,0-9.673-1.771-9.673-3.957v-1.146
		C2.713,36.294,6.512,37.147,10.169,37.147z"/>
</g>
</svg>
