<?xml version="1.0" encoding="utf-8"?>
<!-- Generator: Adobe Illustrator 16.0.4, SVG Export Plug-In . SVG Version: 6.00 Build 0)  -->
<!DOCTYPE svg PUBLIC "-//W3C//DTD SVG 1.1//EN" "http://www.w3.org/Graphics/SVG/1.1/DTD/svg11.dtd">
<svg version="1.1" id="Layer_1" xmlns="http://www.w3.org/2000/svg" xmlns:xlink="http://www.w3.org/1999/xlink" x="0px" y="0px"
	 width="136.25px" height="136.25px" viewBox="0 0 136.25 136.25" enable-background="new 0 0 136.25 136.25" xml:space="preserve">
<g>
	<path fill="#93A5CF" d="M134.888,68.126c0-36.872-29.892-66.764-66.763-66.764c-36.872,0-66.762,29.892-66.762,66.764
		c0,36.873,29.891,66.763,66.762,66.763C104.999,134.889,134.888,104.999,134.888,68.126"/>
</g>
<g>
	<path fill="#FFFFFF" d="M68.125,136.25C30.561,136.25,0,105.69,0,68.126S30.561,0,68.125,0c37.565,0,68.125,30.562,68.125,68.126
		S105.69,136.25,68.125,136.25z M68.125,2.725c-36.062,0-65.4,29.338-65.4,65.401c0,36.062,29.338,65.4,65.4,65.4
		s65.401-29.339,65.401-65.4C133.526,32.063,104.187,2.725,68.125,2.725z"/>
</g>
<g>
	<path fill="#FFFFFF" d="M81.663,92.047c5.018,0,10.223-1.17,13.262-3.381v1.571c0,2.997-6.172,5.425-13.262,5.425
		c-7.088,0-13.263-2.428-13.263-5.425v-1.571C71.437,90.877,76.646,92.047,81.663,92.047 M81.663,79.989
		c5.018,0,10.223-1.168,13.262-3.38v1.572c0,2.995-6.172,5.425-13.262,5.425c-7.088,0-13.263-2.43-13.263-5.425v-1.572
		C71.437,78.821,76.646,79.989,81.663,79.989 M81.663,86.018c5.018,0,10.223-1.168,13.262-3.379v1.57
		c0,2.996-6.172,5.426-13.262,5.426c-7.088,0-13.263-2.43-13.263-5.426v-1.57C71.437,84.85,76.646,86.018,81.663,86.018
		 M81.663,73.961c5.018,0,10.223-1.168,13.262-3.379v1.57c0,2.996-6.172,5.426-13.262,5.426c-7.088,0-13.263-2.43-13.263-5.426
		v-1.57C71.437,72.793,76.646,73.961,81.663,73.961 M81.663,42.614c-7.088,0-13.263,2.428-13.263,5.427
		c0,2.996,6.175,5.424,13.263,5.424c7.09,0,13.262-2.428,13.262-5.424C94.922,45.042,88.75,42.614,81.663,42.614 M81.663,67.933
		c5.018,0,10.223-1.168,13.262-3.38v1.573c0,2.996-6.172,5.423-13.262,5.423c-7.088,0-13.263-2.428-13.263-5.423v-1.573
		C71.437,66.765,76.646,67.933,81.663,67.933 M81.663,55.876c5.018,0,10.223-1.168,13.262-3.38v1.573
		c0,2.995-6.172,5.424-13.262,5.424c-7.088,0-13.263-2.429-13.263-5.424v-1.573C71.437,54.708,76.646,55.876,81.663,55.876
		 M81.663,61.904c5.018,0,10.223-1.168,13.262-3.379v1.57c0,2.996-6.172,5.426-13.262,5.426c-7.088,0-13.263-2.43-13.263-5.426
		v-1.57C71.437,60.736,76.646,61.904,81.663,61.904 M50.315,66.728c-7.087,0-13.263,2.429-13.263,5.427
		c0,2.996,6.176,5.424,13.263,5.424c7.089,0,13.261-2.428,13.261-5.424C63.576,69.155,57.404,66.728,50.315,66.728 M50.315,92.047
		c5.017,0,10.22-1.17,13.261-3.381v1.571c0,2.997-6.172,5.425-13.261,5.425c-7.087,0-13.263-2.428-13.263-5.425v-1.571
		C40.091,90.877,45.3,92.047,50.315,92.047 M50.315,79.989c5.017,0,10.22-1.168,13.261-3.38v1.572c0,2.995-6.172,5.425-13.261,5.425
		c-7.087,0-13.263-2.43-13.263-5.425v-1.572C40.091,78.821,45.3,79.989,50.315,79.989 M50.315,86.018
		c5.017,0,10.22-1.168,13.261-3.379v1.57c0,2.996-6.172,5.426-13.261,5.426c-7.087,0-13.263-2.43-13.263-5.426v-1.57
		C40.091,84.85,45.3,86.018,50.315,86.018"/>
</g>
</svg>
