<?xml version="1.0" encoding="utf-8"?>
<!-- Generator: Adobe Illustrator 16.0.4, SVG Export Plug-In . SVG Version: 6.00 Build 0)  -->
<!DOCTYPE svg PUBLIC "-//W3C//DTD SVG 1.1//EN" "http://www.w3.org/Graphics/SVG/1.1/DTD/svg11.dtd">
<svg version="1.1" id="Layer_1" xmlns="http://www.w3.org/2000/svg" xmlns:xlink="http://www.w3.org/1999/xlink" x="0px" y="0px"
	 width="136.25px" height="136.25px" viewBox="0 0 136.25 136.25" enable-background="new 0 0 136.25 136.25" xml:space="preserve">
<g>
	<path fill="#93A5CF" d="M134.888,68.126c0-36.872-29.892-66.764-66.763-66.764c-36.872,0-66.762,29.892-66.762,66.764
		c0,36.873,29.891,66.763,66.762,66.763C104.999,134.889,134.888,104.999,134.888,68.126"/>
</g>
<g>
	<path fill="#FFFFFF" d="M68.125,136.25C30.561,136.25,0,105.69,0,68.126S30.561,0,68.125,0c37.565,0,68.125,30.562,68.125,68.126
		S105.69,136.25,68.125,136.25z M68.125,2.725c-36.062,0-65.4,29.338-65.4,65.401c0,36.062,29.338,65.4,65.4,65.4
		s65.401-29.339,65.401-65.4C133.526,32.063,104.187,2.725,68.125,2.725z"/>
</g>
<g>
	<g>
		<defs>
			<path id="SVGID_1_" d="M68.125,136.25C30.561,136.25,0,105.69,0,68.126S30.561,0,68.125,0c37.565,0,68.125,30.562,68.125,68.126
				S105.69,136.25,68.125,136.25z"/>
		</defs>
		<clipPath id="SVGID_2_">
			<use xlink:href="#SVGID_1_"  overflow="visible"/>
		</clipPath>
		<g clip-path="url(#SVGID_2_)">
			<path fill="#FFFFFF" d="M118.29,130.97l-29.522-29.523c-5.547,3.491-12.087,5.544-19.126,5.544
				c-19.867,0-35.971-16.105-35.971-35.973c0-19.868,16.103-35.972,35.97-35.972c19.868,0,35.972,16.104,35.972,35.972
				c0,7.037-2.053,13.581-5.541,19.126l29.523,29.522L118.29,130.97z M69.64,98.995c15.425,0,27.978-12.55,27.978-27.978
				c0-15.428-12.553-27.977-27.978-27.977c-15.424,0-27.977,12.55-27.977,27.978C41.663,86.446,54.216,98.995,69.64,98.995"/>
		</g>
	</g>
</g>
</svg>
