<?xml version="1.0" encoding="utf-8"?>
<!-- Generator: Adobe Illustrator 16.0.4, SVG Export Plug-In . SVG Version: 6.00 Build 0)  -->
<!DOCTYPE svg PUBLIC "-//W3C//DTD SVG 1.1//EN" "http://www.w3.org/Graphics/SVG/1.1/DTD/svg11.dtd">
<svg version="1.1" id="Layer_1" xmlns="http://www.w3.org/2000/svg" xmlns:xlink="http://www.w3.org/1999/xlink" x="0px" y="0px"
	 width="136.25px" height="136.25px" viewBox="0 0 136.25 136.25" enable-background="new 0 0 136.25 136.25" xml:space="preserve">
<g>
	<path fill="#93A5CF" d="M134.888,68.126c0-36.872-29.892-66.764-66.763-66.764c-36.872,0-66.762,29.892-66.762,66.764
		c0,36.873,29.891,66.763,66.762,66.763C104.999,134.889,134.888,104.999,134.888,68.126"/>
</g>
<g>
	<path fill="#FFFFFF" d="M68.125,136.25C30.561,136.25,0,105.69,0,68.126S30.561,0,68.125,0c37.565,0,68.125,30.562,68.125,68.126
		S105.69,136.25,68.125,136.25z M68.125,2.725c-36.062,0-65.4,29.338-65.4,65.401c0,36.062,29.338,65.4,65.4,65.4
		s65.401-29.339,65.401-65.4C133.526,32.063,104.187,2.725,68.125,2.725z"/>
</g>
<g>
	<path fill="#FFFFFF" d="M60.544,104.702C56.929,103.502,60.544,104.702,60.544,104.702c-7.591-1.309-15.455-14.472-20.252-25.347
		c-2.727-6.179-5.551-14.211-3.523-17.381c1.247-1.951,3.252-3,5.503-2.886c2.96,0.152,6.059,2.235,8.923,5.894
		c0.101-3.212,0.215-6.236,0.328-9.201c0.163-4.314,0.317-8.389,0.411-12.617c0.144-6.48,2.261-9.336,4.011-10.589
		c1.544-1.105,3.412-1.393,5.261-0.81c4.97,1.569,4.857,7.551,4.67,17.461c-0.036,1.906-0.075,3.929-0.085,6.096
		c1.387-0.965,2.958-0.944,4.467-0.802c1.945,0.185,3.888,1.356,5.093,3.557c0.71-0.647,1.515-1.134,2.396-1.436
		c2.088-0.715,4.317-0.259,5.963,1.22c0.763,0.684,1.35,1.526,1.756,2.493c1.586-0.99,3.324-1.226,4.803-0.869
		c3.178,0.767,5.98,3.847,5.083,9.967c-0.25,1.705-0.379,3.055-0.515,4.482c-0.229,2.415-0.489,5.152-1.391,10.333
		c-1.283,7.407-3.302,17.056-12.361,20.161C77.075,105.804,64.16,105.903,60.544,104.702 M61.278,100.447
		c4.818,0.831,11.801,1.731,18.409-0.534c6.222-2.131,8.144-8.521,9.508-16.383c0.87-5.018,1.121-7.667,1.345-10.005
		c0.142-1.485,0.274-2.887,0.541-4.7c0.5-3.407-0.596-4.847-1.824-5.144c-1.072-0.259-2.631,0.655-3.519,3.27
		c-0.368,1.087-1.524,1.695-2.631,1.383c-1.104-0.312-1.771-1.434-1.519-2.554c0.474-2.094,0.188-3.854-0.762-4.707
		c-0.479-0.432-1.078-0.556-1.682-0.347c-1.256,0.429-2.254,2.066-2.673,4.378c-0.206,1.137-1.271,1.91-2.413,1.755
		c-1.145-0.155-1.965-1.184-1.859-2.333c0.336-3.737-0.98-5.578-2.348-5.707c-1.629-0.151-3.566,1.756-3.944,5.598
		c-0.112,1.129-1.081,1.979-2.213,1.944c-1.136-0.034-2.05-0.942-2.092-2.076c-0.213-5.688-0.119-11.122-0.043-15.142
		c0.134-7.075,0.239-12.664-1.653-13.261c-0.552-0.175-1.013-0.11-1.448,0.202c-0.488,0.35-2.092,1.901-2.209,7.174
		c-0.095,4.263-0.25,8.354-0.414,12.686c-0.191,5.058-0.389,10.288-0.512,16.324c-0.02,0.99-0.713,1.841-1.681,2.062
		c-0.968,0.217-1.959-0.25-2.405-1.136c-3.555-7.063-7.172-9.691-9.188-9.796c-0.699-0.037-1.199,0.229-1.616,0.856
		c-0.66,1.901,2.157,11.425,7.965,21.615C53.189,94.272,57.857,99.858,61.278,100.447"/>
</g>
</svg>
