<?xml version="1.0" encoding="utf-8"?>
<!-- Generator: Adobe Illustrator 16.0.4, SVG Export Plug-In . SVG Version: 6.00 Build 0)  -->
<!DOCTYPE svg PUBLIC "-//W3C//DTD SVG 1.1//EN" "http://www.w3.org/Graphics/SVG/1.1/DTD/svg11.dtd">
<svg version="1.1" id="Layer_1" xmlns="http://www.w3.org/2000/svg" xmlns:xlink="http://www.w3.org/1999/xlink" x="0px" y="0px"
	 width="321.375px" height="159.711px" viewBox="0 0 321.375 159.711" enable-background="new 0 0 321.375 159.711"
	 xml:space="preserve">
<g>
	<g>
		<path fill="#FFFFFF" d="M7.913,92.633c0.372,0,0.701-0.011,0.985-0.033c0.284-0.021,0.547-0.054,0.788-0.098v1.067
			c-0.241-0.044-0.504-0.077-0.788-0.099c-0.285-0.022-0.613-0.033-0.985-0.033v1.429C8.318,95.25,8.693,95.627,9.038,96
			c0.345,0.372,0.671,0.739,0.977,1.101l-0.903,0.624c-0.077-0.143-0.153-0.276-0.23-0.402c-0.076-0.126-0.159-0.255-0.247-0.386
			c-0.087-0.132-0.188-0.273-0.303-0.427c-0.115-0.154-0.255-0.329-0.419-0.525v5.106c0,0.438,0.011,0.928,0.033,1.47
			c0.021,0.542,0.055,1.081,0.099,1.618H6.846c0.043-0.537,0.077-1.076,0.099-1.618s0.033-1.032,0.033-1.47v-5.14
			c-0.383,1.008-0.733,1.848-1.051,2.521c-0.318,0.673-0.607,1.196-0.87,1.568c-0.153-0.153-0.307-0.271-0.46-0.353
			c-0.153-0.083-0.345-0.151-0.575-0.206c0.624-0.723,1.19-1.606,1.7-2.651c0.509-1.046,0.928-2.16,1.256-3.343v-0.049
			c-0.525,0-0.985,0.008-1.379,0.024c-0.394,0.017-0.739,0.052-1.035,0.107v-1.067c0.296,0.044,0.641,0.076,1.035,0.098
			c0.395,0.022,0.854,0.033,1.379,0.033c-0.011-0.919-0.03-1.647-0.058-2.184c-0.027-0.537-0.063-0.964-0.107-1.281
			c0.208,0.056,0.422,0.094,0.641,0.115c0.219,0.022,0.421,0.033,0.607,0.033c0.165,0,0.26,0.038,0.288,0.114
			c0.027,0.077-0.036,0.176-0.189,0.296c-0.099,0.076-0.165,0.191-0.197,0.345c-0.033,0.153-0.05,0.405-0.05,0.756V92.633z
			 M15.221,100.68c-0.361,0.339-0.729,0.654-1.101,0.943c-0.372,0.291-0.764,0.573-1.174,0.847
			c-0.411,0.272-0.852,0.542-1.322,0.804c-0.471,0.263-0.985,0.537-1.543,0.821c-0.109-0.219-0.225-0.389-0.345-0.509
			c-0.121-0.121-0.301-0.246-0.542-0.378c1.006-0.307,1.992-0.752,2.956-1.338s1.932-1.344,2.906-2.274
			c0.121-0.109,0.274-0.269,0.46-0.477s0.386-0.443,0.599-0.706s0.427-0.553,0.641-0.87s0.408-0.641,0.583-0.969
			c0.186,0.153,0.348,0.276,0.484,0.369c0.137,0.094,0.293,0.184,0.468,0.271c0.131,0.055,0.191,0.115,0.18,0.181
			s-0.093,0.12-0.246,0.164c-0.033,0.011-0.068,0.027-0.106,0.049c-0.039,0.022-0.085,0.061-0.14,0.115
			c-0.055,0.055-0.126,0.131-0.213,0.229c-0.088,0.099-0.203,0.23-0.345,0.395c-0.558,0.657-1.083,1.231-1.577,1.725
			c0.559,0.394,1.1,0.82,1.626,1.28c0.525,0.46,1.068,0.969,1.626,1.527l-0.969,0.738c-0.142-0.196-0.323-0.424-0.542-0.681
			c-0.219-0.258-0.46-0.521-0.723-0.788c-0.263-0.269-0.537-0.531-0.821-0.788C15.757,101.104,15.483,100.876,15.221,100.68z
			 M12.905,92.6c-0.285,0-0.542,0.003-0.772,0.009c-0.229,0.006-0.459,0.014-0.689,0.024s-0.468,0.024-0.714,0.041
			s-0.529,0.041-0.846,0.074v-1.067c0.427,0.033,0.796,0.061,1.108,0.082c0.312,0.022,0.624,0.035,0.936,0.041
			c0.312,0.006,0.662,0.011,1.051,0.017s0.873,0.008,1.454,0.008c0.558,0,1.029-0.002,1.412-0.008
			c0.383-0.006,0.731-0.011,1.043-0.017c0.312-0.006,0.626-0.019,0.944-0.041c0.317-0.021,0.69-0.049,1.117-0.082v1.067
			c-0.438-0.033-0.818-0.061-1.142-0.082c-0.323-0.022-0.673-0.035-1.051-0.041s-0.818-0.011-1.322-0.017S14.279,92.6,13.48,92.6
			c0.109,0.077,0.213,0.14,0.312,0.189c0.098,0.05,0.197,0.102,0.296,0.156c0.131,0.055,0.183,0.117,0.156,0.188
			s-0.124,0.118-0.288,0.14c-0.066,0.012-0.148,0.063-0.246,0.156c-0.099,0.093-0.192,0.194-0.279,0.304
			c-0.153,0.197-0.29,0.378-0.411,0.541c-0.121,0.165-0.246,0.335-0.378,0.51c-0.131,0.176-0.276,0.369-0.435,0.583
			s-0.354,0.468-0.583,0.764l3.317-0.147c0.165-0.197,0.31-0.381,0.435-0.551c0.126-0.169,0.238-0.337,0.336-0.501
			c0.099-0.164,0.189-0.331,0.271-0.5c0.082-0.17,0.161-0.354,0.238-0.551c0.186,0.153,0.355,0.279,0.509,0.378
			c0.154,0.099,0.301,0.17,0.444,0.214c0.131,0.044,0.194,0.101,0.188,0.172c-0.005,0.071-0.085,0.129-0.238,0.173
			c-0.065,0.021-0.165,0.099-0.295,0.229c-0.131,0.132-0.307,0.351-0.526,0.657c-0.613,0.843-1.39,1.702-2.332,2.577
			c-0.942,0.876-2.069,1.691-3.383,2.447c-0.143-0.208-0.266-0.364-0.37-0.468s-0.254-0.211-0.451-0.32
			c0.821-0.372,1.611-0.815,2.373-1.33c0.761-0.515,1.464-1.122,2.11-1.823l-2.643,0.197c-0.23,0.022-0.433,0.047-0.608,0.074
			s-0.356,0.079-0.542,0.156c-0.021-0.252-0.057-0.449-0.106-0.592c-0.049-0.142-0.134-0.29-0.254-0.443
			c0.175,0.012,0.309,0.015,0.402,0.009c0.093-0.006,0.2-0.014,0.32-0.024c0.405-0.569,0.774-1.131,1.109-1.684
			C12.262,93.928,12.587,93.301,12.905,92.6z M14.35,91.599c-0.131-0.165-0.254-0.317-0.369-0.46
			c-0.115-0.143-0.244-0.281-0.386-0.419c-0.142-0.137-0.304-0.281-0.484-0.436c-0.181-0.152-0.392-0.328-0.632-0.525l0.739-0.673
			c0.383,0.317,0.72,0.616,1.01,0.896c0.29,0.278,0.605,0.599,0.944,0.96L14.35,91.599z"/>
		<path fill="#FFFFFF" d="M24.794,95.753c-0.285,0.963-0.564,1.809-0.838,2.537c-0.274,0.729-0.57,1.421-0.887,2.077l-1.084-0.492
			c0.241-0.34,0.455-0.671,0.641-0.993c0.186-0.323,0.345-0.654,0.476-0.994c0.131-0.339,0.243-0.706,0.337-1.101
			c0.092-0.394,0.172-0.837,0.238-1.33L24.794,95.753z M35.008,101.074c-0.131,0.482-0.271,0.87-0.418,1.166
			s-0.32,0.525-0.518,0.689c-0.197,0.164-0.43,0.279-0.698,0.345c-0.269,0.066-0.594,0.104-0.977,0.115
			c-0.93,0.044-1.79,0.068-2.578,0.074c-0.789,0.005-1.413-0.008-1.873-0.041c-0.317-0.022-0.578-0.055-0.78-0.099
			c-0.203-0.044-0.362-0.112-0.477-0.205c-0.114-0.094-0.197-0.211-0.246-0.354s-0.074-0.317-0.074-0.525v-7.554
			c0-0.263-0.006-0.46-0.017-0.591c-0.011-0.132-0.027-0.252-0.049-0.361c0.219,0.055,0.416,0.085,0.591,0.09
			c0.175,0.006,0.372-0.008,0.591-0.041c0.153-0.021,0.243,0.009,0.271,0.091s-0.019,0.173-0.139,0.271
			c-0.088,0.088-0.146,0.172-0.172,0.255c-0.027,0.082-0.041,0.184-0.041,0.304v7.159c0,0.352,0.202,0.548,0.607,0.592
			c0.175,0.021,0.438,0.038,0.789,0.049c0.35,0.011,0.73,0.02,1.141,0.025c0.411,0.005,0.815,0.002,1.215-0.009
			c0.399-0.011,0.73-0.033,0.994-0.065c0.317-0.033,0.575-0.083,0.771-0.148s0.355-0.172,0.476-0.32
			c0.121-0.147,0.211-0.353,0.271-0.615s0.112-0.608,0.156-1.035c0.186,0.242,0.38,0.419,0.583,0.534S34.811,101.052,35.008,101.074
			z M30.821,93.947c-0.384-0.667-0.832-1.313-1.347-1.938c-0.515-0.624-1.067-1.198-1.658-1.725l0.805-0.623
			c0.295,0.284,0.594,0.588,0.895,0.911s0.591,0.644,0.87,0.96c0.28,0.318,0.537,0.63,0.772,0.937s0.441,0.58,0.616,0.821
			L30.821,93.947z M36.256,99.514c-0.164-0.405-0.326-0.767-0.484-1.084s-0.328-0.618-0.509-0.903
			c-0.18-0.284-0.377-0.571-0.591-0.862c-0.214-0.29-0.458-0.604-0.731-0.943l0.723-0.575c0.317,0.383,0.585,0.717,0.805,1.002
			c0.219,0.284,0.419,0.563,0.599,0.837c0.181,0.274,0.361,0.564,0.542,0.87c0.181,0.308,0.392,0.674,0.632,1.101L36.256,99.514z"/>
		<path fill="#FFFFFF" d="M50.542,91.189c0-0.482-0.011-0.854-0.032-1.117c-0.022-0.263-0.056-0.498-0.099-0.706
			c0.262,0.055,0.487,0.093,0.673,0.114c0.186,0.022,0.394,0.033,0.624,0.033c0.121,0,0.194,0.027,0.222,0.083
			c0.027,0.055-0.003,0.12-0.091,0.196c-0.131,0.099-0.219,0.2-0.263,0.304c-0.044,0.104-0.065,0.228-0.065,0.37v0.723
			c0.909-0.012,1.79-0.061,2.644-0.148v1.067c-0.417-0.043-0.846-0.073-1.289-0.09s-0.896-0.024-1.355-0.024v4.827
			c0.591-0.011,1.207-0.03,1.847-0.058c0.641-0.027,1.207-0.058,1.7-0.09v1.051c-0.208-0.021-0.433-0.041-0.673-0.058
			c-0.241-0.017-0.52-0.03-0.837-0.041c-0.318-0.011-0.679-0.021-1.083-0.033c-0.405-0.011-0.871-0.021-1.396-0.032
			c0.514,0.635,1.119,1.185,1.814,1.65c0.695,0.465,1.536,0.829,2.521,1.092c-0.186,0.208-0.326,0.389-0.418,0.542
			c-0.094,0.153-0.184,0.339-0.271,0.559c-1.117-0.592-2.042-1.196-2.775-1.815c-0.733-0.617-1.352-1.3-1.856-2.044h-4.548
			c-0.515,0.712-1.193,1.427-2.037,2.144s-1.801,1.327-2.874,1.83c-0.066-0.219-0.143-0.392-0.23-0.517
			c-0.087-0.126-0.229-0.266-0.427-0.419c0.537-0.197,1.024-0.402,1.462-0.616c0.438-0.213,0.834-0.443,1.19-0.689
			c0.355-0.246,0.679-0.512,0.969-0.796c0.29-0.285,0.561-0.592,0.812-0.92c-0.492,0.011-0.925,0.021-1.297,0.032
			c-0.372,0.012-0.704,0.022-0.994,0.033s-0.55,0.024-0.78,0.041c-0.23,0.017-0.449,0.036-0.657,0.058v-1.051
			c0.503,0.043,1.026,0.076,1.568,0.098c0.542,0.022,1.092,0.039,1.65,0.05v-4.844c-0.449,0-0.886,0.011-1.314,0.032
			c-0.427,0.022-0.848,0.056-1.264,0.099v-1.067c0.416,0.044,0.837,0.076,1.264,0.099c0.428,0.022,0.865,0.033,1.314,0.033
			c0-0.449-0.016-0.808-0.049-1.076c-0.032-0.268-0.076-0.528-0.131-0.779c0.252,0.055,0.458,0.09,0.616,0.106
			c0.158,0.016,0.353,0.024,0.583,0.024c0.121,0,0.194,0.024,0.222,0.074c0.027,0.049-0.003,0.112-0.09,0.188
			c-0.077,0.077-0.126,0.164-0.148,0.263s-0.033,0.235-0.033,0.411v0.805H50.542z M48.244,102.651c0.591,0,1.122-0.003,1.593-0.009
			c0.47-0.006,0.9-0.014,1.289-0.024c0.388-0.011,0.75-0.024,1.083-0.041s0.665-0.035,0.994-0.058v1.018
			c-0.351-0.021-0.701-0.041-1.051-0.057c-0.35-0.017-0.733-0.03-1.149-0.041c-0.416-0.012-0.878-0.02-1.388-0.024
			c-0.509-0.006-1.092-0.009-1.749-0.009s-1.248,0.003-1.774,0.009c-0.525,0.005-1.007,0.013-1.445,0.024
			c-0.438,0.011-0.84,0.024-1.207,0.041c-0.367,0.016-0.72,0.035-1.059,0.057v-1.018c0.317,0.022,0.646,0.041,0.986,0.058
			c0.339,0.017,0.703,0.03,1.091,0.041s0.813,0.019,1.273,0.024s0.974,0.009,1.543,0.009v-1.905c-0.69,0-1.341,0.011-1.954,0.032
			c-0.613,0.022-1.1,0.056-1.461,0.099v-0.969c0.372,0.044,0.862,0.074,1.47,0.091s1.256,0.024,1.946,0.024v-0.477
			c0-0.339-0.011-0.643-0.033-0.911c-0.021-0.269-0.055-0.511-0.098-0.73c0.121,0.021,0.225,0.038,0.312,0.049
			c0.088,0.011,0.178,0.02,0.271,0.024c0.093,0.006,0.191,0.012,0.295,0.017c0.104,0.006,0.227,0.009,0.37,0.009
			c0.285,0,0.306,0.088,0.066,0.263c-0.066,0.055-0.118,0.145-0.156,0.271c-0.039,0.125-0.057,0.237-0.057,0.336v1.149
			c0.657,0,1.267-0.011,1.831-0.033c0.564-0.021,1.021-0.049,1.372-0.082v0.969c-0.351-0.032-0.808-0.062-1.372-0.09
			s-1.174-0.041-1.831-0.041V102.651z M44.86,91.977v1.149h5.682v-1.149H44.86z M44.86,93.816v1.198h5.682v-1.198H44.86z
			 M50.542,95.638H44.86v1.183h5.682V95.638z"/>
		<path fill="#FFFFFF" d="M65.437,95.327c-0.635,0-1.243,0.008-1.823,0.024c-0.581,0.017-1.046,0.036-1.396,0.058v-0.805
			c-0.416,0.285-0.882,0.586-1.396,0.903c-0.515,0.317-1.1,0.651-1.757,1.002c-0.066-0.197-0.172-0.383-0.32-0.559
			c-0.148-0.175-0.342-0.317-0.583-0.428c0.625-0.229,1.213-0.473,1.766-0.73c0.552-0.257,1.073-0.542,1.56-0.854
			c0.487-0.312,0.95-0.656,1.388-1.034s0.859-0.802,1.264-1.272c0.427-0.504,0.772-0.964,1.035-1.38
			c0.263-0.416,0.449-0.87,0.559-1.363c0.219,0.208,0.411,0.359,0.575,0.452s0.334,0.155,0.509,0.188
			c0.109,0.022,0.161,0.071,0.156,0.148c-0.006,0.076-0.069,0.131-0.189,0.163c-0.055,0.022-0.118,0.061-0.189,0.115
			c-0.071,0.056-0.134,0.115-0.189,0.181c0.591,0.68,1.144,1.271,1.659,1.773c0.514,0.504,1.04,0.953,1.576,1.347
			c0.536,0.395,1.1,0.75,1.691,1.067s1.253,0.619,1.986,0.903c-0.175,0.121-0.314,0.244-0.418,0.369
			c-0.104,0.127-0.211,0.304-0.32,0.534c-0.569-0.285-1.079-0.559-1.527-0.821s-0.865-0.525-1.248-0.788v0.887
			c-0.351-0.021-0.827-0.041-1.429-0.058s-1.243-0.024-1.921-0.024v2.184c0.558,0,1.067-0.002,1.527-0.008
			c0.459-0.006,0.887-0.014,1.281-0.024c0.395-0.011,0.764-0.025,1.108-0.041c0.345-0.017,0.676-0.035,0.994-0.058v1.067
			c-0.317-0.022-0.648-0.041-0.994-0.058c-0.345-0.017-0.714-0.03-1.108-0.041c-0.394-0.011-0.821-0.02-1.281-0.025
			c-0.46-0.005-0.969-0.008-1.527-0.008v4.385h2.939c0.745,0,1.366-0.011,1.864-0.033c0.498-0.021,0.95-0.06,1.355-0.114v1.083
			c-0.427-0.021-0.865-0.041-1.314-0.058c-0.449-0.016-0.936-0.027-1.461-0.032c-0.525-0.006-1.103-0.012-1.732-0.017
			c-0.63-0.006-1.338-0.008-2.126-0.008s-1.497,0.002-2.126,0.008c-0.629,0.005-1.207,0.014-1.732,0.024
			c-0.526,0.011-1.013,0.024-1.461,0.041c-0.449,0.017-0.887,0.041-1.314,0.074v-1.116c0.405,0.055,0.865,0.093,1.379,0.114
			c0.515,0.022,1.133,0.033,1.856,0.033h2.857v-4.385c-0.581,0-1.112,0.003-1.593,0.008c-0.482,0.006-0.928,0.015-1.338,0.025
			c-0.41,0.011-0.794,0.024-1.149,0.041s-0.698,0.035-1.026,0.058v-1.067c0.328,0.022,0.67,0.041,1.026,0.058
			c0.355,0.016,0.739,0.03,1.149,0.041c0.411,0.011,0.856,0.019,1.338,0.024c0.481,0.006,1.013,0.008,1.593,0.008V95.327z
			 M63.367,102.208c-0.274-0.428-0.594-0.868-0.96-1.322c-0.367-0.454-0.758-0.879-1.174-1.272l0.673-0.575
			c0.197,0.187,0.402,0.389,0.616,0.607c0.213,0.22,0.421,0.441,0.624,0.665c0.202,0.225,0.397,0.446,0.583,0.666
			c0.186,0.218,0.35,0.421,0.492,0.606L63.367,102.208z M62.448,94.44c0.208,0.011,0.449,0.022,0.723,0.033
			c0.273,0.011,0.563,0.019,0.87,0.024c0.307,0.006,0.626,0.008,0.96,0.008s0.665,0,0.994,0c0.339,0,0.687,0,1.042,0
			s0.695-0.002,1.018-0.008c0.323-0.006,0.625-0.014,0.903-0.024c0.279-0.011,0.523-0.022,0.73-0.033
			c-0.339-0.24-0.66-0.49-0.96-0.747c-0.301-0.258-0.599-0.534-0.895-0.829c-0.296-0.296-0.597-0.613-0.903-0.953
			c-0.307-0.339-0.635-0.717-0.985-1.133c-0.241,0.361-0.484,0.703-0.731,1.026c-0.246,0.323-0.506,0.633-0.78,0.928
			c-0.273,0.296-0.572,0.583-0.895,0.862C63.216,93.874,62.853,94.156,62.448,94.44z M70.724,99.53
			c0.131,0.056,0.189,0.124,0.172,0.206s-0.101,0.146-0.254,0.188c-0.055,0.011-0.121,0.041-0.197,0.091
			c-0.077,0.049-0.189,0.15-0.337,0.304s-0.35,0.377-0.608,0.673c-0.257,0.296-0.588,0.689-0.993,1.183l-0.837-0.525
			c0.208-0.175,0.421-0.384,0.64-0.624c0.219-0.241,0.427-0.49,0.625-0.747c0.197-0.258,0.366-0.512,0.509-0.764
			c0.142-0.252,0.246-0.471,0.312-0.657c0.175,0.176,0.339,0.312,0.493,0.411C70.401,99.367,70.56,99.454,70.724,99.53z"/>
	</g>
	<g>
		<path fill="#FFFFFF" d="M21.521,40.026l-3.286,0.257c-0.294-1.297-0.71-2.24-1.249-2.827c-0.893-0.942-1.995-1.414-3.304-1.414
			c-1.052,0-1.977,0.294-2.772,0.881c-1.04,0.759-1.86,1.867-2.46,3.323c-0.6,1.457-0.912,3.531-0.936,6.223
			c0.795-1.211,1.769-2.111,2.919-2.698c1.15-0.587,2.356-0.881,3.617-0.881c2.203,0,4.078,0.811,5.626,2.432
			c1.548,1.622,2.322,3.717,2.322,6.287c0,1.689-0.364,3.259-1.092,4.709c-0.728,1.45-1.729,2.561-3.001,3.332
			c-1.273,0.771-2.717,1.156-4.333,1.156c-2.753,0-4.999-1.013-6.737-3.039c-1.738-2.025-2.607-5.362-2.607-10.014
			c0-5.201,0.96-8.982,2.882-11.344c1.677-2.056,3.935-3.084,6.774-3.084c2.117,0,3.852,0.594,5.205,1.781
			C20.441,36.293,21.252,37.933,21.521,40.026z M8.029,51.627c0,1.138,0.241,2.228,0.725,3.268c0.483,1.041,1.16,1.833,2.029,2.377
			c0.869,0.544,1.781,0.816,2.735,0.816c1.395,0,2.594-0.562,3.598-1.688c1.003-1.126,1.505-2.655,1.505-4.589
			c0-1.86-0.495-3.325-1.487-4.396c-0.991-1.071-2.24-1.606-3.745-1.606c-1.494,0-2.76,0.536-3.8,1.606
			C8.549,48.486,8.029,49.89,8.029,51.627z"/>
		<path fill="#FFFFFF" d="M29.044,47.075c0-3.182,0.328-5.743,0.982-7.682c0.654-1.94,1.627-3.436,2.919-4.488
			c1.291-1.053,2.916-1.579,4.874-1.579c1.444,0,2.711,0.291,3.8,0.872c1.089,0.582,1.989,1.42,2.699,2.515
			c0.709,1.096,1.266,2.429,1.67,4.002c0.404,1.573,0.605,3.693,0.605,6.36c0,3.158-0.324,5.707-0.973,7.646
			c-0.649,1.94-1.619,3.439-2.91,4.498c-1.292,1.059-2.922,1.588-4.893,1.588c-2.594,0-4.632-0.93-6.112-2.79
			C29.932,55.776,29.044,52.129,29.044,47.075z M32.44,47.075c0,4.418,0.517,7.358,1.551,8.821s2.31,2.193,3.828,2.193
			s2.793-0.734,3.828-2.203c1.034-1.468,1.551-4.406,1.551-8.812c0-4.43-0.517-7.373-1.551-8.83
			c-1.034-1.456-2.322-2.185-3.864-2.185c-1.517,0-2.729,0.643-3.635,1.928C33.009,39.628,32.44,42.657,32.44,47.075z"/>
		<path fill="#FFFFFF" d="M54.337,39.897c0-1.921,0.483-3.555,1.45-4.901s2.369-2.02,4.205-2.02c1.688,0,3.086,0.604,4.194,1.809
			c1.107,1.206,1.661,2.977,1.661,5.314c0,2.276-0.56,4.029-1.68,5.259s-2.5,1.845-4.14,1.845c-1.627,0-2.983-0.606-4.066-1.818
			C54.878,44.174,54.337,42.345,54.337,39.897z M60.082,35.253c-0.82,0-1.502,0.355-2.046,1.065
			c-0.545,0.709-0.817,2.013-0.817,3.91c0,1.726,0.275,2.94,0.826,3.644s1.23,1.055,2.037,1.055c0.833,0,1.521-0.354,2.065-1.064
			s0.817-2.007,0.817-3.892c0-1.738-0.276-2.958-0.826-3.662C61.588,35.605,60.902,35.253,60.082,35.253z M60.101,61.338
			l14.723-28.362h2.68L62.836,61.338H60.101z M71.74,54.032c0-1.934,0.483-3.57,1.45-4.91c0.967-1.341,2.374-2.011,4.223-2.011
			c1.688,0,3.087,0.604,4.194,1.809c1.107,1.206,1.662,2.977,1.662,5.314c0,2.276-0.56,4.029-1.68,5.259
			c-1.12,1.229-2.506,1.845-4.158,1.845c-1.628,0-2.983-0.609-4.066-1.827C72.281,58.294,71.74,56.468,71.74,54.032z M77.503,49.388
			c-0.832,0-1.521,0.355-2.065,1.065c-0.545,0.71-0.817,2.014-0.817,3.91c0,1.713,0.275,2.925,0.826,3.635s1.23,1.064,2.038,1.064
			c0.844,0,1.539-0.354,2.083-1.064s0.817-2.007,0.817-3.892c0-1.738-0.275-2.958-0.826-3.662S78.323,49.388,77.503,49.388z"/>
	</g>
	<g>
		<g>
			
				<rect x="151.125" y="2.639" transform="matrix(0.7071 0.7071 -0.7071 0.7071 52.5056 -108.7334)" fill="#FFFFFF" width="12.74" height="12.739"/>
		</g>
		<g>
			
				<rect x="96.693" y="2.639" transform="matrix(0.707 0.7072 -0.7072 0.707 36.5649 -70.2453)" fill="#FFFFFF" width="12.74" height="12.738"/>
		</g>
		<g>
			
				<rect x="204.98" y="2.638" transform="matrix(0.7071 0.7071 -0.7071 0.7071 68.2688 -146.8051)" fill="#FFFFFF" width="12.741" height="12.74"/>
		</g>
		<g>
			<polygon fill="#EB8900" points="145.973,58.286 157.212,69.521 168.88,57.862 157.641,46.62 			"/>
		</g>
		<g>
			<polygon fill="#EB8900" points="157.641,81.164 189.499,70.287 202.598,67.451 157.641,22.495 125.115,55.024 129.661,66.413 			
				"/>
		</g>
		<g>
			<polygon fill="#EB8900" points="141.881,62.383 103.63,100.631 126.06,100.622 130.239,96.471 153.113,73.619 			"/>
		</g>
		<g>
			<polygon fill="#EB8900" points="130.349,50.317 103.764,77.075 103.764,93.006 138.136,58.286 			"/>
		</g>
		<g>
			<polygon fill="#EB8900" points="103.764,23.552 103.764,100.322 161.517,81.164 			"/>
		</g>
		<g>
			<polygon fill="#EB8900" points="157.217,77.728 134.346,100.619 180.081,100.599 			"/>
		</g>
		<g>
			<polygon fill="#EB8900" points="211.008,23.552 163.57,70.9 211.008,100.322 			"/>
		</g>
		<g>
			<polygon fill="#EB8900" points="211.008,92.139 211.008,76.204 184.863,49.887 176.811,57.859 			"/>
		</g>
		<g>
			<polygon fill="#EB8900" points="211.008,100.329 172.807,61.937 161.232,73.59 184.133,97.181 187.711,101.301 211.008,101.301 
							"/>
		</g>
	</g>
	<g>
		<g>
			<circle fill="#FFFFFF" cx="157.68" cy="102.322" r="54.469"/>
		</g>
		<g>
			<path fill="#FFFFFF" d="M157.68,159.711c-31.646,0-57.391-25.745-57.391-57.39c0-31.646,25.745-57.392,57.391-57.392
				c31.645,0,57.391,25.746,57.391,57.392C215.071,133.966,189.325,159.711,157.68,159.711z M157.68,50.774
				c-28.423,0-51.547,23.124-51.547,51.548c0,28.422,23.124,51.546,51.547,51.546s51.547-23.124,51.547-51.546
				C209.228,73.898,186.104,50.774,157.68,50.774z"/>
		</g>
	</g>
	<g>
		<g>
			<path fill="#EB8900" d="M157.458,102.365l32.074,44.146c-8.957,6.468-19.959,10.278-31.851,10.278
				c-30.083,0-54.469-24.386-54.469-54.468c0-30.083,24.387-54.47,54.469-54.47L157.458,102.365z"/>
		</g>
		<g>
			<path fill="#FFFFFF" d="M157.68,159.711c-31.646,0-57.391-25.745-57.391-57.39c0-31.646,25.745-57.392,57.391-57.392h2.934
				l-0.23,56.49l33.235,45.744l-2.377,1.716C181.429,155.966,169.823,159.711,157.68,159.711z M154.746,50.857
				c-27.062,1.526-48.613,24.027-48.613,51.465c0,28.422,23.124,51.546,51.547,51.546c9.922,0,19.444-2.783,27.716-8.076
				l-30.865-42.482L154.746,50.857z"/>
		</g>
	</g>
	<g>
		<path fill="#EB8900" d="M152.964,104.961c-0.112,0-0.226-0.021-0.335-0.067l-72.57-30.039H4.49c-0.484,0-0.876-0.393-0.876-0.876
			s0.392-0.876,0.876-0.876h75.917l0.161,0.067l72.731,30.105c0.447,0.185,0.66,0.698,0.475,1.145
			C153.635,104.757,153.308,104.961,152.964,104.961z"/>
	</g>
	<g>
		<path fill="#FFFFFF" d="M247.118,92.093c-0.252-0.044-0.498-0.074-0.739-0.091c-0.24-0.017-0.536-0.03-0.886-0.041v0.756
			c0.415,0.438,0.793,0.862,1.133,1.272c0.339,0.41,0.612,0.785,0.821,1.125l-0.739,0.641c-0.099-0.208-0.189-0.389-0.271-0.542
			s-0.17-0.304-0.263-0.452c-0.094-0.147-0.194-0.295-0.304-0.443c-0.109-0.147-0.235-0.32-0.377-0.517v5.386
			c0,0.438,0.008,0.928,0.024,1.47c0.016,0.542,0.052,1.081,0.106,1.618h-1.149c0.055-0.537,0.09-1.076,0.106-1.618
			s0.024-1.032,0.024-1.47V94.31c-0.131,0.361-0.26,0.701-0.385,1.019c-0.127,0.317-0.255,0.623-0.387,0.919
			s-0.271,0.589-0.418,0.879c-0.148,0.29-0.305,0.588-0.469,0.895c-0.132-0.152-0.285-0.271-0.46-0.353
			c-0.175-0.083-0.361-0.14-0.559-0.173c0.657-0.788,1.196-1.658,1.618-2.61c0.421-0.953,0.769-1.927,1.043-2.924
			c-0.493,0-0.891,0.009-1.19,0.024c-0.302,0.017-0.595,0.053-0.879,0.107v-1.051c0.295,0.055,0.594,0.093,0.896,0.114
			c0.301,0.022,0.697,0.039,1.189,0.05c0-0.536-0.002-1.01-0.008-1.421c-0.006-0.41-0.017-0.771-0.033-1.084
			c-0.016-0.312-0.035-0.582-0.058-0.812c-0.021-0.229-0.044-0.433-0.065-0.607c0.208,0.056,0.413,0.094,0.616,0.115
			c0.202,0.021,0.396,0.032,0.583,0.032c0.164,0,0.257,0.041,0.279,0.123c0.021,0.083-0.039,0.179-0.182,0.288
			c-0.109,0.087-0.178,0.211-0.205,0.369c-0.027,0.159-0.04,0.402-0.04,0.731v2.249c0.35-0.011,0.646-0.027,0.886-0.05
			c0.241-0.021,0.487-0.054,0.739-0.098v0.181c0.055,0.011,0.106,0.017,0.156,0.017c0.049,0,0.101,0,0.156,0
			c0.207-0.328,0.389-0.613,0.542-0.854c0.152-0.24,0.287-0.484,0.402-0.73c0.114-0.246,0.224-0.512,0.328-0.796
			c0.104-0.285,0.216-0.63,0.336-1.035c0.351,0.23,0.689,0.384,1.019,0.46c0.099,0.021,0.143,0.068,0.132,0.14
			c-0.012,0.071-0.083,0.134-0.214,0.188c-0.143,0.055-0.274,0.191-0.395,0.41c-0.263,0.449-0.489,0.835-0.682,1.158
			c-0.191,0.323-0.407,0.671-0.647,1.043c0.229-0.011,0.459-0.027,0.688-0.05c0.23-0.021,0.466-0.044,0.707-0.065
			c0.153-0.219,0.293-0.44,0.418-0.665c0.126-0.225,0.244-0.446,0.354-0.665c0.099,0.088,0.228,0.172,0.386,0.255
			c0.158,0.082,0.299,0.14,0.419,0.172c0.12,0.033,0.181,0.085,0.181,0.156s-0.044,0.123-0.132,0.156
			c-0.098,0.044-0.191,0.099-0.279,0.164s-0.186,0.175-0.295,0.328c-0.317,0.46-0.668,0.938-1.051,1.438
			c-0.384,0.498-0.745,0.949-1.084,1.354c0.493-0.033,1.056-0.082,1.691-0.148c-0.065-0.175-0.135-0.336-0.205-0.484
			c-0.071-0.147-0.135-0.276-0.188-0.386l0.672-0.278c0.176,0.316,0.343,0.662,0.502,1.033c0.158,0.373,0.298,0.734,0.418,1.085
			l-0.706,0.312c-0.021-0.088-0.055-0.189-0.099-0.304c-0.043-0.115-0.093-0.249-0.147-0.402l-2.053,0.279
			c-0.12,0.021-0.282,0.058-0.484,0.106c-0.202,0.05-0.375,0.106-0.517,0.172c-0.056-0.196-0.118-0.366-0.189-0.509
			c-0.071-0.142-0.15-0.279-0.238-0.41c0.109,0,0.216-0.003,0.32-0.008c0.104-0.006,0.211-0.009,0.32-0.009
			c0.263-0.307,0.531-0.644,0.805-1.01s0.542-0.741,0.805-1.125l-0.903,0.132c-0.219,0.032-0.41,0.068-0.575,0.106
			c-0.164,0.038-0.333,0.096-0.509,0.173c-0.022-0.208-0.041-0.361-0.058-0.46c-0.016-0.099-0.052-0.203-0.106-0.312V92.093z
			 M250.222,97.003c0.197,0.186,0.361,0.342,0.493,0.468c0.131,0.126,0.251,0.249,0.361,0.369c0.108,0.121,0.215,0.247,0.319,0.378
			s0.228,0.285,0.37,0.46l-0.756,0.542c-0.12-0.186-0.228-0.351-0.319-0.493c-0.094-0.142-0.192-0.279-0.296-0.41
			c-0.104-0.131-0.22-0.258-0.345-0.378c-0.126-0.12-0.271-0.257-0.436-0.41c-0.033,0.525-0.102,0.996-0.205,1.412
			c-0.104,0.416-0.255,0.797-0.452,1.141c-0.196,0.345-0.451,0.674-0.764,0.986c-0.312,0.312-0.697,0.632-1.157,0.96
			c-0.088-0.164-0.197-0.298-0.328-0.402c-0.132-0.104-0.307-0.184-0.525-0.237c0.492-0.296,0.905-0.584,1.239-0.862
			c0.334-0.279,0.602-0.597,0.805-0.953c0.202-0.355,0.354-0.777,0.452-1.265c0.098-0.486,0.164-1.081,0.196-1.781
			c-0.273,0.012-0.531,0.027-0.771,0.05c-0.24,0.021-0.493,0.049-0.756,0.082v-1.002c0.263,0.033,0.516,0.058,0.756,0.074
			s0.504,0.035,0.788,0.058c0-0.187-0.006-0.381-0.017-0.584c-0.011-0.202-0.022-0.386-0.032-0.55
			c0.208,0.044,0.415,0.074,0.624,0.09c0.207,0.017,0.389,0.015,0.542-0.008c0.12-0.011,0.188,0.024,0.205,0.106
			c0.017,0.083-0.047,0.168-0.189,0.255c-0.109,0.055-0.183,0.132-0.222,0.23c-0.038,0.099-0.068,0.251-0.09,0.46h2.233
			c-0.077-0.405-0.138-0.808-0.181-1.207c-0.044-0.399-0.077-0.797-0.099-1.191c-0.022-0.306-0.039-0.689-0.05-1.149
			c-0.011-0.459-0.021-0.957-0.032-1.494c-0.011-0.536-0.022-1.089-0.033-1.658s-0.016-1.117-0.016-1.643
			c0.372,0.088,0.688,0.126,0.952,0.115c0.186-0.011,0.295,0.027,0.328,0.115s-0.027,0.175-0.181,0.263
			c-0.055,0.032-0.102,0.181-0.14,0.443c-0.039,0.263-0.063,0.621-0.074,1.075s-0.008,0.991,0.009,1.609
			c0.017,0.619,0.046,1.306,0.09,2.061c0.065,1.008,0.165,1.895,0.296,2.661h1.839c0.526,0,0.979-0.011,1.363-0.033
			c0.383-0.021,0.733-0.055,1.051-0.099v0.985c-0.317-0.033-0.668-0.062-1.051-0.09c-0.384-0.028-0.837-0.042-1.363-0.042h-1.708
			c0.187,0.821,0.389,1.468,0.608,1.938c0.108-0.108,0.207-0.224,0.295-0.345c0.088-0.12,0.175-0.251,0.263-0.394
			s0.182-0.304,0.279-0.485c0.099-0.18,0.213-0.396,0.346-0.647c0.284,0.24,0.574,0.438,0.87,0.591
			c0.12,0.065,0.177,0.131,0.172,0.197c-0.006,0.065-0.068,0.109-0.188,0.131c-0.055,0-0.115,0.02-0.182,0.058
			c-0.065,0.038-0.152,0.115-0.262,0.23c-0.109,0.114-0.258,0.281-0.443,0.5c-0.187,0.22-0.428,0.521-0.723,0.903
			c0.711,1.019,1.259,1.544,1.643,1.576c0.383,0.033,0.667-0.427,0.854-1.379c0.131,0.252,0.276,0.441,0.435,0.566
			c0.159,0.126,0.315,0.217,0.468,0.271c-0.142,0.328-0.271,0.596-0.386,0.805c-0.114,0.207-0.224,0.375-0.328,0.5
			c-0.104,0.126-0.2,0.217-0.287,0.271c-0.088,0.055-0.181,0.093-0.279,0.115c-0.153,0.032-0.334,0.019-0.542-0.041
			c-0.208-0.061-0.433-0.176-0.673-0.346c-0.241-0.169-0.493-0.394-0.756-0.673s-0.52-0.621-0.771-1.026
			c-0.351,0.34-0.774,0.687-1.272,1.043c-0.499,0.355-1.142,0.773-1.93,1.256c-0.077-0.187-0.167-0.342-0.271-0.468
			c-0.104-0.126-0.277-0.255-0.518-0.386c0.427-0.164,0.802-0.323,1.124-0.477c0.323-0.153,0.619-0.314,0.887-0.484
			c0.269-0.17,0.526-0.354,0.772-0.55c0.246-0.197,0.507-0.422,0.779-0.674c-0.175-0.35-0.331-0.744-0.468-1.182
			c-0.137-0.438-0.266-0.903-0.386-1.396h-2.414c0,0.176-0.003,0.34-0.008,0.493c-0.006,0.153-0.014,0.307-0.024,0.46
			L250.222,97.003z M252.98,90.977c0.372-0.603,0.671-1.169,0.895-1.7c0.225-0.531,0.414-1.098,0.567-1.699
			c0.186,0.109,0.355,0.197,0.509,0.263s0.334,0.12,0.542,0.164c0.132,0.022,0.194,0.071,0.188,0.147
			c-0.006,0.077-0.068,0.143-0.188,0.197c-0.22,0.088-0.389,0.235-0.51,0.443c-0.131,0.22-0.245,0.413-0.345,0.583
			c-0.099,0.17-0.194,0.334-0.287,0.492c-0.093,0.159-0.188,0.323-0.287,0.493s-0.214,0.369-0.345,0.6
			c0.415-0.011,0.848-0.044,1.297-0.099c0.143-0.252,0.276-0.493,0.402-0.723c0.126-0.23,0.232-0.448,0.32-0.657
			c0.285,0.209,0.586,0.367,0.903,0.477c0.109,0.044,0.156,0.104,0.14,0.181c-0.017,0.077-0.091,0.131-0.222,0.164
			c-0.099,0.022-0.188,0.071-0.271,0.148c-0.082,0.076-0.184,0.207-0.303,0.394c-0.077,0.109-0.188,0.266-0.329,0.468
			c-0.142,0.203-0.304,0.428-0.484,0.673c-0.181,0.247-0.369,0.504-0.567,0.772c-0.196,0.269-0.383,0.518-0.558,0.747
			c0.252-0.011,0.512-0.021,0.78-0.033c0.268-0.011,0.566-0.026,0.895-0.049c-0.088-0.164-0.169-0.32-0.246-0.468
			c-0.077-0.148-0.147-0.271-0.214-0.369l0.674-0.411c0.186,0.317,0.372,0.657,0.559,1.018c0.186,0.361,0.361,0.712,0.524,1.052
			l-0.738,0.378c-0.044-0.099-0.091-0.203-0.14-0.312s-0.102-0.225-0.155-0.345l-1.905,0.181c-0.197,0.022-0.381,0.044-0.55,0.065
			c-0.171,0.022-0.337,0.061-0.502,0.115c-0.065-0.307-0.175-0.591-0.328-0.854c0.099,0.012,0.194,0.017,0.287,0.017
			c0.094,0,0.184,0.006,0.271,0.017c0.219-0.263,0.448-0.574,0.689-0.936c0.24-0.361,0.477-0.733,0.706-1.117l-0.837,0.132
			c-0.121,0.021-0.282,0.055-0.485,0.099c-0.202,0.044-0.392,0.104-0.565,0.18c-0.044-0.219-0.088-0.391-0.132-0.517
			s-0.094-0.255-0.147-0.386c0.087,0,0.17,0.003,0.246,0.008C252.811,90.974,252.893,90.977,252.98,90.977z M254.672,94.293
			c0.132,0.109,0.24,0.206,0.328,0.288s0.17,0.158,0.247,0.229c0.076,0.071,0.147,0.146,0.213,0.222
			c0.066,0.076,0.143,0.164,0.23,0.263l-0.575,0.427c-0.088-0.109-0.164-0.202-0.229-0.279c-0.065-0.076-0.134-0.15-0.206-0.222
			c-0.07-0.071-0.147-0.142-0.229-0.213s-0.184-0.156-0.304-0.255L254.672,94.293z"/>
		<path fill="#FFFFFF" d="M264.442,90.713c-0.525,0.274-1.095,0.548-1.708,0.821c-0.613,0.274-1.286,0.564-2.02,0.87
			c-0.099-0.251-0.194-0.44-0.287-0.566c-0.094-0.125-0.244-0.266-0.451-0.418c0.919-0.208,1.775-0.457,2.569-0.748
			c0.794-0.29,1.514-0.621,2.159-0.993s1.21-0.782,1.691-1.231s0.865-0.941,1.149-1.478c0.143,0.142,0.269,0.252,0.378,0.328
			c0.109,0.077,0.257,0.164,0.443,0.263c0.143,0.065,0.205,0.15,0.188,0.255c-0.016,0.104-0.117,0.178-0.304,0.222
			c0.569,0.416,1.125,0.782,1.667,1.1s1.101,0.603,1.675,0.854c0.575,0.252,1.18,0.471,1.814,0.656
			c0.635,0.187,1.324,0.351,2.069,0.492c-0.153,0.165-0.269,0.305-0.345,0.419c-0.077,0.115-0.153,0.294-0.23,0.534
			c-0.624-0.175-1.223-0.366-1.798-0.575c-0.574-0.207-1.163-0.454-1.765-0.738v0.574c-0.449-0.043-0.937-0.07-1.462-0.082
			c-0.525-0.011-1.193-0.017-2.004-0.017c-0.81,0-1.475,0.006-1.995,0.017c-0.52,0.012-0.999,0.039-1.437,0.082V90.713z
			 M273.654,96.067c-0.404-0.011-0.812-0.021-1.223-0.032c-0.411-0.012-0.846-0.02-1.306-0.025c-0.46-0.005-0.952-0.008-1.478-0.008
			c-0.526,0-1.106,0-1.741,0c-0.613,0-1.175,0.003-1.684,0.008c-0.509,0.006-0.99,0.011-1.444,0.017
			c-0.455,0.006-0.887,0.014-1.298,0.024c-0.41,0.012-0.818,0.022-1.224,0.033c0.022-0.295,0.039-0.61,0.05-0.944
			s0.017-0.659,0.017-0.977v-1.971c0.811,0.022,1.667,0.041,2.57,0.058c0.902,0.016,1.907,0.024,3.013,0.024
			s2.138-0.009,3.096-0.024c0.957-0.017,1.842-0.035,2.651-0.058c-0.021,0.296-0.038,0.612-0.049,0.952
			c-0.012,0.34-0.017,0.668-0.017,0.985c0,0.372,0.005,0.7,0.017,0.985C273.616,95.4,273.633,95.717,273.654,96.067z
			 M264.065,101.289v0.904h-1.035c0.044-0.318,0.073-0.622,0.09-0.912s0.025-0.533,0.025-0.73v-2.562
			c0-0.163-0.009-0.361-0.025-0.591s-0.052-0.454-0.106-0.673c0.197,0.021,0.438,0.041,0.723,0.057
			c0.285,0.017,0.624,0.033,1.018,0.05c0.395,0.017,0.852,0.027,1.372,0.033c0.52,0.005,1.114,0.008,1.781,0.008
			c0.679,0,1.278-0.003,1.799-0.008c0.52-0.006,0.974-0.017,1.362-0.033s0.726-0.033,1.01-0.05c0.284-0.016,0.525-0.035,0.723-0.057
			c-0.044,0.208-0.071,0.405-0.082,0.591c-0.012,0.187-0.017,0.411-0.017,0.673v2.431c0,0.252,0.008,0.512,0.024,0.78
			s0.047,0.556,0.091,0.861h-1.051v-0.771H264.065z M267.529,92.997h-4.352v2.332h4.352V92.997z M271.767,98.727v-1.133h-7.701
			v1.133H271.767z M264.065,99.417v1.166h7.701v-1.166H264.065z M266.02,95.082c-0.405-0.361-0.742-0.626-1.011-0.796
			s-0.512-0.31-0.73-0.419l0.493-0.607c0.306,0.197,0.617,0.399,0.936,0.607c0.317,0.208,0.591,0.395,0.821,0.559L266.02,95.082z
			 M267.628,88.513c-0.766,0.712-1.735,1.391-2.906,2.036h6.142c-0.493-0.263-1.002-0.556-1.527-0.878
			C268.811,89.348,268.241,88.962,267.628,88.513z M272.686,92.997h-4.302v2.332h4.302V92.997z M269.172,94.688
			c0.372-0.252,0.692-0.493,0.961-0.723c0.268-0.229,0.5-0.477,0.697-0.739c0.153,0.164,0.269,0.279,0.345,0.345
			c0.077,0.066,0.191,0.153,0.345,0.263c0.197,0.143,0.165,0.225-0.098,0.247c-0.121,0.011-0.308,0.093-0.559,0.246
			c-0.252,0.153-0.613,0.41-1.084,0.771L269.172,94.688z"/>
		<path fill="#FFFFFF" d="M288.647,89.137c0-0.481-0.011-0.854-0.033-1.116s-0.055-0.498-0.099-0.706
			c0.263,0.055,0.487,0.093,0.674,0.114c0.186,0.022,0.394,0.033,0.623,0.033c0.121,0,0.194,0.027,0.223,0.082
			c0.026,0.055-0.003,0.121-0.091,0.197c-0.132,0.099-0.22,0.199-0.263,0.304c-0.044,0.104-0.065,0.228-0.065,0.37v0.722
			c0.908-0.011,1.79-0.06,2.644-0.147v1.067c-0.416-0.044-0.846-0.074-1.289-0.091s-0.896-0.024-1.354-0.024v4.828
			c0.591-0.011,1.207-0.03,1.847-0.058c0.641-0.027,1.207-0.058,1.7-0.09v1.051c-0.208-0.022-0.433-0.041-0.674-0.058
			c-0.24-0.017-0.52-0.03-0.837-0.041c-0.318-0.011-0.68-0.022-1.084-0.033c-0.405-0.011-0.87-0.021-1.396-0.033
			c0.514,0.636,1.119,1.186,1.813,1.65c0.695,0.466,1.536,0.829,2.521,1.093c-0.187,0.207-0.326,0.389-0.419,0.541
			c-0.093,0.154-0.184,0.34-0.271,0.559c-1.117-0.591-2.042-1.195-2.775-1.814c-0.733-0.618-1.352-1.3-1.855-2.044h-4.549
			c-0.515,0.712-1.193,1.426-2.036,2.143c-0.844,0.717-1.801,1.327-2.874,1.831c-0.065-0.219-0.142-0.392-0.229-0.518
			s-0.229-0.265-0.427-0.418c0.536-0.197,1.023-0.402,1.461-0.616s0.835-0.443,1.19-0.69c0.355-0.245,0.679-0.511,0.969-0.796
			c0.29-0.284,0.562-0.591,0.813-0.92c-0.493,0.012-0.926,0.022-1.298,0.033s-0.703,0.022-0.993,0.033s-0.551,0.024-0.779,0.041
			c-0.23,0.017-0.449,0.035-0.657,0.058v-1.051c0.503,0.043,1.026,0.076,1.568,0.098c0.541,0.022,1.092,0.039,1.649,0.05v-4.845
			c-0.448,0-0.886,0.011-1.313,0.033c-0.427,0.021-0.848,0.055-1.264,0.099V88.99c0.416,0.044,0.837,0.076,1.264,0.099
			c0.428,0.021,0.865,0.032,1.313,0.032c0-0.448-0.016-0.807-0.049-1.075c-0.032-0.268-0.076-0.528-0.131-0.779
			c0.251,0.055,0.457,0.09,0.615,0.106c0.159,0.016,0.354,0.024,0.583,0.024c0.12,0,0.194,0.024,0.222,0.073
			c0.027,0.05-0.003,0.112-0.09,0.189c-0.077,0.077-0.126,0.164-0.148,0.263c-0.021,0.099-0.033,0.235-0.033,0.41v0.805H288.647z
			 M286.349,100.599c0.591,0,1.122-0.002,1.593-0.008c0.47-0.006,0.899-0.014,1.289-0.024c0.388-0.011,0.749-0.024,1.084-0.041
			c0.333-0.017,0.664-0.036,0.993-0.058v1.018c-0.351-0.021-0.701-0.041-1.052-0.057c-0.35-0.017-0.732-0.03-1.148-0.041
			c-0.416-0.012-0.879-0.02-1.389-0.025c-0.509-0.005-1.092-0.008-1.748-0.008c-0.657,0-1.248,0.003-1.773,0.008
			c-0.526,0.006-1.008,0.014-1.445,0.025c-0.438,0.011-0.84,0.024-1.207,0.041c-0.367,0.016-0.72,0.035-1.06,0.057v-1.018
			c0.317,0.021,0.646,0.041,0.986,0.058c0.339,0.017,0.703,0.03,1.092,0.041c0.388,0.011,0.812,0.019,1.272,0.024
			s0.974,0.008,1.543,0.008v-1.904c-0.689,0-1.341,0.011-1.953,0.032c-0.614,0.022-1.101,0.055-1.462,0.099v-0.969
			c0.372,0.044,0.861,0.074,1.47,0.09c0.607,0.017,1.256,0.025,1.945,0.025v-0.477c0-0.339-0.011-0.643-0.032-0.911
			c-0.022-0.269-0.056-0.512-0.099-0.73c0.12,0.021,0.225,0.038,0.312,0.049c0.088,0.011,0.178,0.02,0.271,0.024
			c0.093,0.006,0.191,0.012,0.295,0.017c0.104,0.006,0.228,0.008,0.37,0.008c0.284,0,0.306,0.088,0.065,0.264
			c-0.065,0.055-0.118,0.145-0.156,0.271s-0.057,0.238-0.057,0.336v1.15c0.656,0,1.267-0.011,1.83-0.033
			c0.564-0.021,1.021-0.049,1.372-0.082v0.969c-0.351-0.033-0.808-0.062-1.372-0.09c-0.563-0.027-1.174-0.041-1.83-0.041V100.599z
			 M282.965,89.925v1.149h5.683v-1.149H282.965z M282.965,91.765v1.198h5.683v-1.198H282.965z M288.647,93.587h-5.683v1.183h5.683
			V93.587z"/>
		<path fill="#FFFFFF" d="M303.541,93.276c-0.635,0-1.242,0.008-1.822,0.024c-0.581,0.017-1.046,0.036-1.396,0.058v-0.805
			c-0.416,0.284-0.881,0.585-1.396,0.903c-0.515,0.317-1.101,0.651-1.757,1.001c-0.066-0.196-0.173-0.383-0.32-0.558
			c-0.148-0.176-0.343-0.318-0.583-0.428c0.624-0.229,1.212-0.473,1.766-0.73c0.552-0.257,1.072-0.542,1.56-0.854
			c0.487-0.312,0.949-0.657,1.388-1.034c0.438-0.378,0.858-0.803,1.264-1.273c0.428-0.503,0.772-0.963,1.035-1.379
			s0.449-0.87,0.559-1.363c0.219,0.208,0.41,0.358,0.574,0.452c0.164,0.093,0.334,0.155,0.51,0.188
			c0.108,0.021,0.161,0.071,0.155,0.147c-0.006,0.077-0.068,0.132-0.188,0.164c-0.055,0.022-0.118,0.061-0.189,0.115
			s-0.134,0.115-0.188,0.181c0.591,0.679,1.145,1.271,1.659,1.773c0.514,0.504,1.039,0.952,1.576,1.347
			c0.536,0.394,1.1,0.75,1.691,1.067c0.591,0.317,1.253,0.618,1.986,0.903c-0.175,0.12-0.314,0.244-0.418,0.369
			c-0.104,0.126-0.212,0.304-0.32,0.534c-0.569-0.285-1.079-0.559-1.527-0.821c-0.449-0.263-0.865-0.525-1.248-0.788v0.887
			c-0.351-0.021-0.827-0.041-1.429-0.058c-0.603-0.017-1.242-0.024-1.921-0.024v2.184c0.558,0,1.067-0.002,1.527-0.008
			c0.459-0.006,0.886-0.014,1.28-0.024s0.764-0.025,1.108-0.041c0.345-0.017,0.676-0.036,0.993-0.058v1.066
			c-0.317-0.021-0.648-0.041-0.993-0.057c-0.345-0.017-0.714-0.03-1.108-0.041s-0.821-0.02-1.28-0.025
			c-0.46-0.005-0.97-0.008-1.527-0.008v4.385h2.938c0.745,0,1.366-0.011,1.864-0.033c0.498-0.021,0.949-0.06,1.354-0.115v1.084
			c-0.427-0.022-0.865-0.041-1.313-0.058c-0.449-0.016-0.936-0.027-1.462-0.032c-0.525-0.006-1.103-0.012-1.732-0.017
			c-0.629-0.006-1.338-0.008-2.126-0.008s-1.497,0.002-2.127,0.008c-0.629,0.005-1.206,0.014-1.732,0.024
			c-0.525,0.011-1.012,0.024-1.461,0.041s-0.887,0.041-1.314,0.074V100.5c0.405,0.056,0.865,0.094,1.38,0.115
			c0.515,0.022,1.133,0.033,1.855,0.033h2.857v-4.385c-0.58,0-1.111,0.003-1.593,0.008c-0.482,0.006-0.928,0.015-1.339,0.025
			c-0.41,0.011-0.794,0.024-1.149,0.041c-0.355,0.016-0.697,0.035-1.025,0.057v-1.066c0.328,0.021,0.67,0.041,1.025,0.058
			c0.355,0.016,0.739,0.03,1.149,0.041c0.411,0.011,0.856,0.019,1.339,0.024c0.481,0.006,1.013,0.008,1.593,0.008V93.276z
			 M301.472,100.156c-0.273-0.427-0.594-0.867-0.96-1.322c-0.367-0.454-0.759-0.878-1.175-1.272l0.674-0.574
			c0.196,0.187,0.402,0.389,0.615,0.607c0.214,0.22,0.421,0.44,0.625,0.665c0.201,0.225,0.396,0.446,0.582,0.665
			c0.187,0.219,0.351,0.422,0.493,0.607L301.472,100.156z M300.553,92.388c0.208,0.012,0.448,0.022,0.723,0.033
			c0.273,0.012,0.562,0.02,0.87,0.025c0.307,0.005,0.626,0.008,0.96,0.008s0.665,0,0.994,0c0.339,0,0.687,0,1.042,0
			c0.356,0,0.695-0.003,1.019-0.008c0.323-0.006,0.624-0.014,0.903-0.025c0.279-0.011,0.522-0.021,0.73-0.033
			c-0.34-0.24-0.659-0.489-0.96-0.746c-0.302-0.258-0.6-0.534-0.896-0.83c-0.296-0.295-0.597-0.612-0.903-0.952
			c-0.307-0.339-0.635-0.717-0.984-1.133c-0.242,0.361-0.485,0.703-0.731,1.026s-0.506,0.632-0.78,0.928
			c-0.273,0.296-0.572,0.583-0.895,0.861C301.321,91.823,300.957,92.105,300.553,92.388z M308.828,97.479
			c0.132,0.056,0.189,0.123,0.173,0.206c-0.017,0.082-0.101,0.146-0.255,0.188c-0.055,0.011-0.12,0.041-0.196,0.09
			c-0.077,0.05-0.189,0.151-0.337,0.305c-0.147,0.152-0.351,0.377-0.607,0.673c-0.258,0.295-0.589,0.689-0.994,1.183l-0.837-0.526
			c0.208-0.174,0.421-0.383,0.641-0.623c0.219-0.241,0.427-0.49,0.624-0.747c0.197-0.258,0.366-0.513,0.509-0.764
			c0.143-0.252,0.246-0.471,0.312-0.657c0.176,0.176,0.34,0.312,0.493,0.41S308.664,97.403,308.828,97.479z"/>
	</g>
	<g>
		<path fill="#FFFFFF" d="M253.075,58.294v-6.443h-11.676v-3.029l12.281-17.44h2.698v17.44h3.635v3.029h-3.635v6.443H253.075z
			 M253.075,48.822V36.688l-8.427,12.134H253.075z"/>
		<path fill="#FFFFFF" d="M267.151,45.021c0-3.182,0.327-5.743,0.982-7.682c0.654-1.94,1.627-3.436,2.919-4.489
			c1.291-1.052,2.915-1.579,4.873-1.579c1.444,0,2.711,0.292,3.801,0.872c1.089,0.582,1.988,1.42,2.698,2.515
			c0.71,1.096,1.267,2.429,1.671,4.002c0.403,1.573,0.605,3.693,0.605,6.361c0,3.158-0.324,5.707-0.973,7.646
			c-0.649,1.94-1.619,3.439-2.91,4.498s-2.922,1.588-4.893,1.588c-2.594,0-4.632-0.93-6.112-2.79
			C268.039,53.723,267.151,50.076,267.151,45.021z M270.547,45.021c0,4.418,0.518,7.358,1.552,8.821s2.31,2.193,3.827,2.193
			s2.794-0.734,3.828-2.203c1.034-1.468,1.551-4.406,1.551-8.812c0-4.43-0.517-7.373-1.551-8.83
			c-1.034-1.456-2.322-2.185-3.864-2.185c-1.518,0-2.729,0.643-3.635,1.928C271.116,37.575,270.547,40.604,270.547,45.021z"/>
		<path fill="#FFFFFF" d="M292.443,37.844c0-1.921,0.483-3.555,1.45-4.901c0.967-1.347,2.368-2.02,4.204-2.02
			c1.689,0,3.087,0.604,4.195,1.809c1.106,1.206,1.661,2.977,1.661,5.314c0,2.277-0.56,4.03-1.68,5.26
			c-1.12,1.229-2.5,1.845-4.14,1.845c-1.628,0-2.983-0.605-4.066-1.817C292.985,42.121,292.443,40.292,292.443,37.844z
			 M298.189,33.199c-0.82,0-1.502,0.355-2.047,1.065s-0.816,2.014-0.816,3.91c0,1.726,0.275,2.94,0.826,3.644
			s1.229,1.055,2.037,1.055c0.832,0,1.521-0.354,2.065-1.064c0.544-0.71,0.817-2.007,0.817-3.892c0-1.738-0.276-2.958-0.826-3.662
			C299.695,33.552,299.01,33.199,298.189,33.199z M298.208,59.285l14.723-28.362h2.68l-14.667,28.362H298.208z M309.847,51.979
			c0-1.934,0.483-3.57,1.45-4.91c0.967-1.341,2.374-2.011,4.223-2.011c1.688,0,3.087,0.604,4.194,1.809s1.661,2.977,1.661,5.314
			c0,2.277-0.56,4.03-1.68,5.26c-1.12,1.229-2.506,1.845-4.158,1.845c-1.628,0-2.983-0.609-4.065-1.827
			C310.389,56.241,309.847,54.415,309.847,51.979z M315.61,47.334c-0.832,0-1.521,0.355-2.064,1.065
			c-0.545,0.71-0.817,2.014-0.817,3.91c0,1.714,0.275,2.925,0.826,3.635s1.23,1.064,2.037,1.064c0.845,0,1.54-0.354,2.084-1.064
			c0.545-0.71,0.817-2.007,0.817-3.892c0-1.737-0.275-2.958-0.826-3.662C317.116,47.687,316.431,47.334,315.61,47.334z"/>
	</g>
	<g>
		<path fill="#FFFFFF" d="M157.754,102.909c-0.35,0-0.681-0.211-0.816-0.557c-0.176-0.452,0.046-0.96,0.497-1.136l77.125-30.166
			h73.378c0.484,0,0.877,0.393,0.877,0.876s-0.393,0.877-0.877,0.877h-73.048l-76.817,30.044
			C157.968,102.889,157.86,102.909,157.754,102.909z"/>
	</g>
</g>
</svg>
