<?xml version="1.0" encoding="utf-8"?>
<!-- Generator: Adobe Illustrator 16.0.4, SVG Export Plug-In . SVG Version: 6.00 Build 0)  -->
<!DOCTYPE svg PUBLIC "-//W3C//DTD SVG 1.1//EN" "http://www.w3.org/Graphics/SVG/1.1/DTD/svg11.dtd">
<svg version="1.1" id="Layer_1" xmlns="http://www.w3.org/2000/svg" xmlns:xlink="http://www.w3.org/1999/xlink" x="0px" y="0px"
	 width="40.064px" height="32.182px" viewBox="0 0 40.064 32.182" enable-background="new 0 0 40.064 32.182" xml:space="preserve">
<g>
	<path fill="#6D6E70" d="M11.239,23.081c-0.285,0.423-0.552,0.458-0.707,0.521h1.09l0.239-0.017
		C11.617,23.478,11.417,23.335,11.239,23.081 M9.972,24.796h1.646v-0.153H9.972V24.796z M9.972,24.403h1.646v-0.162H9.972V24.403z
		 M9.972,24.002h1.646v-0.154H9.972V24.002z M10.158,22.603l-0.139,0.294c-0.248-0.209-0.673-0.349-0.673-0.349l0.123-0.262
		C9.691,22.371,10.158,22.603,10.158,22.603 M12.286,25.382l-0.178,0.271c0,0-0.58-0.309-1.098-0.409l0.155-0.208H10.37l0.27,0.208
		c0,0-0.864,0.347-1.228,0.424c-0.03-0.124-0.085-0.192-0.177-0.276c0.273-0.032,0.787-0.178,1.078-0.355H9.938L9.659,25.05
		l0.008-0.3v-0.863l-0.015-0.302l0.309,0.017h0.22c0,0-0.03-0.089-0.161-0.173c0.587-0.062,0.911-0.256,1.058-0.672h-0.27
		l-0.271,0.301c0,0-0.062-0.107-0.286-0.139c0.286-0.224,0.455-0.602,0.54-0.771l0.324,0.169c0,0-0.084,0.107-0.146,0.185h0.934
		l0.395-0.015l-0.232,0.632c0,0-0.131-0.085-0.309-0.092l0.123-0.271h-0.502c0,0-0.008,0.055-0.029,0.101
		c0.238,0.347,0.902,0.555,1.142,0.555c0,0-0.146,0.177-0.162,0.348c-0.143-0.047-0.274-0.09-0.39-0.14l-0.016,0.289v0.864
		l0.016,0.276l-0.286-0.015h-0.398C11.494,25.102,12.03,25.243,12.286,25.382 M10.235,23.228c-0.398,0.192-0.943,0.455-0.943,0.455
		l-0.154-0.302c0.434-0.111,1.028-0.416,1.028-0.416L10.235,23.228z"/>
	<path fill="#6D6E70" d="M16.929,22.808c0.058,0.057,0.118,0.111,0.192,0.15c0.07-0.027,0.154-0.108,0.204-0.15H16.929z
		 M17.105,23.2c-0.119,0.051-0.302,0.101-0.451,0.143h0.853C17.354,23.309,17.222,23.262,17.105,23.2 M18.171,25.548h-1.779
		c-0.124,0-0.388,0.016-0.388,0.016v-0.312c0,0,0.218,0.016,0.396,0.016h0.718v-0.359h-0.328c-0.174,0-0.358,0.017-0.358,0.017
		v-0.306c0,0,0.259,0.017,0.351,0.017h0.336v-0.301l-0.618,0.008c-0.039,0.127-0.185,0.373-0.24,0.455
		c-0.131-0.116-0.297-0.154-0.297-0.154s0.324-0.352,0.402-0.953l0.386,0.116c0,0-0.061,0.096-0.135,0.258h0.502v-0.115l-0.008-0.27
		h0.344l-0.016,0.262v0.123h0.606c0.173,0,0.267-0.019,0.267-0.019v0.3l-0.263-0.011h-0.61v0.301l0.425-0.004
		c0.178-0.004,0.336-0.017,0.336-0.017v0.305c0,0-0.235-0.003-0.328-0.008l-0.433-0.004v0.359h0.727l0.401-0.019v0.319
		C18.565,25.567,18.345,25.548,18.171,25.548 M18.237,23.608h-2.275c0,0,0.008,0.586,0,0.771c-0.031,0.752-0.428,1.233-0.428,1.233
		s-0.117-0.131-0.286-0.247c0,0,0.394-0.281,0.394-1.062v-0.706l-0.016-0.271l0.333,0.012c-0.036-0.065-0.047-0.101-0.104-0.146
		c0,0,0.576-0.043,0.923-0.127c-0.038-0.035-0.181-0.131-0.271-0.258H16.06l-0.313,0.015v-0.308l0.324,0.015h0.849
		c-0.018-0.069-0.045-0.143-0.084-0.192c0,0,0.243-0.093,0.352-0.131c0,0,0.104,0.143,0.144,0.323h0.799l0.271-0.015v0.308
		l-0.271-0.015h-0.362c-0.077,0.092-0.225,0.189-0.317,0.251c0.231,0.084,0.394,0.119,0.92,0.142
		c-0.065,0.047-0.09,0.077-0.132,0.143l0.324-0.016v0.297L18.237,23.608z"/>
	<path fill="#6D6E70" d="M23.656,22.159c0,0,0.324,0.123,0.386,0.147c-0.093,0.069-0.192,0.177-0.192,0.177h0.633l0.305-0.015v0.285
		l-0.297-0.017h-0.317c0,0,0.085,0.255,0.116,0.362c0,0-0.216,0-0.347,0.054c-0.008-0.17-0.055-0.416-0.055-0.416h-0.2
		c0,0-0.109,0.154-0.201,0.255c-0.085-0.085-0.255-0.185-0.255-0.185C23.369,22.677,23.518,22.553,23.656,22.159 M22.459,25.159
		h1.483v-0.224h-1.483V25.159z M22.459,24.179h1.359v-0.2h-1.359V24.179z M24.143,23.693l-0.016,0.301v0.146l0.016,0.324
		l-0.332-0.016h-1.352v0.231h1.452l0.355-0.016L24.25,24.95v0.331l0.017,0.355h-0.324v-0.208h-1.483v0.23H22.13l0.02-0.455v-1.172
		l-0.016-0.335l0.348,0.013h1.26L24.143,23.693z M22.188,22.151c0,0,0.309,0.147,0.37,0.17c-0.093,0.069-0.185,0.186-0.185,0.186
		h0.424l0.353-0.017v0.271l-0.328-0.016h-0.124c0,0,0.062,0.186,0.093,0.348c0,0-0.201,0-0.348,0.068
		c0-0.138-0.039-0.416-0.039-0.416h-0.193c0,0-0.177,0.217-0.34,0.386c-0.085-0.139-0.231-0.207-0.231-0.207
		C21.771,22.822,22.019,22.568,22.188,22.151 M24.463,23.273l0.31-0.016l-0.017,0.216v0.116l0.021,0.323h-0.329v-0.378h-2.514v0.2
		l-0.005,0.17h-0.323l0.019-0.254v-0.123l-0.016-0.274l0.325,0.02h1.14c0,0-0.043-0.158-0.128-0.247l0.367-0.069
		c0.062,0.123,0.131,0.316,0.131,0.316H24.463z"/>
	<path fill="#6D6E70" d="M30.059,23.897h0.429v-0.493h-0.429V23.897z M30.059,23.119h0.429v-0.474h-0.429V23.119z M29.349,23.897
		h0.405v-0.493h-0.405V23.897z M29.349,23.119h0.405v-0.474h-0.405V23.119z M29.754,24.19h-0.413l-0.32,0.016l0.019-0.297v-1.202
		l-0.019-0.362l0.316,0.016h1.135l0.344-0.016l-0.019,0.335v1.269l0.019,0.262l-0.328-0.02h-0.429v0.378h0.448l0.293-0.015v0.319
		l-0.285-0.011h-0.456v0.4h0.634l0.309-0.016v0.344l-0.354-0.017h-1.607l-0.294,0.017v-0.344l0.294,0.016h0.715v-0.4h-0.397
		l-0.286,0.011v-0.319l0.278,0.015h0.405V24.19z M28.685,22.502l0.185-0.015v0.335l-0.17-0.015h-0.232v0.805h0.147l0.209-0.015
		v0.346l-0.201-0.015h-0.155v0.894l0.402-0.188c0,0,0,0.219,0.008,0.378c0,0-0.456,0.153-1.089,0.462l-0.101-0.416
		c0,0,0.196-0.024,0.476-0.144v-0.986h-0.198l-0.191,0.015V23.59l0.208,0.022h0.182v-0.805h-0.159l-0.247,0.015v-0.335l0.239,0.015
		H28.685z"/>
	<path fill="#4F3116" d="M12.69,9.944c0,0.126-0.017,0.268-0.047,0.44c-0.031,0.156-0.361,0.455-1.006,0.879H11.4
		c0.063-0.094,0.11-0.203,0.158-0.314c0.345-0.691,0.518-1.068,0.518-1.114c0-0.017-0.015-0.062-0.031-0.142
		c0.173-0.047,0.347-0.094,0.535-0.157C12.659,9.725,12.69,9.866,12.69,9.944 M15.617,10.761c-1.007,0.771-1.527,1.226-1.557,1.351
		c-0.033,0.111-0.033,0.237,0.015,0.362c0.047,0.125,0.094,0.188,0.142,0.188c0.031-0.016,0.455-0.313,1.259-0.912
		c-0.11,0.395-0.205,0.724-0.299,1.005c-0.235,0.096-0.505,0.221-0.834,0.378c-0.378,0.188-0.725,0.346-1.023,0.503
		c0.032-0.723,0.441-1.603,1.243-2.653L15.617,10.761z M15.46,9.489c0.031,0.157-0.205,0.503-0.724,1.036l-0.048-0.094l-1.196,1.036
		c-0.078-0.251,0.063-0.485,0.426-0.755c0.347-0.251,0.52-0.438,0.52-0.517c-0.44-0.126-0.787-0.424-1.056-0.896
		c0.708-0.252,1.244-0.408,1.606-0.485C15.255,9.098,15.413,9.317,15.46,9.489 M18.56,12.019c-0.348-0.645-0.582-0.991-0.708-1.021
		c-0.125-0.032-0.63,0-1.526,0.11c0.141-0.488,0.377-0.802,0.708-0.943c0.315-0.126,0.456-0.251,0.408-0.377
		c-0.046-0.125-0.393-0.251-1.054-0.392c-0.095-0.236-0.188-0.378-0.267-0.409c-0.08-0.047-0.158-0.125-0.237-0.252
		c-0.03-0.015-0.047-0.031-0.062-0.046c0.127-0.017,0.22-0.017,0.3-0.017c0.156,0,0.472,0.031,0.928,0.048
		c0.44,0.015,0.708,0.015,0.786,0.015c0.079,0,0.205-0.046,0.362-0.141c-0.849-0.628-1.353-0.911-1.51-0.864l-0.725,0.205
		c-0.331,0.094-0.661,0.109-0.991,0.047c0.078-0.252-0.016-0.487-0.267-0.723c-0.253-0.252-0.779-0.42-1.69-0.639
		c0.267,0.565,0.463,0.874,0.715,1.032C13.588,7.981,13.146,8.28,12.423,8.5c-0.739,0.234-1.148,0.361-1.228,0.408
		c-0.078,0.031-0.142,0.046-0.189,0.046c-0.03,0.018-0.378,0.11-1.022,0.3L9.968,8.892C9.732,9.048,9.606,9.159,9.606,9.206
		c0,0.032,0.017,0.111,0.062,0.236c0.047,0.126,0.299,0.266,0.755,0.409c0.284,0.093,0.678,0.077,1.196-0.033
		c-0.771,1.257-1.384,2.53-1.841,3.801c-0.535,1.445-1.085,2.576-1.62,3.409c-0.551,0.863-0.928,1.208-1.18,1.052
		c-0.08,0.564-0.049,0.863,0.078,0.896c0.126,0.047,0.205,0.062,0.252,0.062s0.062-0.016,0.393-0.173
		c0.221-0.11,0.52-0.346,0.85-0.738c0.315-0.409,0.707-1.131,1.164-2.167c0.456-1.053,0.771-1.964,1.008-2.749
		c0.11-0.392,0.252-0.785,0.394-1.162c0.126,0.062,0.236,0.096,0.315,0.096c0.078,0,0.485-0.176,1.211-0.521
		c-0.157,0.362-0.409,0.725-0.771,1.069c-0.346,0.33-0.519,0.535-0.519,0.612c0,0.094,0,0.141,0.126,0.313
		c0.094,0.126,0.158,0.19,0.204,0.19c0.031-0.018,0.409-0.363,1.116-1.038l0.474,0.911c-0.41,0.203-0.756,0.377-1.023,0.518
		c0.157,0.079,0.347,0.111,0.55,0.111c0.205,0,0.41-0.032,0.614-0.079s0.472,0,0.803,0.157l-1.699,0.675
		c0,0.158,0.109,0.314,0.314,0.472c0.22,0.158,0.347,0.235,0.394,0.235c0.031,0,0.472-0.126,1.321-0.361
		c-0.268,0.298-0.409,0.424-1.621,0.911c-0.802,0.313-1.242,0.565-1.321,0.738c-0.078,0.155-0.11,0.281-0.11,0.36
		c0,0.096,0.047,0.173,0.126,0.251c0.095,0.079,0.158,0.11,0.205,0.11c0.031,0,0.377-0.156,1.023-0.471
		c0.644-0.3,1.289-0.581,1.935-0.849c0.095,0.566,0.095,1.163,0,1.774c-0.095,0.613-0.269,0.944-0.519,0.99
		c-0.252,0.062-0.913-0.016-1.982-0.221c0.015,0.063,0.455,0.361,1.336,0.865c0.866,0.501,1.323,0.752,1.37,0.752
		c0.046,0,0.22-0.376,0.472-1.115c0.252-0.753,0.314-1.35,0.268-1.805c-0.047-0.438-0.032-0.911,0.031-1.397
		c0.896-0.049,1.559-0.03,1.968,0.03c0.424,0.079,0.676,0.096,0.754,0.048c0.062-0.048,0.109-0.095,0.109-0.142
		c0-0.032-0.03-0.126-0.077-0.282c-0.048-0.173-0.236-0.314-0.566-0.424c-0.331-0.111-0.535-0.157-0.614-0.157
		c-0.095,0-0.63,0.094-1.604,0.298c0-0.236,0.016-0.393,0.047-0.472c0.047-0.093,0.141-0.173,0.299-0.266
		c0.173-0.096,0.252-0.221,0.252-0.377c-0.015-0.173-0.11-0.299-0.299-0.377c-0.189-0.063-0.346-0.174-0.473-0.33
		c0.724-0.282,1.086-0.44,1.086-0.487c0-0.031-0.109-0.189-0.329-0.471c-0.018-0.031-0.048-0.063-0.079-0.096
		c0.015-0.125,0.015-0.267,0.015-0.453c-0.015-0.33,0-0.534,0.031-0.613c0.033-0.079,0.378-0.032,1.04,0.094
		C17.992,11.969,18.402,12.019,18.56,12.019"/>
	<path fill="#4F3116" d="M29.604,11.178c-0.226,0.688-0.404,1.059-0.524,1.104c-0.119,0.028-0.642,0.237-1.584,0.626l0.12-0.925
		C28.019,12.058,28.676,11.79,29.604,11.178 M26.569,10.819l-1.286,1.746c0-0.149-0.104-0.419-0.3-0.806
		c-0.18-0.389-0.252-0.597-0.207-0.641c0.027-0.045,0.268-0.181,0.701-0.464c0.419-0.269,0.627-0.464,0.627-0.536
		c0-0.075-0.044-0.165-0.119-0.27c-0.074-0.089-0.194-0.164-0.344-0.224c-0.164-0.061-0.434-0.045-0.822,0.029
		c0.314-0.625,0.434-1.028,0.359-1.223c-0.091-0.193-0.3-0.344-0.643-0.463c-0.36-0.119-0.599-0.178-0.718-0.178
		c-0.104,0-0.181,0.059-0.226,0.178c-0.044,0.119-0.059,0.418-0.059,0.88c0.15-0.328,0.27-0.343,0.344-0.074
		c0.09,0.284,0.104,0.581,0.06,0.895c-0.029,0.299-0.612,0.807-1.748,1.552c-1.122,0.731-1.72,1.119-1.794,1.119
		c-0.09,0-0.225-0.044-0.419-0.119s-0.239,0-0.119,0.209c0.119,0.21,0.373,0.507,0.763,0.88c0.388,0.359,0.643,0.538,0.762,0.538
		c0.105,0,0.508-0.299,1.209-0.88c0.704-0.568,1.094-0.896,1.167-0.97c-0.148,1-0.447,1.685-0.882,2.058
		c-0.418,0.373-0.673,0.688-0.747,0.94c-0.075,0.238-0.12,0.447-0.12,0.597c0,0.165,0.045,0.373,0.12,0.642
		c0.074,0.284,0.15,0.418,0.225,0.418c0.09,0,0.434-0.433,1.061-1.282c0.076,0.85,0.091,1.342,0.046,1.461
		c-0.015,0.104-0.029,0.21-0.029,0.284c-0.017,0.074,0.088,0.417,0.298,1.044c0.225,0.628,0.419,0.865,0.553,0.717
		c0.119-0.164,0.195-0.27,0.195-0.314c0-0.029-0.046-0.238-0.15-0.627c-0.104-0.387-0.15-0.76-0.134-1.104
		c0.029-0.358,0.045-0.851,0.045-1.478c0-0.61,0.313-1.312,0.941-2.088C25.791,12.491,26.254,11.67,26.569,10.819 M33.206,17.788
		c0-0.21-0.105-0.553-0.313-1.045c-0.209-0.492-0.434-0.776-0.673-0.851l-2.272-0.761c0.972-0.657,1.465-1.015,1.465-1.075
		c-0.014-0.06-0.06-0.208-0.165-0.448c-0.089-0.223-0.239-0.417-0.433-0.566c-0.195-0.164-0.449-0.043-0.764,0.389
		c-0.298,0.447-0.581,0.746-0.837,0.896c-0.254,0.148-0.553,0.254-0.882,0.298c-0.329,0.029-0.539,0.179-0.612,0.448
		c-0.074,0.269-0.119,0.463-0.119,0.581c0,0.119,0.238,0.18,0.701,0.18c0.254,0,0.524,0.044,0.838,0.134
		c-0.134,0.165-0.269,0.344-0.418,0.553c-0.509,0.716-0.913,1.118-1.227,1.238c-0.312,0.119-0.508,0-0.538-0.344
		c-0.045-0.358,0.105-1.507,0.419-3.446c0.15,0.074,0.298,0.089,0.433,0.044c0.136-0.03,0.283-0.088,0.435-0.163
		c0.164-0.076,0.238-0.119,1.151-0.521c0.598-0.27,0.896-0.419,0.896-0.465c0-0.044-0.119-0.147-0.357-0.297
		c1.016-1.671,1.539-2.582,1.584-2.716c0.045-0.12-0.225-0.418-0.809-0.88c-0.597-0.478-1-0.701-1.238-0.687
		c-0.226,0.016-0.659,0.165-1.286,0.463c-0.613,0.299-1.121,0.865-1.511,1.715c0.928-0.298,1.45-0.447,1.57-0.447
		c0.119-0.015,0.359-0.194,0.703-0.537c0.357-0.343,0.597-0.521,0.717-0.521c0.105,0,0.209,0.12,0.284,0.357
		c0.074,0.225,0,0.687-0.239,1.389c-0.464-0.314-0.718-0.464-0.762-0.464c-0.031,0-0.285,0.134-0.748,0.358
		c-0.479,0.238-0.777,0.314-0.897,0.238c-0.104-0.088-0.21-0.133-0.283-0.133c-0.075,0-0.15,0.014-0.226,0.059
		s-0.134,0.164-0.179,0.359c-0.044,0.192-0.06,0.446-0.06,0.76c0,0.298-0.06,1.014-0.18,2.147c-0.104,1.12-0.09,2.105,0.016,2.955
		c0.119,0.865,0.299,1.433,0.522,1.701c0.239,0.284,0.435,0.447,0.629,0.478c0.209,0.045,0.343,0.028,0.418-0.016
		c0.074-0.029,0.328-0.373,0.763-1.028c0.329-0.523,0.598-1.18,0.807-1.984c0.18,0.059,0.357,0.134,0.538,0.224
		c0.688,0.357,1.271,0.687,1.734,0.971c0.479,0.297,0.822,0.507,1.062,0.626C33.101,18.042,33.22,18.101,33.206,17.788"/>
	<path fill="#6D6E70" d="M11.937,20.164H7.522c-0.114,0-0.206-0.097-0.206-0.216s0.092-0.216,0.206-0.216h4.414
		c0.113,0,0.206,0.097,0.206,0.216S12.05,20.164,11.937,20.164"/>
	<path fill="#6D6E70" d="M32.739,20.164H16.513c-0.119,0-0.216-0.097-0.216-0.216s0.097-0.216,0.216-0.216h16.227
		c0.119,0,0.216,0.097,0.216,0.216S32.858,20.164,32.739,20.164"/>
	<rect fill="none" width="40.064" height="32.182"/>
</g>
</svg>
