<?xml version="1.0" encoding="utf-8"?>
<!-- Generator: Adobe Illustrator 16.0.4, SVG Export Plug-In . SVG Version: 6.00 Build 0)  -->
<!DOCTYPE svg PUBLIC "-//W3C//DTD SVG 1.1//EN" "http://www.w3.org/Graphics/SVG/1.1/DTD/svg11.dtd">
<svg version="1.1" id="Layer_1" xmlns="http://www.w3.org/2000/svg" xmlns:xlink="http://www.w3.org/1999/xlink" x="0px" y="0px"
	 width="34.66px" height="23.875px" viewBox="0 4.341 34.66 23.875" enable-background="new 0 4.341 34.66 23.875"
	 xml:space="preserve">
<g>
	<path fill="#6D6E70" d="M8.498,23.216c-0.285,0.422-0.552,0.457-0.707,0.52h1.09L9.12,23.72C8.876,23.613,8.676,23.47,8.498,23.216
		 M7.231,24.931h1.646v-0.154H7.231V24.931z M7.231,24.536h1.646v-0.16H7.231V24.536z M7.231,24.136h1.646v-0.154H7.231V24.136z
		 M7.417,22.738l-0.139,0.293c-0.248-0.209-0.673-0.348-0.673-0.348l0.122-0.262C6.95,22.505,7.417,22.738,7.417,22.738
		 M9.545,25.517l-0.178,0.27c0,0-0.58-0.309-1.099-0.408l0.155-0.207H7.629l0.271,0.207c0,0-0.864,0.348-1.229,0.424
		c-0.03-0.123-0.085-0.191-0.177-0.275c0.272-0.033,0.787-0.178,1.078-0.355H7.197l-0.279,0.014l0.008-0.301v-0.863L6.911,23.72
		l0.309,0.016H7.44c0,0-0.03-0.088-0.161-0.172c0.587-0.062,0.911-0.256,1.058-0.672h-0.27l-0.271,0.301
		c0,0-0.062-0.107-0.286-0.139c0.286-0.225,0.455-0.604,0.54-0.771l0.324,0.168c0,0-0.084,0.107-0.146,0.186h0.935l0.395-0.016
		l-0.231,0.633c0,0-0.131-0.084-0.31-0.092l0.123-0.271H8.636c0,0-0.008,0.055-0.028,0.102c0.237,0.348,0.901,0.555,1.142,0.555
		c0,0-0.146,0.178-0.162,0.348c-0.143-0.047-0.273-0.09-0.39-0.139l-0.017,0.289v0.863l0.017,0.275l-0.286-0.014H8.513
		C8.753,25.236,9.289,25.378,9.545,25.517 M7.494,23.363c-0.398,0.191-0.943,0.455-0.943,0.455l-0.153-0.303
		c0.434-0.111,1.027-0.416,1.027-0.416L7.494,23.363z"/>
	<path fill="#6D6E70" d="M14.188,22.943c0.058,0.057,0.117,0.111,0.191,0.15c0.07-0.027,0.154-0.109,0.204-0.15H14.188z
		 M14.364,23.335c-0.119,0.051-0.302,0.1-0.451,0.143h0.853C14.613,23.443,14.481,23.396,14.364,23.335 M15.429,25.683h-1.778
		c-0.124,0-0.389,0.016-0.389,0.016v-0.312c0,0,0.219,0.016,0.396,0.016h0.718v-0.357h-0.328c-0.174,0-0.357,0.016-0.357,0.016
		v-0.305c0,0,0.259,0.016,0.351,0.016h0.336V24.47l-0.618,0.008c-0.039,0.127-0.185,0.373-0.24,0.455
		c-0.131-0.115-0.297-0.154-0.297-0.154s0.324-0.352,0.402-0.953l0.386,0.117c0,0-0.061,0.096-0.135,0.258h0.502v-0.115l-0.008-0.27
		h0.344l-0.016,0.262V24.2h0.605c0.173,0,0.268-0.02,0.268-0.02v0.301l-0.264-0.012h-0.609v0.301l0.425-0.004
		c0.178-0.004,0.336-0.016,0.336-0.016v0.305c0,0-0.235-0.004-0.328-0.008l-0.433-0.004v0.357h0.727l0.401-0.018v0.318
		C15.824,25.7,15.604,25.683,15.429,25.683 M15.496,23.741H13.22c0,0,0.009,0.586,0,0.771c-0.03,0.752-0.428,1.232-0.428,1.232
		s-0.117-0.131-0.286-0.246c0,0,0.395-0.281,0.395-1.062v-0.705l-0.017-0.271l0.333,0.012c-0.036-0.064-0.047-0.102-0.104-0.146
		c0,0,0.576-0.043,0.923-0.127c-0.038-0.033-0.181-0.131-0.271-0.258h-0.446l-0.313,0.016v-0.309l0.324,0.016h0.849
		c-0.018-0.068-0.045-0.143-0.084-0.191c0,0,0.243-0.094,0.353-0.131c0,0,0.104,0.143,0.144,0.322h0.799l0.271-0.016v0.309
		l-0.271-0.016h-0.361c-0.077,0.092-0.226,0.189-0.317,0.252c0.231,0.084,0.395,0.119,0.92,0.143
		c-0.064,0.047-0.09,0.076-0.132,0.143l0.324-0.016v0.297L15.496,23.741z"/>
	<path fill="#6D6E70" d="M20.915,22.294c0,0,0.324,0.123,0.387,0.146c-0.094,0.068-0.191,0.176-0.191,0.176h0.633l0.305-0.014v0.285
		l-0.297-0.018h-0.318c0,0,0.086,0.256,0.117,0.361c0,0-0.217,0-0.348,0.055c-0.008-0.17-0.055-0.416-0.055-0.416h-0.199
		c0,0-0.109,0.154-0.201,0.256c-0.086-0.086-0.256-0.186-0.256-0.186C20.628,22.812,20.778,22.687,20.915,22.294 M19.718,25.294
		h1.484V25.07h-1.484V25.294z M19.718,24.314h1.359v-0.201h-1.359V24.314z M21.403,23.827l-0.018,0.301v0.146l0.018,0.324
		l-0.332-0.016h-1.354v0.23h1.453l0.355-0.016l-0.018,0.287v0.33l0.018,0.355h-0.324v-0.209h-1.483v0.23h-0.33l0.021-0.455v-1.172
		l-0.017-0.336l0.349,0.014h1.26L21.403,23.827z M19.447,22.284c0,0,0.309,0.148,0.37,0.17c-0.094,0.07-0.186,0.188-0.186,0.188
		h0.424l0.354-0.018v0.271l-0.328-0.016h-0.124c0,0,0.062,0.186,0.093,0.348c0,0-0.201,0-0.348,0.068
		c0-0.139-0.039-0.416-0.039-0.416h-0.193c0,0-0.177,0.217-0.34,0.385c-0.085-0.139-0.23-0.207-0.23-0.207
		C19.03,22.956,19.278,22.702,19.447,22.284 M21.721,23.407l0.311-0.016l-0.018,0.215v0.117l0.021,0.322h-0.328v-0.377h-2.515v0.199
		l-0.005,0.17h-0.323l0.019-0.254v-0.123l-0.016-0.273l0.325,0.02h1.14c0,0-0.043-0.158-0.128-0.248l0.368-0.068
		c0.061,0.123,0.131,0.316,0.131,0.316H21.721z"/>
	<path fill="#6D6E70" d="M27.319,24.031h0.428v-0.492h-0.428V24.031z M27.319,23.253h0.428v-0.475h-0.428V23.253z M26.608,24.031
		h0.404v-0.492h-0.404V24.031z M26.608,23.253h0.404v-0.475h-0.404V23.253z M27.012,24.323H26.6l-0.32,0.018l0.02-0.297v-1.203
		l-0.02-0.361l0.316,0.016h1.135l0.344-0.016l-0.02,0.334v1.27l0.02,0.262l-0.328-0.02h-0.428v0.377h0.447l0.293-0.014v0.318
		l-0.285-0.012h-0.455v0.4h0.633l0.309-0.016v0.344l-0.354-0.016H26.3l-0.293,0.016V25.38l0.293,0.016h0.715v-0.4h-0.396
		l-0.285,0.012v-0.318l0.277,0.014h0.404v-0.379H27.012z M25.944,22.636l0.186-0.016v0.336l-0.17-0.016h-0.232v0.805h0.146
		l0.209-0.014v0.346l-0.201-0.016h-0.154v0.895l0.402-0.188c0,0,0,0.219,0.008,0.377c0,0-0.457,0.154-1.09,0.463l-0.1-0.416
		c0,0,0.195-0.023,0.475-0.145v-0.986h-0.197l-0.191,0.016v-0.354l0.209,0.021h0.182v-0.805h-0.16l-0.246,0.016V22.62l0.238,0.016
		H25.944z"/>
	<path fill="#4F3116" d="M9.949,10.078c0,0.126-0.018,0.269-0.047,0.44c-0.031,0.156-0.361,0.455-1.006,0.879H8.659
		c0.062-0.094,0.109-0.203,0.158-0.313c0.345-0.691,0.518-1.068,0.518-1.114c0-0.018-0.015-0.062-0.031-0.143
		C9.476,9.78,9.651,9.733,9.839,9.671C9.918,9.859,9.949,10.001,9.949,10.078 M12.876,10.895c-1.007,0.771-1.527,1.226-1.557,1.351
		c-0.033,0.111-0.033,0.237,0.015,0.362c0.047,0.125,0.094,0.188,0.142,0.188c0.031-0.017,0.455-0.313,1.26-0.912
		c-0.11,0.395-0.205,0.724-0.3,1.005c-0.234,0.096-0.505,0.221-0.834,0.378c-0.378,0.188-0.725,0.346-1.022,0.503
		c0.032-0.723,0.44-1.603,1.243-2.653L12.876,10.895z M12.719,9.624c0.031,0.156-0.205,0.503-0.724,1.035l-0.048-0.094l-1.196,1.036
		c-0.078-0.251,0.063-0.485,0.426-0.755c0.348-0.251,0.521-0.438,0.521-0.518c-0.44-0.126-0.787-0.424-1.057-0.896
		c0.708-0.252,1.244-0.408,1.606-0.485C12.513,9.232,12.672,9.451,12.719,9.624 M15.819,12.153
		c-0.349-0.645-0.582-0.991-0.708-1.021c-0.125-0.032-0.63,0-1.526,0.109c0.141-0.487,0.377-0.802,0.708-0.942
		c0.315-0.126,0.456-0.251,0.408-0.377c-0.046-0.125-0.394-0.251-1.054-0.393c-0.096-0.235-0.188-0.378-0.268-0.409
		c-0.08-0.047-0.158-0.125-0.237-0.252c-0.029-0.015-0.047-0.03-0.062-0.046c0.127-0.017,0.22-0.017,0.3-0.017
		c0.156,0,0.472,0.031,0.928,0.048c0.44,0.015,0.708,0.015,0.786,0.015c0.079,0,0.205-0.046,0.362-0.141
		c-0.849-0.628-1.353-0.911-1.51-0.864l-0.726,0.205c-0.331,0.094-0.661,0.109-0.99,0.047c0.077-0.252-0.017-0.486-0.268-0.723
		c-0.253-0.252-0.779-0.42-1.689-0.639c0.267,0.564,0.463,0.874,0.715,1.031c-0.143,0.329-0.584,0.629-1.308,0.849
		c-0.738,0.233-1.147,0.36-1.228,0.408c-0.078,0.03-0.142,0.046-0.189,0.046c-0.029,0.018-0.378,0.109-1.021,0.3L7.226,9.026
		C6.991,9.182,6.865,9.294,6.865,9.341c0,0.031,0.017,0.11,0.062,0.235c0.047,0.126,0.299,0.267,0.755,0.409
		c0.284,0.093,0.679,0.077,1.196-0.033c-0.771,1.258-1.384,2.53-1.841,3.802c-0.535,1.444-1.085,2.575-1.62,3.408
		c-0.551,0.863-0.928,1.209-1.18,1.053c-0.08,0.564-0.049,0.863,0.078,0.896c0.126,0.047,0.205,0.062,0.252,0.062
		s0.062-0.018,0.393-0.174c0.221-0.109,0.521-0.346,0.85-0.738c0.315-0.408,0.707-1.131,1.164-2.167
		c0.456-1.053,0.771-1.964,1.009-2.749c0.109-0.393,0.252-0.785,0.394-1.162c0.126,0.062,0.236,0.096,0.315,0.096
		c0.077,0,0.484-0.176,1.211-0.521c-0.157,0.361-0.409,0.725-0.771,1.068c-0.346,0.33-0.519,0.535-0.519,0.612
		c0,0.094,0,0.141,0.126,0.313c0.094,0.126,0.158,0.189,0.204,0.189c0.03-0.018,0.408-0.363,1.115-1.038l0.475,0.911
		c-0.41,0.203-0.756,0.377-1.023,0.519c0.157,0.078,0.348,0.11,0.55,0.11c0.205,0,0.41-0.032,0.614-0.079s0.473,0,0.803,0.157
		l-1.698,0.675c0,0.158,0.108,0.314,0.313,0.473c0.22,0.157,0.348,0.234,0.395,0.234c0.03,0,0.472-0.126,1.32-0.36
		c-0.268,0.298-0.408,0.424-1.621,0.91c-0.802,0.313-1.241,0.565-1.32,0.739c-0.078,0.154-0.11,0.281-0.11,0.359
		c0,0.096,0.047,0.174,0.126,0.252c0.095,0.078,0.158,0.109,0.205,0.109c0.031,0,0.377-0.156,1.023-0.471
		c0.644-0.301,1.289-0.582,1.935-0.85c0.095,0.566,0.095,1.164,0,1.773c-0.095,0.613-0.269,0.945-0.519,0.99
		c-0.252,0.062-0.913-0.016-1.982-0.221c0.015,0.062,0.455,0.361,1.336,0.865c0.866,0.502,1.323,0.752,1.37,0.752
		c0.046,0,0.22-0.375,0.472-1.115c0.252-0.752,0.314-1.35,0.269-1.805c-0.047-0.438-0.032-0.91,0.03-1.397
		c0.896-0.049,1.56-0.03,1.969,0.03c0.424,0.079,0.676,0.096,0.754,0.048c0.062-0.048,0.108-0.095,0.108-0.143
		c0-0.031-0.029-0.126-0.076-0.281c-0.049-0.173-0.236-0.314-0.566-0.424c-0.331-0.111-0.535-0.157-0.614-0.157
		c-0.095,0-0.63,0.094-1.604,0.298c0-0.236,0.016-0.393,0.047-0.472c0.047-0.094,0.141-0.174,0.299-0.267
		c0.173-0.096,0.252-0.221,0.252-0.377c-0.015-0.173-0.11-0.299-0.299-0.377c-0.189-0.062-0.346-0.174-0.473-0.33
		c0.724-0.282,1.086-0.439,1.086-0.486c0-0.031-0.109-0.189-0.329-0.472c-0.019-0.031-0.048-0.062-0.079-0.096
		c0.015-0.125,0.015-0.267,0.015-0.453c-0.015-0.33,0-0.534,0.031-0.613c0.033-0.079,0.378-0.031,1.04,0.095
		C15.251,12.103,15.661,12.153,15.819,12.153"/>
	<path fill="#4F3116" d="M26.864,11.312c-0.227,0.688-0.404,1.059-0.525,1.104c-0.119,0.027-0.641,0.236-1.584,0.626l0.121-0.926
		C25.278,12.192,25.934,11.925,26.864,11.312 M23.829,10.953l-1.287,1.746c0-0.148-0.104-0.419-0.299-0.806
		c-0.18-0.389-0.252-0.597-0.207-0.641c0.027-0.045,0.268-0.182,0.701-0.465c0.418-0.269,0.627-0.464,0.627-0.535
		c0-0.075-0.045-0.165-0.119-0.271c-0.074-0.089-0.195-0.164-0.344-0.224c-0.164-0.062-0.436-0.045-0.822,0.028
		c0.312-0.625,0.434-1.027,0.359-1.223c-0.092-0.193-0.301-0.344-0.645-0.463c-0.359-0.119-0.598-0.178-0.717-0.178
		c-0.105,0-0.182,0.059-0.227,0.178s-0.059,0.418-0.059,0.88c0.15-0.328,0.27-0.343,0.344-0.074c0.09,0.284,0.104,0.581,0.061,0.896
		c-0.029,0.299-0.613,0.807-1.749,1.552c-1.122,0.731-1.721,1.119-1.794,1.119c-0.09,0-0.226-0.044-0.419-0.119
		c-0.194-0.075-0.239,0-0.119,0.209c0.119,0.21,0.373,0.507,0.763,0.88c0.388,0.359,0.644,0.538,0.762,0.538
		c0.105,0,0.509-0.299,1.209-0.88c0.705-0.568,1.096-0.896,1.168-0.97c-0.148,1-0.447,1.685-0.883,2.058
		c-0.418,0.373-0.673,0.688-0.747,0.94c-0.074,0.237-0.12,0.446-0.12,0.597c0,0.165,0.046,0.373,0.12,0.642
		c0.074,0.284,0.15,0.418,0.226,0.418c0.09,0,0.434-0.433,1.061-1.282c0.076,0.85,0.092,1.342,0.047,1.461
		c-0.016,0.104-0.029,0.209-0.029,0.283c-0.018,0.074,0.088,0.418,0.299,1.045c0.225,0.627,0.418,0.863,0.553,0.717
		c0.119-0.164,0.195-0.271,0.195-0.314c0-0.029-0.047-0.238-0.15-0.627c-0.104-0.387-0.15-0.76-0.135-1.104
		c0.029-0.359,0.045-0.852,0.045-1.479c0-0.609,0.312-1.312,0.941-2.088C23.05,12.626,23.512,11.804,23.829,10.953 M30.466,17.923
		c0-0.211-0.105-0.555-0.312-1.045c-0.209-0.493-0.436-0.777-0.674-0.852l-2.271-0.761c0.971-0.657,1.465-1.015,1.465-1.075
		c-0.014-0.06-0.061-0.208-0.166-0.448c-0.088-0.223-0.238-0.417-0.432-0.565c-0.195-0.164-0.449-0.043-0.766,0.389
		c-0.297,0.447-0.58,0.746-0.836,0.896c-0.254,0.147-0.553,0.254-0.883,0.298c-0.328,0.028-0.539,0.179-0.611,0.448
		c-0.074,0.269-0.119,0.463-0.119,0.58c0,0.119,0.238,0.181,0.701,0.181c0.254,0,0.523,0.044,0.838,0.134
		c-0.135,0.165-0.27,0.344-0.418,0.553c-0.51,0.715-0.912,1.117-1.227,1.238c-0.312,0.119-0.508,0-0.539-0.344
		c-0.045-0.359,0.105-1.507,0.42-3.447c0.15,0.074,0.297,0.089,0.434,0.044c0.135-0.03,0.281-0.088,0.434-0.163
		c0.164-0.076,0.238-0.119,1.152-0.521c0.598-0.271,0.895-0.419,0.895-0.465c0-0.045-0.119-0.147-0.355-0.298
		c1.016-1.671,1.539-2.582,1.584-2.716c0.045-0.12-0.227-0.418-0.811-0.88c-0.596-0.478-1-0.701-1.236-0.687
		c-0.227,0.016-0.66,0.165-1.287,0.463c-0.613,0.299-1.121,0.864-1.512,1.715c0.93-0.298,1.451-0.447,1.57-0.447
		c0.119-0.015,0.359-0.194,0.703-0.537c0.357-0.343,0.598-0.521,0.717-0.521c0.105,0,0.209,0.12,0.285,0.356
		c0.074,0.226,0,0.688-0.24,1.39c-0.463-0.314-0.717-0.464-0.762-0.464c-0.031,0-0.285,0.134-0.748,0.357
		c-0.479,0.238-0.777,0.314-0.896,0.238c-0.104-0.088-0.211-0.133-0.283-0.133c-0.074,0-0.15,0.014-0.227,0.059
		s-0.133,0.164-0.178,0.359c-0.045,0.191-0.061,0.445-0.061,0.76c0,0.298-0.061,1.014-0.18,2.146
		c-0.104,1.12-0.09,2.105,0.016,2.956c0.119,0.865,0.299,1.434,0.521,1.701c0.24,0.283,0.436,0.447,0.629,0.479
		c0.209,0.045,0.344,0.027,0.418-0.018c0.074-0.027,0.328-0.373,0.764-1.027c0.328-0.523,0.598-1.18,0.807-1.984
		c0.18,0.059,0.357,0.134,0.539,0.224c0.688,0.358,1.27,0.688,1.732,0.971c0.48,0.297,0.822,0.508,1.062,0.627
		C30.36,18.177,30.479,18.236,30.466,17.923"/>
	<path fill="#6D6E70" d="M9.196,20.298H4.781c-0.114,0-0.206-0.098-0.206-0.215c0-0.119,0.092-0.217,0.206-0.217h4.414
		c0.112,0,0.206,0.098,0.206,0.217C9.401,20.2,9.308,20.298,9.196,20.298"/>
	<path fill="#6D6E70" d="M29.999,20.298H13.772c-0.119,0-0.217-0.098-0.217-0.215c0-0.119,0.098-0.217,0.217-0.217h16.227
		c0.119,0,0.217,0.098,0.217,0.217C30.216,20.2,30.118,20.298,29.999,20.298"/>
</g>
</svg>
