<?xml version="1.0" encoding="utf-8"?>
<!-- Generator: Adobe Illustrator 16.0.4, SVG Export Plug-In . SVG Version: 6.00 Build 0)  -->
<!DOCTYPE svg PUBLIC "-//W3C//DTD SVG 1.1//EN" "http://www.w3.org/Graphics/SVG/1.1/DTD/svg11.dtd">
<svg version="1.1" id="Layer_1" xmlns="http://www.w3.org/2000/svg" xmlns:xlink="http://www.w3.org/1999/xlink" x="0px" y="0px"
	 width="208.38px" height="374.24px" viewBox="0 0 208.38 374.24" enable-background="new 0 0 208.38 374.24" xml:space="preserve">
<path fill="#F0F0F0" d="M204.592,359.441l3.442,11.021c-8.266,2.52-18.254,3.778-29.964,3.778c-19.978,0-37.026-4.619-51.148-13.854
	c-14.122-9.24-24.4-21.412-30.826-36.526c-28.475-1.89-51.61-13.904-69.403-36.054C8.896,265.662,0,237.166,0,202.318
	c0-36.314,9.698-65.495,29.105-87.535c19.4-22.043,44.484-33.063,75.257-33.063c30.767,0,55.797,10.971,75.085,32.904
	c19.288,21.938,28.933,51.167,28.933,87.693c0,35.059-9.015,63.659-27.038,85.803c-18.028,22.15-41.391,34.057-70.091,35.739
	c11.937,25.608,34.669,38.415,68.196,38.415C189.093,362.275,197.471,361.33,204.592,359.441 M38.577,122.653
	c-16.533,19.734-24.799,46.287-24.799,79.665c0,33.377,8.32,60.299,24.971,80.765c16.646,20.469,38.517,30.701,65.613,30.701
	c27.091,0,48.91-10.179,65.441-30.543c16.533-20.358,24.8-47.335,24.8-80.923c0-33.377-8.267-59.931-24.8-79.665
	c-16.531-19.729-38.35-29.598-65.441-29.598C77.034,93.055,55.109,102.925,38.577,122.653"/>
</svg>
