<?xml version="1.0" encoding="utf-8"?>
<!-- Generator: Adobe Illustrator 16.0.4, SVG Export Plug-In . SVG Version: 6.00 Build 0)  -->
<!DOCTYPE svg PUBLIC "-//W3C//DTD SVG 1.1//EN" "http://www.w3.org/Graphics/SVG/1.1/DTD/svg11.dtd">
<svg version="1.1" xmlns="http://www.w3.org/2000/svg" xmlns:xlink="http://www.w3.org/1999/xlink" x="0px" y="0px" width="716px"
	 height="220.277px" viewBox="0 0 716 220.277" enable-background="new 0 0 716 220.277" xml:space="preserve">
<g id="Layer_1" display="none">
	<g display="inline">
		<path fill="#63666A" d="M192.703,39.014c2.102,0,3.643-0.026,4.624-0.079c0.98-0.053,1.733-0.113,2.259-0.185v2.995
			c-0.281-0.035-0.596-0.07-0.946-0.104c-0.35-0.035-0.788-0.062-1.313-0.079c-0.525-0.018-1.165-0.026-1.918-0.026
			s-1.655,0-2.706,0V52.2l7.04-1.996c-0.141,0.876-0.088,1.839,0.158,2.89c-1.611,0.421-3.319,0.886-5.123,1.393
			c-1.804,0.508-3.564,1.023-5.28,1.55c-1.717,0.525-3.328,1.051-4.833,1.576c-1.506,0.525-2.785,0.999-3.835,1.419
			c-0.036-0.806-0.131-1.497-0.289-2.075s-0.43-1.164-0.814-1.76c1.121-0.035,2.136-0.14,3.047-0.315v-11.77
			c0-1.155-0.036-2.268-0.105-3.336c-0.07-1.068-0.175-2.022-0.315-2.863c0.735,0.105,1.392,0.176,1.97,0.21
			c0.578,0.036,1.164,0.036,1.76,0c0.35,0,0.56,0.071,0.63,0.21c0.07,0.141-0.035,0.298-0.315,0.474
			c-0.246,0.14-0.412,0.333-0.5,0.577c-0.087,0.246-0.131,0.631-0.131,1.156v14.605l3.993-1.104V32.867
			c-1.401,0.036-2.732,0.062-3.993,0.079c-1.261,0.019-2.259,0.062-2.995,0.132c0.105-1.051,0.192-2.259,0.263-3.625
			c0.069-1.366,0.105-2.731,0.105-4.098c0-1.331-0.036-2.67-0.105-4.02c-0.071-1.348-0.158-2.478-0.263-3.389
			c0.805,0.104,1.926,0.193,3.362,0.263c1.436,0.07,2.942,0.105,4.518,0.105c1.576,0,3.064-0.035,4.466-0.105
			c1.4-0.069,2.503-0.157,3.31-0.263c-0.071,0.701-0.123,1.358-0.158,1.97c-0.035,0.613-0.062,1.208-0.079,1.786
			c-0.018,0.578-0.035,1.165-0.053,1.76c-0.018,0.597-0.026,1.228-0.026,1.892c0,1.365,0.026,2.74,0.079,4.125
			c0.052,1.384,0.113,2.583,0.184,3.599c-0.596-0.035-1.401-0.07-2.417-0.104s-2.102-0.069-3.257-0.105L192.703,39.014
			L192.703,39.014z M195.225,20.783h-9.142v9.772h9.142V20.783z M215.242,46.789c1.295-0.875,2.372-1.609,3.231-2.207
			c0.858-0.595,1.61-1.156,2.259-1.681c0.648-0.525,1.243-1.051,1.787-1.576c0.542-0.525,1.164-1.156,1.865-1.892
			c0.42,0.631,0.849,1.183,1.287,1.654c0.438,0.474,0.849,0.867,1.235,1.183c0.385,0.314,0.525,0.569,0.42,0.762
			c-0.105,0.193-0.386,0.272-0.841,0.236c-0.21,0-0.499,0.062-0.867,0.184c-0.368,0.123-0.911,0.395-1.629,0.814
			c-0.718,0.42-1.646,1.007-2.784,1.76c-1.139,0.753-2.601,1.743-4.387,2.968c0.806,1.051,1.603,1.953,2.391,2.706
			c0.788,0.754,1.62,1.438,2.496,2.049c0.875,0.613,1.812,1.174,2.811,1.683c0.999,0.508,2.11,1.042,3.336,1.602
			c-0.701,0.455-1.332,0.963-1.892,1.524c-0.561,0.56-0.981,1.138-1.261,1.732c-1.122-0.666-2.11-1.312-2.968-1.943
			c-0.859-0.631-1.673-1.306-2.443-2.023c-0.771-0.717-1.542-1.505-2.312-2.364c-0.771-0.857-1.594-1.865-2.469-3.021
			c-0.525-0.7-1.069-1.516-1.628-2.443c-0.561-0.928-1.086-1.926-1.576-2.995c-0.491-1.067-0.946-2.162-1.366-3.284
			c-0.42-1.121-0.753-2.224-0.998-3.31h-4.255v17.811c0.7-0.314,1.357-0.611,1.97-0.894c0.612-0.28,1.216-0.568,1.812-0.867
			c0.595-0.297,1.216-0.622,1.865-0.972c0.648-0.351,1.375-0.752,2.181-1.208c0.034,0.701,0.087,1.233,0.157,1.603
			c0.07,0.368,0.228,0.814,0.473,1.34c-1.122,0.49-2.163,0.964-3.126,1.419c-0.964,0.454-1.9,0.928-2.811,1.419
			c-0.912,0.489-1.831,1.006-2.758,1.55c-0.929,0.542-1.918,1.129-2.968,1.76c-0.246-0.701-0.491-1.279-0.736-1.733
			c-0.245-0.456-0.596-0.945-1.051-1.472c0.315-0.104,0.63-0.21,0.946-0.314c0.316-0.105,0.63-0.229,0.946-0.368V22.885
			c0-1.085-0.026-2.065-0.079-2.941c-0.052-0.875-0.149-1.769-0.289-2.679c0.525,0.069,1.19,0.14,1.996,0.21
			c0.805,0.069,1.699,0.131,2.68,0.184c0.98,0.053,2.031,0.097,3.152,0.132s2.259,0.052,3.415,0.052
			c2.312,0,4.413-0.052,6.305-0.157c1.891-0.105,3.327-0.245,4.308-0.42c-0.105,0.91-0.175,1.812-0.21,2.704
			c-0.035,0.895-0.053,1.865-0.053,2.916v9.878c0,1.296,0.026,2.442,0.079,3.44c0.052,0.998,0.131,2.041,0.236,3.126
			c-0.561-0.07-1.129-0.132-1.708-0.184c-0.578-0.053-1.279-0.097-2.102-0.131c-0.823-0.034-1.821-0.062-2.995-0.079
			c-1.174-0.018-2.636-0.026-4.387-0.026c0.28,1.542,0.7,2.942,1.261,4.203C213.752,44.372,214.436,45.599,215.242,46.789z
			 M204.682,20.521v6.986h14.973v-6.986H204.682z M204.682,29.978v6.462h14.973v-6.462H204.682z"/>
		<path fill="#63666A" d="M264.941,31.921c-1.892,0-3.45,0.02-4.676,0.054c-1.227,0.034-2.294,0.078-3.205,0.131
			c-0.912,0.052-1.734,0.104-2.469,0.158c-0.736,0.053-1.542,0.131-2.417,0.235v-3.31c0.875,0.104,1.689,0.184,2.443,0.235
			c0.753,0.054,1.594,0.105,2.522,0.157c0.928,0.053,1.997,0.098,3.205,0.132c1.208,0.035,2.74,0.053,4.597,0.053
			c-0.035-1.052-0.079-1.952-0.131-2.706c-0.053-0.753-0.131-1.462-0.236-2.128c0.665,0.176,1.331,0.289,1.996,0.342
			s1.295,0.044,1.892-0.026c0.595-0.07,0.91,0.026,0.946,0.289c0.034,0.263-0.176,0.587-0.631,0.972
			c-0.21,0.177-0.376,0.431-0.499,0.763c-0.123,0.333-0.184,0.691-0.184,1.077v1.418c1.61,0,2.968-0.009,4.071-0.026
			c1.104-0.018,2.066-0.053,2.89-0.105c0.823-0.053,1.593-0.112,2.312-0.184c0.718-0.07,1.515-0.158,2.391-0.263v2.363
			c1.19-1.016,2.267-2.005,3.231-2.969c0.963-0.963,1.76-1.847,2.391-2.652c0.56,0.561,1.051,0.989,1.471,1.286
			c0.42,0.299,0.858,0.535,1.313,0.709c0.56,0.246,0.814,0.518,0.762,0.814c-0.052,0.298-0.412,0.482-1.077,0.551
			c-0.176,0-0.403,0.071-0.683,0.21c-0.281,0.141-0.753,0.438-1.418,0.894c-0.666,0.456-1.621,1.146-2.863,2.074
			c-1.244,0.93-2.934,2.182-5.07,3.758c2.556-0.07,4.859-0.149,6.909-0.237c2.049-0.087,3.948-0.201,5.7-0.341v3.571
			c-2.102-0.175-4.431-0.306-6.987-0.394c-2.557-0.087-5.5-0.166-8.826-0.237c-1.261,0.876-2.61,1.699-4.045,2.47
			c-1.437,0.771-3.083,1.559-4.938,2.363h6.515c1.085,0,2.171-0.008,3.257-0.025c1.085-0.018,2.119-0.054,3.1-0.105
			c0.98-0.052,1.873-0.104,2.679-0.158c0.805-0.053,1.453-0.112,1.944-0.184c-0.105,0.666-0.176,1.261-0.21,1.786
			c-0.036,0.524-0.053,1.261-0.053,2.207v10.087c0,1.576,0.105,3.327,0.315,5.253h-3.835v-2.784h-21.435v3.152h-3.73
			c0.105-1.018,0.175-1.988,0.21-2.916c0.035-0.928,0.053-1.707,0.053-2.338v-9.93c-1.366,0.42-2.811,0.867-4.334,1.34
			s-3.144,0.954-4.859,1.444c-0.141-0.735-0.368-1.348-0.683-1.839c-0.315-0.49-0.806-0.928-1.471-1.312
			c1.892-0.28,3.774-0.604,5.648-0.973c1.873-0.368,3.756-0.832,5.647-1.392c-0.035-0.28-0.07-0.561-0.105-0.841
			c-0.035-0.28-0.088-0.596-0.158-0.945c0.455,0.07,1.085,0.123,1.892,0.157c0.805,0.035,1.768,0.088,2.889,0.158
			c1.787-0.665,3.555-1.384,5.307-2.154c1.751-0.771,3.502-1.629,5.253-2.574h-12.241c-1.681,0-3.625,0.062-5.832,0.184
			c-2.207,0.123-4.728,0.289-7.565,0.499v-3.571c1.331,0.104,2.731,0.202,4.203,0.289c1.471,0.088,3.064,0.156,4.781,0.21
			c1.716,0.053,3.573,0.097,5.569,0.131c1.997,0.035,4.185,0.052,6.567,0.052v-4.408H264.941z M277.55,19.995
			c2.521-0.034,4.789-0.079,6.804-0.131c2.013-0.053,3.809-0.149,5.385-0.289v3.257c-1.576-0.14-3.372-0.235-5.385-0.289
			c-2.015-0.052-4.282-0.096-6.804-0.131v4.938h-3.31v-4.938h-13.712v5.148h-3.31v-5.148c-2.452,0.035-4.615,0.079-6.488,0.131
			c-1.874,0.054-3.599,0.149-5.175,0.289v-3.257c1.576,0.14,3.301,0.236,5.175,0.289c1.874,0.052,4.037,0.097,6.488,0.131
			c-0.07-2.627-0.175-4.535-0.315-5.727c1.4,0.21,2.732,0.314,3.993,0.314c0.315,0,0.499,0.105,0.552,0.315
			c0.052,0.21-0.062,0.402-0.342,0.578c-0.175,0.104-0.315,0.323-0.42,0.656s-0.158,0.657-0.158,0.973v2.89h13.712
			c0-1.261-0.018-2.381-0.052-3.362c-0.036-0.979-0.123-1.819-0.263-2.521c1.4,0.21,2.732,0.314,3.993,0.314
			c0.315,0,0.499,0.124,0.552,0.368c0.052,0.246-0.062,0.456-0.342,0.631c-0.21,0.141-0.359,0.367-0.446,0.684
			c-0.088,0.314-0.131,0.631-0.131,0.946L277.55,19.995L277.55,19.995z M279.336,50.257v-4.309h-20.384
			c-0.176,0.071-0.351,0.132-0.525,0.184c-0.176,0.053-0.351,0.114-0.525,0.185v3.939L279.336,50.257L279.336,50.257z
			 M257.901,52.621v4.466h21.435v-4.466H257.901z M278.759,32.394c-0.701-0.07-1.375-0.141-2.023-0.21s-1.366-0.122-2.154-0.157
			s-1.699-0.062-2.732-0.079c-1.034-0.017-2.286-0.026-3.756-0.026v4.413h5.253c0.946-0.595,1.874-1.226,2.785-1.891
			C277.042,33.778,277.918,33.094,278.759,32.394z"/>
		<path fill="#63666A" d="M446.089,42.271c-1.996,0-3.782,0.009-5.358,0.025c-1.575,0.02-3.057,0.036-4.438,0.054
			c-1.384,0.018-2.724,0.053-4.021,0.104c-1.296,0.052-2.661,0.114-4.098,0.185v-3.205c1.506,0.07,2.942,0.132,4.31,0.185
			c1.364,0.052,2.774,0.087,4.229,0.104c1.453,0.019,3.038,0.034,4.755,0.053c1.716,0.018,3.678,0.025,5.884,0.025
			c2.768,0,5.035,0,6.805,0c1.769,0,3.317-0.018,4.648-0.053c1.331-0.034,2.565-0.079,3.704-0.131
			c1.139-0.053,2.479-0.113,4.02-0.185v3.205c-1.438-0.07-2.697-0.132-3.782-0.185c-1.086-0.053-2.232-0.087-3.441-0.104
			c-1.208-0.018-2.583-0.034-4.124-0.054c-1.541-0.017-3.467-0.025-5.778-0.025v5.727c2.03,0,3.704,0,5.018,0
			c1.314,0,2.486-0.017,3.521-0.053c1.031-0.035,2.029-0.079,2.993-0.131c0.963-0.054,2.075-0.113,3.336-0.185v3.152
			c-1.261-0.07-2.373-0.132-3.336-0.185c-0.964-0.053-1.962-0.088-2.993-0.104c-1.034-0.018-2.207-0.035-3.521-0.053
			c-1.312-0.019-2.986-0.026-5.018-0.026v6.567c2.941,0,5.376-0.009,7.303-0.026c1.926-0.018,3.634-0.035,5.123-0.053
			c1.488-0.018,2.896-0.053,4.229-0.105c1.332-0.052,2.854-0.131,4.571-0.235v3.361c-1.191-0.07-2.285-0.123-3.284-0.157
			c-0.998-0.035-1.979-0.07-2.94-0.105c-0.965-0.036-1.962-0.062-2.995-0.079c-1.033-0.019-2.198-0.035-3.493-0.053
			c-1.297-0.019-2.768-0.026-4.413-0.026c-1.647,0-3.573,0-5.779,0c-2.627,0-4.957,0.008-6.986,0.026
			c-2.032,0.018-3.934,0.034-5.7,0.053c-1.771,0.018-3.468,0.052-5.098,0.105c-1.628,0.052-3.336,0.131-5.121,0.235v-3.361
			c1.716,0.07,3.345,0.131,4.886,0.184c1.541,0.052,3.135,0.097,4.781,0.131c1.646,0.035,3.404,0.062,5.279,0.079
			c1.873,0.017,3.983,0.026,6.33,0.026v-6.567c-1.752,0-3.302,0.009-4.648,0.026c-1.35,0.018-2.618,0.035-3.81,0.053
			c-1.19,0.018-2.348,0.052-3.468,0.104c-1.121,0.054-2.33,0.114-3.625,0.186v-3.15c1.295,0.07,2.504,0.131,3.625,0.185
			c1.12,0.053,2.276,0.097,3.468,0.131c1.19,0.036,2.46,0.053,3.81,0.053c1.348,0,2.896,0,4.648,0v-5.727H446.089z M438.944,18.997
			c0.385-0.455,0.717-0.884,0.998-1.287c0.278-0.401,0.532-0.821,0.762-1.261c0.228-0.438,0.446-0.901,0.656-1.393
			c0.211-0.49,0.438-1.068,0.684-1.733c0.56,0.351,1.146,0.656,1.76,0.919c0.612,0.263,1.199,0.465,1.761,0.604
			c0.489,0.104,0.727,0.28,0.709,0.524c-0.019,0.245-0.271,0.456-0.763,0.63c-0.21,0.071-0.394,0.158-0.551,0.264
			c-0.158,0.104-0.342,0.263-0.552,0.473c-0.211,0.21-0.475,0.49-0.788,0.84c-0.315,0.351-0.719,0.823-1.209,1.418h9.72
			c3.292,0,5.875-0.026,7.749-0.079c1.873-0.052,3.283-0.131,4.229-0.235c-0.105,0.561-0.185,1.068-0.236,1.522
			c-0.053,0.456-0.097,0.912-0.132,1.366c-0.035,0.456-0.062,0.946-0.078,1.471c-0.019,0.525-0.026,1.122-0.026,1.786v5.043
			c0,1.296,0.043,2.54,0.131,3.73s0.201,2.137,0.343,2.837c-0.632-0.105-1.218-0.185-1.761-0.236
			c-0.544-0.053-1.365-0.096-2.47-0.132c-1.104-0.034-2.627-0.062-4.569-0.079c-1.944-0.017-4.599-0.026-7.961-0.026
			c-3.467,0-6.173,0.01-8.115,0.026c-1.944,0.018-3.45,0.044-4.52,0.079c-1.068,0.036-1.865,0.079-2.391,0.132
			c-0.525,0.052-1.086,0.131-1.682,0.236c0.176-0.7,0.289-1.584,0.342-2.653c0.053-1.068,0.079-2.372,0.079-3.914v-5.043
			c0-1.366-0.026-2.513-0.079-3.441c-0.053-0.928-0.166-1.829-0.342-2.705c0.841,0.104,1.908,0.184,3.204,0.235
			C435.145,18.971,436.843,18.997,438.944,18.997z M460.432,21.624H434.32v4.886h26.11L460.432,21.624L460.432,21.624z
			 M460.432,28.979H434.32v4.466h26.11L460.432,28.979L460.432,28.979z"/>
		<path fill="#63666A" d="M498.678,38.436c0,3.013-0.104,5.561-0.314,7.645c-0.21,2.084-0.587,3.949-1.129,5.595
			c-0.544,1.647-1.287,3.197-2.233,4.649c-0.945,1.453-2.172,3.056-3.677,4.808c-0.456-0.596-0.964-1.007-1.524-1.234
			c-0.561-0.229-1.296-0.376-2.206-0.447c1.646-1.331,3.003-2.626,4.071-3.888s1.918-2.67,2.548-4.229
			c0.631-1.558,1.068-3.371,1.313-5.438s0.386-4.554,0.421-7.46c-1.401,0.035-2.637,0.088-3.704,0.157
			c-1.068,0.071-1.831,0.177-2.285,0.315v-3.415c0.56,0.176,1.681,0.298,3.362,0.368c1.681,0.071,4.045,0.104,7.093,0.104
			c1.715,0,3.178-0.009,4.387-0.025c1.208-0.019,2.215-0.044,3.021-0.079c0.806-0.034,1.443-0.087,1.918-0.157
			c0.473-0.07,0.849-0.14,1.129-0.21v3.415c-0.84-0.244-2.347-0.402-4.519-0.473v16.76c0,0.701,0.244,1.234,0.735,1.602
			c0.49,0.368,1.505,0.586,3.047,0.657c2.696,0.141,5.21,0.21,7.539,0.21s4.736-0.14,7.224-0.42
			c1.052-0.104,1.918-0.298,2.602-0.578c0.684-0.279,1.226-0.665,1.629-1.155c0.402-0.49,0.7-1.121,0.894-1.892
			c0.191-0.771,0.307-1.716,0.342-2.837c0.489,0.42,1.067,0.788,1.733,1.104c0.664,0.314,1.242,0.543,1.733,0.683
			c-0.491,2.312-1.428,4.142-2.812,5.49c-1.384,1.348-3.179,2.108-5.386,2.285c-2.416,0.21-4.921,0.288-7.513,0.235
			s-5.411-0.114-8.458-0.184c-1.331-0.036-2.399-0.142-3.205-0.315c-0.806-0.176-1.438-0.456-1.892-0.841
			c-0.455-0.386-0.763-0.876-0.92-1.471c-0.156-0.597-0.235-1.331-0.235-2.207V38.436H498.678z M528.046,27.193v-6.777h-35.199
			v7.146h-3.048v-9.982c0.946,0.035,1.971,0.071,3.074,0.105c1.103,0.034,2.451,0.062,4.045,0.079
			c1.594,0.017,3.502,0.034,5.727,0.052s4.896,0.025,8.013,0.025s5.778-0.008,7.984-0.025c2.207-0.018,4.1-0.035,5.676-0.052
			c1.574-0.019,2.924-0.045,4.045-0.079c1.12-0.034,2.136-0.07,3.047-0.105v9.614H528.046z M501.41,26.772
			c1.365,0,2.723-0.043,4.071-0.131c1.348-0.087,2.406-0.185,3.179-0.289v3.361c-0.771-0.14-1.831-0.245-3.179-0.314
			c-1.35-0.07-2.706-0.105-4.071-0.105c-1.332,0-2.68,0.036-4.046,0.105c-1.365,0.069-2.436,0.176-3.204,0.314v-3.361
			c0.77,0.104,1.839,0.202,3.204,0.289C498.73,26.729,500.078,26.772,501.41,26.772z M525.629,31.554
			c1.401-0.035,2.646-0.07,3.73-0.105c1.085-0.034,2.065-0.087,2.941-0.157v2.941c-0.876-0.069-1.856-0.122-2.941-0.157
			c-1.086-0.034-2.329-0.07-3.73-0.104V50.31c0,0.735-0.113,1.365-0.341,1.891c-0.229,0.525-0.685,0.964-1.366,1.313
			c-0.683,0.351-1.638,0.631-2.863,0.841c-1.227,0.21-2.837,0.333-4.833,0.368c0.069-0.7-0.062-1.357-0.395-1.971
			c-0.333-0.611-0.85-1.217-1.55-1.812c1.786,0.21,3.222,0.307,4.309,0.289c1.085-0.019,1.936-0.113,2.548-0.289
			c0.612-0.175,1.017-0.438,1.208-0.788c0.192-0.351,0.289-0.771,0.289-1.261V33.969h-3.939c-1.752,0-3.283,0.026-4.598,0.079
			c-1.313,0.054-2.479,0.114-3.494,0.185v-2.941c1.017,0.07,2.182,0.131,3.494,0.185c1.313,0.053,2.846,0.079,4.598,0.079h3.939
			c0-1.19-0.019-2.207-0.053-3.048c-0.035-0.84-0.07-1.575-0.104-2.207c-0.036-0.631-0.079-1.173-0.133-1.629
			c-0.053-0.455-0.113-0.875-0.184-1.261c0.875,0.281,1.593,0.456,2.154,0.525c0.56,0.069,1.138,0.069,1.732,0
			c0.525-0.07,0.831,0.104,0.919,0.524c0.087,0.42-0.097,0.735-0.552,0.945c-0.28,0.141-0.481,0.421-0.604,0.841
			c-0.122,0.42-0.185,0.823-0.185,1.208v4.1H525.629z M516.961,45.108c-0.525-1.121-1.2-2.268-2.021-3.441
			c-0.823-1.173-1.586-2.128-2.286-2.862l2.05-1.683c0.979,1.122,1.864,2.189,2.652,3.205c0.787,1.016,1.479,2.031,2.074,3.047
			L516.961,45.108z"/>
	</g>
	
		<rect x="352.577" y="1.497" transform="matrix(-0.7071 -0.7071 0.7071 -0.7071 604.4483 260.6016)" display="inline" fill="#EB8900" width="7.238" height="7.237"/>
	
		<rect x="321.649" y="1.497" transform="matrix(-0.7071 -0.7071 0.7071 -0.7071 551.6497 238.7318)" display="inline" fill="#EB8900" width="7.238" height="7.237"/>
	
		<rect x="383.189" y="1.484" transform="matrix(-0.7072 -0.707 0.707 -0.7072 656.7422 282.1994)" display="inline" fill="#EB8900" width="7.239" height="7.237"/>
	
		<rect x="351.657" y="28.305" transform="matrix(0.7071 0.7071 -0.7071 0.7071 127.6592 -242.198)" display="inline" fill="#EB8900" width="9.032" height="9.373"/>
	<polygon display="inline" fill="#EB8900" points="353.955,24.163 356.282,21.837 358.607,24.163 364.997,30.551 369.525,26.024 
		356.282,12.78 342.798,26.267 347.327,30.793 	"/>
	<polygon display="inline" fill="#EB8900" points="347.327,35.444 325.593,57.177 338.337,57.173 340.712,54.813 353.708,41.83 	"/>
	<polygon display="inline" fill="#EB8900" points="340.774,28.589 325.669,43.792 325.669,52.846 345.199,33.116 	"/>
	<polygon display="inline" fill="#EB8900" points="325.668,13.381 325.668,39.14 338.546,26.264 	"/>
	<polygon display="inline" fill="#EB8900" points="356.041,44.163 343.045,57.172 369.032,57.159 	"/>
	<polygon display="inline" fill="#EB8900" points="386.604,13.381 373.977,26.019 386.604,38.645 	"/>
	<polygon display="inline" fill="#EB8900" points="386.604,52.353 386.604,43.298 371.749,28.344 367.174,32.874 	"/>
	<polygon display="inline" fill="#EB8900" points="386.604,57.006 364.898,35.191 358.322,41.814 371.333,55.219 373.367,57.56 
		386.604,57.56 	"/>
	<g display="inline">
		<path fill="#EB8900" d="M82.882,124.846c-0.094,2.662-0.28,5.221-0.561,7.674c-0.28,2.452-0.713,4.904-1.296,7.357
			c-0.585,2.452-1.309,4.931-2.173,7.429c-0.865,2.5-1.904,5.127-3.118,7.885c-0.515-0.517-1.122-0.994-1.822-1.438
			c-0.701-0.443-1.519-0.781-2.453-1.016c1.354-2.195,2.511-4.485,3.469-6.868c0.957-2.382,1.728-4.986,2.312-7.812
			s1.016-5.945,1.296-9.355c0.281-3.41,0.421-7.219,0.421-11.423c0-2.522-0.012-4.637-0.035-6.343
			c-0.024-1.705-0.059-3.153-0.105-4.346c-0.047-1.19-0.117-2.172-0.21-2.942c-0.094-0.771-0.187-1.482-0.28-2.138
			c4.11-0.14,8.14-0.583,12.088-1.332c3.948-0.746,7.674-1.798,11.178-3.152c0.42,0.701,0.852,1.344,1.296,1.927
			c0.444,0.585,0.946,1.156,1.507,1.717c0.42,0.42,0.549,0.807,0.385,1.156c-0.164,0.35-0.572,0.41-1.226,0.175
			c-0.655-0.232-1.542-0.351-2.663-0.351s-2.453,0.188-3.995,0.561c-2.242,0.516-4.532,0.971-6.868,1.367
			c-2.336,0.397-4.719,0.736-7.148,1.016v4.695h10.792c2.103,0,4.041-0.046,5.817-0.14c1.775-0.093,3.387-0.233,4.835-0.42
			c-0.14,1.309-0.246,2.697-0.315,4.17c-0.07,1.472-0.105,3.234-0.105,5.291c0,2.477,0.046,4.509,0.14,6.097
			c0.093,1.589,0.187,2.71,0.281,3.364h-4.275v-2.804H82.882L82.882,124.846z M100.051,121.412v-8.41H82.882v8.41H100.051z
			 M88.208,154.278h-4.485c0.233-1.635,0.385-3.105,0.456-4.414c0.07-1.308,0.105-2.756,0.105-4.346v-8.619
			c0-1.215-0.012-2.207-0.035-2.979c-0.024-0.771-0.083-1.528-0.175-2.276c0.513,0.047,1.004,0.094,1.472,0.14
			c0.466,0.048,1.074,0.083,1.822,0.105c0.747,0.023,1.682,0.034,2.803,0.034s2.569,0,4.345,0c1.775,0,3.247,0,4.415,0
			c1.167,0,2.138-0.011,2.909-0.034c0.771-0.022,1.412-0.059,1.927-0.105c0.514-0.046,1.004-0.093,1.472-0.14
			c-0.094,0.606-0.164,1.296-0.21,2.066c-0.047,0.771-0.07,1.834-0.07,3.188v5.887c0,1.589,0.011,3.178,0.035,4.766
			c0.023,1.589,0.081,2.921,0.175,3.994h-4.205v-2.803H88.208V154.278z M100.962,135.778H88.208v9.601h12.754V135.778z
			 M113.366,111.881c-0.841,1.962-1.671,3.784-2.488,5.467c-0.818,1.683-1.624,3.2-2.418,4.556c-1.542-0.841-2.99-1.401-4.345-1.682
			c1.308-1.684,2.523-3.551,3.644-5.606c1.121-2.056,2.103-4.193,2.943-6.412c0.841-2.219,1.553-4.474,2.137-6.763
			s1.017-4.508,1.297-6.658c0.934,0.467,1.775,0.818,2.522,1.051c0.747,0.234,1.565,0.397,2.453,0.49
			c0.654,0.095,1.004,0.305,1.051,0.631c0.046,0.327-0.281,0.701-0.981,1.121c-0.467,0.28-0.876,0.76-1.226,1.438
			c-0.351,0.678-0.736,1.693-1.157,3.049c-0.327,1.027-0.655,2.009-0.981,2.942c-0.327,0.936-0.678,1.869-1.051,2.804h11.844
			c2.008,0,3.795-0.023,5.361-0.07c1.565-0.046,2.744-0.116,3.539-0.21v4.135c-0.561-0.093-1.426-0.163-2.593-0.21
			c-1.168-0.046-2.243-0.07-3.224-0.07c-0.328,3.831-0.701,7.323-1.122,10.479c-0.42,3.153-0.946,6.051-1.577,8.688
			c-0.631,2.641-1.355,5.035-2.172,7.184c-0.818,2.148-1.764,4.111-2.838,5.887c3.457,4.159,8.385,7.358,14.787,9.601
			c-0.888,0.515-1.566,1.088-2.032,1.719c-0.467,0.63-0.888,1.459-1.261,2.486c-2.943-1.447-5.537-3.024-7.779-4.729
			c-2.243-1.705-4.252-3.632-6.027-5.781c-1.729,2.149-3.738,4.076-6.027,5.781c-2.29,1.705-4.953,3.352-7.989,4.94
			c-0.467-0.842-0.935-1.483-1.401-1.928c-0.468-0.443-1.238-0.945-2.312-1.507c3.55-1.542,6.587-3.106,9.11-4.695
			c2.522-1.588,4.671-3.479,6.447-5.677c-1.962-3.083-3.481-6.562-4.555-10.44c-1.075-3.878-1.822-8.341-2.243-13.386l3.784-0.701
			c0.186,8.737,1.938,15.792,5.256,21.164c0.841-1.542,1.565-3.246,2.173-5.114c0.606-1.869,1.156-3.982,1.646-6.344
			c0.491-2.357,0.899-4.985,1.227-7.884c0.326-2.896,0.631-6.143,0.911-9.741h-12.333V111.881z"/>
		<path fill="#EB8900" d="M175.036,103.331c-1.962,0.188-4.042,0.363-6.237,0.526c-2.197,0.165-4.509,0.292-6.938,0.385
			c0-0.794-0.117-1.542-0.35-2.242c-0.234-0.701-0.701-1.448-1.402-2.243c2.008,0.328,4.356,0.491,7.043,0.491
			c2.686,0,5.419-0.128,8.199-0.386c2.779-0.256,5.442-0.618,7.989-1.086c2.546-0.467,4.706-1.027,6.482-1.683
			c0.373,0.655,0.759,1.286,1.156,1.893c0.396,0.607,0.782,1.099,1.156,1.472c1.261,1.31,0.957,1.752-0.911,1.332
			c-0.375-0.093-1.156-0.104-2.348-0.035c-1.191,0.07-3.259,0.292-6.202,0.666c-0.561,0.095-1.156,0.165-1.787,0.21
			c-0.63,0.047-1.273,0.117-1.927,0.21v6.377c1.775,0,3.316-0.021,4.625-0.069c1.308-0.046,2.488-0.093,3.539-0.141
			c1.051-0.046,2.043-0.115,2.979-0.21c0.934-0.093,1.938-0.187,3.013-0.279v4.204c-1.075-0.094-2.08-0.187-3.013-0.28
			c-0.936-0.093-1.939-0.163-3.014-0.21c-1.075-0.046-2.267-0.093-3.574-0.142c-1.309-0.045-2.828-0.068-4.555-0.068v4.765
			c2.102,0,3.854-0.011,5.256-0.035c1.401-0.021,2.569-0.068,3.504-0.14c0.934-0.07,1.693-0.151,2.277-0.245s1.132-0.187,1.647-0.28
			c-0.094,1.822-0.14,3.458-0.14,4.905c0,1.449,0,3.201,0,5.256c0,0.89,0,1.717,0,2.488c0,0.771,0.023,1.541,0.07,2.312
			c0.046,0.771,0.093,1.576,0.14,2.418c0.046,0.842,0.116,1.775,0.21,2.804c-0.42-0.094-0.946-0.177-1.577-0.245
			c-0.631-0.07-1.437-0.128-2.418-0.175c-0.981-0.048-2.196-0.082-3.644-0.105c-1.449-0.022-3.224-0.035-5.326-0.035v4.905
			c2.382,0,4.543-0.035,6.482-0.104c1.938-0.069,3.562-0.198,4.871-0.386v3.994c-1.309-0.14-2.932-0.245-4.871-0.315
			c-1.939-0.069-4.1-0.128-6.482-0.175v5.956c2.849-0.373,5.454-0.746,7.813-1.121c2.359-0.373,4.286-0.746,5.782-1.121
			c-0.28,0.701-0.468,1.392-0.561,2.067c-0.094,0.678-0.07,1.251,0.07,1.717c-2.242,0.188-4.812,0.456-7.708,0.807
			c-2.897,0.352-5.864,0.746-8.9,1.19c-3.038,0.444-5.992,0.912-8.865,1.402s-5.408,0.944-7.604,1.366
			c0.093-0.936,0.035-1.787-0.175-2.559c-0.21-0.771-0.573-1.553-1.086-2.348c2.803,0,5.677-0.094,8.62-0.28
			c2.943-0.186,5.839-0.421,8.689-0.701v-6.377c-2.803,0-5.315,0.024-7.533,0.07c-2.22,0.047-4.054,0.187-5.501,0.42v-3.994
			c1.495,0.234,3.34,0.374,5.537,0.421c2.195,0.047,4.695,0.069,7.498,0.069v-4.905c-2.43,0-4.392,0.012-5.886,0.035
			c-1.496,0.023-2.71,0.059-3.645,0.105s-1.659,0.104-2.172,0.175c-0.515,0.068-0.981,0.151-1.401,0.245
			c0.046-1.074,0.093-2.032,0.14-2.873c0.046-0.842,0.081-1.636,0.105-2.384c0.023-0.746,0.035-1.493,0.035-2.241
			c0-0.747,0-1.588,0-2.523c0-1.027,0-1.95,0-2.768c0-0.818-0.012-1.612-0.035-2.384c-0.024-0.771-0.059-1.553-0.105-2.348
			c-0.047-0.794-0.094-1.682-0.14-2.663c0.981,0.234,2.463,0.409,4.45,0.525c1.985,0.117,4.871,0.175,8.655,0.175v-4.765
			c-3.644,0.047-6.657,0.116-9.04,0.21c-2.383,0.094-4.625,0.258-6.728,0.489v-4.203c2.103,0.233,4.345,0.396,6.728,0.489
			c2.383,0.095,5.396,0.164,9.04,0.21L175.036,103.331L175.036,103.331z M175.036,119.52h-8.9v5.396h8.9V119.52z M175.036,127.509
			h-8.9v5.467h8.9V127.509z M178.96,124.916h8.76v-5.396h-8.76V124.916z M178.96,132.975h8.76v-5.467h-8.76V132.975z
			 M205.801,114.403c-0.188,6.262-0.526,11.623-1.017,16.084c-0.49,4.462-1.238,8.387-2.242,11.772
			c-1.005,3.389-2.337,6.437-3.995,9.146c-1.659,2.709-3.749,5.467-6.272,8.27c-0.655-0.795-1.296-1.391-1.927-1.786
			c-0.631-0.397-1.554-0.714-2.768-0.945c2.523-1.869,4.683-4.021,6.482-6.447c1.798-2.43,3.27-5.326,4.415-8.689
			c1.145-3.364,1.998-7.288,2.558-11.773c0.56-4.485,0.864-9.693,0.911-15.628c-1.589,0.048-3.002,0.117-4.24,0.211
			c-1.239,0.094-2.325,0.21-3.259,0.351v-4.415c0.934,0.141,1.973,0.258,3.119,0.351c1.144,0.095,2.604,0.165,4.38,0.211
			c0-2.569-0.012-4.766-0.035-6.588c-0.024-1.822-0.07-3.363-0.14-4.625s-0.152-2.312-0.245-3.153
			c-0.094-0.841-0.188-1.564-0.28-2.173c1.074,0.28,2.032,0.479,2.873,0.596c0.841,0.117,1.658,0.129,2.453,0.035
			c0.467-0.046,0.794,0.175,0.981,0.666c0.186,0.49-0.024,0.993-0.631,1.507c-0.14,0.141-0.27,0.362-0.385,0.666
			c-0.117,0.305-0.21,0.911-0.281,1.822c-0.07,0.911-0.14,2.255-0.21,4.03c-0.07,1.775-0.129,4.205-0.175,7.289
			c2.008,0,3.667-0.013,4.976-0.035c1.308-0.023,2.418-0.06,3.329-0.105c0.911-0.046,1.693-0.115,2.348-0.21
			c0.654-0.093,1.308-0.187,1.962-0.279l-1.051,39.104c-0.047,1.776-0.199,3.212-0.456,4.311c-0.257,1.098-0.806,1.984-1.646,2.662
			c-0.841,0.679-2.08,1.191-3.714,1.542c-1.636,0.352-3.854,0.688-6.658,1.018c-0.047-1.822-0.841-3.762-2.382-5.816
			c2.428,0.42,4.355,0.618,5.781,0.597c1.425-0.024,2.499-0.259,3.224-0.701c0.724-0.444,1.191-1.133,1.402-2.067
			c0.21-0.934,0.338-2.147,0.385-3.644l0.911-33.148h-8.481V114.403z"/>
		<path fill="#EB8900" d="M255.487,146.851c-0.608,0-1.426,0.7-2.453,2.103c-0.42,0.562-0.97,1.238-1.646,2.032
			c-0.678,0.795-1.437,1.658-2.278,2.593c-0.841,0.936-1.729,1.88-2.663,2.838c-0.935,0.957-1.846,1.857-2.733,2.698
			c-0.515-0.795-1.028-1.426-1.542-1.893c-0.515-0.468-1.239-0.957-2.173-1.472c2.148-1.354,4.298-3.119,6.447-5.291
			c2.148-2.173,3.948-4.66,5.396-7.464c0.653,0.607,1.214,1.04,1.682,1.297c0.466,0.257,1.121,0.572,1.962,0.946
			c0.514,0.233,0.747,0.561,0.701,0.979C256.141,146.641,255.907,146.851,255.487,146.851z M270.624,141.034
			c-0.655-0.046-1.321-0.094-1.998-0.141c-0.678-0.046-1.472-0.094-2.383-0.141c-0.911-0.046-2.009-0.069-3.293-0.069
			c-1.286,0-2.862,0-4.73,0c-1.869,0-3.469,0-4.8,0s-2.465,0.023-3.399,0.069c-0.935,0.047-1.752,0.095-2.453,0.141
			c-0.701,0.047-1.355,0.095-1.962,0.141c0.093-0.841,0.163-1.811,0.21-2.908c0.046-1.098,0.07-2.604,0.07-4.521v-27.19
			c0-1.401-0.024-2.769-0.07-4.1c-0.047-1.332-0.117-2.324-0.21-2.979c0.607,0.047,1.214,0.095,1.822,0.141
			c0.606,0.047,1.366,0.082,2.277,0.104c0.911,0.024,2.055,0.035,3.434,0.035c1.377,0,3.119,0,5.221,0c1.962,0,3.597,0,4.906,0
			c1.307,0,2.417-0.011,3.329-0.035c0.911-0.022,1.67-0.058,2.277-0.104c0.607-0.046,1.191-0.094,1.752-0.141
			c-0.094,0.655-0.165,1.646-0.21,2.979c-0.047,1.331-0.07,2.698-0.07,4.1v27.19c0,1.4,0.023,2.792,0.07,4.17
			C270.459,139.153,270.53,140.24,270.624,141.034z M266.279,103.051h-16.118v9.321h16.118V103.051z M266.279,115.876h-16.118v8.83
			h16.118V115.876z M266.279,128.279h-16.118v9.04h16.118V128.279z M269.853,157.082c-1.496-2.383-2.956-4.462-4.38-6.236
			c-1.426-1.774-3.025-3.574-4.801-5.396l3.294-2.383c1.121,1.216,2.113,2.324,2.979,3.329c0.864,1.005,1.658,1.962,2.382,2.873
			c0.724,0.91,1.39,1.811,1.998,2.696c0.606,0.889,1.237,1.8,1.892,2.733L269.853,157.082z M272.446,110.899
			c1.308,0.095,2.604,0.176,3.89,0.246c1.284,0.069,2.663,0.129,4.134,0.175c1.472,0.047,3.083,0.082,4.835,0.104
			c1.752,0.024,3.725,0.034,5.922,0.034c0-8.222-0.187-13.407-0.561-15.557c1.167,0.28,2.09,0.479,2.768,0.596
			c0.677,0.117,1.482,0.152,2.417,0.104c0.747-0.046,1.18,0.069,1.297,0.351c0.116,0.28-0.083,0.585-0.596,0.911
			c-0.375,0.234-0.655,0.631-0.841,1.191c-0.187,0.561-0.28,1.098-0.28,1.611v10.723c1.402-0.047,2.756-0.105,4.065-0.176
			c1.307-0.069,2.919-0.176,4.835-0.315v4.626c-2.009-0.093-3.656-0.176-4.941-0.245c-1.285-0.07-2.605-0.129-3.959-0.176v36.301
			c0,1.308-0.152,2.429-0.456,3.364c-0.304,0.934-0.9,1.691-1.787,2.276c-0.888,0.584-2.126,1.018-3.714,1.297
			c-1.589,0.28-3.668,0.42-6.237,0.42c0.046-1.027-0.07-2.031-0.35-3.013c-0.28-0.98-0.795-1.893-1.542-2.732
			c2.103,0.421,3.795,0.677,5.081,0.771c1.284,0.094,2.277,0,2.978-0.28c0.701-0.279,1.18-0.747,1.437-1.4
			c0.256-0.654,0.385-1.542,0.385-2.663v-26.489c-0.981,2.056-2.009,4.064-3.083,6.026c-1.075,1.962-2.277,3.937-3.609,5.922
			c-1.332,1.986-2.815,4.019-4.45,6.097c-1.636,2.079-3.481,4.265-5.536,6.553c-0.655-0.746-1.273-1.308-1.857-1.683
			c-0.584-0.373-1.414-0.7-2.488-0.98c3.925-3.271,7.685-7.464,11.283-12.578c3.597-5.116,6.844-10.852,9.741-17.205
			c-2.337,0-4.392,0.012-6.167,0.035c-1.776,0.023-3.388,0.047-4.835,0.069c-1.449,0.023-2.792,0.07-4.029,0.141
			c-1.239,0.069-2.488,0.13-3.75,0.176V110.899L272.446,110.899z"/>
		<path fill="#EB8900" d="M354.579,102.42c-0.42-0.98-0.9-1.868-1.437-2.663c-0.538-0.794-1.25-1.728-2.138-2.803l4.906-1.892
			c0.654,1.215,1.214,2.372,1.682,3.469c0.467,1.098,0.957,2.395,1.473,3.889c6.634,0,12.064-0.046,16.293-0.14
			c4.228-0.093,7.463-0.256,9.705-0.491v12.614h-4.625v-8.689h-48.495v9.251h-4.625V101.79c1.121,0.094,2.464,0.188,4.029,0.281
			s3.434,0.164,5.606,0.21c2.172,0.047,4.707,0.082,7.604,0.104C347.454,102.409,350.794,102.42,354.579,102.42z M337.689,159.044
			h-4.625c0.093-0.653,0.175-1.285,0.245-1.892c0.07-0.608,0.116-1.251,0.14-1.928c0.023-0.679,0.046-1.426,0.07-2.242
			c0.023-0.817,0.035-1.787,0.035-2.908v-10.372c0-1.121-0.035-2.253-0.105-3.397c-0.07-1.146-0.175-2.185-0.315-3.119
			c2.523,0.188,5.711,0.328,9.566,0.421c3.854,0.095,8.584,0.14,14.191,0.14s10.359-0.045,14.261-0.14
			c3.899-0.093,7.113-0.233,9.637-0.421c-0.188,0.936-0.316,1.975-0.387,3.119c-0.07,1.146-0.105,2.276-0.105,3.397v8.83
			c0,1.916,0.035,3.563,0.105,4.94c0.07,1.378,0.199,2.722,0.387,4.029h-4.627v-2.663h-38.473V159.044z M356.401,109.919
			c2.429,0,4.589-0.011,6.482-0.035c1.893-0.022,3.609-0.058,5.15-0.104c1.543-0.046,2.967-0.104,4.275-0.175
			c1.307-0.07,2.614-0.151,3.924-0.245v4.205c-1.31-0.095-2.617-0.176-3.924-0.246c-1.31-0.07-2.732-0.128-4.275-0.175
			c-1.541-0.046-3.234-0.081-5.08-0.105c-1.846-0.021-3.984-0.035-6.412-0.035c-2.43,0-4.58,0.014-6.447,0.035
			c-1.869,0.024-3.574,0.061-5.116,0.105c-1.542,0.047-2.978,0.104-4.31,0.175s-2.652,0.151-3.959,0.246v-4.205
			c1.307,0.094,2.616,0.175,3.924,0.245c1.308,0.069,2.733,0.129,4.275,0.175c1.542,0.047,3.234,0.083,5.081,0.104
			C351.833,109.908,353.971,109.919,356.401,109.919z M354.789,142.716v-5.887h-17.1v5.887H354.789z M337.689,145.8v5.888h17.1
			V145.8H337.689z M374.061,129.611c-1.963-0.093-4.393-0.163-7.289-0.21c-2.896-0.047-6.424-0.07-10.581-0.07
			c-4.299,0-7.873,0.023-10.722,0.07c-2.85,0.047-5.163,0.117-6.938,0.21c0.14-0.981,0.246-1.928,0.315-2.839
			c0.07-0.91,0.105-2.021,0.105-3.328c0-1.168-0.035-2.23-0.105-3.189c-0.07-0.956-0.175-1.996-0.315-3.117
			c1.775,0.141,4.135,0.233,7.078,0.279c2.943,0.047,6.493,0.07,10.652,0.07c4.485,0,8.129-0.023,10.932-0.07
			c2.804-0.046,5.093-0.14,6.867-0.279c-0.047,0.888-0.094,1.856-0.141,2.907c-0.047,1.053-0.07,2.186-0.07,3.399
			C373.85,125.594,373.92,127.649,374.061,129.611z M369.646,120.571h-26.631v5.676h26.631V120.571z M376.162,142.716v-5.887
			h-17.238v5.887H376.162z M358.924,145.8v5.888h17.238V145.8H358.924z"/>
		<path fill="#EB8900" d="M438.744,107.606c0-1.167-0.014-2.336-0.035-3.504c-0.024-1.167-0.07-2.267-0.141-3.294
			s-0.141-1.95-0.21-2.769c-0.07-0.816-0.152-1.482-0.245-1.998c2.147,0.516,3.946,0.748,5.396,0.701
			c0.841-0.046,1.309,0.07,1.401,0.35c0.094,0.281-0.21,0.632-0.91,1.052c-0.375,0.233-0.631,0.76-0.771,1.577
			c-0.14,0.816-0.209,2.113-0.209,3.889v3.995c3.082,0,5.642,0,7.674,0c2.031,0,3.783-0.023,5.256-0.07
			c1.472-0.046,2.756-0.093,3.854-0.14c1.098-0.046,2.253-0.116,3.47-0.21v4.345c-1.217-0.093-2.337-0.163-3.364-0.21
			c-1.028-0.046-2.242-0.093-3.645-0.14c-1.401-0.048-3.143-0.07-5.221-0.07c-2.08,0-4.755,0-8.023,0v11.353
			c3.783,0,7.03-0.011,9.74-0.034c2.709-0.022,5.092-0.047,7.147-0.069c2.055-0.023,3.864-0.06,5.432-0.105
			c1.564-0.046,3.071-0.115,4.521-0.211v4.275c-1.355-0.046-2.745-0.105-4.169-0.176c-1.427-0.069-2.991-0.115-4.695-0.141
			c-1.706-0.021-3.609-0.046-5.712-0.069c-2.104-0.022-4.485-0.034-7.148-0.034c3.737,5.84,7.615,10.581,11.634,14.226
			s8.082,6.331,12.193,8.061c-0.841,0.795-1.507,1.482-1.997,2.065c-0.49,0.585-1.04,1.344-1.646,2.277
			c-2.57-1.447-4.94-3.083-7.113-4.905c-2.173-1.821-4.229-3.83-6.167-6.025c-1.939-2.195-3.773-4.591-5.501-7.185
			c-1.729-2.593-3.436-5.431-5.116-8.514h-1.4v19.48c0,0.841,0.011,1.812,0.034,2.908c0.022,1.099,0.07,2.243,0.141,3.435
			c0.069,1.19,0.15,2.394,0.246,3.608c0.093,1.214,0.186,2.312,0.279,3.294h-5.605c0.093-0.889,0.175-1.916,0.245-3.084
			c0.069-1.168,0.14-2.371,0.21-3.608c0.069-1.236,0.116-2.429,0.141-3.573c0.022-1.146,0.035-2.138,0.035-2.979v-19.48h-2.383
			c-1.638,3.083-3.236,5.875-4.802,8.374c-1.564,2.5-3.259,4.858-5.08,7.078s-3.854,4.345-6.098,6.377
			c-2.243,2.031-4.858,4.146-7.849,6.342c-0.421-0.98-0.946-1.752-1.577-2.312c-0.631-0.56-1.46-1.051-2.487-1.472
			c2.804-1.682,5.326-3.397,7.568-5.15c2.242-1.752,4.31-3.608,6.202-5.57c1.892-1.962,3.667-4.064,5.326-6.309
			c1.656-2.241,3.305-4.694,4.939-7.356c-8.83,0-15.933,0.14-21.305,0.42v-4.275c1.635,0.096,3.154,0.165,4.556,0.211
			c1.401,0.047,3.061,0.095,4.977,0.141c1.915,0.048,4.273,0.069,7.078,0.069c2.803,0,6.446,0,10.933,0V111.11
			c-3.131,0-5.747,0-7.85,0c-2.104,0-3.925,0.022-5.467,0.07c-1.542,0.047-2.886,0.094-4.028,0.14
			c-1.146,0.047-2.349,0.117-3.609,0.21v-4.345c1.262,0.094,2.44,0.165,3.539,0.21c1.097,0.047,2.383,0.094,3.854,0.14
			c1.473,0.047,3.271,0.07,5.396,0.07S435.426,107.606,438.744,107.606z"/>
		<path fill="#EB8900" d="M521.857,108.728c-5.842,0-10.664,0.047-14.473,0.14c-3.809,0.094-7.066,0.21-9.775,0.35v-4.765
			c1.447,0.14,2.85,0.257,4.205,0.35c1.354,0.096,2.919,0.165,4.694,0.211c1.775,0.047,3.877,0.083,6.308,0.104
			c2.429,0.024,5.441,0.035,9.041,0.035c0-1.542,0-2.849,0-3.924c0-1.074-0.024-2.008-0.07-2.804
			c-0.047-0.794-0.095-1.481-0.141-2.066c-0.048-0.583-0.117-1.132-0.211-1.646c2.057,0.468,3.9,0.7,5.536,0.7
			c0.888,0,1.401,0.165,1.542,0.491c0.141,0.327-0.188,0.771-0.98,1.331c-0.841,0.607-1.262,1.706-1.262,3.294v4.625
			c3.645,0,6.738-0.011,9.285-0.035c2.546-0.021,4.753-0.058,6.622-0.104c1.868-0.047,3.527-0.116,4.977-0.21
			c1.447-0.094,2.92-0.211,4.415-0.351v4.765c-1.448-0.046-2.886-0.104-4.311-0.175c-1.426-0.069-3.083-0.128-4.976-0.175
			c-1.894-0.046-4.124-0.081-6.692-0.104c-2.57-0.023-5.677-0.035-9.32-0.035v16.679c1.867,2.71,4.029,5.28,6.481,7.709
			c2.453,2.43,4.999,4.59,7.639,6.482c2.641,1.892,5.279,3.469,7.919,4.729c2.641,1.262,5.104,2.08,7.395,2.453
			c-0.7,0.655-1.262,1.297-1.683,1.928s-0.864,1.555-1.331,2.769c-3.552-1.729-6.692-3.435-9.426-5.115
			c-2.732-1.684-5.15-3.387-7.254-5.116c-2.102-1.728-3.937-3.479-5.501-5.256c-1.564-1.774-2.979-3.597-4.239-5.466v16.538
			c0,1.775,0.034,3.714,0.104,5.815c0.07,2.103,0.176,4.182,0.315,6.237h-5.396c0.186-2.196,0.326-4.31,0.42-6.342
			c0.093-2.032,0.141-3.937,0.141-5.712v-16.68c-2.896,3.926-6.4,7.64-10.513,11.144s-9.017,6.962-14.716,10.372
			c-0.701-1.822-1.986-3.2-3.854-4.136c2.85-0.888,5.677-2.138,8.479-3.748c2.803-1.612,5.477-3.436,8.023-5.468
			c2.546-2.031,4.894-4.216,7.044-6.553c2.146-2.335,3.993-4.695,5.535-7.077v-16.188H521.857z M507.07,121.622
			c-1.028,1.589-2.174,3.201-3.435,4.836c-1.262,1.636-2.616,3.247-4.063,4.835c-0.655-0.747-1.321-1.354-1.998-1.821
			c-0.678-0.467-1.46-0.816-2.348-1.052c5.605-3.41,9.856-9.155,12.755-17.238c0.794,0.374,1.528,0.688,2.207,0.944
			c0.677,0.258,1.39,0.48,2.138,0.666c0.747,0.188,1.086,0.468,1.017,0.841c-0.069,0.375-0.361,0.608-0.876,0.701
			c-0.375,0.095-0.864,0.468-1.472,1.121c-0.608,0.655-1.332,1.683-2.173,3.083c2.103,1.402,3.83,2.652,5.186,3.75
			c1.354,1.098,2.569,2.185,3.646,3.258l-3.153,2.733c-1.309-1.494-2.559-2.756-3.749-3.784
			C509.559,123.468,508.332,122.51,507.07,121.622z M538.186,120.711c-0.841,1.589-1.658,3.015-2.452,4.274
			c-0.796,1.262-1.706,2.617-2.732,4.064c-0.608-0.653-1.204-1.156-1.787-1.507c-0.585-0.351-1.344-0.642-2.278-0.876
			c2.523-2.383,4.485-4.882,5.888-7.499c1.401-2.614,2.499-5.209,3.294-7.777c1.588,0.699,3.06,1.237,4.415,1.61
			c0.561,0.142,0.852,0.387,0.876,0.736c0.022,0.351-0.223,0.62-0.735,0.806c-0.748,0.234-1.729,1.379-2.942,3.435
			c2.476,1.401,4.612,2.793,6.411,4.17c1.798,1.379,3.516,2.861,5.15,4.45l-3.013,2.872
			C545.193,125.733,541.83,122.813,538.186,120.711z"/>
		<path fill="#EB8900" d="M613.451,109.078c-0.047-2.709-0.095-4.929-0.142-6.658c-0.047-1.728-0.104-3.119-0.175-4.169
			c-0.069-1.052-0.151-1.88-0.245-2.487c-0.095-0.606-0.188-1.167-0.279-1.683c1.073,0.28,2.02,0.479,2.838,0.596
			c0.815,0.117,1.691,0.176,2.628,0.176c1.447,0,1.635,0.538,0.561,1.611c-0.188,0.141-0.351,0.584-0.49,1.331
			c-0.141,0.748-0.258,1.683-0.351,2.805c-0.094,1.121-0.164,2.417-0.21,3.889c-0.048,1.472-0.07,3.002-0.07,4.59
			c4.625,0,8.503-0.07,11.633-0.21c3.131-0.14,5.794-0.35,7.989-0.631v4.906c-2.148-0.188-4.812-0.315-7.989-0.387
			c-3.178-0.069-7.055-0.104-11.633-0.104c0.046,3.178,0.151,6.027,0.315,8.551c0.163,2.522,0.373,4.765,0.631,6.728
			c0.256,1.963,0.561,3.702,0.911,5.222c0.35,1.519,0.711,2.862,1.086,4.029c1.308,3.925,2.803,6.997,4.485,9.216
			c1.682,2.219,3.315,3.796,4.904,4.729c0.888,0.516,1.601,0.854,2.139,1.018c0.536,0.163,0.979,0.069,1.331-0.28
			c0.351-0.35,0.605-1.004,0.771-1.962c0.164-0.957,0.315-2.324,0.456-4.101c1.354,1.401,2.873,2.242,4.555,2.522
			c-0.561,2.477-1.155,4.426-1.787,5.852c-0.63,1.426-1.319,2.43-2.066,3.015c-0.747,0.583-1.576,0.806-2.487,0.665
			s-1.904-0.537-2.979-1.191c-3.179-1.869-5.935-4.474-8.271-7.812s-4.111-7.276-5.326-11.809c-0.279-1.074-0.561-2.324-0.841-3.75
			c-0.28-1.424-0.55-3.105-0.806-5.045c-0.257-1.938-0.469-4.182-0.631-6.729c-0.164-2.545-0.292-5.501-0.386-8.865h-14.437
			c-3.646,0-6.611,0-8.9,0s-4.192,0.013-5.711,0.035c-1.52,0.023-2.793,0.069-3.818,0.141c-1.028,0.07-2.104,0.152-3.225,0.245
			v-4.835c1.121,0.14,2.277,0.27,3.469,0.385c1.191,0.117,2.594,0.21,4.204,0.28c1.612,0.07,3.517,0.117,5.712,0.141
			c2.195,0.024,4.883,0.035,8.061,0.035h14.576V109.078z M598.734,146.29c2.241-0.561,4.508-1.202,6.798-1.928
			c2.288-0.724,4.625-1.529,7.008-2.417c-0.141,0.841-0.199,1.624-0.175,2.348c0.021,0.726,0.104,1.507,0.245,2.349
			c-2.104,0.515-4.592,1.146-7.464,1.892c-2.873,0.748-5.781,1.521-8.726,2.312c-2.942,0.795-5.747,1.576-8.409,2.348
			c-2.663,0.771-4.812,1.413-6.446,1.928c-0.188-1.075-0.445-2.032-0.771-2.873c-0.327-0.842-0.771-1.729-1.331-2.664
			c2.522-0.231,5.092-0.548,7.708-0.944s5.092-0.853,7.429-1.367v-22.425c-2.803,0-5.21,0.06-7.218,0.175
			c-2.01,0.117-3.784,0.293-5.326,0.524v-4.765c1.729,0.234,3.68,0.409,5.853,0.525s4.87,0.175,8.094,0.175s5.945-0.059,8.164-0.175
			s4.17-0.291,5.854-0.525v4.765c-1.449-0.231-3.073-0.396-4.871-0.489c-1.8-0.094-3.938-0.163-6.412-0.21v21.442H598.734z
			 M629.009,107.466c-0.98-1.773-2.01-3.375-3.084-4.8c-1.075-1.424-2.337-2.838-3.784-4.24l3.015-2.593
			c1.446,1.589,2.825,3.188,4.135,4.8c1.308,1.612,2.429,3.073,3.363,4.381L629.009,107.466z"/>
	</g>
	<g display="inline">
		<polygon fill="#FFFFFF" points="716,220.277 0,220.277 0,33.094 128.956,33.094 128.956,43.094 10,43.094 10,210.277 706,210.277 
			706,43.094 587.766,43.094 587.766,33.094 716,33.094 		"/>
	</g>
</g>
<g id="Layer_2">
	<g>
		<g>
			<g>
				
					<rect x="352.564" y="1.521" transform="matrix(-0.7072 0.707 -0.707 -0.7072 611.6541 -243.0804)" fill="#EB8900" width="7.199" height="7.199"/>
			</g>
			<g>
				
					<rect x="321.65" y="1.491" transform="matrix(-0.7072 0.707 -0.707 -0.7072 558.8785 -221.2516)" fill="#EB8900" width="7.2" height="7.199"/>
			</g>
			<g>
				
					<rect x="383.148" y="1.505" transform="matrix(-0.7071 0.7071 -0.7071 -0.7071 663.8156 -264.7696)" fill="#EB8900" width="7.198" height="7.2"/>
			</g>
			<g>
				
					<rect x="351.464" y="28.483" transform="matrix(-0.707 0.7072 -0.7072 -0.707 631.306 -195.5729)" fill="#EB8900" width="9.399" height="8.998"/>
			</g>
			<g>
				<polygon fill="#EB8900" points="353.965,24.196 356.265,21.796 358.564,24.196 364.965,30.595 369.463,25.996 356.265,12.797 
					342.766,26.296 347.266,30.796 				"/>
			</g>
			<g>
				<polygon fill="#EB8900" points="347.266,35.395 325.568,57.193 338.267,57.193 340.667,54.793 353.665,41.794 				"/>
			</g>
			<g>
				<polygon fill="#EB8900" points="340.766,28.596 325.667,43.794 325.667,52.793 345.166,33.095 				"/>
			</g>
			<g>
				<polygon fill="#EB8900" points="325.667,13.397 325.667,39.095 338.466,26.296 				"/>
			</g>
			<g>
				<polygon fill="#EB8900" points="355.965,44.194 342.966,57.193 368.963,57.193 				"/>
			</g>
			<g>
				<polygon fill="#EB8900" points="386.562,13.397 373.963,25.996 386.562,38.594 				"/>
			</g>
			<g>
				<polygon fill="#EB8900" points="386.562,52.393 386.562,43.294 371.664,28.296 367.164,32.895 				"/>
			</g>
			<g>
				<polygon fill="#EB8900" points="386.562,56.993 364.863,35.195 358.265,41.794 371.264,55.193 373.363,57.593 386.562,57.593 
									"/>
			</g>
		</g>
		<g>
			<path fill="#63666A" d="M199.681,53.493c-6.7,2.6-12.599,4.5-17.798,5.699l-1.2-4.5c1.2-0.2,2-0.4,2.4-0.6V33.995h4.1v19.198
				c0.7-0.1,1.6-0.4,2.6-0.7V30.396h-7.099V14.997h15.298v15.398h-3.799v6.899h5.099v4.3h-5.099v9.399
				c2.299-0.8,3.999-1.4,5.099-1.8L199.681,53.493z M193.581,25.996v-6.799h-6.399v6.799H193.581z M223.478,36.495h-17.599v16.898
				c1.8-0.6,4.2-1.7,7.099-3.3l0.1,4.9c-3,1.6-6.699,3.1-11.099,4.599l-1.7-3.799c0.7-0.6,1.1-1.2,1.1-1.8V14.897h22.197v21.598
				H223.478z M218.878,23.496v-4.399h-12.999v4.399H218.878z M218.878,32.195v-4.6h-12.999v4.6H218.878z M227.478,56.193l-3.1,3.6
				c-7.299-4.799-12.199-11.299-14.798-19.798l4.299-1.3c0.5,1.799,1.3,3.799,2.4,5.999c2.299-1.6,4.399-3.699,6.399-6.299
				l3.299,3.1c-2,2.5-4.499,4.8-7.299,6.799C220.979,51.393,223.978,53.993,227.478,56.193z"/>
			<path fill="#63666A" d="M289.971,36.995h-14.898c-1.8,1.1-4.1,2.4-6.899,3.6h16.198v18.898h-4.599v-2.1h-21.498v2.1h-4.6V46.194
				c-3.299,0.9-5.899,1.5-7.899,1.9l-2.1-3.8c8.899-1.7,16.799-4.1,23.698-7.2h-23.297v-3.699h19.198v-3.1h-14.398v-3.7h14.398
				v-3.599h4.6v3.399h9.699v3.7h-9.699v3.1h5.699c3.1-1.8,6.7-4.699,10.599-8.899l3.899,1.9c-1.899,2.2-4.399,4.499-7.499,6.999
				h9.398V36.995L289.971,36.995z M265.774,20.696h-5.899v3.6h-4.6v-3.6h-11.199v-3.799h11.199v-3.3h4.6v3.3h5.899V20.696z
				 M279.772,47.294v-3h-20.398c-0.3,0.1-0.6,0.3-1.1,0.4v2.5h21.498V47.294z M279.772,53.893v-3.1h-21.498v3.1H279.772z
				 M289.671,20.696h-10.999v3.6h-4.6v-3.6h-5.899v-3.799h5.899v-3.3h4.6v3.3h10.999V20.696z"/>
			<path fill="#63666A" d="M471.055,58.293h-45.797v-3.7h20.498v-4h-16.799v-3.6h16.9v-3.7h-18.9v-3.7h42.297v3.7h-18.598v3.7
				h16.896v3.7h-16.896v4h20.398V58.293z M466.154,35.995h-35.697V17.797h8.199c1.301-1.8,2.199-3.3,2.701-4.6l4.699,1.2
				c-0.6,1.3-1.301,2.5-2.102,3.4h22.199V35.995L466.154,35.995z M461.355,24.996v-3.5h-26.098v3.5H461.355z M461.355,32.395v-3.6
				h-26.098v3.6H461.355z"/>
			<path fill="#63666A" d="M534.346,49.294c-0.197,3.7-0.799,6.199-1.799,7.5c-1,1.3-2.498,2-4.301,2.199
				c-1.898,0.1-5.896,0.2-12.197,0.2c-2.699,0-5.199,0-7.398-0.1s-3.699-0.6-4.4-1.6c-0.699-1-1.1-2.399-1.1-4.1V37.995h-4
				c0,6.1-0.699,10.699-1.998,13.898c-1.301,3.2-3.4,5.799-6.1,7.899l-3.002-3.6c4.502-3.4,6.602-9.399,6.4-18.198h-5.398v-4.199
				h22.297v4.199h-3.699v15.398c0,0.6,0.199,0.899,0.699,1.1s3.998,0.3,10.799,0.3c4.9,0,7.699-0.1,8.398-0.2
				c0.699-0.2,1.201-0.5,1.602-1.1c0.299-0.6,0.6-2.5,0.799-5.7L534.346,49.294z M533.047,25.396h-4.699v-6.499h-34.096v5.799
				h14.797v4.1h-15.996v-3.5h-3.502V14.697h43.496V25.396z M533.646,32.595h-6.799v15.198c0,1.5-0.5,2.7-1.5,3.5
				c-1,0.8-3.398,1.1-7.299,1l-1.699-4.5c0.898,0,2.6-0.1,5.1-0.1c0.201,0,0.299-0.1,0.5-0.3c0.199-0.2,0.199-0.4,0.199-0.6V32.595
				H511.75v-4.2h10.398v-5.899h4.6v5.899h6.799v4.2H533.646z M521.148,42.695l-4,2.4c-1.1-2.5-2.699-5.3-4.998-8.399l3.699-2.5
				C517.85,36.395,519.549,39.195,521.148,42.695z"/>
		</g>
		<g>
			<path fill="#EB8900" d="M106.79,99.189c-7.1,2-14.899,3.299-23.398,4.1v4.1h20.498v17.497H83.292
				c0,14.199-1.6,24.698-4.799,31.397l-5.399-3.999c2.9-6.2,4.299-15.499,4.299-27.997V97.889c10.799-0.3,19.398-1.6,25.798-3.999
				L106.79,99.189z M97.99,119.487v-6.699H83.392v6.699H97.99z M104.39,154.884h-5.7v-3.7h-7.898v3.7h-5.7v-25.198h19.298V154.884
				L104.39,154.884z M98.69,145.684v-10.6h-7.898v10.6H98.69z M135.486,150.983l-3.799,5.3c-5.2-3.6-8.899-6.898-11.199-10.099
				c-3.4,3.999-7,7.199-10.899,9.799l-4-4.899c5-3,8.799-6.399,11.399-10.1c-2-4.3-3.699-9.198-5-14.898l5.4-2.199
				c1.1,4.6,2.1,8.099,3.1,10.299c2.6-5.999,4-13.898,4-23.797h-7.299c-2.1,7.599-4.7,13.499-7.6,17.499l-4.399-4.2
				c4.7-7.8,7.7-17.598,8.799-29.697l6.199,0.8c-0.4,2.9-0.9,6.2-1.6,9.6h15.898v6h-3.9c-0.5,13.699-2.7,23.897-6.599,30.697
				C126.788,144.884,130.587,148.184,135.486,150.983z"/>
			<path fill="#EB8900" d="M191.881,110.588h-13.598v4h12.099v20.599h-12.099v3.898h12.099v4.899h-12.099v4.4
				c4.399-0.4,8.599-1,12.398-1.801l0.3,4.999c-10.099,1.7-20.798,3.101-32.097,4.201l-1.3-5.1l15.099-1.501v-5.199h-12.299v-4.899
				h12.299v-3.898h-12.299v-20.599h12.299v-4h-14.099v-5.1h14.099v-4c-3,0.399-6.699,0.7-10.999,0.899l-1.5-4.899
				c10.699-0.5,20.198-1.6,28.497-3.3l2.4,4.5c-3.299,0.8-7.599,1.5-12.798,2.199v4.6h13.598V110.588z M172.783,122.686v-3.6h-6.599
				v3.6H172.783z M172.783,130.586v-3.6h-6.599v3.6H172.783z M184.782,122.686v-3.7h-6.399v3.7H184.782z M184.782,130.586v-3.6
				h-6.399v3.6H184.782z M217.778,107.488c0,9.799-0.3,19.198-0.6,28.197c-0.399,9-0.799,14.299-1.2,15.699
				c-0.399,1.399-1.2,2.5-2.4,3.3c-1.2,0.8-3,1.101-5.599,1.101c-1.2,0-2.5-0.102-3.7-0.2l-1.7-6c1.8,0.101,3.2,0.2,4.2,0.2
				c1.999,0,3.2-0.3,3.6-0.8c0.4-0.501,0.8-4.699,1.2-12.499c0.4-7.799,0.6-15.598,0.5-23.297h-6
				c-0.1,16.997-3.2,31.296-9.299,42.596l-5.399-2.7c6.199-11.198,9.099-24.498,8.699-39.997h-6.099v-5.799h6.2
				c0.1-5.699,0.1-9.999,0.1-12.798h6.099c0,4.399-0.1,8.699-0.2,12.798h11.599V107.488z"/>
			<path fill="#EB8900" d="M268.773,138.785h-18.898l4.799,2.101c-1.7,4.998-4.4,10.098-8.199,15.397l-5-3.899
				c3.5-4.699,5.899-9.299,7.399-13.499h-4.1V96.189h23.998V138.785z M262.674,108.387v-6.299h-11.799v6.299H262.674z
				 M262.674,120.686v-6.698h-11.799v6.698H262.674z M262.674,132.985v-6.899h-11.799v6.899H262.674z M270.673,151.784l-5.299,2.799
				c-2-3.799-4.5-7.599-7.399-11.198l5.7-2.8C266.874,144.585,269.173,148.283,270.673,151.784z M302.87,113.988h-5.699v36.096
				c0,1.7-0.5,3-1.6,3.899c-1,0.9-2.3,1.4-3.7,1.601c-1.4,0.099-4.199,0.099-8.399,0l-2.5-6.4c1.8,0.201,3.7,0.301,5.5,0.301
				c2.199,0,3.499-0.2,3.899-0.5c0.4-0.301,0.6-0.8,0.6-1.4v-27.097c-3.7,9.198-9.399,17.498-17.198,24.897l-4-5.1
				c8.299-7.399,14.398-16.198,18.098-26.297h-15.999v-6h19.098V94.69h6.1v13.298h5.699v6H302.87z"/>
			<path fill="#EB8900" d="M385.762,112.187h-5.998v-8.398h-46.297v8.599h-6.199V98.689h25.998c-0.4-1-1-2.201-1.9-3.6l6.8-1.299
				l2.2,4.899h25.396V112.187z M383.762,155.384h-6.1v-2h-42.095v2.1h-6.2v-25.396h54.295v25.297H383.762z M378.562,126.885h-44.295
				v-12.099h44.295V126.885z M353.665,139.285v-4.3h-17.998v4.3H353.665z M353.665,148.584v-4.7h-17.998v4.7H353.665z
				 M376.863,111.788h-40.596v-4.8h40.596V111.788z M372.264,122.287v-2.9h-31.498v2.9H372.264z M377.662,139.285v-4.3h-17.998v4.3
				H377.662z M377.662,148.584v-4.7h-17.998v4.7H377.662z"/>
			<path fill="#EB8900" d="M471.652,147.084l-3.898,5.2c-10.799-6.1-18.797-13.999-23.898-23.698v26.998h-6.5v-26.998
				c-5.398,9.299-13.396,17.099-23.896,23.298l-3.998-5.3c9.898-5.499,17.496-12.598,22.797-21.397h-21.299v-6.2h26.498v-10.898
				h-23.998v-6.1h23.998v-7.699h6.498v7.699h24.098v6.1h-24.098v10.898h26.299v6.3h-21.297
				C452.955,133.586,460.555,140.784,471.652,147.084z"/>
			<path fill="#EB8900" d="M556.246,147.584l-3.701,4.999c-9.898-5.1-17.998-11.998-24.496-20.697v23.898h-6.398v-23.998
				c-6.5,8.899-14.602,15.798-24.299,20.797l-3.9-4.999c12.398-6.199,21.797-14.599,28.199-25.197v-15.298h-26.299v-6.1h26.299
				v-6.599h6.398v6.599h26.098v6.1h-26.098v15.898C534.447,132.985,543.846,141.184,556.246,147.584z M516.75,126.086l-4.5,4.5
				c-1.502-3.1-3.301-6.1-5.299-8.898c-2.4,3.999-5,7.599-7.801,10.599l-4.799-3.9c4.799-4.599,8.699-11.099,11.799-19.498
				l5.898,1.3c-0.699,2.2-1.498,4.2-2.398,6C512.549,119.787,514.949,123.087,516.75,126.086z M554.246,127.386l-4.301,4.299
				c-1.799-2.999-4.4-6.299-7.598-9.799c-1.602,2.999-3.502,5.699-5.701,8l-4.1-4.301c3.5-3.699,6.4-9.198,8.799-16.498l5.801,1.001
				c-0.5,2.299-1.301,4.499-2.201,6.499C549.045,120.686,552.146,124.287,554.246,127.386z"/>
			<path fill="#EB8900" d="M639.338,140.585c-0.801,10.199-3.701,15.299-8.6,15.299c-4.301,0-8-4-11.199-12.1
				c-3.1-8.1-4.9-18.798-5.301-31.996h-35.896v-5.9h35.799c-0.301-4.699-0.301-8.599-0.301-11.398h6.199
				c0,2.699,0,6.499,0.299,11.398h18.898v5.9h-18.598c0.301,13.198,1.699,22.798,4.301,28.797c2.6,5.999,4.398,8.999,5.598,8.999
				c1.4,0,2.301-4,2.602-12.1L639.338,140.585z M613.539,144.785c-12.998,3.199-23.896,5.398-32.697,6.499l-1.398-5.7
				c4.1-0.5,8.6-1.199,13.697-2.199v-18.598h-11.297v-6h29.596v6h-11.998v17.197c5.699-1.2,10.299-2.299,13.799-3.299
				L613.539,144.785z M637.338,101.089l-4.6,3.899c-3-2.7-5.9-4.699-8.799-6.1l4.799-4.199
				C632.338,96.589,635.137,98.689,637.338,101.089z"/>
		</g>
		<g>
			<polygon fill="#FFFFFF" points="715.93,220.277 0,220.277 0,33.095 128.987,33.095 128.987,43.094 9.999,43.094 9.999,210.278 
				705.93,210.278 705.93,43.094 587.74,43.094 587.74,33.095 715.93,33.095 			"/>
		</g>
	</g>
</g>
</svg>
