<?xml version="1.0" encoding="utf-8"?>
<!-- Generator: Adobe Illustrator 21.0.0, SVG Export Plug-In . SVG Version: 6.00 Build 0)  -->
<svg version="1.1" id="圖層_1" xmlns="http://www.w3.org/2000/svg" xmlns:xlink="http://www.w3.org/1999/xlink" x="0px" y="0px"
	 viewBox="0 0 400 400" style="enable-background:new 0 0 400 400;" xml:space="preserve">
<style type="text/css">
	.st0{fill:#8069B1;}
	.st1{fill:#5E8AB4;}
	.st2{fill:#88A54D;}
	.st3{fill:#63666A;}
	.st4{fill:#767D89;}
	.st5{fill:#FFFFFF;}
	.st6{fill:#E6E6E6;}
</style>
<g>
	<g>
		<path class="st0" d="M180.7,101.7c-28,0-50.9-22.8-50.9-50.9S152.7,0,180.7,0s50.9,22.8,50.9,50.9S208.8,101.7,180.7,101.7z
			 M180.7,1.7c-27.1,0-49.2,22.1-49.2,49.2s22.1,49.2,49.2,49.2s49.2-22.1,49.2-49.2S207.8,1.7,180.7,1.7z"/>
	</g>
	<g>
		<path class="st0" d="M51.2,175.9c-8.6,0-17.4-2.2-25.3-6.8c-11.8-6.8-20.2-17.8-23.7-30.9c-3.5-13.1-1.7-26.8,5.1-38.6
			C21.3,75.3,52.5,67,76.7,81c24.3,14,32.6,45.2,18.6,69.5C86,166.8,68.8,175.9,51.2,175.9z M51.4,75.9c-4.3,0-8.6,0.6-12.8,1.7
			C25.9,81,15.3,89.1,8.7,100.5c-6.6,11.4-8.3,24.6-4.9,37.3c3.4,12.7,11.5,23.3,22.9,29.8c23.5,13.6,53.6,5.5,67.1-18
			c13.6-23.5,5.5-53.6-18-67.1C68.3,78.1,59.9,75.9,51.4,75.9z"/>
	</g>
	<g>
		<path class="st1" d="M51,325.1c-17.6,0-34.7-9.1-44.1-25.4c-6.8-11.8-8.6-25.5-5.1-38.6c3.5-13.1,11.9-24.1,23.7-30.9
			c24.3-14,55.5-5.7,69.5,18.6c6.8,11.8,8.6,25.5,5.1,38.6s-11.9,24.1-23.7,30.9C68.3,322.9,59.6,325.1,51,325.1z M25.9,230.9
			l0.4,0.7c-11.4,6.6-19.5,17.2-22.9,29.8c-3.4,12.7-1.7,25.9,4.9,37.3c13.6,23.5,43.7,31.5,67.1,18c11.4-6.6,19.5-17.2,22.9-29.8
			c3.4-12.7,1.7-25.9-4.9-37.3c-13.6-23.5-43.7-31.5-67.1-18L25.9,230.9z"/>
	</g>
	<g>
		<path class="st1" d="M179.9,400c-28,0-50.9-22.8-50.9-50.9s22.8-50.9,50.9-50.9s50.9,22.8,50.9,50.9S207.9,400,179.9,400z
			 M179.9,300c-27.1,0-49.2,22.1-49.2,49.2s22.1,49.2,49.2,49.2s49.2-22.1,49.2-49.2S207,300,179.9,300z"/>
	</g>
	<g>
		<path class="st2" d="M309.2,325.8c-8.6,0-17.4-2.2-25.3-6.8c-24.3-14-32.6-45.2-18.6-69.5c14-24.3,45.2-32.6,69.5-18.6
			c11.8,6.8,20.2,17.8,23.7,30.9c3.5,13.1,1.7,26.8-5.1,38.6C343.9,316.7,326.8,325.8,309.2,325.8z M284.7,317.5
			c23.5,13.6,53.6,5.5,67.1-18c6.6-11.4,8.3-24.6,4.9-37.3c-3.4-12.7-11.5-23.3-22.9-29.8c-23.5-13.6-53.6-5.5-67.1,18
			C253.1,273.9,261.2,304,284.7,317.5z"/>
	</g>
	<g>
		<path class="st2" d="M309.8,176.7c-4.4,0-8.9-0.6-13.2-1.8c-13.1-3.5-24.1-11.9-30.9-23.7c-14-24.3-5.7-55.5,18.6-69.5
			c24.3-14,55.5-5.7,69.5,18.6c6.8,11.8,8.6,25.5,5.1,38.6c-3.5,13.1-11.9,24.1-23.7,30.9l-0.4-0.7l0.4,0.7
			C327.3,174.4,318.6,176.7,309.8,176.7z M309.6,76.6c-8.3,0-16.8,2.1-24.5,6.6c-23.5,13.6-31.5,43.7-18,67.1
			c6.6,11.4,17.2,19.5,29.8,22.9c12.7,3.4,25.9,1.7,37.3-4.9c11.4-6.6,19.5-17.2,22.9-29.8c3.4-12.7,1.7-25.9-4.9-37.3
			C343.2,85.5,326.6,76.6,309.6,76.6z"/>
	</g>
	<g>
		<path class="st0" d="M108.9,54c-0.2,0-0.5-0.1-0.6-0.3c-0.3-0.3-0.3-0.9,0-1.2l4-3.8l-4-3.8c-0.3-0.3-0.4-0.9,0-1.2
			c0.3-0.3,0.9-0.4,1.2,0l4.7,4.5c0.2,0.2,0.3,0.4,0.3,0.6s-0.1,0.5-0.3,0.6l-4.7,4.5C109.3,53.9,109.1,54,108.9,54z"/>
	</g>
	<g>
		<path class="st2" d="M342.5,183.1c-0.5,0-0.8-0.4-0.9-0.8l-0.2-6.5c0-0.2,0.1-0.5,0.3-0.6s0.4-0.2,0.6-0.3l6.5,0.2
			c0.5,0,0.8,0.4,0.8,0.9c0,0.5-0.4,0.8-0.9,0.8l-5.6-0.1l0.1,5.6C343.4,182.7,343,183.1,342.5,183.1
			C342.5,183.1,342.5,183.1,342.5,183.1z"/>
	</g>
	<g>
		<g>
			<path class="st3" d="M166.3,53.5h-4.8l0.3,0.4c-1.2,0.6-2.5,1.1-3.9,1.4l-0.3-0.6c1.3-0.2,2.5-0.6,3.7-1.2h-1.9v-4.4h6.9V53.5z
				 M161,48h-3.3v-0.6h3.3V48z M160.9,45.8h-3v-0.6h3V45.8z M165.7,50.4v-0.7H160v0.7H165.7z M165.7,51.7v-0.7H160v0.7H165.7z
				 M165.7,52.9v-0.8H160v0.8H165.7z M168.1,48.4l-0.3,0.6c-1.5-0.2-2.7-0.7-3.6-1.4c-0.7,0.7-1.6,1.1-2.7,1.4l-0.3-0.6
				c1.5-0.2,2.5-0.8,3-1.8l0.7,0.1c0,0.1-0.1,0.3-0.3,0.5C165.4,47.8,166.6,48.2,168.1,48.4z M167.8,46.2c-0.4,0.6-0.8,1-1.1,1.4
				l-0.5-0.4c0.3-0.3,0.6-0.7,0.9-1h-4.4c-0.3,0.4-0.7,0.8-1.1,1.1l-0.4-0.4c0.7-0.5,1.3-1.2,1.7-2.1l0.6,0.2l-0.4,0.7h4.7V46.2z
				 M168,54.7l-0.3,0.5c-1.2-0.4-2.3-0.8-3.5-1l0.3-0.5C165.8,54,166.9,54.3,168,54.7z"/>
		</g>
		<g>
			<path class="st3" d="M180,49.7h-8.8v1.2c0,2-0.4,3.5-1.2,4.4l-0.4-0.4c0.3-0.4,0.6-0.9,0.8-1.5c0.2-0.6,0.3-1.2,0.3-1.7v-2.5h9.4
				V49.7z M179.7,46.4h-1.8c-0.4,0.5-0.8,0.9-1.3,1.2c1,0.3,1.9,0.5,2.6,0.8l-0.3,0.5c-0.9-0.4-1.9-0.7-3-0.9
				c-1.2,0.5-2.6,0.8-4.2,0.8l-0.2-0.5c1.5-0.1,2.7-0.3,3.5-0.5c-0.9-0.2-1.9-0.4-2.8-0.5l0.3-0.5c1.2,0.2,2.4,0.4,3.4,0.7
				c0.5-0.3,0.9-0.6,1.3-0.9h-6.8v-0.6h4.5c-0.1-0.3-0.3-0.5-0.5-0.8l0.6-0.3c0.3,0.4,0.5,0.7,0.6,1.1h4.3V46.4z M179.9,54.9h-8.6
				v-0.6h4.1v-1.1h-2.9v-0.6h2.9v-1.1h-2.6c-0.3,0.4-0.6,0.7-0.9,1l-0.4-0.5c0.6-0.5,1.1-1.2,1.6-2.1l0.6,0.2
				c-0.2,0.3-0.3,0.6-0.4,0.8h2.2v-1h0.6v1h3.3v0.6H176v1.1h3v0.6h-3v1.1h3.9V54.9z"/>
		</g>
		<g>
			<path class="st3" d="M187,45.7h-1.8v1.6h1.4v7.9H186v-0.7h-3.5v0.7h-0.6v-7.9h1.5v-1.6h-1.8v-0.6h5.5V45.7z M186,53.9v-3.1h-0.5
				c-0.6,0-0.9-0.3-0.9-0.8v-2.2h-0.7c0,1.8-0.4,3.1-1.1,3.8l-0.3-0.2v2.5H186z M183.3,47.8h-0.8v3.1
				C183,50.3,183.3,49.3,183.3,47.8z M185.5,52.5H183V52h2.6V52.5z M184.6,47.2v-1.6h-0.7v1.6H184.6z M186,50.2v-2.4h-0.8v2.1
				c0,0.2,0.1,0.3,0.3,0.3H186z M191.9,52.4c0,1-0.1,1.7-0.3,1.9c-0.1,0.3-0.3,0.4-0.5,0.5c-0.2,0.1-0.7,0.1-1.5,0.1
				c-0.8,0-1.3,0-1.5,0c-0.2,0-0.3-0.1-0.4-0.3c-0.1-0.1-0.2-0.3-0.2-0.6v-5.3h3.2v-3.1h-3.4v-0.6h4v4.3h-3.2V54
				c0,0.1,0,0.2,0.1,0.2c0.1,0.1,0.2,0.1,0.3,0.1c0.1,0,0.8,0,1.9,0c0.4,0,0.6-0.2,0.7-0.6c0.1-0.4,0.1-0.9,0.1-1.5L191.9,52.4z"/>
		</g>
		<g>
			<path class="st3" d="M203.9,54.9h-10.4v-0.5h1.4v-5.1h2.8l0.3-0.8h-4.4V48h4.6l0.2-0.8h-4.3V45h9.2v2.2h-4.2l-0.2,0.8h4.9v0.5h-5
				l-0.3,0.8h4.1v5.1h1.4V54.9z M196.9,46.7v-1.1h-2.2v1.1H196.9z M201.9,50.6v-0.7h-6.3v0.7H201.9z M201.9,51.8v-0.7h-6.3v0.7
				H201.9z M201.9,53.1v-0.8h-6.3v0.8H201.9z M201.9,54.4v-0.8h-6.3v0.8H201.9z M199.8,46.7v-1.1h-2.2v1.1H199.8z M202.7,46.7v-1.1
				h-2.2v1.1H202.7z"/>
		</g>
	</g>
	<g>
		<circle class="st4" cx="180.7" cy="200.3" r="50"/>
	</g>
	<g>
		<g>
			<path class="st3" d="M23.2,120.6l-0.5,2.1v8.2H22v-6.6c-0.4,0.9-0.7,1.4-0.9,1.7l-0.4-0.6c0.8-1.4,1.5-3.1,1.8-5L23.2,120.6z
				 M26.5,122.3h-3.3v-0.6h1.5c-0.1-0.3-0.2-0.7-0.5-1.1l0.5-0.1c0.2,0.4,0.4,0.8,0.5,1.3h1.2V122.3z M26.3,124h-2.8v-0.6h2.8V124z
				 M26.3,125.8h-2.8v-0.6h2.8V125.8z M26.2,130.7h-0.6V130h-1.3v0.9h-0.6v-4h2.5V130.7z M25.6,129.4v-1.9h-1.3v1.9H25.6z
				 M31.2,124.2h-1.6c-0.3,0.4-0.7,0.9-1.3,1.4h2.5v5.3h-0.6v-0.8h-2.3v0.8h-0.6v-4.4c-0.2,0.1-0.4,0.3-0.6,0.4l-0.4-0.4
				c1.1-0.8,2-1.5,2.6-2.3h-2.3v-0.5h1.7v-1.3h-1.4v-0.6h1.4v-1.3h0.6v1.3h1.2v0.5c0.2-0.5,0.4-1,0.6-1.4l0.5,0.1
				c-0.3,1-0.7,1.9-1.2,2.7h1.2V124.2z M30.2,127.6v-1.3h-2.3v1.3H30.2z M30.2,129.6v-1.4h-2.3v1.4H30.2z M30.1,122.3h-1.2v1.3h0.5
				C29.6,123.2,29.9,122.7,30.1,122.3z"/>
		</g>
		<g>
			<path class="st3" d="M37.8,121.9h-1.4v0.7h-0.6v-0.7h-2.9v-0.6h2.9v-0.8h0.6v0.8h1.4V121.9z M43.2,123.7h-5
				c-0.7,0.4-1.4,0.8-2.2,1.1c0.4,0,0.8,0,1.2,0c0.4,0,0.9,0,1.4-0.1c0.5,0,0.8-0.1,0.9-0.1l1-0.5l0.5,0.4c-1.8,1-3.5,1.6-5.1,2
				c1.6,0,3.4-0.2,5.5-0.4c-0.3-0.2-0.5-0.4-0.8-0.6l0.5-0.3c0.8,0.6,1.4,1.1,1.9,1.6l-0.5,0.4c-0.2-0.3-0.4-0.5-0.6-0.6
				c-2.5,0.3-5.2,0.4-8,0.4l-0.1-0.5c1.4-0.2,2.9-0.6,4.5-1.2c-1.2,0.1-2.3,0.1-3.4,0.1l-0.1-0.5c1-0.3,1.9-0.7,2.6-1.1H33v-0.6h4.8
				c-0.1-0.1-0.2-0.4-0.3-0.6l0.6-0.2c0.1,0.2,0.2,0.4,0.4,0.8h4.7V123.7z M42.2,131h-0.6v-0.5h-7v0.5H34v-3.6h8.2V131z M37.7,128.6
				v-0.7h-3.2v0.7H37.7z M37.7,129.9v-0.8h-3.2v0.8H37.7z M43.3,121.9h-2.8v0.7h-0.6v-0.7h-1.4v-0.5h1.4v-0.9h0.6v0.8l2.8,0V121.9z
				 M41.5,128.6v-0.7h-3.1v0.7H41.5z M41.5,129.9v-0.8h-3.1v0.8H41.5z"/>
		</g>
		<g>
			<path class="st3" d="M50.1,123.9l-2.6,6.5h-0.9l-2.5-6.5h1.1l1.7,4.7c0.1,0.4,0.2,0.7,0.2,0.9h0c0.1-0.4,0.1-0.6,0.2-0.9l1.8-4.8
				H50.1z"/>
		</g>
		<g>
			<path class="st3" d="M50.8,129c0.6,0.4,1.2,0.6,1.9,0.6c0.9,0,1.4-0.3,1.4-0.9c0-0.3-0.1-0.5-0.3-0.7c-0.2-0.2-0.6-0.4-1.2-0.6
				c-0.7-0.3-1.2-0.6-1.4-0.8s-0.3-0.6-0.3-1c0-0.6,0.2-1,0.7-1.3c0.5-0.3,1.1-0.5,1.7-0.5c0.6,0,1,0.1,1.5,0.3v1
				c-0.5-0.3-1-0.5-1.6-0.5c-0.4,0-0.7,0.1-0.9,0.3c-0.2,0.2-0.4,0.4-0.4,0.7s0.1,0.5,0.2,0.6c0.2,0.1,0.5,0.3,1.1,0.6
				c0.7,0.3,1.2,0.6,1.5,0.8c0.3,0.3,0.4,0.6,0.4,1.1c0,0.6-0.2,1-0.7,1.4c-0.5,0.3-1.1,0.5-1.8,0.5c-0.7,0-1.2-0.1-1.7-0.4V129z"/>
		</g>
		<g>
			<path class="st3" d="M56.3,129.8c0-0.2,0.1-0.4,0.2-0.5s0.3-0.2,0.5-0.2c0.2,0,0.3,0.1,0.5,0.2c0.1,0.1,0.2,0.3,0.2,0.5
				c0,0.2-0.1,0.3-0.2,0.5c-0.1,0.1-0.3,0.2-0.5,0.2c-0.2,0-0.3-0.1-0.5-0.2S56.3,130,56.3,129.8z"/>
		</g>
		<g>
			<path class="st3" d="M63,123.9c-0.3,0.6-0.7,1.2-1,1.7v5.4h-0.6v-4.5c-0.4,0.5-1,1-1.8,1.6l-0.5-0.5c1.5-0.9,2.6-2.2,3.3-3.8
				L63,123.9z M64.1,122.3h-1.5v1.1H62v-1.1h-2.9v-0.6H62v-1.3h0.6v1.3h1.5V122.3z M69.5,128.3c-0.1,1-0.1,1.6-0.3,1.9
				c-0.1,0.3-0.3,0.4-0.5,0.5c-0.2,0.1-0.8,0.1-1.8,0.1c-1.1,0-1.8-0.1-2-0.2c-0.2-0.1-0.3-0.4-0.3-0.8v-6.1h0.6v2h4.1v0.6h-4.1v3.4
				c0,0.2,0.1,0.3,0.2,0.3c0.1,0,0.6,0.1,1.5,0.1c1,0,1.5,0,1.6-0.1c0.1-0.1,0.2-0.3,0.3-0.7c0.1-0.4,0.1-0.9,0.1-1.4L69.5,128.3z
				 M69.6,122.3h-2.8v1.2h-0.6v-1.2h-1.5v-0.6h1.5v-1.3h0.6v1.3h2.8V122.3z"/>
		</g>
		<g>
			<path class="st3" d="M81.4,123.7c0,0.4,0,0.8-0.1,1.1c-0.1,0.3-0.1,0.4-0.2,0.5c-0.1,0.1-0.2,0.1-0.3,0.2c-0.1,0-0.4,0-0.8,0v4
				H75l0.3,0.4c-1,0.5-2.2,0.8-3.6,1.1l-0.3-0.6c1.3-0.2,2.4-0.5,3.3-0.9h-2v-3.5c-0.5,0.2-0.9,0.3-1.4,0.4l-0.3-0.5
				c1.5-0.3,2.5-0.8,3-1.5h-2.4l0.3-1.8h2.8c0-0.3,0.1-0.5,0.1-0.8h-3.5v-0.5h3.5c0-0.1,0-0.2,0-0.3s0-0.2,0-0.3h0.6
				c0,0.2,0,0.4,0,0.6h2v-0.6h0.6v0.6h2.8v1.8h-2.8v0.8H81.4z M74.7,122.9h-2.2l-0.1,0.8h2C74.6,123.5,74.7,123.2,74.7,122.9z
				 M79.3,126.4v-0.7h-5.9v0.7H79.3z M79.3,127.7v-0.7h-5.9v0.7H79.3z M79.3,128.9v-0.8h-5.9v0.8H79.3z M80.7,124.2h-2.6v0.7h-0.6
				v-0.7h-2.6c-0.3,0.4-0.5,0.8-0.9,1h5.6l-0.1-0.3l0.9,0c0.1,0,0.2,0,0.2-0.1C80.7,124.7,80.7,124.5,80.7,124.2z M77.5,123.7v-0.8
				h-2.1c-0.1,0.3-0.1,0.5-0.2,0.8H77.5z M77.5,122.4v-0.8h-2c0,0.2,0,0.5,0,0.8H77.5z M81.3,130.4l-0.3,0.6
				c-1.2-0.3-2.4-0.5-3.5-0.6l0.3-0.6C79,129.9,80.2,130.1,81.3,130.4z M80.3,122.4v-0.8h-2.2v0.8H80.3z"/>
		</g>
	</g>
	<g>
		<g>
			<path class="st3" d="M39,279l-0.1,0.6c-2.5,0-4.3,0-5.2-0.1c-0.9-0.1-1.6-0.2-2.1-0.4c-0.5-0.2-1-0.5-1.4-0.9
				c-0.4,0.6-0.9,1.1-1.4,1.6l-0.5-0.4c1.2-1.1,2-2.3,2.4-3.8h-2v-0.6c0.7-0.9,1.4-1.7,1.9-2.4h-2.1v-0.6h2.8v0.6
				c-0.6,0.8-1.2,1.7-1.8,2.4h1.9v0.6c-0.3,0.9-0.6,1.6-0.9,2.1c0.4,0.4,0.8,0.7,1.3,0.9c0.5,0.2,1.2,0.3,2.1,0.4c0.9,0,1.9,0,2.9,0
				C37.6,279,38.3,279,39,279z M31,271.1l-0.5,0.4c-0.4-0.5-0.9-1.1-1.7-1.7l0.5-0.4C30,270,30.6,270.6,31,271.1z M38.1,274.2h-5
				v3.3c0.7-0.1,1.4-0.3,2.1-0.6l0,0.6c-1,0.3-1.9,0.6-2.7,0.8l-0.3-0.6c0.2-0.1,0.2-0.2,0.2-0.3v-7.5h5.6V274.2z M37.5,271.7v-1.2
				h-4.3v1.2H37.5z M37.5,273.6v-1.3h-4.3v1.3H37.5z M38.7,275c-0.6,0.4-1.2,0.9-1.8,1.2c0.7,0.6,1.3,1.1,1.8,1.5l-0.4,0.5
				c-0.9-0.9-2.2-1.9-3.8-2.9l0.4-0.5l1.5,1c0.7-0.4,1.3-0.8,1.9-1.3L38.7,275z"/>
		</g>
		<g>
			<path class="st3" d="M43.4,269.5l-0.8,1.9v8.4h-0.6v-7.1c-0.5,0.8-0.9,1.4-1.3,1.9l-0.4-0.6c0.9-1,1.7-2.6,2.6-4.7L43.4,269.5z
				 M50.9,277.6l-0.4,0.5c-1.6-1.5-2.7-3.2-3.3-5.1v6.7h-0.6v-6.7c-0.6,1.5-1.6,3.2-3.3,5l-0.4-0.5c1.7-1.8,2.9-3.6,3.5-5.5h-3.1
				v-0.6h3.4v-2.2h0.6v2.2h3.4v0.6h-3.2C48.1,274.2,49.3,276,50.9,277.6z"/>
		</g>
		<g>
			<path class="st3" d="M55.7,279.2h-0.6v-0.9h-1.7v1.2h-0.6V270h2.9V279.2z M55.1,273.8v-3.1h-1.7v3.1H55.1z M55.1,277.6v-3.2h-1.7
				v3.2H55.1z M62.6,271.2h-2.8v1.7h2.5v0.6h-5.6V273h2.5v-1.7h-2.9v-0.6h2.9v-1.3h0.6v1.3h2.8V271.2z M62.8,275.7h-1.3v3.1
				c0,0.4-0.1,0.7-0.3,0.8c-0.2,0.1-0.6,0.2-1.3,0.2c-0.2,0-0.4,0-0.7,0l-0.3-0.6c0.4,0,0.7,0,1,0c0.4,0,0.6,0,0.7-0.1
				c0.1-0.1,0.2-0.2,0.2-0.3v-3.1h-4.7V275h4.7v-1.1h0.6v1.1h1.3V275.7z M59.2,278.1l-0.5,0.3c-0.4-0.6-0.9-1.3-1.5-1.8l0.5-0.4
				C58.2,276.7,58.7,277.3,59.2,278.1z"/>
		</g>
		<g>
			<path class="st3" d="M67.6,274.3l-0.5,0.4c-0.2-0.4-0.5-0.8-0.7-1.2v6.3h-0.6v-5.9c-0.4,1.3-0.8,2.2-1.2,2.8l-0.3-0.7
				c0.6-1.1,1.1-2.4,1.5-3.9h-1.4v-0.6h1.4v-2.2h0.6v2.2h0.9v0.6h-0.9v0.6C66.8,273.2,67.2,273.8,67.6,274.3z M74.9,277.9
				c-0.1,0.7-0.2,1.2-0.4,1.5c-0.2,0.3-0.4,0.5-0.7,0.5c-0.5,0-1.1-0.5-1.7-1.6c-0.7,0.5-1.4,1-2.3,1.4l-0.4-0.5
				c0.9-0.3,1.8-0.8,2.5-1.5c-0.4-0.7-0.6-1.5-0.7-2.2h-2.2l-0.1,0.7c0.7,0.4,1.2,0.7,1.7,1.2l-0.3,0.5c-0.3-0.3-0.8-0.7-1.4-1.1
				c-0.2,1.1-0.7,2.1-1.5,2.9l-0.5-0.4c1-0.9,1.5-2.1,1.6-3.8h-1.1V275H71c-0.2-1.9-0.4-3.8-0.4-5.8l0.6,0c0.1,2.6,0.2,4.5,0.4,5.7
				h1.2c0-0.1-0.1-0.3-0.3-0.6l0.5-0.2c0.2,0.2,0.3,0.4,0.4,0.8h1.3v0.6h-3c0.1,0.5,0.3,1.1,0.6,1.7c0.4-0.4,0.7-0.9,1-1.4l0.5,0.3
				c-0.4,0.6-0.8,1.2-1.3,1.7c0.2,0.3,0.4,0.7,0.6,1s0.5,0.5,0.6,0.5c0.1,0,0.2-0.1,0.3-0.3c0.1-0.2,0.2-0.7,0.3-1.4L74.9,277.9z
				 M70.6,274.4l-0.5,0.2c0-0.1,0-0.3-0.1-0.5c-0.8,0.1-1.6,0.2-2.2,0.2l-0.1-0.4c0.5-0.6,0.9-1.2,1.3-1.7l-1.2,0.2l-0.2-0.5
				c0.5-0.9,0.9-1.7,1.2-2.4l0.5,0.3c-0.2,0.6-0.6,1.2-1.1,2c0.4,0,0.8-0.1,1.1-0.2c0.2-0.2,0.4-0.6,0.6-1l0.5,0.3
				c-0.6,1-1.2,1.9-2,2.8c0.4,0,0.8-0.1,1.3-0.1c-0.1-0.3-0.1-0.5-0.3-0.8l0.5-0.1C70.3,273,70.5,273.6,70.6,274.4z M74.8,274.3
				l-0.5,0.2c0-0.1-0.1-0.3-0.1-0.6c-0.6,0.1-1.4,0.2-2.2,0.3l-0.2-0.5c0.5-0.6,0.9-1.1,1.2-1.6c-0.3,0-0.7,0.1-1.2,0.2l-0.2-0.5
				c0.5-0.8,0.9-1.6,1.2-2.3l0.5,0.2c-0.3,0.7-0.7,1.3-1,2c0.2,0,0.6-0.1,1.1-0.2c0.1-0.2,0.3-0.5,0.5-0.8l0.5,0.3
				c-0.4,0.7-1.1,1.6-1.9,2.7l1.3-0.2c-0.1-0.3-0.1-0.5-0.2-0.6l0.5-0.2C74.4,273.1,74.6,273.7,74.8,274.3z"/>
		</g>
	</g>
	<g>
		<g>
			<path class="st3" d="M179.1,352.3H171v3.7c0.8-0.2,1.7-0.5,2.7-0.9l0.1,0.6c-1.2,0.5-2.4,0.8-3.4,1.2l-0.2-0.6
				c0.1-0.1,0.2-0.2,0.2-0.3v-3.7h-1.6v-0.6h1.9v-4.9h7.8v0.6h-7.2v1.1h6.5v0.6h-6.5v1.1h6.5v0.6h-6.5v1.1h7.9V352.3z M179.1,356.3
				l-0.4,0.6c-1.3-0.3-2.4-0.7-3.4-1.3c-1-0.6-1.7-1.4-2.2-2.5l0.5-0.3c0.4,0.8,0.9,1.4,1.4,1.8c0.8-0.4,1.7-1,2.5-1.8l0.5,0.4
				c-0.6,0.6-1.4,1.1-2.4,1.8C176.7,355.6,177.8,356,179.1,356.3z"/>
		</g>
		<g>
			<path class="st3" d="M191.1,353.5h-1.7v0.8h1.5v0.5h-1.5v1.4c0,0.6-0.3,0.8-1,0.8c-0.2,0-0.4,0-0.6,0l-0.2-0.6c0.3,0,0.7,0,1,0
				c0,0,0.1,0,0.1-0.1c0.1-0.1,0.1-0.1,0.1-0.1v-1.4h-3v-0.5h3v-0.8h-8.2v-0.5h10.4V353.5z M191,349.6c-0.1,0.7-0.3,1.3-0.6,1.9
				l-0.6-0.2c0.2-0.3,0.3-0.7,0.4-1.2h-9.5v-0.5H191z M190.8,347.8h-4.6v0.6h3.8v0.5h-8.2v-0.5h3.8v-0.6H181v-0.5h4.6v-0.7h0.6v0.7
				h4.6V347.8z M190.3,352.3h-8.8v-0.5h4.1v-0.6h-3.5v-0.5h7.3v0.5h-3.1v0.6h4V352.3z M185.3,356.8h-0.6v-0.5h-2.3v0.6h-0.6v-2.8
				h3.5V356.8z M184.7,355.8v-1.1h-2.3v1.1H184.7z M187.6,355.9l-0.4,0.4c-0.3-0.4-0.6-0.7-1-1l0.4-0.4
				C187,355.2,187.3,355.5,187.6,355.9z"/>
		</g>
	</g>
	<g>
		<g>
			<path class="st3" d="M272.6,271l-0.4,0.4c-0.5-0.6-0.9-1.1-1.3-1.5v5.5h-0.6v-5.3c-0.5,1.2-1,2.2-1.5,2.8l-0.4-0.5
				c0.7-1,1.3-2.3,1.9-3.8h-1.8v-0.6h1.8v-1.8c-0.6,0.1-1,0.2-1.5,0.3l-0.3-0.6c1.5-0.2,2.7-0.5,3.6-1l0.4,0.5
				c-0.4,0.2-0.9,0.4-1.6,0.6v2h1.6v0.6h-1.6v0.4C271.7,269.9,272.3,270.5,272.6,271z M278.8,272.9c0,0.9-0.1,1.5-0.2,1.8
				c-0.2,0.3-0.5,0.5-0.9,0.5c-0.5,0-0.8,0-1,0c-0.2,0-0.3-0.1-0.4-0.2c-0.1-0.1-0.2-0.3-0.2-0.6v-3.7H275c0,2.2-0.9,3.8-2.7,4.7
				l-0.4-0.5c1.7-0.8,2.5-2.2,2.5-4.3h-1.2v-3.2h4.8v3.2h-1.3v3.6c0,0.2,0.2,0.3,0.6,0.3c0.4,0,0.6-0.1,0.7-0.1
				c0.1-0.1,0.2-0.7,0.2-1.8L278.8,272.9z M275,265.3c-0.6,0.8-1.4,1.5-2.5,2.3l-0.4-0.5c1.2-0.8,2-1.5,2.4-2.2L275,265.3z
				 M277.3,270.1v-2h-3.5v2H277.3z M278.9,267l-0.4,0.5c-0.7-0.8-1.6-1.5-2.5-2.1l0.4-0.5C277.2,265.5,278.1,266.2,278.9,267z"/>
		</g>
		<g>
			<path class="st3" d="M283.5,272.5h-1.8l0.3,0.2c-0.3,1-0.7,1.9-1.2,2.6l-0.5-0.3c0.5-0.7,0.9-1.6,1.1-2.5h-0.7v-7.1h2.8V272.5z
				 M282.9,267.5v-1.6h-1.6v1.6H282.9z M282.9,269.7v-1.6h-1.6v1.6H282.9z M282.9,271.9v-1.7h-1.6v1.7H282.9z M283.7,274.1l-0.5,0.3
				c-0.1-0.3-0.3-0.7-0.6-1.3l0.5-0.3C283.4,273.3,283.6,273.8,283.7,274.1z M287.9,274c-1.9,0.6-3.1,1-3.9,1.2l-0.2-0.6l0.6-0.2
				v-4.8h0.6v4.6c0.1,0,0.4-0.1,0.9-0.3v-5.1h0.6v1.7h1.1v0.6h-1.1v2.7c0.5-0.1,0.9-0.3,1.3-0.4L287.9,274z M290.7,273.1
				c-0.1,0.9-0.2,1.5-0.4,1.8c-0.2,0.3-0.4,0.5-0.7,0.5c-0.5,0-0.9-0.6-1.2-1.7c-0.3-1.2-0.4-2.9-0.4-5.4h-3.9v-0.6h3.9
				c0-1.3,0-2.2,0-2.9h0.6c0,0.8,0,1.8,0,2.9h2.1v0.6h-2.1c0,0.8,0,1.5,0,2.1c0,0.6,0.1,1.2,0.1,1.8c0.1,0.5,0.2,1,0.3,1.4
				c0.1,0.4,0.2,0.7,0.3,0.9c0.1,0.2,0.2,0.2,0.2,0.3c0,0,0,0,0.1,0c0.1,0,0.3-0.2,0.4-0.7c0.1-0.5,0.1-0.9,0.1-1.4L290.7,273.1z
				 M287.3,266.4h-2.8l0-0.6h2.8V266.4z M290.5,266.9l-0.5,0.3c-0.2-0.5-0.5-1-0.8-1.6l0.5-0.3C290,265.8,290.3,266.3,290.5,266.9z"
				/>
		</g>
		<g>
			<path class="st3" d="M298.6,270.9l-0.4,0.5c-0.6-0.6-1.2-1.2-1.9-1.7l0.4-0.5C297.5,269.8,298.2,270.3,298.6,270.9z"/>
		</g>
		<g>
			<path class="st3" d="M306.6,265l-0.5,2.1v8.2h-0.6v-6.6c-0.4,0.9-0.7,1.4-0.9,1.7l-0.4-0.6c0.8-1.4,1.5-3.1,1.8-5L306.6,265z
				 M309.9,266.7h-3.3v-0.6h1.5c-0.1-0.3-0.2-0.7-0.5-1.1l0.5-0.1c0.2,0.4,0.4,0.8,0.5,1.3h1.2V266.7z M309.7,268.4h-2.8v-0.6h2.8
				V268.4z M309.7,270.2h-2.8v-0.6h2.8V270.2z M309.6,275.2H309v-0.7h-1.3v0.9h-0.6v-4h2.5V275.2z M309,273.9V272h-1.3v1.9H309z
				 M314.6,268.7H313c-0.3,0.4-0.7,0.9-1.3,1.4h2.5v5.3h-0.6v-0.8h-2.3v0.8h-0.6v-4.4c-0.2,0.1-0.4,0.3-0.6,0.4l-0.4-0.4
				c1.1-0.8,2-1.5,2.6-2.3H310v-0.5h1.7v-1.3h-1.4v-0.6h1.4V265h0.6v1.3h1.2v0.5c0.2-0.5,0.4-1,0.6-1.4l0.5,0.1
				c-0.3,1-0.7,1.9-1.2,2.7h1.2V268.7z M313.6,272v-1.3h-2.3v1.3H313.6z M313.6,274v-1.4h-2.3v1.4H313.6z M313.5,266.8h-1.2v1.3h0.5
				C313,267.6,313.3,267.2,313.5,266.8z"/>
		</g>
		<g>
			<path class="st3" d="M321.2,266.3h-1.4v0.7h-0.6v-0.7h-2.9v-0.6h2.9v-0.8h0.6v0.8h1.4V266.3z M326.6,268.1h-5
				c-0.7,0.4-1.4,0.8-2.2,1.1c0.4,0,0.8,0,1.2,0c0.4,0,0.9,0,1.4-0.1c0.5,0,0.8-0.1,0.9-0.1l1-0.5l0.5,0.4c-1.8,1-3.5,1.6-5.1,2
				c1.6,0,3.4-0.2,5.5-0.4c-0.3-0.2-0.5-0.4-0.8-0.6l0.5-0.3c0.8,0.6,1.4,1.1,1.9,1.6l-0.5,0.4c-0.2-0.3-0.4-0.5-0.6-0.6
				c-2.5,0.3-5.2,0.4-8,0.4l-0.1-0.5c1.4-0.2,2.9-0.6,4.5-1.2c-1.2,0.1-2.3,0.1-3.4,0.1l-0.1-0.5c1-0.3,1.9-0.7,2.6-1.1h-4.1v-0.6
				h4.8c-0.1-0.1-0.2-0.4-0.3-0.6l0.6-0.2c0.1,0.2,0.2,0.4,0.4,0.8h4.7V268.1z M325.6,275.4h-0.6v-0.5h-7v0.5h-0.6v-3.6h8.2V275.4z
				 M321.1,273.1v-0.7H318v0.7H321.1z M321.1,274.4v-0.8H318v0.8H321.1z M326.7,266.3h-2.8v0.7h-0.6v-0.7h-1.4v-0.5h1.4v-0.9h0.6
				v0.8l2.8,0V266.3z M324.9,273.1v-0.7h-3.1v0.7H324.9z M324.9,274.4v-0.8h-3.1v0.8H324.9z"/>
		</g>
		<g>
			<path class="st3" d="M338.6,272.7h-10.4V272h0.9l0-6.2c0.6-0.1,1.4-0.4,2.4-0.9l0.3,0.5c-0.6,0.3-1.3,0.6-2.1,0.8
				c0,0.5,0,1,0,1.4h1.8v0.6h-1.8c0,0.5,0,1.1,0,1.6h1.7v0.6h-1.7v1.6h7.4c0-0.9,0-1.5,0-1.6h-1.6v-0.6h1.7c0-0.3,0-0.8,0-1.6h-1.7
				v-0.6h1.7c0-0.3,0-0.7,0-1c0-0.2,0-0.4,0-0.5h-1.6v-0.6h2.3c0,3.2-0.1,5.3-0.1,6.6h0.9V272.7z M332.2,273.6
				c-1,0.8-2.2,1.4-3.4,1.8l-0.4-0.5c1.3-0.4,2.4-1,3.3-1.7L332.2,273.6z M332.8,268.9c-0.2,1.2-0.5,2.2-1,2.9l-0.5-0.4
				c0.5-0.6,0.8-1.5,1-2.6L332.8,268.9z M335,266.3h-2.1c-0.1,0.5-0.1,0.9-0.2,1.3h2.2c-0.1,2.1-0.2,3.4-0.4,3.7
				c-0.2,0.3-0.5,0.5-1,0.5c-0.2,0-0.4,0-0.5,0l-0.2-0.6c0.3,0,0.5,0,0.7,0c0.3,0,0.5-0.1,0.6-0.4c0.1-0.2,0.1-1.1,0.2-2.6H332
				c0.1-0.7,0.3-1.8,0.5-3.3l0.6,0.1c0,0.3-0.1,0.5-0.1,0.8h2V266.3z M338.4,274.9l-0.4,0.4c-1-0.6-2.1-1.2-3.3-1.7l0.4-0.4
				C336.6,273.8,337.7,274.4,338.4,274.9z"/>
		</g>
		<g>
			<path class="st3" d="M343.7,271l-0.4,0.5c-0.2-0.3-0.6-0.6-1.1-1v4.9h-0.6v-4.5c-0.4,0.5-0.8,1-1.2,1.4l-0.4-0.5
				c1.2-1.2,2-2.5,2.6-4.1h-2.4v-0.6h3.1v0.6c-0.3,0.7-0.6,1.5-1.1,2.2C342.8,270.1,343.2,270.5,343.7,271z M342.5,266.4l-0.5,0.3
				c-0.3-0.6-0.6-1.1-1-1.5l0.5-0.3C341.8,265.4,342.2,265.9,342.5,266.4z M350.6,265.8h-7v-0.6h7V265.8z M350.1,275.4h-0.6v-0.6
				h-4.9v0.6H344v-5.2h6.1V275.4z M349.7,269.3h-5.2v-2.5h5.2V269.3z M346.8,272.1v-1.4h-2.2v1.4H346.8z M346.8,274.2v-1.4h-2.2v1.4
				H346.8z M349.1,268.7v-1.3h-4v1.3H349.1z M349.6,272.1v-1.4h-2.2v1.4H349.6z M349.6,274.2v-1.4h-2.2v1.4H349.6z"/>
		</g>
		<g>
			<path class="st3" d="M286.4,288.8l-0.4,0.5c-0.8-0.9-1.5-1.6-2.2-2.1v5.3h-0.6V287c-0.8,1.4-1.7,2.6-2.5,3.4l-0.4-0.5
				c0.4-0.4,0.7-0.8,1.1-1.3c0.4-0.5,0.7-1.1,1.1-1.8c0.4-0.7,0.6-1.1,0.6-1.1v-0.1h-2.8V285h2.8v-1.7c-0.7,0.1-1.5,0.2-2.2,0.3
				l-0.2-0.6c1.9-0.2,3.5-0.5,4.9-1l0.4,0.6c-0.7,0.2-1.4,0.4-2.2,0.6v1.9h2.3v0.6h-2.3v0.8C284.6,287,285.5,287.8,286.4,288.8z
				 M287.7,290.3h-0.6v-7.4h0.6V290.3z M290.5,291.3c0,0.5-0.1,0.8-0.4,1c-0.3,0.1-0.7,0.2-1.3,0.2h-0.9l-0.3-0.7c0.6,0,1,0,1.4,0
				c0.3,0,0.5,0,0.6,0c0.1,0,0.2-0.1,0.2-0.1c0.1-0.1,0.1-0.2,0.1-0.3V282h0.6V291.3z"/>
		</g>
		<g>
			<path class="st3" d="M297.1,287.7l-0.5,0.4c-0.3-0.6-0.8-1.3-1.3-2v6.3h-0.6v-6.1c-0.6,1.2-1.3,2.1-2,2.9l-0.4-0.5
				c0.9-0.9,1.7-2.1,2.4-3.6h-2.1v-0.6h2.2v-2.5h0.6v2.5h1.8v0.6h-1.8v0.1C296.1,286.1,296.7,287,297.1,287.7z M302.3,292.5h-0.6v-1
				h-3.5v1h-0.6v-10.1h4.8V292.5z M301.6,285.2v-2.2h-3.5v2.2H301.6z M301.6,288v-2.2h-3.5v2.2H301.6z M301.6,290.9v-2.2h-3.5v2.2
				H301.6z"/>
		</g>
		<g>
			<path class="st3" d="M308.9,285.5h-3.5v7h-0.6v-10.2h4.1V285.5z M308.3,283.6v-0.7h-2.9v0.7H308.3z M308.3,284.9v-0.7h-2.9v0.7
				H308.3z M309.3,288.7l-0.5,0.2l-0.2-0.3l-2.5,0.3l-0.2-0.5c0.4-0.2,0.9-0.6,1.5-1.1l-1.4,0.2L306,287c0.6-0.4,1.2-0.9,1.6-1.4
				l0.6,0.3c-0.4,0.4-0.7,0.7-1.1,1l1.1-0.2c0.2-0.1,0.4-0.3,0.6-0.6l0.5,0.3c-0.9,0.9-1.6,1.5-2.1,1.9l1.3-0.2
				c-0.1-0.2-0.2-0.3-0.2-0.4l0.5-0.2C308.9,287.9,309.1,288.3,309.3,288.7z M308.9,289.8c0,0.8-0.2,1.4-0.5,1.7
				c-0.3,0.4-0.8,0.6-1.6,0.8l-0.4-0.5c1.1-0.2,1.6-0.6,1.8-1.2h-1.9v-1.4h0.6v0.9h1.3c0-0.1,0-0.2,0-0.4v-0.5h0.6V289.8z
				 M313.1,288.7l-0.5,0.3c-0.1-0.2-0.2-0.3-0.3-0.4l-2.8,0.3l-0.1-0.5c0.4-0.2,0.8-0.5,1.4-1l-1.4,0.1l-0.1-0.4
				c0.6-0.4,1.1-0.8,1.5-1.4l0.6,0.3c-0.3,0.3-0.6,0.7-1,1l1-0.1c0.1-0.1,0.3-0.2,0.5-0.5l0.5,0.2c-0.5,0.5-1.1,1.1-1.9,1.7l1.5-0.1
				c-0.1-0.1-0.2-0.3-0.3-0.4l0.5-0.3C312.5,287.8,312.8,288.2,313.1,288.7z M312.3,290.6h-2v1.6h-0.6v-3.1h0.6v1h1.4v-0.9h0.6
				V290.6z M314.2,291.8c0,0.2-0.1,0.4-0.2,0.5s-0.3,0.2-0.5,0.2c-0.6,0-1,0-1.1,0l-0.3-0.6c0.3,0,0.5,0,0.8,0c0.3,0,0.6,0,0.6-0.1
				c0.1,0,0.1-0.1,0.1-0.2v-6.2H310v-3.1h4.2V291.8z M313.6,283.6v-0.7h-2.9v0.7H313.6z M313.6,284.9v-0.7h-2.9v0.7H313.6z"/>
		</g>
		<g>
			<path class="st3" d="M321.6,290c-1.9,0.8-3.7,1.5-5.1,2l-0.2-0.6c0.4-0.1,0.6-0.2,0.7-0.3v-5.9h0.6v5.7c0.2-0.1,0.6-0.2,1.1-0.4
				v-7.3h-2.3v-0.6h5v0.6h-2.1v3h1.6v0.6h-1.6v3.4c0.5-0.2,1.2-0.5,2.1-0.8L321.6,290z M326.8,292l-0.4,0.5c-1.2-0.6-2-1.3-2.6-2.1
				c-0.8,0.8-1.8,1.5-2.8,2.1l-0.4-0.5c1.3-0.7,2.2-1.4,2.9-2.1c-0.5-0.8-0.9-1.7-1.2-2.8l0.6-0.2c0.3,1.1,0.6,1.9,1,2.5
				c0.8-1.1,1.2-2.8,1.3-4.9h-2.2c-0.3,0.9-0.6,1.8-1.1,2.6l-0.5-0.4c0.8-1.3,1.3-2.9,1.5-4.8l0.6,0.1c-0.1,0.7-0.2,1.3-0.4,1.8h3.4
				v0.6h-0.8c-0.2,2.5-0.7,4.3-1.6,5.4C324.8,290.8,325.7,291.5,326.8,292z"/>
		</g>
		<g>
			<path class="st3" d="M333.3,283.7h-3.2c-0.6,0.6-1,1.1-1.4,1.3l-0.5-0.4c0.9-0.5,1.7-1.4,2.3-2.6l0.6,0.2
				c-0.1,0.2-0.3,0.5-0.6,0.9h2.8V283.7z M338.7,291.6l-0.4,0.5c-1.8-0.6-3.3-1.6-4.6-2.8v3.2h-0.6v-3.2c-1.3,1.2-2.8,2.2-4.5,2.8
				l-0.4-0.5c2-0.7,3.6-1.7,4.9-3.2v-0.7h-3v2.1h-0.6v-2.7h3.6v-0.9h-4.7v-0.6h4.7V285h0.6v0.6h4.8v0.6h-4.8v0.9h3.7v1.8
				c0,0.3-0.1,0.5-0.2,0.6c-0.1,0.2-0.4,0.2-0.9,0.2c-0.1,0-0.3,0-0.4,0l-0.3-0.6c0.3,0,0.6,0,0.9,0c0.2,0,0.3-0.1,0.3-0.3v-1.2
				h-3.1v0.7C335,289.8,336.6,290.8,338.7,291.6z M332.2,285.1l-0.6,0.2c-0.3-0.4-0.6-0.8-0.9-1l0.6-0.3
				C331.7,284.4,332,284.8,332.2,285.1z M338.4,283.7h-3.8c-0.3,0.4-0.5,0.7-0.8,0.9l-0.5-0.4c0.6-0.6,1.2-1.3,1.6-2.2l0.6,0.2
				c-0.1,0.3-0.3,0.6-0.5,0.9h3.3V283.7z M336.9,285l-0.6,0.2c-0.1-0.2-0.4-0.5-0.8-1l0.6-0.2C336.4,284.3,336.7,284.6,336.9,285z"
				/>
		</g>
	</g>
	<g>
		<g>
			<path class="st3" d="M297.1,122.5h-4.9v1.9h4.1v4.5c0,0.3-0.1,0.5-0.2,0.6c-0.1,0.2-0.3,0.2-0.5,0.3c-0.2,0-0.7,0-1.5,0l-0.3-0.6
				c0.3,0,0.6,0,0.8,0c0.5,0,0.8,0,1-0.1c0.1-0.1,0.2-0.2,0.2-0.3V125h-3.4v5.9h-0.6V125h-3.4v4.8h-0.6v-5.4h4v-1.9h-4.9v-0.6h5
				c-0.2-0.4-0.5-0.8-0.9-1.3l0.6-0.3c0.3,0.3,0.7,0.8,1.1,1.6h4.6V122.5z"/>
		</g>
		<g>
			<path class="st3" d="M302,127c-1.2,0.7-2.3,1.2-3.1,1.5l-0.3-0.6c0.6-0.2,1.1-0.4,1.5-0.6v-3.4h-1.4v-0.6h1.4v-2.8h0.6v2.8h1.2
				v0.6h-1.2v3.1c0.4-0.2,0.8-0.4,1.1-0.6L302,127z M309.1,125.6h-4.4c-0.1,0.2-0.3,0.5-0.5,0.8h4.5c0,0.7-0.1,1.4-0.2,2.2
				c-0.1,0.8-0.2,1.2-0.2,1.4c-0.1,0.1-0.1,0.3-0.3,0.4c-0.1,0.1-0.3,0.2-0.5,0.3c-0.2,0.1-0.5,0.1-1,0.1c-0.1,0-0.3,0-0.4,0
				l-0.2-0.6c0.3,0,0.6,0,0.9,0c0.3,0,0.5,0,0.6-0.1c0.1-0.1,0.2-0.2,0.2-0.3s0.1-0.5,0.2-1.1c0.1-0.6,0.1-1.2,0.1-1.8h-0.7
				c-0.7,1.7-2,3-3.9,3.8l-0.5-0.4c1.8-0.9,3-2,3.7-3.4h-1.1c-0.8,1.2-2.1,2.2-3.8,3l-0.4-0.5c1.7-0.7,2.9-1.5,3.6-2.5h-1.2
				c-0.5,0.5-1.1,0.9-1.8,1.3l-0.4-0.5c1.2-0.6,2.1-1.4,2.6-2.2h-2.3V125h7.4V125.6z M308.3,124.2h-5.7v-3.5h5.7V124.2z
				 M307.6,122.1v-0.8h-4.5v0.8H307.6z M307.6,123.6v-0.9h-4.5v0.9H307.6z"/>
		</g>
		<g>
			<path class="st3" d="M315.6,128.5h-2.1v2.3h-0.6v-2.3h-2.3v-0.6h2.3v-1.4h-2V126h1.1c-0.1-0.5-0.3-1.1-0.5-1.8h-0.8v-0.6h2.2
				v-1.2H311v-0.6h1.9v-1.3h0.6v1.3h1.8v0.6h-1.8v1.2h2v0.6h-0.7c-0.1,0.6-0.3,1.2-0.5,1.8h1v0.6h-1.8v1.4h2.1V128.5z M314.2,124.2
				h-2c0.2,0.6,0.3,1.2,0.5,1.8h1.1C313.9,125.4,314.1,124.8,314.2,124.2z M321.1,130.4l-0.3,0.5c-0.6-0.4-1.1-0.9-1.7-1.5
				c-0.4,0.5-0.9,1-1.6,1.5h0l-0.4-0.4c0.7-0.5,1.2-1,1.7-1.5c-0.7-1-1.2-2.3-1.5-3.9h-0.5v5.9h-0.6v-10.1h4.5c0,1,0,1.6-0.1,2
				s-0.2,0.6-0.5,0.7c-0.2,0.1-0.8,0.2-1.6,0.1l-0.2-0.6c0.9,0,1.3,0,1.4-0.1c0.1,0,0.2-0.2,0.2-0.5c0.1-0.3,0.1-0.7,0.1-1.2h-3.3
				v3.1h3.9c-0.1,1.8-0.5,3.3-1.1,4.5C319.9,129.5,320.4,130,321.1,130.4z M319.9,125h-2.1c0.3,1.5,0.7,2.7,1.3,3.4
				C319.5,127.5,319.8,126.3,319.9,125z"/>
		</g>
		<g>
			<path class="st3" d="M327.2,121.3h-1.3v1.6h1.1v7.9h-0.6v-0.7h-2.7v0.7H323v-7.9h1.2v-1.6h-1.5v-0.6h4.5V121.3z M326.4,129.6
				v-3.1H326c-0.5,0-0.7-0.2-0.7-0.7v-2.3h-0.5c0,1.6-0.3,2.8-0.7,3.5l-0.4-0.3v2.8H326.4z M324.2,123.5h-0.5v3.1
				C324,125.9,324.2,124.9,324.2,123.5z M325.9,128.2h-1.9v-0.5h1.9V128.2z M325.3,122.9v-1.6h-0.5v1.6H325.3z M326.4,125.9v-2.4
				h-0.5v2.1c0,0.1,0,0.2,0.1,0.2C326,125.9,326.2,125.9,326.4,125.9z M328.2,126.2l-0.5,0.2c-0.1-1-0.2-1.9-0.4-2.6l0.5-0.2
				C328,124.7,328.1,125.6,328.2,126.2z M329,125.4c0,1.5-0.1,2.6-0.3,3.5c-0.2,0.8-0.5,1.5-0.8,2l-0.5-0.3c0.3-0.4,0.6-1,0.8-1.8
				c0.2-0.8,0.3-1.8,0.3-3.3v-5.1h0.6V125.4z M330,126l-0.5,0.2c0-0.8-0.1-1.7-0.3-2.6l0.5-0.1C329.9,124.4,330,125.2,330,126z
				 M330.8,130.6h-0.6v-10h0.6V130.6z M331.9,126.1l-0.5,0.2c0-0.6-0.1-1.4-0.3-2.6l0.4-0.2C331.7,124.5,331.9,125.3,331.9,126.1z
				 M332.7,130.8h-0.6v-10.4h0.6V130.8z"/>
		</g>
	</g>
	<g>
		<g>
			<path class="st5" d="M179.9,204.6l-0.2,0.8c-3.1,0-5.2,0-6.3-0.1c-1.1-0.1-1.9-0.2-2.6-0.5c-0.6-0.3-1.2-0.6-1.7-1.1
				c-0.5,0.8-1.1,1.4-1.7,1.9l-0.6-0.5c1.5-1.3,2.5-2.9,2.9-4.7h-2.4v-0.7c0.9-1,1.7-2,2.3-2.9h-2.6v-0.7h3.4v0.7
				c-0.7,1-1.4,2-2.2,3h2.3v0.7c-0.3,1.1-0.7,2-1,2.6c0.4,0.5,1,0.9,1.6,1.1c0.6,0.3,1.5,0.4,2.6,0.4c1.1,0,2.3,0.1,3.5,0.1
				C178.3,204.6,179.2,204.6,179.9,204.6z M170.2,195l-0.6,0.5c-0.4-0.6-1.1-1.3-2.1-2.1l0.6-0.5C169,193.7,169.7,194.4,170.2,195z
				 M178.9,198.9h-6v4c0.9-0.2,1.7-0.4,2.6-0.7l0,0.7c-1.2,0.4-2.3,0.7-3.3,0.9l-0.3-0.7c0.2-0.1,0.3-0.2,0.3-0.4v-9.1h6.8V198.9z
				 M178.1,195.8v-1.4h-5.3v1.4H178.1z M178.1,198.1v-1.6h-5.3v1.6H178.1z M179.6,199.8c-0.7,0.5-1.4,1-2.2,1.5
				c0.9,0.7,1.6,1.3,2.1,1.8l-0.5,0.6c-1.1-1.1-2.6-2.3-4.6-3.5l0.5-0.6l1.8,1.2c0.8-0.4,1.6-0.9,2.3-1.6L179.6,199.8z"/>
		</g>
		<g>
			<path class="st5" d="M185.3,193.1l-1,2.4v10.1h-0.8v-8.7c-0.6,1-1.1,1.7-1.6,2.3l-0.5-0.7c1-1.2,2.1-3.1,3.1-5.7L185.3,193.1z
				 M194.4,203l-0.5,0.6c-1.9-1.9-3.2-3.9-4-6.2v8.2h-0.8v-8.1c-0.7,1.9-2,3.9-4,6.1l-0.5-0.6c2.1-2.2,3.5-4.4,4.2-6.7h-3.8v-0.7
				h4.1v-2.6h0.8v2.6h4.1v0.7h-3.9C191,198.8,192.4,201,194.4,203z"/>
		</g>
	</g>
	<g>
		<path class="st6" d="M181.1,140.2c-0.5,0-0.9-0.4-0.9-0.9v-25.6c0-0.5,0.4-0.9,0.9-0.9c0.5,0,0.9,0.4,0.9,0.9v25.6
			C182,139.8,181.6,140.2,181.1,140.2z"/>
	</g>
	<g>
		<path class="st6" d="M128.6,170.5c-0.1,0-0.3,0-0.4-0.1l-22.2-12.8c-0.4-0.2-0.5-0.8-0.3-1.2c0.2-0.4,0.8-0.5,1.2-0.3l22.2,12.8
			c0.4,0.2,0.5,0.8,0.3,1.2C129.2,170.4,128.9,170.5,128.6,170.5z"/>
	</g>
	<g>
		<path class="st6" d="M106.4,244c-0.3,0-0.6-0.2-0.7-0.4c-0.2-0.4-0.1-0.9,0.3-1.2l22.2-12.8c0.4-0.2,0.9-0.1,1.2,0.3
			c0.2,0.4,0.1,0.9-0.3,1.2l-22.2,12.8C106.7,244,106.5,244,106.4,244z"/>
	</g>
	<g>
		<path class="st6" d="M181.1,287.2c-0.5,0-0.9-0.4-0.9-0.9v-25.6c0-0.5,0.4-0.9,0.9-0.9c0.5,0,0.9,0.4,0.9,0.9v25.6
			C182,286.8,181.6,287.2,181.1,287.2z"/>
	</g>
	<g>
		<path class="st6" d="M255.9,244c-0.1,0-0.3,0-0.4-0.1l-22.2-12.8c-0.4-0.2-0.5-0.8-0.3-1.2c0.2-0.4,0.8-0.6,1.2-0.3l22.2,12.8
			c0.4,0.2,0.5,0.8,0.3,1.2C256.5,243.9,256.2,244,255.9,244z"/>
	</g>
	<g>
		<path class="st6" d="M233.7,170.5c-0.3,0-0.6-0.2-0.7-0.4c-0.2-0.4-0.1-0.9,0.3-1.2l22.2-12.8c0.4-0.2,0.9-0.1,1.2,0.3
			c0.2,0.4,0.1,0.9-0.3,1.2l-22.2,12.8C234,170.5,233.9,170.5,233.7,170.5z"/>
	</g>
	<g>
		<path class="st0" d="M113.6,49.5H90.5c-0.5,0-0.9-0.4-0.9-0.9c0-0.5,0.4-0.9,0.9-0.9h23.1c0.5,0,0.9,0.4,0.9,0.9
			C114.5,49.2,114.1,49.5,113.6,49.5z"/>
	</g>
	<g>
		<path class="st0" d="M50.4,70.9c-0.2,0-0.5-0.1-0.6-0.3L45.3,66c-0.3-0.3-0.3-0.9,0-1.2c0.3-0.3,0.9-0.3,1.2,0l3.8,4l3.8-4
			c0.3-0.3,0.9-0.4,1.2,0c0.3,0.3,0.4,0.9,0,1.2L51,70.6C50.8,70.8,50.6,70.9,50.4,70.9z"/>
	</g>
	<g>
		<path class="st0" d="M50.4,70.9c-0.5,0-0.9-0.4-0.9-0.9v-8.5c0-0.5,0.4-0.9,0.9-0.9c0.5,0,0.9,0.4,0.9,0.9v8.5
			C51.2,70.5,50.8,70.9,50.4,70.9z"/>
	</g>
	<g>
		<path class="st2" d="M348.2,182.5c-0.2,0-0.4-0.1-0.6-0.3l-5.6-5.6c-0.3-0.3-0.3-0.9,0-1.2c0.3-0.3,0.9-0.3,1.2,0l5.6,5.6
			c0.3,0.3,0.3,0.9,0,1.2C348.7,182.5,348.5,182.5,348.2,182.5z"/>
	</g>
	<g>
		<path class="st2" d="M344.1,225.9c-0.2,0-0.4-0.1-0.6-0.3c-0.2-0.2-0.3-0.4-0.3-0.6l0.2-6.5c0-0.5,0.4-0.8,0.9-0.8
			c0.5,0,0.8,0.4,0.8,0.9l-0.1,5.6l5.6-0.1c0.5,0,0.9,0.4,0.9,0.8c0,0.5-0.4,0.9-0.8,0.9L344.1,225.9
			C344.1,225.9,344.1,225.9,344.1,225.9z"/>
	</g>
	<g>
		<path class="st2" d="M344.4,225.6c-0.2,0-0.4-0.1-0.6-0.3c-0.3-0.3-0.3-0.9,0-1.2l5.6-5.6c0.3-0.3,0.9-0.3,1.2,0
			c0.3,0.3,0.3,0.9,0,1.2l-5.6,5.6C344.8,225.5,344.6,225.6,344.4,225.6z"/>
	</g>
	<g>
		<path class="st0" d="M86.3,60.7H14.4c-2.4,0-4.3-1.9-4.3-4.3V40.1c0-2.4,1.9-4.3,4.3-4.3h71.8c2.4,0,4.3,1.9,4.3,4.3v16.2
			C90.5,58.7,88.6,60.7,86.3,60.7z"/>
	</g>
	<g>
		<g>
			<path class="st5" d="M40,48.5H37V51c0,0.1,0,0.1,0.1,0.2c0.1,0,0.4,0.1,1.1,0.1c0.6,0,0.9,0,1-0.1c0.1,0,0.2-0.5,0.2-1.4l0.5,0.2
				c0,0.8-0.1,1.3-0.3,1.5c-0.2,0.2-0.6,0.3-1.3,0.3c-0.8,0-1.3,0-1.4-0.1c-0.1,0-0.2-0.1-0.3-0.2c-0.1-0.1-0.1-0.3-0.1-0.4v-2.5H35
				c0,1.8-0.9,2.9-2.8,3.4l-0.3-0.4c1.8-0.4,2.6-1.4,2.5-2.9h-2.5V48H40V48.5z M39.7,46.8h-0.5v-1.7h-6.4v1.7h-0.5v-2.1h3.5
				c-0.2-0.5-0.4-0.8-0.5-0.9l0.5-0.2c0.2,0.4,0.4,0.8,0.5,1.1h3.4V46.8z M38.5,46.6h-5.1v-0.5h5.1V46.6z"/>
		</g>
		<g>
			<path class="st5" d="M49.3,46.5L49,46.9c-1.8-0.8-3-1.6-3.8-2.6c-0.7,1-2,1.9-3.8,2.6l-0.3-0.5c1.6-0.6,2.8-1.3,3.5-2.1h-0.9
				v-0.5h1.8C46.2,44.9,47.5,45.8,49.3,46.5z M49.1,51.6h-7.7v-0.5H45v-1.8h-2.6v-0.5H45v-1.7h-2.6v-0.5H48v0.5h-2.5v1.7H48v0.5
				h-2.5v1.8h3.6V51.6z"/>
		</g>
		<g>
			<path class="st5" d="M58.7,50.6h-3.8v0.5c0,0.2,0,0.3-0.1,0.5c-0.1,0.1-0.2,0.2-0.3,0.2c-0.2,0-0.4,0.1-0.8,0.1h-0.5l-0.2-0.5
				c0.4,0,0.8,0,1.2,0c0.1,0,0.2-0.1,0.2-0.2v-0.6h-3.8v-0.5h3.8v-0.6h-3.3v-0.4h3.3v-0.6c-0.5,0-1.4,0-2.8,0L51.4,48
				c0.3,0,0.6,0,0.9,0c2,0,3.7-0.1,5.2-0.3l0.2,0.4c-0.8,0.1-1.8,0.2-2.9,0.2v0.6h3.3v0.4h-3.3v0.6h3.8V50.6z M58.4,46.8h-0.5v-1.5
				h-6.6v1.5h-0.5v-2h3.5v-1.2h0.5v1.2h3.5V46.8z M53.1,44.4l-0.4,0.3c-0.3-0.3-0.6-0.5-1-0.7l0.4-0.3
				C52.5,43.9,52.8,44.1,53.1,44.4z M57,47.4h-4.8v-1.6H57V47.4z M56.5,47v-0.7h-3.8V47H56.5z M57.5,44c-0.3,0.3-0.7,0.5-1,0.6
				l-0.4-0.3c0.3-0.1,0.6-0.3,1-0.6L57.5,44z"/>
		</g>
		<g>
			<path class="st5" d="M62.6,47.8c-0.4,0.2-0.8,0.3-1,0.4v2.9c0,0.3-0.1,0.5-0.2,0.6c-0.1,0.1-0.4,0.2-0.8,0.2c-0.1,0-0.3,0-0.4,0
				L60,51.4c0.2,0,0.4,0,0.5,0c0.2,0,0.4,0,0.5-0.1c0.1,0,0.1-0.1,0.1-0.2v-2.7c-0.3,0.1-0.7,0.3-1.1,0.4l-0.2-0.5
				c0.4-0.1,0.8-0.3,1.3-0.5v-2.1h-1.2v-0.5h1.2v-1.7h0.5v1.7h0.9v0.5h-0.9v1.9c0.4-0.2,0.7-0.3,1-0.4L62.6,47.8z M68,51.7h-5.5
				v-0.5h2.6v-2.1h-2.2v-0.5h5v0.5h-2.3v2.1H68V51.7z M68,47.8h-1.4c-0.5,0-0.7-0.2-0.7-0.7v-1.9h-0.9c-0.1,1.3-0.6,2.3-1.7,2.9
				l-0.3-0.4c1-0.5,1.5-1.4,1.5-2.5h-1.1v1.1h-0.5v-1.6h2.3c-0.1-0.3-0.3-0.6-0.5-0.9l0.4-0.2c0.2,0.3,0.4,0.7,0.5,1h2.2v1.6h-0.5
				v-1.1h-1.1V47c0,0.2,0.1,0.3,0.3,0.3H68V47.8z"/>
		</g>
	</g>
	<g>
		<path class="st2" d="M395.7,212.8h-71.8c-2.4,0-4.3-1.9-4.3-4.3v-16.2c0-2.4,1.9-4.3,4.3-4.3h71.8c2.4,0,4.3,1.9,4.3,4.3v16.2
			C400,210.9,398.1,212.8,395.7,212.8z"/>
	</g>
	<g>
		<g>
			<path class="st5" d="M339.2,196c-0.2,0.5-0.5,1-0.8,1.5v3.5h-0.5v-2.8c-0.3,0.3-0.6,0.7-0.9,1l-0.3-0.4c0.9-0.9,1.6-1.8,2.1-3
				L339.2,196z M338.4,201.5c-0.4,0.9-0.8,1.6-1.2,2.2l-0.4-0.3c0.5-0.6,0.9-1.3,1.2-2.1L338.4,201.5z M344.5,196.6
				c-0.2,0.6-0.3,1.1-0.5,1.6l-0.5-0.1c0.1-0.4,0.3-0.7,0.4-1h-3.4c-0.4,0.5-0.8,1-1.2,1.4l-0.4-0.3c0.8-0.8,1.4-1.6,1.8-2.3
				l0.5,0.2c-0.1,0.2-0.2,0.4-0.3,0.6H344.5z M341.1,198.5c-0.5,0.9-1.1,1.6-1.6,2l-0.4-0.3c0.5-0.5,1.1-1.1,1.5-1.9L341.1,198.5z
				 M343,202.7c0,0.4-0.1,0.7-0.2,0.8s-0.3,0.3-0.4,0.4c-0.2,0.1-0.5,0.1-1,0.1c-0.5,0-0.9,0-1.2,0c-0.3,0-0.6,0-0.7-0.1
				c-0.1,0-0.2-0.1-0.2-0.2c-0.1-0.1-0.1-0.3-0.1-0.5v-1.9h0.5v1.9c0,0.1,0.1,0.2,0.2,0.3s0.8,0.1,2.1,0.1c0.2,0,0.4-0.1,0.5-0.2
				c0.1-0.2,0.1-0.4,0.2-0.8L343,202.7z M341.9,202.2l-0.4,0.3c-0.3-0.5-0.6-1-1-1.4l0.4-0.3C341.3,201.3,341.7,201.8,341.9,202.2z
				 M342.2,200.9h-0.5v-3.4h0.5V200.9z M344.7,200.1l-0.4,0.3c-0.3-0.6-0.8-1.2-1.4-1.9l0.4-0.3
				C343.9,198.9,344.4,199.5,344.7,200.1z M344.8,203.5l-0.4,0.3c-0.3-0.6-0.7-1.3-1.2-2l0.4-0.3
				C344.1,202.2,344.5,202.9,344.8,203.5z"/>
		</g>
		<g>
			<path class="st5" d="M347.8,202c-0.4,0.8-0.9,1.4-1.3,2l-0.4-0.3c0.5-0.5,0.9-1.2,1.3-1.9L347.8,202z M354.2,201.5h-8.1V201h1.4
				v-1.6h-1.2v-0.5h1.2v-1.1h0.5v1.1h1.2v-1.1h0.5v1.1h1.2v-1.1h0.5v1.1h1.2v-1.1h0.5v1.1h1v0.5h-1v1.6h1.2V201.5z M353.8,197.4
				h-6.4c-0.2,0.2-0.5,0.5-1,0.8l-0.4-0.3c0.6-0.4,1.3-1.1,2-2l0.5,0.2c-0.2,0.3-0.5,0.6-0.7,0.9h5.9V197.4z M349.1,201v-1.6h-1.2
				v1.6H349.1z M349.5,203.9L349,204c0-0.7-0.1-1.4-0.3-2l0.5-0.1C349.4,202.5,349.5,203.2,349.5,203.9z M350.8,201v-1.6h-1.2v1.6
				H350.8z M351.8,203.9l-0.5,0.2c-0.1-0.5-0.4-1.2-0.7-2l0.4-0.2C351.4,202.4,351.6,203.1,351.8,203.9z M352.5,201v-1.6h-1.2v1.6
				H352.5z M354.2,203.8l-0.4,0.2c-0.3-0.6-0.7-1.3-1.1-2l0.4-0.2C353.5,202.5,353.9,203.2,354.2,203.8z"/>
		</g>
		<g>
			<path class="st5" d="M362.9,197.6c0,1.5,0,2.8-0.1,3.8c-0.1,1-0.1,1.7-0.2,2c-0.1,0.3-0.2,0.4-0.4,0.5c-0.2,0.1-0.6,0.1-1.1,0.1
				c-0.3,0-0.6,0-0.9,0l-0.2-0.5c0.4,0,0.8,0,1.1,0c0.5,0,0.8,0,0.9-0.1c0.1-0.1,0.2-0.2,0.2-0.3c0.1-0.2,0.1-0.8,0.2-1.8
				c0.1-1.1,0.1-2.1,0.1-3.2h-2.9c-0.1,1.7-0.5,2.9-1,3.8c-0.6,0.8-1.5,1.6-2.6,2.2l-0.4-0.5c0.6-0.3,1.2-0.6,1.7-1
				c0.5-0.4,0.9-1,1.2-1.6c0.3-0.6,0.5-1.6,0.6-2.9h-3.3v-0.5h3.3c0-0.6,0.1-1.1,0.1-1.7h0.5c0,0.5,0,1.1-0.1,1.7H362.9z"/>
		</g>
		<g>
			<path class="st5" d="M372.8,202.7H369v0.5c0,0.2,0,0.3-0.1,0.5c-0.1,0.1-0.2,0.2-0.3,0.2c-0.2,0-0.4,0.1-0.8,0.1h-0.5l-0.2-0.5
				c0.4,0,0.8,0,1.2,0c0.1,0,0.2-0.1,0.2-0.2v-0.6h-3.8v-0.5h3.8v-0.6h-3.3v-0.4h3.3v-0.6c-0.5,0-1.4,0-2.8,0l-0.2-0.4
				c0.3,0,0.6,0,0.9,0c2,0,3.7-0.1,5.2-0.3l0.2,0.4c-0.8,0.1-1.8,0.2-2.9,0.2v0.6h3.3v0.4H369v0.6h3.8V202.7z M372.5,199h-0.5v-1.5
				h-6.6v1.5H365v-2h3.5v-1.2h0.5v1.2h3.5V199z M367.2,196.5l-0.4,0.3c-0.3-0.3-0.6-0.5-1-0.7l0.4-0.3
				C366.6,196.1,367,196.3,367.2,196.5z M371.2,199.6h-4.8V198h4.8V199.6z M370.7,199.1v-0.7h-3.8v0.7H370.7z M371.7,196.2
				c-0.3,0.3-0.7,0.5-1,0.6l-0.4-0.3c0.3-0.1,0.6-0.3,1-0.6L371.7,196.2z"/>
		</g>
		<g>
			<path class="st5" d="M376.8,199.9c-0.4,0.2-0.8,0.3-1,0.4v2.9c0,0.3-0.1,0.5-0.2,0.6c-0.1,0.1-0.4,0.2-0.8,0.2
				c-0.1,0-0.3,0-0.4,0l-0.2-0.5c0.2,0,0.4,0,0.5,0c0.2,0,0.4,0,0.5-0.1c0.1,0,0.1-0.1,0.1-0.2v-2.7c-0.3,0.1-0.7,0.3-1.1,0.4
				l-0.2-0.5c0.4-0.1,0.8-0.3,1.3-0.5V198H374v-0.5h1.2v-1.7h0.5v1.7h0.9v0.5h-0.9v1.9c0.4-0.2,0.7-0.3,1-0.4L376.8,199.9z
				 M382.1,203.9h-5.5v-0.5h2.6v-2.1H377v-0.5h5v0.5h-2.3v2.1h2.4V203.9z M382.1,199.9h-1.4c-0.5,0-0.7-0.2-0.7-0.7v-1.9h-0.9
				c-0.1,1.3-0.6,2.3-1.7,2.9l-0.3-0.4c1-0.5,1.5-1.4,1.5-2.5h-1.1v1.1H377v-1.6h2.3c-0.1-0.3-0.3-0.6-0.5-0.9l0.4-0.2
				c0.2,0.3,0.4,0.7,0.5,1h2.2v1.6h-0.5v-1.1h-1.1v1.8c0,0.2,0.1,0.3,0.3,0.3h1.4V199.9z"/>
		</g>
	</g>
	<g>
		<path class="st1" d="M108.9,354.9c-0.2,0-0.5-0.1-0.6-0.3c-0.3-0.3-0.3-0.9,0-1.2l4-3.8l-4-3.8c-0.3-0.3-0.4-0.9,0-1.2
			c0.3-0.3,0.9-0.4,1.2,0l4.7,4.5c0.2,0.2,0.3,0.4,0.3,0.6c0,0.2-0.1,0.5-0.3,0.6l-4.7,4.5C109.3,354.8,109.1,354.9,108.9,354.9z"/>
	</g>
	<g>
		<path class="st1" d="M113.6,350.5H90.5c-0.5,0-0.9-0.4-0.9-0.9c0-0.5,0.4-0.9,0.9-0.9h23.1c0.5,0,0.9,0.4,0.9,0.9
			C114.5,350.1,114.1,350.5,113.6,350.5z"/>
	</g>
	<g>
		<path class="st1" d="M54.8,333.8c-0.2,0-0.5-0.1-0.6-0.3l-3.8-4l-3.8,4c-0.3,0.3-0.9,0.4-1.2,0c-0.3-0.3-0.4-0.9,0-1.2l4.5-4.7
			c0.3-0.3,0.9-0.3,1.2,0l4.5,4.7c0.3,0.3,0.3,0.9,0,1.2C55.2,333.7,55,333.8,54.8,333.8z"/>
	</g>
	<g>
		<path class="st1" d="M50.4,336.8c-0.5,0-0.9-0.4-0.9-0.9v-7.7c0-0.5,0.4-0.9,0.9-0.9c0.5,0,0.9,0.4,0.9,0.9v7.7
			C51.2,336.4,50.8,336.8,50.4,336.8z"/>
	</g>
	<g>
		<path class="st1" d="M85.5,361.6H15.2c-2.8,0-5-2.2-5-5v-14.8c0-2.8,2.2-5,5-5h70.4c2.8,0,5,2.2,5,5v14.8
			C90.5,359.3,88.3,361.6,85.5,361.6z"/>
	</g>
	<g>
		<g>
			<path class="st5" d="M36.6,348.6h-4.7v-0.5h1.3c-0.1-0.5-0.3-1.1-0.5-1.7l0.4-0.3h-0.9v-0.5h2.1c-0.1-0.3-0.3-0.6-0.5-0.9
				l0.4-0.2c0.2,0.3,0.4,0.6,0.6,1.1h1.8v0.5h-0.9l0.4,0.2c-0.2,0.6-0.4,1.2-0.6,1.7h1.4V348.6z M36.1,352.8h-0.5v-0.6H33v0.6h-0.5
				v-3.3h3.6V352.8z M35.6,351.7V350H33v1.7H35.6z M35.4,346.1h-2.3c0.3,0.7,0.5,1.3,0.6,2h1.1C35.1,347.5,35.3,346.9,35.4,346.1z
				 M39,348.2c0.6,0.8,0.9,1.6,0.9,2.3c0,0.4-0.1,0.7-0.3,0.9c-0.2,0.2-0.6,0.3-1.1,0.3c-0.1,0-0.2,0-0.3,0l-0.1-0.5
				c0.1,0,0.3,0,0.5,0c0.3,0,0.5,0,0.5-0.1c0.1,0,0.2-0.1,0.2-0.2c0.1-0.1,0.1-0.3,0.1-0.5c0-0.7-0.3-1.4-1-2.2
				c0.3-0.9,0.6-1.9,0.8-2.9h-1.8v7.3h-0.5v-7.8h2.7v0.5C39.6,346.4,39.3,347.3,39,348.2z"/>
		</g>
		<g>
			<path class="st5" d="M44.5,344.8c-0.7,1.7-1.7,3-3,3.8l-0.3-0.4c1.2-0.8,2.1-2,2.8-3.6L44.5,344.8z M47.9,348.1
				c0,1-0.1,1.9-0.2,2.7c-0.1,0.8-0.2,1.3-0.3,1.5c-0.1,0.2-0.2,0.3-0.4,0.4c-0.2,0.1-0.5,0.1-0.9,0.1c-0.2,0-0.4,0-0.7,0l-0.1-0.5
				c0.3,0,0.7,0,0.9,0c0.3,0,0.5,0,0.5-0.1c0.1,0,0.2-0.1,0.2-0.2c0.1-0.1,0.1-0.3,0.2-0.6c0.1-0.3,0.1-0.8,0.2-1.3s0.1-1,0.1-1.7
				H45c-0.2,1.8-1.2,3.3-3.1,4.3l-0.3-0.4c1.7-1,2.7-2.3,2.8-3.9h-1.8v-0.5H47.9z M49.4,348.2l-0.3,0.4c-1.2-0.9-2.1-2-2.6-3.4h-0.7
				v-0.5h1C47.3,346.2,48.2,347.4,49.4,348.2z"/>
		</g>
		<g>
			<path class="st5" d="M58.7,351.5h-3.8v0.5c0,0.2,0,0.3-0.1,0.5c-0.1,0.1-0.2,0.2-0.3,0.2c-0.2,0-0.4,0.1-0.8,0.1h-0.5l-0.2-0.5
				c0.4,0,0.8,0,1.2,0c0.1,0,0.2-0.1,0.2-0.2v-0.6h-3.8V351h3.8v-0.6h-3.3V350h3.3v-0.6c-0.5,0-1.4,0-2.8,0l-0.2-0.4
				c0.3,0,0.6,0,0.9,0c2,0,3.7-0.1,5.2-0.3l0.2,0.4c-0.8,0.1-1.8,0.2-2.9,0.2v0.6h3.3v0.4h-3.3v0.6h3.8V351.5z M58.4,347.7h-0.5
				v-1.5h-6.6v1.5h-0.5v-2h3.5v-1.2h0.5v1.2h3.5V347.7z M53.1,345.3l-0.4,0.3c-0.3-0.3-0.6-0.5-1-0.7l0.4-0.3
				C52.5,344.8,52.8,345,53.1,345.3z M57,348.3h-4.8v-1.6H57V348.3z M56.5,347.9v-0.7h-3.8v0.7H56.5z M57.5,344.9
				c-0.3,0.3-0.7,0.5-1,0.6l-0.4-0.3c0.3-0.1,0.6-0.3,1-0.6L57.5,344.9z"/>
		</g>
		<g>
			<path class="st5" d="M62.6,348.7c-0.4,0.2-0.8,0.3-1,0.4v2.9c0,0.3-0.1,0.5-0.2,0.6c-0.1,0.1-0.4,0.2-0.8,0.2c-0.1,0-0.3,0-0.4,0
				l-0.2-0.5c0.2,0,0.4,0,0.5,0c0.2,0,0.4,0,0.5-0.1c0.1,0,0.1-0.1,0.1-0.2v-2.7c-0.3,0.1-0.7,0.3-1.1,0.4l-0.2-0.5
				c0.4-0.1,0.8-0.3,1.3-0.5v-2.1h-1.2v-0.5h1.2v-1.7h0.5v1.7h0.9v0.5h-0.9v1.9c0.4-0.2,0.7-0.3,1-0.4L62.6,348.7z M68,352.6h-5.5
				v-0.5h2.6V350h-2.2v-0.5h5v0.5h-2.3v2.1H68V352.6z M68,348.7h-1.4c-0.5,0-0.7-0.2-0.7-0.7v-1.9h-0.9c-0.1,1.3-0.6,2.3-1.7,2.9
				l-0.3-0.4c1-0.5,1.5-1.4,1.5-2.5h-1.1v1.1h-0.5v-1.6h2.3c-0.1-0.3-0.3-0.6-0.5-0.9l0.4-0.2c0.2,0.3,0.4,0.7,0.5,1h2.2v1.6h-0.5
				v-1.1h-1.1v1.8c0,0.2,0.1,0.3,0.3,0.3H68V348.7z"/>
		</g>
	</g>
</g>
</svg>
