<?xml version="1.0" encoding="utf-8"?>
<!-- Generator: Adobe Illustrator 21.0.0, SVG Export Plug-In . SVG Version: 6.00 Build 0)  -->
<svg version="1.1" id="圖層_1" xmlns="http://www.w3.org/2000/svg" xmlns:xlink="http://www.w3.org/1999/xlink" x="0px" y="0px"
	 viewBox="0 0 90 23" style="enable-background:new 0 0 90 23;" xml:space="preserve">
<style type="text/css">
	.st0{fill:#767D89;}
</style>
<g>
	<g>
		<path class="st0" d="M2.5,22.5H0L4.5,1.4H15l-0.4,2.2H6.4l-1.6,7.7h7.6L12,13.5H4.4L2.5,22.5z"/>
		<path class="st0" d="M16,22.5h-2.4l3.4-15.8h2.4L16,22.5z M17.6,2.7c0-0.5,0.2-1,0.5-1.3c0.3-0.3,0.7-0.5,1.2-0.5
			c0.8,0,1.3,0.4,1.3,1.3c0,0.5-0.2,1-0.5,1.3C19.7,3.8,19.3,4,18.9,4c-0.4,0-0.7-0.1-1-0.4C17.7,3.4,17.6,3.1,17.6,2.7z"/>
		<path class="st0" d="M30.7,22.5l2.1-10c0.2-1,0.3-1.7,0.3-2.1c0-0.6-0.2-1.1-0.5-1.5c-0.3-0.4-0.9-0.5-1.6-0.5
			c-0.9,0-1.7,0.3-2.5,0.9c-0.8,0.6-1.5,1.4-2.1,2.5c-0.6,1.1-1.1,2.4-1.4,3.9l-1.5,6.8H21l3.4-15.8h2l-0.3,2.9h0.1
			c0.9-1.2,1.8-2,2.7-2.5c0.9-0.5,1.7-0.7,2.7-0.7c1.2,0,2.2,0.3,2.9,1c0.7,0.7,1.1,1.6,1.1,2.8c0,0.8-0.1,1.6-0.3,2.6l-2.1,9.7
			H30.7z"/>
		<path class="st0" d="M40.5,22.5h-2.4l3.4-15.8h2.4L40.5,22.5z M42.1,2.7c0-0.5,0.2-1,0.5-1.3c0.3-0.3,0.7-0.5,1.2-0.5
			c0.8,0,1.3,0.4,1.3,1.3c0,0.5-0.2,1-0.5,1.3C44.2,3.8,43.8,4,43.4,4c-0.4,0-0.7-0.1-1-0.4C42.2,3.4,42.1,3.1,42.1,2.7z"/>
		<path class="st0" d="M55.3,18c0,1.5-0.5,2.7-1.6,3.5c-1.1,0.8-2.6,1.3-4.5,1.3c-1.6,0-3.1-0.3-4.4-1v-2.3c0.7,0.4,1.4,0.7,2.2,0.9
			c0.8,0.2,1.5,0.3,2.2,0.3c1.2,0,2.1-0.2,2.7-0.7c0.6-0.5,0.9-1.1,0.9-1.8c0-0.5-0.2-1-0.5-1.4c-0.3-0.4-1.1-0.9-2.2-1.5
			c-1.2-0.7-2.1-1.4-2.7-2.1c-0.5-0.7-0.8-1.5-0.8-2.4c0-1.3,0.5-2.4,1.5-3.2c1-0.8,2.2-1.2,3.8-1.2c1.6,0,3.2,0.4,4.8,1.1l-0.8,2
			l-0.8-0.4c-1-0.4-2-0.6-3.2-0.6c-0.9,0-1.6,0.2-2.1,0.6c-0.5,0.4-0.8,1-0.8,1.6c0,0.5,0.2,1,0.5,1.4s1,0.9,2.1,1.5
			c1,0.6,1.8,1.1,2.2,1.5c0.4,0.4,0.8,0.9,1,1.3C55.2,16.9,55.3,17.4,55.3,18z"/>
		<path class="st0" d="M67.8,22.5l2.1-10c0.2-0.9,0.3-1.6,0.3-1.9c0-1.4-0.7-2.1-2.1-2.1c-0.9,0-1.7,0.3-2.5,0.8s-1.5,1.4-2.1,2.5
			c-0.6,1.1-1.1,2.4-1.4,3.9l-1.5,6.8h-2.4l4.8-22.4h2.4c-0.2,0.8-0.3,1.6-0.5,2.3c-0.2,0.7-0.3,1.5-0.5,2.3C64.2,5.4,64,6.2,63.8,7
			c-0.2,0.8-0.4,1.7-0.7,2.7h0.2c0.9-1.2,1.8-2,2.7-2.5c0.9-0.5,1.8-0.8,2.8-0.8c1.3,0,2.2,0.3,2.9,1c0.7,0.7,1,1.7,1,2.9
			c0,0.6-0.1,1.4-0.3,2.4c-0.4,1.9-1.1,5.1-2.1,9.7H67.8z"/>
		<path class="st0" d="M82.6,21.4c0-0.7,0.2-1.3,0.6-1.7c0.4-0.4,0.9-0.6,1.5-0.6c0.4,0,0.8,0.1,1.1,0.4c0.3,0.3,0.4,0.7,0.4,1.2
			c0,0.7-0.2,1.2-0.6,1.7c-0.4,0.5-0.9,0.7-1.5,0.7c-0.5,0-0.8-0.1-1.1-0.4C82.8,22.2,82.6,21.9,82.6,21.4z M90,1.4l-3.9,15.3h-1.6
			c0.5-2.9,1.3-8,2.5-15.3H90z"/>
	</g>
</g>
</svg>
