<?xml version="1.0" encoding="utf-8"?>
<!-- Generator: Adobe Illustrator 21.0.0, SVG Export Plug-In . SVG Version: 6.00 Build 0)  -->
<svg version="1.1" id="圖層_1" xmlns="http://www.w3.org/2000/svg" xmlns:xlink="http://www.w3.org/1999/xlink" x="0px" y="0px"
	 viewBox="0 0 400 400" style="enable-background:new 0 0 400 400;" xml:space="preserve">
<style type="text/css">
	.st0{fill:#B9B631;}
	.st1{fill:#9D74B4;}
	.st2{fill:#ED8B00;}
	.st3{fill:#5E8AB4;}
	
		.st4{fill:none;stroke:#63666A;stroke-width:2;stroke-linecap:round;stroke-linejoin:round;stroke-miterlimit:10;stroke-dasharray:0.1,10;}
	.st5{fill:none;stroke:#767D89;stroke-miterlimit:10;}
	.st6{fill:#767D89;}
</style>
<g>
	<g>
		<path class="st0" d="M316.3,61.6h18.5c0.6,0,1-0.5,1-1s-0.5-1-1-1h-18.5c-0.6,0-1,0.5-1,1S315.8,61.6,316.3,61.6z"/>
		<circle class="st0" cx="308.8" cy="60.6" r="1.4"/>
		<path class="st0" d="M316.3,71.9h18.5c0.6,0,1-0.5,1-1s-0.5-1-1-1h-18.5c-0.6,0-1,0.5-1,1S315.8,71.9,316.3,71.9z"/>
		<circle class="st0" cx="308.8" cy="70.8" r="1.4"/>
		<path class="st0" d="M316.3,82.8h18.5c0.6,0,1-0.5,1-1s-0.5-1-1-1h-18.5c-0.6,0-1,0.5-1,1S315.8,82.8,316.3,82.8z"/>
		<circle class="st0" cx="308.8" cy="81.8" r="1.4"/>
		<circle class="st0" cx="308.8" cy="92.1" r="1.4"/>
		<path class="st0" d="M344.1,93.1V51c0-1.7-1.4-3.1-3.1-3.1H302c-1.7,0-3.1,1.4-3.1,3.1v58.2c0,1.7,1.4,3.1,3.1,3.1h25.7
			c2.2,1.9,5.1,3.1,8.3,3.1c7,0,12.7-5.7,12.7-12.7C348.6,98.8,346.8,95.4,344.1,93.1z M316.3,93.1h11.3c-2.7,2.3-4.4,5.8-4.4,9.6
			c0,2.8,0.9,5.4,2.5,7.5H302c-0.6,0-1-0.5-1-1V51c0-0.6,0.5-1,1-1H341c0.6,0,1,0.5,1,1v40.7c-1.8-1-3.9-1.6-6.2-1.6
			c-1.8,0-3.5,0.4-5,1h-14.5c-0.6,0-1,0.5-1,1S315.8,93.1,316.3,93.1z M342.4,101l-0.4,0.4l-5.8,5.8c-0.2,0.2-0.5,0.3-0.7,0.3
			c-0.3,0-0.5-0.1-0.7-0.3l-3.4-3.4c-0.4-0.4-0.4-1.1,0-1.5c0.4-0.4,1.1-0.4,1.5,0l2.7,2.7l5.4-5.4c0.3-0.3,0.7-0.4,1.1-0.2
			c0.1,0,0.3,0.1,0.4,0.2C342.8,100,342.8,100.6,342.4,101z"/>
	</g>
	<g>
		<path class="st1" d="M353.4,192c3.8,2,7.9,2.9,12.1,2.1c2.1-0.4,4-1.3,6.1-1.9c0.6-0.2,1.3-0.2,1.9,0c1.3,0.4,2.6,1,3.9,1.4
			c5.3,1.6,10.4,0.8,15.1-2.1c1.5-0.9,2.5-2.3,2.9-4c0.1-0.4,0-0.8,0-1.4c-1.1,0.7-2,1.5-2.9,1.9c-2.6,1-5.2,0.7-7.6-0.8
			c-1.6-1-3.1-2.1-4.7-3c-1.7-1-3.6-1.1-5.5-0.4c-0.8,0.4-1.6,0.9-2.3,1.4c-3-2.4-5.2-2.6-8.5-0.6c-1.5,0.9-2.9,2-4.4,2.9
			c-3,1.8-6.6,1.4-9.1-0.9c-0.2-0.1-0.4-0.2-0.8-0.5c0,0.6-0.1,1.1,0,1.5C350.1,189.6,351.5,191,353.4,192z"/>
		<path class="st1" d="M392.7,208.8c2.1-2.7,3.3-6.5,2.1-12.5c-0.1-0.6-0.7-0.9-1.2-0.8c-0.6,0.1-0.9,0.7-0.8,1.2
			c1.1,5.5,0.1,8.8-2.1,11.4c-1-0.3-2.1-0.4-3.3-0.4c-7,0-12.7,5.7-12.7,12.7c0,1.2,0.2,2.3,0.5,3.4c-0.7,0.7-1.4,1.4-2.3,2.1
			c-2.6-2.2-8.2-7.3-7.2-12.1c0.1-0.6-0.2-1.1-0.8-1.2c-0.6-0.1-1.1,0.2-1.2,0.8c-0.4,1.8,0,3.6,0.7,5.3c-2.9-1.8-6-5.3-5.2-9.3
			c0.1-0.6-0.2-1.1-0.8-1.2c-0.6-0.1-1.1,0.2-1.2,0.8c-0.1,0.4-0.1,0.8-0.1,1.2c-3.8-2.9-5.8-6.4-4.4-13.4c0.1-0.6-0.2-1.1-0.8-1.2
			c-0.6-0.1-1.1,0.2-1.2,0.8c-1.9,9.4,2,13.4,6.5,16.4c0.1,0.1,0.2,0.1,0.3,0.1c1.1,4.3,5.3,7.8,8.8,8.8c0,0,0,0,0,0
			c2.1,2.9,4.9,5.3,6.2,6.4c0.2,0.2,0.4,0.2,0.7,0.2c0.2,0,0.5-0.1,0.7-0.2c0.9-0.7,1.7-1.4,2.4-2.1c2.1,4.2,6.4,7.2,11.4,7.2
			c7,0,12.7-5.7,12.7-12.7C400,215.2,397,210.9,392.7,208.8z M392.9,218.3l-5.4,6.2c-0.2,0.2-0.5,0.4-0.8,0.4
			c-0.2,0-0.5-0.1-0.6-0.2l-3.9-3.1c-0.2-0.2-0.4-0.5-0.4-0.8c0-0.2,0.1-0.5,0.2-0.7c0.3-0.4,0.8-0.5,1.3-0.3c0.1,0,0.1,0,0.2,0.1
			l3.1,2.5l4.7-5.4c0.4-0.4,1-0.5,1.5-0.1C393.2,217.2,393.3,217.8,392.9,218.3z"/>
		<path class="st1" d="M366.1,178.5c0.5-0.1,0.8-0.5,0.8-1v-6.9c0-0.6-0.5-1-1-1h-18.1c-0.6,0-1,0.5-1,1v6.9c0,0.5,0.3,0.9,0.8,1
			c0.2,0.1,5.8,1.3,9.3,1.3C360.3,179.8,365.8,178.6,366.1,178.5z M348.8,171.7h16v5c-1.7,0.3-5.5,1.1-8,1.1c-2.5,0-6.4-0.7-8-1.1
			V171.7z"/>
		<path class="st1" d="M379.1,178.5c0.2,0.1,5.8,1.3,9.3,1.3c3.5,0,9-1.2,9.3-1.3c0.5-0.1,0.8-0.5,0.8-1v-6.9c0-0.6-0.5-1-1-1h-18.1
			c-0.6,0-1,0.5-1,1v6.9C378.3,178,378.6,178.4,379.1,178.5z M380.4,171.7h16v5c-1.7,0.3-5.5,1.1-8,1.1c-2.5,0-6.4-0.7-8-1.1V171.7z
			"/>
		<path class="st1" d="M370.9,175.5h3.4c0.6,0,1-0.5,1-1c0-0.6-0.5-1-1-1h-3.4c-0.6,0-1,0.5-1,1C369.9,175,370.3,175.5,370.9,175.5z
			"/>
	</g>
	<g>
		<path class="st2" d="M235.7,364.8h-4.3c-2.4-6.7-7.8-12.1-14.6-15.1c0.1-0.5,0.1-1,0.1-1.5c0-6.7-5.4-12.1-12.1-12.1
			c-6.7,0-12.1,5.4-12.1,12.1c0,0.5,0,1,0.1,1.5c-6.9,3-12.2,8.5-14.5,15.1c-2.1,0.3-4,1.9-5.3,4.3c-1.3,2.5-1.9,6.1,0.2,9
			c0.2,0.3,0.5,0.4,0.8,0.4c0.2,0,0.4-0.1,0.6-0.2c0.5-0.3,0.6-1,0.2-1.4c-1.5-2.1-1-5,0-6.8c0.7-1.4,1.7-2.4,2.8-2.9
			c-0.4,1.7-0.6,3.5-0.6,5.3c0,7.7,3.7,14.8,10.3,19.6l-0.4,2.5c-0.2,1.6,0.8,3,2.4,3.3l7.3,1.2c0.2,0,0.3,0,0.5,0
			c0.6,0,1.2-0.2,1.7-0.5c0.4-0.3,0.8-0.7,1-1.2c4.3,0.7,8.8,0.5,13-0.6c0.3,1.4,1.7,2.3,3.1,2.2l7.4-0.8c1.6-0.2,2.7-1.6,2.6-3.2
			l-0.6-5.2c2.9-2.8,5.1-6.2,6.3-9.8h4.1c1.6,0,2.9-1.3,2.9-2.9v-9.5C238.6,366.1,237.3,364.8,235.7,364.8z M206.1,349.8
			c-0.3-0.2-0.5-0.3-0.8-0.4c-0.1,0-0.2-0.1-0.3-0.1c-0.6-0.3-1.3-0.5-1.9-0.9c-0.4-0.2-0.8-0.6-1-0.9c-0.3-0.5-0.4-1-0.4-1.6
			c0.1-1.2,0.8-1.9,1.8-2.4c0.2-0.1,0.4-0.1,0.6-0.2c0.1,0,0.2-0.1,0.2-0.2c0-0.4,0-0.7,0-1.1c0-0.2,0.1-0.3,0.3-0.3
			c0.3,0,0.6,0,0.8,0c0.2,0,0.3,0.1,0.3,0.3c0,0.4,0,0.8,0,1.2c0.8,0.1,1.5,0.4,2.1,0.9c0.3,0.3,0.3,0.3,0.1,0.7
			c-0.2,0.3-0.3,0.6-0.5,0.9c-0.1,0.2-0.2,0.3-0.5,0.1c-0.5-0.4-1.1-0.7-1.8-0.8c-0.5,0-0.9,0-1.3,0.3c-0.6,0.4-0.7,1.2-0.1,1.6
			c0.3,0.2,0.7,0.4,1,0.6c0,0,0.1,0,0.1,0.1c0.6,0.3,1.2,0.5,1.8,0.8c0.6,0.3,1.1,0.8,1.4,1.4c0,0.1,0.1,0.1,0.1,0.2
			c0.5,1.6-0.5,3.3-2.2,3.7c-0.1,0-0.2,0.1-0.3,0.1c0,0.2,0,0.5,0,0.7c0,0.9,0.1,0.8-0.8,0.8c-0.6,0-0.6,0-0.6-0.6
			c0-0.2,0-0.5,0-0.7c0-0.2,0-0.2-0.2-0.3c-0.9-0.2-1.6-0.5-2.3-1.1c-0.4-0.3-0.4-0.4-0.1-0.7c0.2-0.2,0.4-0.5,0.6-0.7
			c0.2-0.2,0.3-0.2,0.5-0.1c0.6,0.5,1.3,0.9,2.1,1c0.4,0,0.8,0,1.2-0.3C206.8,351.1,206.8,350.3,206.1,349.8z M236.5,377.2
			c0,0.5-0.4,0.8-0.8,0.8h-4.9c-0.5,0-0.9,0.3-1,0.7c-1.1,3.7-3.3,7.2-6.3,10c-0.2,0.2-0.4,0.5-0.3,0.9l0.6,5.7
			c0,0.4-0.3,0.9-0.7,0.9l-7.4,0.8c-0.4,0-0.9-0.3-0.9-0.7l-0.1-0.8c0-0.3-0.2-0.6-0.5-0.7c-0.3-0.2-0.6-0.2-0.9-0.1
			c-4.5,1.4-9.4,1.6-14.1,0.7c-0.3-0.1-0.6,0-0.8,0.2c-0.2,0.2-0.4,0.4-0.4,0.7l-0.1,0.4c0,0.2-0.2,0.4-0.3,0.5
			c-0.2,0.1-0.4,0.2-0.6,0.1l-7.3-1.2c-0.4-0.1-0.8-0.5-0.7-0.9l0.5-3.1c0.1-0.4-0.1-0.8-0.4-1c-6.3-4.4-9.9-11.1-9.9-18.3
			c0-9.1,5.8-16.9,14.2-20.7c1.5,5,6.1,8.6,11.6,8.6c5.4,0,10.1-3.6,11.6-8.6c6.3,2.9,11.2,8,13.3,14.3c0.1,0.4,0.5,0.7,1,0.7h5
			c0.5,0,0.8,0.4,0.8,0.8V377.2z"/>
		<circle class="st2" cx="220.3" cy="363.5" r="1.4"/>
	</g>
	<g>
		<path class="st1" d="M37.3,163.3C16.8,163.3,0,180.1,0,200.6C0,221.2,16.8,238,37.3,238c20.6,0,37.3-16.8,37.3-37.3
			C74.7,180.1,57.9,163.3,37.3,163.3z M37.3,235.9c-19.5,0-35.3-15.8-35.3-35.3c0-19.5,15.8-35.3,35.3-35.3
			c19.5,0,35.3,15.8,35.3,35.3C72.6,220.1,56.8,235.9,37.3,235.9z"/>
		<path class="st1" d="M66.5,199.3h-7.6c-0.7-11-9.7-19.8-20.8-20.2v-7.6c0-0.6-0.5-1-1-1c-0.6,0-1,0.5-1,1v7.6
			c-11,0.7-19.8,9.7-20.2,20.9H8.2c-0.6,0-1,0.5-1,1c0,0.6,0.5,1,1,1h7.6c0.7,11,9.7,19.8,20.8,20.2v7.6c0,0.6,0.5,1,1,1
			c0.6,0,1-0.5,1-1v-7.6c11-0.7,19.8-9.7,20.2-20.9h7.6c0.6,0,1-0.5,1-1C67.5,199.7,67,199.3,66.5,199.3z M38.7,220.1v-6.8
			c0-0.6-0.5-1-1-1c-0.6,0-1,0.5-1,1v6.8c-10-0.3-18.1-8.2-18.8-18.1h6.8c0.6,0,1-0.5,1-1c0-0.6-0.5-1-1-1h-6.8
			c0.3-10,8.2-18.1,18.1-18.8v6.8c0,0.6,0.5,1,1,1c0.6,0,1-0.5,1-1v-6.8c10,0.3,18.1,8.2,18.8,18.1H50c-0.6,0-1,0.5-1,1
			c0,0.6,0.5,1,1,1h6.8C56.5,211.3,48.6,219.4,38.7,220.1z"/>
		<path class="st1" d="M39.4,200.8c-0.7-0.4-1.4-0.6-2.1-0.9c-0.5-0.2-1-0.5-1.4-0.8c-0.7-0.6-0.6-1.5,0.1-2c0.5-0.3,1-0.4,1.5-0.3
			c0.8,0.1,1.5,0.4,2.2,0.9c0.3,0.2,0.4,0.2,0.6-0.1c0.2-0.3,0.4-0.7,0.6-1c0.2-0.4,0.2-0.5-0.2-0.8c-0.7-0.6-1.6-0.9-2.6-1
			c0-0.5,0-1,0-1.5c0-0.3-0.1-0.4-0.4-0.4c-0.3,0-0.7,0-1,0c-0.3,0-0.4,0.1-0.4,0.4c0,0.4,0,0.9,0,1.3c0,0.2,0,0.2-0.2,0.3
			c-0.2,0.1-0.5,0.1-0.7,0.2c-1.3,0.6-2.1,1.5-2.2,2.9c-0.1,1.4,0.5,2.4,1.7,3.1c0.7,0.4,1.5,0.7,2.3,1.1c0.5,0.2,0.9,0.4,1.4,0.7
			c0.8,0.6,0.8,1.6-0.1,2.1c-0.4,0.3-0.9,0.4-1.4,0.3c-1-0.1-1.8-0.5-2.6-1.2c-0.2-0.2-0.4-0.2-0.6,0.1c-0.2,0.3-0.4,0.6-0.7,0.9
			c-0.3,0.4-0.3,0.5,0.1,0.9c0.8,0.7,1.7,1.1,2.8,1.3c0.2,0,0.3,0.1,0.3,0.3c0,0.3,0,0.6,0,0.9c0,0.8,0,0.8,0.8,0.8c1.1,0,1,0.1,1-1
			c0-0.3,0-0.6,0-0.9c0.2,0,0.3-0.1,0.4-0.1c2-0.5,3.2-2.5,2.7-4.5C40.9,201.8,40.2,201.2,39.4,200.8z"/>
	</g>
	<path class="st3" d="M122.2,78.2h-9l-4.2-10.2c-0.2-0.4-0.6-0.7-1-0.6c-0.4,0-0.8,0.4-0.9,0.8l-4.8,21.6c0,0,0,0,0,0l-4.8-22.5
		c-0.1-0.4-0.5-0.8-0.9-0.8c-0.5,0-0.9,0.2-1,0.7l-5.2,14.3l-5.7-23.9c-0.1-0.5-0.6-0.8-1.1-0.8c-0.5,0-0.9,0.4-1,0.9l-5.2,38.3
		l-6.5-20.4c-0.1-0.4-0.5-0.7-1-0.7c0,0,0,0,0,0c-0.4,0-0.8,0.3-1,0.7l-4.4,12.9l-5.4-9.5c-0.2-0.3-0.5-0.5-0.9-0.5h-9.7
		c-0.6,0-1,0.5-1,1s0.5,1,1,1h9.1l6.2,11c0.2,0.4,0.6,0.6,1,0.5c0.4,0,0.7-0.3,0.9-0.7l4.1-12.1l7,21.8c0.1,0.4,0.5,0.7,1,0.7
		c0,0,0.1,0,0.1,0c0.5,0,0.9-0.4,0.9-0.9l5.1-37.3l5.3,21.9c0.1,0.4,0.5,0.8,0.9,0.8c0.5,0,0.9-0.2,1-0.7L96,71.1l4.1,19
		c-5.4,1.4-9.4,6.4-9.4,12.2c0,7,5.7,12.7,12.7,12.7c7,0,12.7-5.7,12.7-12.7c0-6.7-5.2-12.2-11.8-12.6l4-18l3.2,7.9
		c0.2,0.4,0.5,0.6,1,0.6h9.7c0.6,0,1-0.5,1-1S122.8,78.2,122.2,78.2z M107.9,101.1c0,1.9-2.3,3.8-4.9,6.4c-2.6-2.6-4.9-4.5-4.9-6.4
		c0-2.7,3.6-3.4,4.9-1.2C104.3,97.7,107.9,98.3,107.9,101.1z"/>
	<path class="st0" d="M123,316.7c0-0.2,0-0.5-0.1-0.7c0-0.5-0.1-0.9-0.1-1.4c0-0.3-0.1-0.6-0.1-0.9c-0.1-0.4-0.1-0.7-0.2-1.1
		c-0.1-0.3-0.1-0.7-0.2-1c0-0.2-0.1-0.4-0.1-0.6c-2-9.1-7.3-17-15.2-22.4c-0.1-0.1-0.2-0.1-0.2-0.2c-0.3-0.2-0.6-0.4-0.8-0.6
		c0,0-0.1,0-0.1,0c-5.6-3.5-12.3-5.6-19.4-5.6c-20.2,0-36.7,16.4-36.7,36.7c0,2.8,0.3,5.5,0.9,8.1c0,0,0,0,0,0.1
		c0.1,0.3,0.1,0.6,0.2,0.8c0,0.1,0,0.2,0.1,0.3c0.2,0.8,0.4,1.6,0.7,2.3c0.1,0.3,0.2,0.6,0.3,0.9c0.1,0.4,0.3,0.8,0.4,1.1
		c4.2,10.7,13.1,18.6,24,21.7c0.4,0.1,0.8,0.2,1.2,0.3c0.3,0.1,0.7,0.2,1,0.2c0.7,0.2,1.5,0.3,2.3,0.4c0,0,0,0,0,0
		c0.5,0.1,1.1,0.1,1.6,0.2c0.1,0,0.2,0,0.3,0c0.5,0,0.9,0.1,1.4,0.1c0.1,0,0.3,0,0.4,0c0.6,0,1.2,0,1.8,0c0.7,0,1.4,0,2.1-0.1
		c0.2,0,0.4,0,0.6,0c0.5,0,1-0.1,1.5-0.1c0.2,0,0.4-0.1,0.6-0.1c0.5-0.1,1-0.1,1.5-0.2c0.2,0,0.4-0.1,0.5-0.1
		c0.6-0.1,1.2-0.2,1.8-0.4c0.1,0,0.2,0,0.3-0.1c0.7-0.2,1.4-0.4,2.1-0.6c0,0,0.1,0,0.1,0c0.6-0.2,1.2-0.4,1.8-0.6
		c0.2-0.1,0.4-0.2,0.6-0.2c0.4-0.2,0.8-0.3,1.2-0.5c0.3-0.1,0.5-0.2,0.8-0.4c0.3-0.2,0.6-0.3,1-0.5c0.3-0.2,0.6-0.3,0.9-0.5
		c0.2-0.1,0.4-0.2,0.6-0.3c1.3-0.8,2.6-1.6,3.9-2.5c0.1,0,0.1-0.1,0.2-0.1c3.2-2.4,6-5.3,8.3-8.7c2.7-4,4.6-8.5,5.6-13.2
		c0-0.1,0-0.1,0-0.2c0.2-1.1,0.4-2.3,0.5-3.4c0-0.1,0-0.3,0-0.4c0-0.4,0.1-0.9,0.1-1.3c0-0.2,0-0.3,0-0.5c0-0.6,0-1.1,0-1.7
		C123,318.1,123,317.4,123,316.7z M105.8,308.3c0.2-0.1,0.5-0.2,0.7-0.2c0.2,0,0.2-0.1,0.2-0.3c0-0.4,0-0.8,0-1.3
		c0-0.3,0.1-0.4,0.4-0.4c0.3,0,0.6,0,1,0c0.3,0,0.4,0.1,0.4,0.4c0,0.5,0,0.9,0,1.4c0.9,0.1,1.7,0.4,2.5,1c0.4,0.3,0.4,0.3,0.2,0.8
		c-0.2,0.3-0.4,0.7-0.5,1c-0.2,0.3-0.3,0.3-0.5,0.1c-0.6-0.5-1.3-0.8-2.1-0.9c-0.5,0-1,0-1.5,0.3c-0.7,0.5-0.8,1.4-0.1,1.9
		c0.4,0.3,0.9,0.5,1.3,0.8c0.7,0.3,1.4,0.6,2,0.9c0.8,0.4,1.4,1,1.7,1.9c0.5,1.8-0.6,3.8-2.5,4.3c-0.1,0-0.2,0.1-0.4,0.1
		c0,0.3,0,0.5,0,0.8c0,1.1,0.1,1-1,1c-0.7,0-0.7,0-0.7-0.7c0-0.3,0-0.6,0-0.8c0-0.2,0-0.3-0.2-0.3c-1-0.2-1.9-0.6-2.6-1.3
		c-0.4-0.3-0.4-0.4-0.1-0.8c0.2-0.3,0.4-0.6,0.6-0.9c0.2-0.3,0.3-0.3,0.5-0.1c0.7,0.6,1.5,1,2.5,1.1c0.5,0,0.9,0,1.4-0.3
		c0.8-0.5,0.8-1.5,0.1-2c-0.4-0.3-0.9-0.5-1.3-0.7c-0.7-0.3-1.5-0.6-2.2-1c-1.1-0.6-1.7-1.6-1.6-2.9
		C103.8,309.7,104.6,308.8,105.8,308.3z M51.8,318.8c0-19.1,15.5-34.6,34.6-34.6c6.4,0,12.4,1.7,17.5,4.8l-18.5,28.6l-33,7.9
		C52,323.3,51.8,321.1,51.8,318.8z M52.9,327.5l6-1.4l-3.2,8.8C54.5,332.5,53.5,330,52.9,327.5z M57.4,337.7l4.5-12.4l6.6-1.6
		l-7,19.1C60,341.3,58.6,339.5,57.4,337.7z M63.5,344.8l7.9-21.8l6.6-1.6l-9.8,26.9C66.6,347.3,65,346.1,63.5,344.8z M75.8,351.7
		c-1.8-0.6-3.6-1.3-5.2-2.2l10.5-28.9l4.8-1.1l1.3,0.9L75.8,351.7z M84,353.3c-0.3,0-0.7,0-1-0.1c-0.1,0-0.2,0-0.3,0
		c-1.5-0.2-3-0.4-4.4-0.8L89.3,322l0.9,0.6l3.9,2.7L84,353.3z M92.9,352.8c0,0-0.1,0-0.1,0c-0.2,0-0.4,0.1-0.5,0.1
		c-0.5,0.1-0.9,0.1-1.4,0.2c-0.2,0-0.4,0.1-0.6,0.1c-0.5,0.1-0.9,0.1-1.4,0.1c-0.2,0-0.4,0-0.5,0c-0.5,0-1.1,0-1.6,0l9.7-26.6
		l4.8,3.3L92.9,352.8z M103,349.1c-0.1,0.1-0.3,0.2-0.4,0.2c-0.3,0.2-0.6,0.3-0.9,0.5c-0.3,0.1-0.6,0.3-0.9,0.4
		c-0.2,0.1-0.5,0.2-0.7,0.3c-0.5,0.2-0.9,0.4-1.4,0.6c-0.1,0-0.2,0.1-0.3,0.1c-0.6,0.2-1.2,0.4-1.8,0.6c-0.1,0-0.1,0-0.2,0.1
		c-0.1,0-0.3,0.1-0.4,0.1l7.4-20.5l4.8,3.3L103,349.1z M106.5,346.9l3.8-10.5l4,2.7C112.2,342.1,109.5,344.7,106.5,346.9z"/>
	<g>
		<path class="st3" d="M357.8,316c0-20.6-16.8-37.3-37.3-37.3c-20.6,0-37.3,16.8-37.3,37.3c0,20.6,16.8,37.3,37.3,37.3
			c4.2,0,8.2-0.7,11.9-2c1.7,0.8,3.6,1.3,5.5,1.3c7.1,0,12.9-5.8,12.9-12.9c0-0.6-0.1-1.2-0.1-1.8
			C355.2,331.8,357.8,324.2,357.8,316z M339.3,345.5c-0.1,0-0.2,0.1-0.4,0.1c0,0.2,0,0.3,0,0.5c0,0.1,0,0.2,0,0.3
			c0,1,0.1,0.9-0.9,0.9c-0.5,0-0.6,0-0.6-0.3c0-0.1,0-0.2,0-0.4c0-0.2,0-0.5,0-0.7c0-0.2,0-0.2-0.2-0.3c-0.5-0.1-1-0.3-1.4-0.5
			c-0.3-0.2-0.6-0.4-0.9-0.6c-0.4-0.3-0.4-0.4-0.1-0.7c0.2-0.3,0.4-0.5,0.6-0.8c0.2-0.2,0.3-0.2,0.5-0.1c0,0,0,0,0,0
			c0.6,0.5,1.3,0.9,2.2,1c0.4,0,0.8,0,1.2-0.3c0.7-0.4,0.7-1.3,0.1-1.8c-0.4-0.2-0.8-0.4-1.2-0.6c-0.6-0.3-1.3-0.6-1.9-0.9
			c-0.1-0.1-0.3-0.2-0.4-0.3c-0.7-0.6-1.1-1.3-1-2.3c0.1-0.9,0.4-1.5,1-2c0.2-0.2,0.5-0.4,0.8-0.5c0.2-0.1,0.4-0.2,0.6-0.2
			c0.1,0,0.2-0.1,0.2-0.2c0-0.4,0-0.7,0-1.1c0-0.2,0.1-0.3,0.3-0.3c0.3,0,0.6,0,0.8,0c0.2,0,0.3,0.1,0.3,0.3c0,0.4,0,0.8,0,1.3
			c0.8,0.1,1.5,0.4,2.2,0.9c0.3,0.3,0.3,0.3,0.1,0.7c-0.2,0.3-0.3,0.6-0.5,0.9c-0.1,0.2-0.2,0.3-0.5,0.1c-0.5-0.4-1.1-0.7-1.8-0.8
			c-0.5,0-0.9,0-1.3,0.3c-0.6,0.4-0.7,1.2-0.1,1.7c0.4,0.3,0.8,0.5,1.2,0.7c0.6,0.3,1.2,0.5,1.8,0.8c0.7,0.4,1.3,0.9,1.5,1.7
			C342,343.3,341,345,339.3,345.5z M349.7,334.5V307c0-0.7-0.6-1.3-1.3-1.3c-0.7,0-1.3,0.6-1.3,1.3v23.7c-2.3-2.4-5.6-3.8-9.2-3.8
			c-0.7,0-1.4,0.1-2.1,0.2v-9.6c0-0.7-0.6-1.3-1.3-1.3c-0.7,0-1.3,0.6-1.3,1.3v10.3c-4.8,1.9-8.2,6.6-8.2,12c0,4.1,2,7.8,5,10.2
			c-2.6,0.7-5.3,1.2-8.1,1.3v-29.6c0-0.7-0.6-1.3-1.3-1.3c-0.7,0-1.3,0.6-1.3,1.3v29.6c-3.9-0.1-7.7-0.9-11.3-2.2v-16.9
			c0-0.7-0.6-1.3-1.3-1.3c-0.7,0-1.3,0.6-1.3,1.3v15.8c-4.3-2-8.1-4.9-11.3-8.4v-15.8c0-0.7-0.6-1.3-1.3-1.3c-0.7,0-1.3,0.6-1.3,1.3
			v12.5c-4-5.7-6.4-12.7-6.4-20.2c0-19.4,15.8-35.2,35.2-35.2c19.4,0,35.2,15.8,35.2,35.2c0,7.1-2.1,13.7-5.7,19.2
			C349.9,335,349.8,334.8,349.7,334.5z"/>
		<path class="st3" d="M342.1,297.1l-8.9,8.2l-13.3,2.7c-0.2,0-0.3,0.1-0.5,0.2l-13.4,11.4l-12.3-8c-0.5-0.3-1.1-0.2-1.4,0.3
			c-0.3,0.5-0.2,1.1,0.3,1.4l12.9,8.4c0.2,0.1,0.4,0.2,0.6,0.2c0.2,0,0.5-0.1,0.7-0.2l13.8-11.7l13.3-2.7c0.2,0,0.4-0.1,0.5-0.3
			l9.1-8.4c0.4-0.4,0.5-1.1,0.1-1.5C343.2,296.8,342.5,296.7,342.1,297.1z"/>
	</g>
	<g>
		<line class="st4" x1="241.2" y1="163.4" x2="282.6" y2="122.1"/>
		<line class="st4" x1="204.9" y1="148.6" x2="204.9" y2="90.5"/>
		<line class="st4" x1="168.1" y1="163.8" x2="127" y2="122.8"/>
		<line class="st4" x1="152.8" y1="200.6" x2="94.8" y2="200.6"/>
		<line class="st4" x1="167" y1="237.6" x2="125.7" y2="279"/>
		<line class="st4" x1="204.1" y1="253" x2="204.1" y2="311.5"/>
		<line class="st4" x1="241.2" y1="237.6" x2="282.6" y2="279"/>
		<line class="st4" x1="256.6" y1="200.5" x2="315" y2="200.5"/>
	</g>
	<g>
		<circle class="st5" cx="204.9" cy="200.6" r="37.3"/>
		<g>
			<path class="st6" d="M222.1,177.4H189c-1.1,0-2,0.9-2,2v43.1c0,1.1,0.9,2,2,2h33.1c1.1,0,2-0.9,2-2v-43.1
				C224.1,178.2,223.2,177.4,222.1,177.4z M223.1,222.4c0,0.6-0.4,1-1,1H189c-0.6,0-1-0.4-1-1v-43.1c0-0.6,0.4-1,1-1h33.1
				c0.6,0,1,0.4,1,1V222.4z"/>
			<path class="st6" d="M218.1,181.1h-25c-1.1,0-2,0.8-2,1.9v8.3c0,1,0.9,1.9,2,1.9h25c1.1,0,2-0.8,2-1.9V183
				C220.1,181.9,219.2,181.1,218.1,181.1z"/>
			<path class="st6" d="M192.9,203.2h3.8c1.1,0,2-0.9,2-2v-3.5c0-1.1-0.9-2-2-2h-3.8c-1.1,0-2,0.9-2,2v3.5
				C190.9,202.3,191.8,203.2,192.9,203.2z M191.9,197.6c0-0.6,0.4-1,1-1h3.8c0.6,0,1,0.4,1,1v3.5c0,0.6-0.4,1-1,1h-3.8
				c-0.6,0-1-0.4-1-1V197.6z"/>
			<path class="st6" d="M218.1,195.6h-3.8c-1.1,0-2,0.9-2,2v3.5c0,1.1,0.9,2,2,2h3.8c1.1,0,2-0.9,2-2v-3.5
				C220.1,196.5,219.2,195.6,218.1,195.6z M219.1,201.1c0,0.6-0.4,1-1,1h-3.8c-0.6,0-1-0.4-1-1v-3.5c0-0.6,0.4-1,1-1h3.8
				c0.6,0,1,0.4,1,1V201.1z"/>
			<path class="st6" d="M207.4,195.6h-3.8c-1.1,0-2,0.9-2,2v3.5c0,1.1,0.9,2,2,2h3.8c1.1,0,2-0.9,2-2v-3.5
				C209.4,196.5,208.5,195.6,207.4,195.6z M208.4,201.1c0,0.6-0.4,1-1,1h-3.8c-0.6,0-1-0.4-1-1v-3.5c0-0.6,0.4-1,1-1h3.8
				c0.6,0,1,0.4,1,1V201.1z"/>
			<path class="st6" d="M192.9,212.2h3.8c1.1,0,2-0.9,2-2v-3.5c0-1.1-0.9-2-2-2h-3.8c-1.1,0-2,0.9-2,2v3.5
				C190.9,211.3,191.8,212.2,192.9,212.2z M191.9,206.7c0-0.6,0.4-1,1-1h3.8c0.6,0,1,0.4,1,1v3.5c0,0.6-0.4,1-1,1h-3.8
				c-0.6,0-1-0.4-1-1V206.7z"/>
			<path class="st6" d="M207.3,213.7h-14.4c-1.1,0-2,0.9-2,2v3.5c0,1.1,0.9,2,2,2h14.4c1.1,0,2-0.9,2-2v-3.5
				C209.3,214.6,208.4,213.7,207.3,213.7z M208.3,219.2c0,0.6-0.4,1-1,1h-14.4c-0.6,0-1-0.4-1-1v-3.5c0-0.6,0.4-1,1-1h14.4
				c0.6,0,1,0.4,1,1V219.2z"/>
			<path class="st6" d="M218.1,204.7h-3.8c-1.1,0-2,0.9-2,2v3.5c0,1.1,0.9,2,2,2h3.8c1.1,0,2-0.9,2-2v-3.5
				C220.1,205.6,219.2,204.7,218.1,204.7z M219.1,210.2c0,0.6-0.4,1-1,1h-3.8c-0.6,0-1-0.4-1-1v-3.5c0-0.6,0.4-1,1-1h3.8
				c0.6,0,1,0.4,1,1V210.2z"/>
			<path class="st6" d="M218.1,213.7h-3.8c-1.1,0-2,0.9-2,2v3.5c0,1.1,0.9,2,2,2h3.8c1.1,0,2-0.9,2-2v-3.5
				C220.1,214.6,219.2,213.7,218.1,213.7z M219.1,219.2c0,0.6-0.4,1-1,1h-3.8c-0.6,0-1-0.4-1-1v-3.5c0-0.6,0.4-1,1-1h3.8
				c0.6,0,1,0.4,1,1V219.2z"/>
			<path class="st6" d="M207.4,204.7h-3.8c-1.1,0-2,0.9-2,2v3.5c0,1.1,0.9,2,2,2h3.8c1.1,0,2-0.9,2-2v-3.5
				C209.4,205.6,208.5,204.7,207.4,204.7z M208.4,210.2c0,0.6-0.4,1-1,1h-3.8c-0.6,0-1-0.4-1-1v-3.5c0-0.6,0.4-1,1-1h3.8
				c0.6,0,1,0.4,1,1V210.2z"/>
		</g>
	</g>
	<g>
		<path class="st2" d="M230.8,54.2C230.8,54.2,230.7,54.3,230.8,54.2c-0.4,0.6-0.3,1.3,0.3,1.7c0.2,0.1,0.4,0.2,0.7,0.2
			c0.4,0,0.8-0.2,1-0.5c0.4-0.5,0.3-1.3-0.3-1.7C231.9,53.5,231.2,53.6,230.8,54.2z"/>
		<path class="st2" d="M222.7,62.3C222.7,62.3,222.7,62.4,222.7,62.3c-0.6,0.5-0.7,1.2-0.3,1.7c0.2,0.3,0.6,0.5,1,0.5
			c0.2,0,0.5-0.1,0.7-0.2c0.6-0.4,0.7-1.1,0.3-1.7C224,62.1,223.3,61.9,222.7,62.3z"/>
		<path class="st2" d="M238.7,32.1c-0.1-0.7-0.7-1.1-1.3-1.1c-0.7,0.1-1.1,0.7-1.1,1.3l0,0c0.1,0.6,0.6,1.1,1.2,1.1c0,0,0.1,0,0.1,0
			c0.7-0.1,1.2-0.6,1.1-1.3C238.7,32.2,238.7,32.1,238.7,32.1z"/>
		<path class="st2" d="M237,42.9c-0.6-0.2-1.3,0.2-1.5,0.8c0,0,0,0.1,0,0.1c-0.2,0.6,0.2,1.2,0.9,1.4c0.1,0,0.2,0,0.3,0
			c0.5,0,1-0.4,1.2-0.9C238,43.8,237.6,43.1,237,42.9z"/>
		<path class="st2" d="M235.4,20.4c-0.3-0.6-1-0.9-1.6-0.6c-0.6,0.3-0.9,1-0.6,1.6c0,0,0,0.1,0.1,0.1c0.2,0.4,0.6,0.6,1,0.6
			c0.2,0,0.4,0,0.5-0.1C235.4,21.7,235.6,21,235.4,20.4z"/>
		<path class="st2" d="M227.1,10.1l-1.1-9l-3.8,4.9c-14-8.6-32.1-6.2-43.5,5.7c-13.3,13.9-12.8,36.1,1.2,49.4
			c6.6,6.3,15.2,9.7,24,9.7c3,0,6.1-0.4,9.1-1.2c0,0,0,0,0,0c0,0,0,0,0,0c0.6-0.2,1-0.8,0.8-1.5c-0.2-0.6-0.8-1-1.5-0.8c0,0,0,0,0,0
			l0,0c-11,2.9-22.6,0-30.8-7.9c-13-12.4-13.5-33-1.1-46C191,2.2,207.8,0,220.7,7.8l-3.7,4.8l9.1-1.2c0,0.3,0.3,0.7,0.3,0.7
			c0.2,0.2,0.5,0.4,0.8,0.4c0.3,0,0.6-0.1,0.8-0.3c0.5-0.5,0.5-1.2,0-1.7C228.1,10.5,227.8,10.1,227.1,10.1z"/>
		<path class="st2" d="M204.7,35.3l3.6-14.6c0.2-0.6-0.2-1.3-0.9-1.5c-0.6-0.2-1.3,0.2-1.5,0.9l-3.8,15.3c-0.1,0.4,0,0.9,0.4,1.2
			L217.8,50c0.2,0.2,0.5,0.3,0.8,0.3c0.3,0,0.7-0.1,0.9-0.4c0.4-0.5,0.4-1.3-0.1-1.7L204.7,35.3z"/>
	</g>
</g>
</svg>
