<?xml version="1.0" encoding="utf-8"?>
<!-- Generator: Adobe Illustrator 21.0.0, SVG Export Plug-In . SVG Version: 6.00 Build 0)  -->
<svg version="1.1" id="圖層_1" xmlns="http://www.w3.org/2000/svg" xmlns:xlink="http://www.w3.org/1999/xlink" x="0px" y="0px"
	 viewBox="0 0 80 315" style="enable-background:new 0 0 80 315;" xml:space="preserve">
<style type="text/css">
	.st0{fill:#00B900;}
	.st1{fill:#FFFFFF;}
</style>
<g>
	<path class="st0" d="M14.3,315H80V0.1H14.3C6.4,0.1,0,6.5,0,14.4v286.3C0,308.6,6.4,315,14.3,315z"/>
	<g>
		<path class="st1" d="M41.1,90.2c0.5-0.6,1-0.9,1.7-0.9c0.7,0,1.3,0.3,1.8,0.8c1.1,1.2,2.4,2.2,3.8,2.9c0.3,0.1,0.4,0.3,0.5,0.6
			c0,0.1,0,0.2,0,0.3c0,0.2-0.1,0.3-0.2,0.5c0,0.1-0.1,0.1-0.1,0.1c-0.2,0.3-0.4,0.4-0.7,0.5c-0.1,0-0.2,0-0.3,0
			c-0.2,0-0.4-0.1-0.5-0.2c-0.5-0.3-0.9-0.6-1.3-0.9c0,0,0,0,0,0c0,0,0,0,0,0c0,0.2-0.1,0.4-0.2,0.5c-0.1,0.1-0.3,0.2-0.5,0.2h-4.2
			c-0.2,0-0.3-0.1-0.5-0.2c-0.1-0.1-0.2-0.3-0.2-0.4c0,0,0,0,0,0c0,0,0,0,0,0c-0.5,0.4-1,0.8-1.5,1.1c-0.2,0.1-0.3,0.1-0.5,0.1
			c-0.1,0-0.2,0-0.3-0.1c-0.3-0.1-0.5-0.3-0.6-0.5c0,0,0,0,0-0.1c0,0,0,0,0,0c0,0.1,0,0.3-0.1,0.3c-0.1,0.1-0.2,0.1-0.3,0.1h-1
			c-0.1,0-0.1,0-0.1,0.1V98c0,0,0,0.1,0,0.1c0,0,0.1,0,0.1,0l0.5-0.1c0.1,0,0.2,0,0.2,0c0.2,0,0.3,0.1,0.5,0.2
			c0.2,0.1,0.4,0.3,0.4,0.6c0,0.1,0,0.1,0,0.2c0,0.2-0.1,0.4-0.2,0.6c-0.2,0.3-0.4,0.4-0.7,0.5c-0.2,0.1-0.5,0.1-0.8,0.2
			c-0.1,0-0.1,0.1-0.1,0.2v4.7c0,0.6-0.1,1-0.2,1.3c-0.1,0.3-0.3,0.6-0.7,0.8c-0.4,0.2-1,0.4-1.8,0.4c0,0-0.1,0-0.1,0
			c-0.3,0-0.5-0.1-0.8-0.3c-0.3-0.2-0.4-0.5-0.5-0.8c0,0,0,0,0,0c-0.1-0.2-0.1-0.3,0-0.5c0.1-0.2,0.1-0.3,0.3-0.4
			c0.1-0.1,0.3-0.2,0.5-0.2c0.3,0,0.6,0,0.7,0c0.1,0,0.2,0,0.3-0.1c0.1,0,0.1-0.1,0.1-0.3v-4c0,0,0-0.1,0-0.1c0,0-0.1,0-0.1,0
			l-0.8,0.2c-0.1,0-0.2,0.1-0.3,0.1c-0.2,0-0.4-0.1-0.5-0.2c-0.3-0.2-0.4-0.4-0.5-0.7l0-0.2c0-0.1,0-0.2,0-0.2
			c0-0.2,0.1-0.4,0.2-0.6c0.2-0.3,0.4-0.4,0.7-0.5c0.2-0.1,0.7-0.2,1.3-0.3c0.1,0,0.1-0.1,0.1-0.2v-3.1c0-0.1-0.1-0.1-0.2-0.1h-1.1
			c-0.3,0-0.5-0.1-0.8-0.3s-0.3-0.5-0.3-0.8c0-0.3,0.1-0.5,0.3-0.8s0.5-0.3,0.8-0.3H33c0.1,0,0.2,0,0.2-0.1v-2.5
			c0-0.3,0.1-0.6,0.3-0.8c0.2-0.2,0.5-0.3,0.8-0.3s0.6,0.1,0.8,0.3c0.2,0.2,0.3,0.5,0.3,0.8V93c0,0.1,0,0.1,0.1,0.1h1
			c0.1,0,0.2,0,0.3,0.1c0.1,0.1,0.1,0.2,0.1,0.3c0,0,0,0.1,0.1,0c0.8-0.4,1.5-0.9,2.2-1.5C39.9,91.5,40.5,90.9,41.1,90.2z
			 M47.6,100.5c0,0.3-0.1,0.6-0.3,0.8c-0.2,0.2-0.5,0.3-0.8,0.3h-6.3c-0.1,0-0.2,0-0.2,0.1c0,0.1,0,0.2-0.1,0.5c0,0.1,0,0.2,0.1,0.2
			h6.7c0.3,0,0.6,0.1,0.8,0.3c0.2,0.2,0.3,0.5,0.3,0.8v2.9c0,0.3-0.1,0.5-0.3,0.7c-0.2,0.2-0.4,0.3-0.7,0.3h-0.6
			c-0.1,0-0.2,0-0.3-0.1c-0.1-0.1-0.1-0.2-0.1-0.3c0,0,0-0.1-0.1-0.1h-4.2c0,0-0.1,0-0.1,0.1c0,0.1,0,0.2-0.1,0.3
			c-0.1,0.1-0.2,0.1-0.3,0.1h-0.5c-0.3,0-0.5-0.1-0.7-0.3c-0.2-0.2-0.3-0.4-0.3-0.7v-2.5c0,0,0,0,0,0s0,0,0,0
			c-0.3,1-0.7,1.8-1.2,2.5c-0.2,0.2-0.4,0.3-0.7,0.3c-0.3,0-0.5-0.1-0.7-0.3c-0.2-0.2-0.3-0.4-0.4-0.7c0-0.1,0-0.1,0-0.1
			c0-0.2,0.1-0.5,0.2-0.7c0.6-0.9,1-1.8,1.2-2.9s0.3-2.2,0.3-3.4v-2.2c0-0.3,0.1-0.6,0.3-0.8c0.2-0.2,0.5-0.3,0.8-0.3h7.2
			c0.3,0,0.6,0.1,0.8,0.3c0.2,0.2,0.3,0.5,0.3,0.8V100.5z M40.2,100c0,0.1,0.1,0.2,0.2,0.2h5c0.1,0,0.2-0.1,0.2-0.2v-0.5
			c0-0.1-0.1-0.1-0.2-0.1h-5c-0.1,0-0.1,0-0.2,0.1c0,0.1,0,0.2,0,0.3C40.2,99.8,40.2,99.9,40.2,100z M45.5,97.4
			c0-0.1-0.1-0.2-0.2-0.2h-5c-0.1,0-0.2,0.1-0.2,0.2v0.5c0,0.1,0.1,0.1,0.2,0.1h5c0.1,0,0.2,0,0.2-0.1V97.4z M41.2,93.1
			C41.2,93.2,41.2,93.2,41.2,93.1C41.2,93.2,41.2,93.2,41.2,93.1l3.3,0.1c0,0,0,0,0.1,0s0,0,0-0.1c-0.6-0.6-1.2-1.1-1.6-1.7
			c-0.1-0.1-0.1-0.1-0.2,0C42.3,92,41.8,92.6,41.2,93.1z M45.8,104.2c0-0.1,0-0.1-0.1-0.1h-4c-0.1,0-0.2,0-0.2,0.1v1
			c0,0.1,0.1,0.1,0.2,0.1h4c0.1,0,0.1,0,0.1-0.1V104.2z"/>
		<path class="st1" d="M44.2,130.6h1.7c0.3,0,0.4-0.1,0.5-0.3c0.1-0.2,0.2-0.6,0.2-1.3c0-0.3,0.1-0.4,0.3-0.6
			c0.1-0.1,0.2-0.1,0.4-0.1c0.1,0,0.2,0,0.3,0.1c0,0,0,0,0.1,0c0.3,0.1,0.6,0.3,0.7,0.6c0.1,0.2,0.2,0.4,0.2,0.7c0,0.1,0,0.1,0,0.2
			c-0.2,1.1-0.4,1.8-0.8,2.2c-0.4,0.4-1,0.6-1.8,0.6h-2.3c-1.1,0-1.8-0.2-2.2-0.6c-0.4-0.4-0.5-1.2-0.5-2.3v-4.6
			c0-0.1-0.1-0.2-0.2-0.2h-2.6c-0.1,0-0.2,0.1-0.2,0.2c-0.1,0.7-0.2,1.3-0.3,1.8c-0.1,0.5-0.3,1.1-0.5,1.7c-0.2,0.6-0.5,1.1-0.9,1.5
			c-0.3,0.5-0.8,0.9-1.3,1.3c-0.5,0.4-1.1,0.8-1.8,1.1c-0.2,0.1-0.3,0.1-0.5,0.1c-0.1,0-0.3,0-0.4-0.1c-0.3-0.1-0.5-0.3-0.7-0.6
			c-0.1-0.1-0.1-0.2-0.2-0.2c-0.1-0.1-0.2-0.3-0.2-0.5c0-0.1,0-0.2,0-0.2c0.1-0.3,0.2-0.4,0.5-0.5c0.7-0.3,1.3-0.7,1.8-1.1
			c0.5-0.4,0.9-0.8,1.1-1.3c0.3-0.5,0.5-1,0.6-1.5c0.1-0.5,0.2-1,0.3-1.7c0-0.1,0-0.2-0.1-0.2h-3.4c-0.3,0-0.6-0.1-0.8-0.3
			c-0.2-0.2-0.3-0.5-0.3-0.8c0-0.3,0.1-0.6,0.3-0.8c0.2-0.2,0.5-0.3,0.8-0.3h6.2c0.1,0,0.2-0.1,0.2-0.2v-2.9c0-0.1-0.1-0.1-0.2-0.1
			h-3.1c-0.1,0-0.2,0-0.2,0.1c-0.3,0.6-0.5,1.1-0.8,1.6c-0.2,0.3-0.4,0.4-0.7,0.5c-0.1,0-0.2,0-0.3,0c-0.2,0-0.4,0-0.6-0.1
			c0,0,0,0,0,0c-0.3-0.1-0.4-0.3-0.5-0.6c0-0.1,0-0.2,0-0.3c0-0.2,0-0.4,0.1-0.5c0.7-1.2,1.3-2.6,1.7-4.2c0.1-0.3,0.2-0.5,0.5-0.7
			c0.2-0.1,0.4-0.2,0.6-0.2c0.1,0,0.2,0,0.2,0l0.2,0c0.3,0.1,0.5,0.2,0.7,0.5c0.1,0.2,0.2,0.3,0.2,0.5c0,0.1,0,0.2-0.1,0.3
			c-0.1,0.2-0.1,0.4-0.2,0.7c0,0,0,0.1,0,0.1c0,0,0,0,0.1,0h2.2c0.1,0,0.2-0.1,0.2-0.2V116c0-0.3,0.1-0.6,0.3-0.8
			c0.2-0.2,0.5-0.3,0.8-0.3h0.1c0.3,0,0.6,0.1,0.8,0.3c0.2,0.2,0.3,0.5,0.3,0.8v1.4c0,0.1,0.1,0.2,0.2,0.2h4.7
			c0.3,0,0.6,0.1,0.8,0.3c0.2,0.2,0.3,0.5,0.3,0.8c0,0.3-0.1,0.6-0.3,0.8c-0.2,0.2-0.5,0.3-0.8,0.3h-4.7c-0.1,0-0.2,0-0.2,0.1v2.9
			c0,0.1,0.1,0.2,0.2,0.2h6.3c0.3,0,0.6,0.1,0.8,0.3c0.2,0.2,0.3,0.5,0.3,0.8c0,0.3-0.1,0.6-0.3,0.8c-0.2,0.2-0.5,0.3-0.8,0.3h-3.8
			c-0.1,0-0.2,0.1-0.2,0.2v4.6c0,0.3,0,0.5,0.1,0.6C43.7,130.6,43.9,130.6,44.2,130.6z"/>
		<path class="st1" d="M36.5,144c-0.1,0-0.1,0.1-0.1,0.2v1.1c0,0.1,0,0.2,0.1,0.2h2.2c0.3,0,0.5,0.1,0.7,0.3
			c0.2,0.2,0.3,0.4,0.3,0.7c0,0.3-0.1,0.5-0.3,0.7c-0.2,0.2-0.4,0.3-0.7,0.3h-0.6v0c0.2,0.1,0.3,0.2,0.4,0.3c0.1,0.2,0.1,0.3,0,0.5
			c-0.4,0.9-0.6,1.3-0.6,1.3c0,0,0,0.1,0,0.1c0,0,0,0,0.1,0h0.3c0.3,0,0.5,0.1,0.7,0.3c0.2,0.2,0.3,0.4,0.3,0.7
			c0,0.3-0.1,0.5-0.3,0.7c-0.2,0.2-0.4,0.3-0.7,0.3h-1.9c-0.1,0-0.1,0.1-0.1,0.2v1.2c0,0.1,0,0.1,0.1,0.1h1.6c0.3,0,0.5,0.1,0.7,0.3
			c0.2,0.2,0.3,0.4,0.3,0.7c0,0.3-0.1,0.5-0.3,0.7c-0.2,0.2-0.4,0.3-0.7,0.3h-1.6c-0.1,0-0.1,0-0.1,0.1v2.4c0,0.3-0.1,0.5-0.3,0.8
			c-0.2,0.2-0.5,0.3-0.8,0.3s-0.6-0.1-0.8-0.3s-0.3-0.5-0.3-0.8v-2.4c0-0.1,0-0.1-0.1-0.1h-1.8c-0.3,0-0.5-0.1-0.7-0.3
			c-0.2-0.2-0.3-0.4-0.3-0.7c0-0.3,0.1-0.5,0.3-0.7c0.2-0.2,0.4-0.3,0.7-0.3H34c0.1,0,0.1,0,0.1-0.1v-1.2c0-0.1,0-0.2-0.1-0.2h-2
			c-0.3,0-0.5-0.1-0.7-0.3c-0.2-0.2-0.3-0.4-0.3-0.7c0-0.3,0.1-0.5,0.3-0.7c0.2-0.2,0.4-0.3,0.7-0.3h0.4c0.1,0,0.1,0,0.1-0.1
			c-0.1-0.4-0.2-0.9-0.4-1.4c-0.1-0.2,0-0.3,0-0.5c0.1-0.2,0.2-0.2,0.4-0.3v0h-0.9c-0.3,0-0.5-0.1-0.7-0.3c-0.2-0.2-0.3-0.4-0.3-0.7
			c0-0.3,0.1-0.5,0.3-0.7c0.2-0.2,0.4-0.3,0.7-0.3H34c0.1,0,0.1-0.1,0.1-0.2v-1.1c0-0.1,0-0.2-0.1-0.2h-1.7c-0.3,0-0.5-0.1-0.7-0.3
			c-0.2-0.2-0.3-0.4-0.3-0.7c0-0.3,0.1-0.5,0.3-0.7c0.2-0.2,0.4-0.3,0.7-0.3H34c0.1,0,0.1-0.1,0.1-0.2v-0.5c0-0.3,0.1-0.5,0.3-0.8
			s0.5-0.3,0.8-0.3s0.6,0.1,0.8,0.3c0.2,0.2,0.3,0.5,0.3,0.8v0.5c0,0.1,0,0.2,0.1,0.2h1.5c0.3,0,0.5,0.1,0.7,0.3
			c0.2,0.2,0.3,0.4,0.3,0.7c0,0.3-0.1,0.5-0.3,0.7c-0.2,0.2-0.4,0.3-0.7,0.3H36.5z M36.6,149.6C36.6,149.6,36.6,149.6,36.6,149.6
			C36.6,149.5,36.6,149.5,36.6,149.6c-0.1-0.1-0.2-0.1-0.3-0.3c-0.1-0.1-0.1-0.3,0-0.4c0.2-0.5,0.3-1,0.4-1.4c0,0,0-0.1,0-0.1
			c0,0,0,0-0.1,0h-2.7c0,0-0.1,0-0.1,0c0,0,0,0.1,0,0.1c0.2,0.5,0.4,0.9,0.5,1.4c0,0.2,0,0.3-0.1,0.4s-0.2,0.2-0.4,0.3v0H36.6z
			 M46.9,147.8c0.1,0,0.2,0,0.3,0c0.1,0,0.3,0,0.4,0.1l0.3,0.1c0.2,0.1,0.4,0.2,0.5,0.4c0.1,0.2,0.1,0.4,0.1,0.6
			c-0.4,2.1-1,4-1.9,5.6c-0.1,0.1,0,0.2,0,0.2c0.5,0.6,1.1,1.1,1.7,1.5c0.2,0.2,0.4,0.4,0.4,0.7c0,0.1,0,0.1,0,0.1
			c0,0.2-0.1,0.4-0.2,0.6c0,0-0.1,0.1-0.1,0.1c-0.2,0.2-0.4,0.4-0.7,0.5c-0.1,0-0.1,0-0.2,0c-0.2,0-0.4-0.1-0.6-0.2
			c-0.5-0.4-1-0.8-1.4-1.3c-0.1-0.1-0.1-0.1-0.2,0c-0.4,0.5-0.8,0.9-1.2,1.3c-0.2,0.2-0.4,0.2-0.7,0.2c-0.1,0-0.1,0-0.1,0
			c-0.3,0-0.6-0.2-0.8-0.4c-0.1-0.1-0.2-0.2-0.3-0.3c0,0,0,0-0.1,0c0,0,0,0,0,0c0,0.3-0.1,0.5-0.3,0.7c-0.2,0.2-0.4,0.3-0.7,0.3h0
			c-0.3,0-0.5-0.1-0.7-0.3c-0.2-0.2-0.3-0.5-0.3-0.7v-15.3c0-0.3,0.1-0.6,0.3-0.8c0.2-0.2,0.5-0.3,0.8-0.3H47c0.3,0,0.6,0.1,0.8,0.3
			c0.2,0.2,0.3,0.5,0.3,0.8v2.5c0,0.5-0.1,0.9-0.2,1.2c-0.1,0.3-0.4,0.5-0.8,0.7c-0.5,0.2-1.2,0.3-2.2,0.3c0,0,0,0,0,0
			c-0.3,0-0.5-0.1-0.8-0.3c-0.2-0.2-0.4-0.4-0.5-0.7c0-0.1,0-0.2,0-0.3c0-0.1,0-0.3,0.1-0.4c0.1-0.2,0.3-0.3,0.6-0.3
			c0.4,0,0.8,0,1.3,0c0.2,0,0.3,0,0.3-0.1c0.1,0,0.1-0.1,0.1-0.2v-1.5c0-0.1-0.1-0.2-0.2-0.2h-3.6c-0.1,0-0.1,0.1-0.1,0.2v4.4
			c0,0.1,0,0.2,0.1,0.2L46.9,147.8C46.8,147.9,46.8,147.8,46.9,147.8z M42.1,150.6C42.1,150.6,42.1,150.6,42.1,150.6
			C42.1,150.6,42.1,150.6,42.1,150.6l0,6c0,0,0,0.1,0,0.1c0,0,0.1,0,0.1,0c0.6-0.5,1.2-1.1,1.7-1.8c0.1-0.1,0.1-0.2,0-0.2
			C43.2,153.4,42.6,152.1,42.1,150.6z M46.1,149.8c0-0.1,0-0.1-0.1-0.1h-2.1c0,0-0.1,0-0.1,0c0,0,0,0.1,0,0.1c0.3,1,0.8,1.9,1.3,2.8
			c0,0,0,0,0.1,0c0,0,0.1,0,0.1,0C45.6,151.7,45.9,150.8,46.1,149.8z"/>
		<path class="st1" d="M46.5,175.3c0.3,0,0.6,0.1,0.8,0.3s0.3,0.5,0.3,0.8v6.6c0,0.3-0.1,0.6-0.3,0.8c-0.2,0.2-0.5,0.3-0.8,0.3h-0.6
			c-0.2,0-0.4-0.1-0.5-0.2c-0.1-0.1-0.2-0.3-0.2-0.5c0-0.1,0-0.1-0.1-0.1h-6.5c-0.1,0-0.1,0-0.1,0.1c0,0.2-0.1,0.3-0.2,0.5
			s-0.3,0.2-0.5,0.2h-0.5c-0.3,0-0.6-0.1-0.8-0.3c-0.2-0.2-0.3-0.5-0.3-0.8v-4.3c0,0,0-0.1,0-0.1s-0.1,0-0.1,0c-1,0.5-2,1-3.1,1.5
			c-0.1,0.1-0.3,0.1-0.4,0.1c-0.2,0-0.3,0-0.5-0.1c-0.3-0.1-0.5-0.3-0.7-0.6c-0.1-0.1-0.1-0.1-0.1-0.2c-0.1-0.1-0.2-0.3-0.2-0.5
			c0-0.1,0-0.2,0.1-0.2c0.1-0.3,0.2-0.4,0.5-0.5c2-0.7,3.9-1.7,5.7-3c0.1-0.1,0.1-0.1,0-0.2c-0.7-0.7-1.6-1.6-2.8-2.5
			c-0.1-0.1-0.2-0.1-0.2,0c-0.3,0.3-0.7,0.5-1.1,0.8c-0.2,0.1-0.4,0.2-0.6,0.2c-0.1,0-0.2,0-0.2,0c-0.3-0.1-0.6-0.2-0.8-0.4
			c-0.1-0.1-0.1-0.1-0.1-0.2c-0.2-0.2-0.2-0.4-0.2-0.6c0,0,0-0.1,0-0.1c0-0.3,0.2-0.5,0.4-0.6c2.1-1.3,3.7-2.8,4.9-4.7
			c0.2-0.3,0.4-0.5,0.7-0.6c0.2-0.1,0.4-0.2,0.7-0.2c0.1,0,0.2,0,0.3,0l0.4,0.1c0.3,0.1,0.5,0.2,0.6,0.5c0,0.1,0.1,0.2,0.1,0.3
			c0,0.1,0,0.3-0.1,0.4c-0.1,0.2-0.2,0.3-0.3,0.5c0,0,0,0.1,0,0.1c0,0,0,0,0.1,0h4.3c0,0,0.1,0,0.1,0c0.1,0,0.2,0,0.3,0
			c0.1,0,0.3,0,0.4,0.1l0.5,0.2c0.2,0.1,0.4,0.3,0.5,0.5c0,0.1,0.1,0.2,0.1,0.3c0,0.1,0,0.3-0.1,0.4c-1,2.2-2.3,4.2-4.1,5.9
			c0,0,0,0,0,0.1c0,0,0,0,0,0H46.5z M41.9,169.9C41.9,169.8,41.9,169.8,41.9,169.9c0-0.1,0-0.1-0.1-0.1h-4.6c-0.1,0-0.2,0-0.2,0.1
			c-0.3,0.3-0.6,0.6-0.7,0.8c-0.1,0.1-0.1,0.1,0,0.2c1.3,0.9,2.2,1.7,2.9,2.4c0.1,0.1,0.1,0.1,0.2,0
			C40.4,172.2,41.2,171.1,41.9,169.9z M38.5,181.1c0,0.1,0.1,0.2,0.2,0.2H45c0.1,0,0.2-0.1,0.2-0.2v-3.5c0-0.1-0.1-0.1-0.2-0.1h-6.4
			c-0.1,0-0.2,0-0.2,0.1V181.1z"/>
		<path class="st1" d="M34.4,198.9c0.3,0,0.6,0.1,0.8,0.3c0.2,0.2,0.3,0.5,0.3,0.8v4.9c0,0.1,0,0.2,0.1,0.3c0.7,1.1,2.2,1.7,4.2,1.8
			c0.9,0,1.9,0.1,3,0.1c1.6,0,3.3-0.1,5.2-0.2c0,0,0,0,0.1,0c0.2,0,0.4,0.1,0.6,0.3c0.1,0.1,0.2,0.3,0.2,0.4c0,0.1,0,0.2,0,0.2
			c0,0.1,0,0.1-0.1,0.2c-0.1,0.3-0.3,0.6-0.5,0.8c-0.3,0.2-0.5,0.3-0.9,0.3c-1.5,0.1-2.9,0.1-4.2,0.1c-1.2,0-2.3,0-3.3-0.1
			c-1.2-0.1-2.2-0.2-3.1-0.5c-0.8-0.3-1.5-0.8-2.2-1.5c-0.1-0.1-0.1-0.1-0.2,0c-0.8,0.7-1.4,1.2-1.8,1.6c-0.2,0.1-0.3,0.2-0.5,0.2
			c-0.1,0-0.1,0-0.2,0c-0.3-0.1-0.5-0.2-0.6-0.5L31,208c-0.1-0.2-0.1-0.3-0.1-0.5c0-0.1,0-0.2,0.1-0.4c0.1-0.3,0.3-0.5,0.6-0.7
			c0.6-0.4,1.1-0.7,1.6-1.1c0.1-0.1,0.1-0.1,0.1-0.2v-3.8c0-0.1-0.1-0.1-0.2-0.1h-1c-0.3,0-0.5-0.1-0.8-0.3S31,200.2,31,200
			c0-0.3,0.1-0.5,0.3-0.8s0.5-0.3,0.8-0.3H34.4z M35.3,193.9c0.2,0.2,0.3,0.4,0.3,0.7c0,0,0,0.1,0,0.1c0,0.3-0.2,0.6-0.4,0.8
			l-0.1,0.1c-0.2,0.2-0.4,0.2-0.7,0.2c-0.1,0-0.1,0-0.2,0c-0.3,0-0.5-0.2-0.7-0.4c-0.4-0.5-1-1-1.6-1.5c-0.2-0.2-0.3-0.4-0.3-0.7
			c0-0.3,0.1-0.5,0.3-0.7c0.3-0.2,0.5-0.3,0.9-0.3c0,0,0,0,0,0c0.3,0,0.6,0.1,0.8,0.3C34.3,192.9,34.9,193.4,35.3,193.9z M37.9,206
			c-0.1,0-0.2,0-0.2,0c-0.2,0-0.4-0.1-0.6-0.2c-0.2-0.2-0.4-0.4-0.4-0.7l0,0c0-0.1,0-0.1,0-0.2c0-0.2,0.1-0.4,0.2-0.6
			c0.2-0.2,0.4-0.4,0.7-0.5c0.1,0,0.1-0.1,0.1-0.2v-10.6c0-0.3,0.1-0.6,0.3-0.8c0.2-0.2,0.5-0.3,0.8-0.3H46c0.3,0,0.6,0.1,0.8,0.3
			c0.2,0.2,0.3,0.5,0.3,0.8v6.3c0,0.1,0,0.2,0.1,0.2l0.5,0.4c0.2,0.2,0.3,0.4,0.3,0.6c0,0.3-0.1,0.5-0.4,0.7c-0.8,0.5-1.4,0.9-2,1.2
			c-0.1,0.1-0.1,0.1,0,0.2c0.6,0.6,1.3,1,2.1,1.3c0.2,0.1,0.4,0.3,0.5,0.5c0,0.1,0,0.2,0,0.2c0,0.2-0.1,0.3-0.2,0.5
			c-0.1,0.1-0.1,0.1-0.2,0.2c-0.2,0.3-0.4,0.5-0.7,0.6c-0.1,0-0.3,0.1-0.4,0.1c-0.2,0-0.4,0-0.5-0.1c-1.3-0.7-2.4-1.6-3.3-2.9
			c0,0,0,0,0,0c0,0,0,0,0,0l0,0.6c0,0.1,0,0.1,0,0.1c0,0.3-0.1,0.5-0.2,0.7c-0.2,0.3-0.4,0.4-0.7,0.5
			C41.8,205.1,40.4,205.4,37.9,206z M44.9,194c0-0.1,0-0.1-0.1-0.1h-4.6c-0.1,0-0.2,0-0.2,0.1v0.7c0,0.1,0.1,0.1,0.2,0.1h4.6
			c0.1,0,0.1,0,0.1-0.1V194z M39.9,197.5c0,0.1,0.1,0.2,0.2,0.2h4.6c0.1,0,0.1-0.1,0.1-0.2v-0.8c0-0.1,0-0.2-0.1-0.2h-4.6
			c-0.1,0-0.2,0.1-0.2,0.2V197.5z M40.1,199.6c-0.1,0-0.2,0-0.2,0.1v3.5c0,0.1,0,0.1,0.1,0.1c1.7-0.3,2.6-0.5,2.7-0.6
			c0.1,0,0.1-0.1,0.1-0.2c-0.5-0.8-0.9-1.8-1.3-2.9c0-0.1-0.1-0.1-0.2-0.1H40.1z M46.3,199.7C46.3,199.7,46.3,199.7,46.3,199.7
			C46.3,199.7,46.3,199.6,46.3,199.7l-2.5-0.1c0,0-0.1,0-0.1,0c0,0,0,0.1,0,0.1c0.2,0.4,0.4,0.9,0.7,1.3c0.1,0.1,0.1,0.1,0.2,0
			C45.2,200.7,45.8,200.2,46.3,199.7z"/>
		<path class="st1" d="M48.8,222.6c0,0.3-0.1,0.6-0.3,0.8s-0.5,0.3-0.8,0.3h-2.8c0,0,0,0-0.1,0c0,0,0,0.1,0,0.1
			c1,2.5,2.3,4.6,3.8,6.2c0.2,0.2,0.3,0.5,0.3,0.7c0,0.3-0.1,0.6-0.3,0.8c-0.1,0.1-0.1,0.2-0.2,0.2c-0.2,0.2-0.5,0.3-0.7,0.4
			c0,0,0,0-0.1,0c-0.3,0-0.5-0.1-0.7-0.3c-1.2-1.4-2.2-3.2-3.1-5.3c0,0,0,0,0,0c0,0,0,0,0,0v7.3c0,0.3-0.1,0.6-0.3,0.8
			c-0.2,0.2-0.5,0.3-0.8,0.3h-0.1c-0.3,0-0.6-0.1-0.8-0.3c-0.2-0.2-0.3-0.5-0.3-0.8V227c0,0,0,0,0,0c0,0,0,0,0,0c-1,2-2.1,3.6-3.3,5
			c-0.2,0.2-0.4,0.3-0.7,0.3c0,0,0,0-0.1,0c-0.3,0-0.6-0.1-0.8-0.4c-0.3-0.3-0.5-0.5-0.8-0.8c0,0,0,0-0.1,0c0,0,0,0,0,0.1v2.6
			c0,0.3-0.1,0.6-0.3,0.8c-0.2,0.2-0.5,0.3-0.8,0.3h0c-0.3,0-0.6-0.1-0.8-0.3c-0.2-0.2-0.3-0.5-0.3-0.8v-8.7c0,0,0,0,0,0s0,0-0.1,0
			c-0.3,0.3-0.5,0.6-0.7,0.8c-0.2,0.2-0.3,0.2-0.5,0.2c-0.1,0-0.1,0-0.2,0c-0.3-0.1-0.5-0.2-0.6-0.4c-0.1-0.2-0.2-0.3-0.3-0.5
			c-0.1-0.2-0.2-0.5-0.2-0.7c0-0.1,0-0.1,0-0.2c0-0.3,0.2-0.6,0.4-0.8c1.5-1.6,2.7-3.5,3.7-5.7c0.1-0.3,0.3-0.5,0.6-0.6
			c0.2-0.1,0.3-0.1,0.5-0.1c0.1,0,0.3,0,0.4,0.1l0.2,0.1c0.3,0.1,0.5,0.3,0.6,0.6c0.1,0.1,0.1,0.3,0.1,0.4c0,0.1,0,0.3-0.1,0.4
			c-0.5,1-1,2-1.5,3c-0.1,0.1-0.1,0.2-0.1,0.3v8.8c0,0,0,0.1,0,0.1c0,0,0.1,0,0.1,0c0.9-0.8,1.8-1.8,2.6-3s1.5-2.5,2.1-3.9
			c0,0,0-0.1,0-0.1c0,0,0,0-0.1,0h-2.8c-0.3,0-0.6-0.1-0.8-0.3c-0.2-0.2-0.3-0.5-0.3-0.8v0c0-0.3,0.1-0.6,0.3-0.8
			c0.2-0.2,0.5-0.3,0.8-0.3h3.7c0.1,0,0.2,0,0.2-0.1v-3.2c0-0.3,0.1-0.6,0.3-0.8c0.2-0.2,0.5-0.3,0.8-0.3h0.1c0.3,0,0.6,0.1,0.8,0.3
			c0.2,0.2,0.3,0.5,0.3,0.8v3.2c0,0.1,0,0.1,0.1,0.1h3.8c0.3,0,0.6,0.1,0.8,0.3C48.7,222,48.8,222.3,48.8,222.6L48.8,222.6z"/>
		<path class="st1" d="M40.8,249.4c-0.3,0-0.6-0.1-0.8-0.3c-0.2-0.2-0.3-0.5-0.3-0.8c0,0,0,0,0,0c0,0-0.1,0-0.1,0
			c-0.2,0.2-0.4,0.3-0.6,0.5c-0.2,0.1-0.3,0.2-0.5,0.2c-0.1,0-0.2,0-0.3,0c-0.3-0.1-0.5-0.3-0.7-0.5c-0.2-0.3-0.3-0.5-0.5-0.8
			c-0.1-0.1-0.1-0.1,0-0.2h-5.4c-0.3,0-0.5-0.1-0.7-0.3s-0.3-0.4-0.3-0.7s0.1-0.5,0.3-0.7s0.4-0.3,0.7-0.3h4.9
			c0.3,0,0.6,0.1,0.8,0.3c0.2,0.2,0.3,0.5,0.3,0.8v0.2c0,0,0,0,0,0.1c0,0,0.1,0,0.1,0c1.4-1,2.6-2.2,3.6-3.7
			c0.4-0.6,0.9-0.9,1.6-0.9c0.7,0,1.2,0.3,1.7,0.8c1.1,1.5,2.4,2.6,3.7,3.5c0.3,0.2,0.4,0.4,0.5,0.7c0,0.1,0,0.2,0,0.2
			c0,0.2-0.1,0.4-0.2,0.6c0,0,0,0.1-0.1,0.1c-0.2,0.3-0.4,0.4-0.7,0.5c-0.1,0-0.2,0-0.2,0c-0.2,0-0.4-0.1-0.6-0.2
			c-0.2-0.1-0.3-0.3-0.5-0.4c0,0-0.1,0-0.1,0c0,0,0,0,0,0.1v0c0,0.3-0.1,0.6-0.3,0.8c-0.2,0.2-0.5,0.3-0.8,0.3H40.8z M35.9,253.6
			c0.3,0,0.6,0.1,0.8,0.3c0.2,0.2,0.3,0.5,0.3,0.8v3.6c0,0.3-0.1,0.6-0.3,0.8c-0.2,0.2-0.5,0.3-0.8,0.3h-2.4c-0.1,0-0.1,0-0.1,0.1
			c0,0.2-0.1,0.4-0.2,0.5c-0.1,0.1-0.3,0.2-0.5,0.2h-0.3c-0.3,0-0.5-0.1-0.7-0.3c-0.2-0.2-0.3-0.4-0.3-0.7v-4.6
			c0-0.3,0.1-0.6,0.3-0.8c0.2-0.2,0.5-0.3,0.8-0.3H35.9z M36.1,248.2c0.2,0,0.5,0.1,0.6,0.3c0.2,0.2,0.3,0.4,0.3,0.6
			s-0.1,0.5-0.3,0.6c-0.2,0.2-0.4,0.3-0.6,0.3h-3.7c-0.2,0-0.5-0.1-0.6-0.3c-0.2-0.2-0.3-0.4-0.3-0.6s0.1-0.5,0.3-0.6
			c0.2-0.2,0.4-0.3,0.6-0.3H36.1z M32.4,252.6c-0.2,0-0.4-0.1-0.6-0.2c-0.2-0.2-0.3-0.4-0.3-0.6s0.1-0.4,0.3-0.6
			c0.2-0.2,0.4-0.3,0.6-0.3h3.7c0.2,0,0.4,0.1,0.6,0.3c0.2,0.2,0.2,0.4,0.2,0.6s-0.1,0.4-0.2,0.6c-0.2,0.2-0.4,0.2-0.6,0.2H32.4z
			 M36.1,242.8c0.2,0,0.5,0.1,0.6,0.3s0.3,0.4,0.3,0.6s-0.1,0.5-0.3,0.6s-0.4,0.3-0.6,0.3h-3.5c-0.2,0-0.5-0.1-0.6-0.3
			s-0.3-0.4-0.3-0.6s0.1-0.5,0.3-0.6s0.4-0.3,0.6-0.3H36.1z M35.1,255.6c0-0.1,0-0.1-0.1-0.1h-1.4c-0.1,0-0.2,0-0.2,0.1v2
			c0,0.1,0.1,0.2,0.2,0.2H35c0.1,0,0.1-0.1,0.1-0.2V255.6z M47,250.6c0.3,0,0.6,0.1,0.8,0.3c0.2,0.2,0.3,0.5,0.3,0.8v6.8
			c0,0.4,0,0.8-0.1,1c-0.1,0.2-0.2,0.4-0.5,0.6c-0.2,0.1-0.5,0.2-0.9,0.3c0,0-0.1,0-0.1,0c-0.2,0-0.4-0.1-0.6-0.2
			c-0.2-0.2-0.4-0.4-0.4-0.7c-0.1-0.2,0-0.3,0.1-0.5s0.3-0.3,0.5-0.4c0.1,0,0.1-0.1,0.1-0.2v-2c0-0.1-0.1-0.1-0.2-0.1h-0.7
			c-0.1,0-0.2,0-0.2,0.1v3c0,0.2-0.1,0.4-0.2,0.5c-0.1,0.2-0.3,0.2-0.5,0.2s-0.4-0.1-0.5-0.2c-0.1-0.2-0.2-0.3-0.2-0.5v-3
			c0-0.1-0.1-0.1-0.2-0.1h-0.7c-0.1,0-0.2,0-0.2,0.1v3c0,0.2-0.1,0.4-0.2,0.5c-0.1,0.2-0.3,0.2-0.5,0.2s-0.4-0.1-0.5-0.2
			c-0.2-0.2-0.2-0.3-0.2-0.5v-3c0-0.1,0-0.1-0.1-0.1h-0.7c-0.1,0-0.2,0-0.2,0.1v2.9c0,0.3-0.1,0.5-0.3,0.7c-0.2,0.2-0.4,0.3-0.7,0.3
			s-0.5-0.1-0.7-0.3c-0.2-0.2-0.3-0.4-0.3-0.7v-7.8c0-0.3,0.1-0.6,0.3-0.8c0.2-0.2,0.5-0.3,0.8-0.3H47z M40.1,254.4
			c0,0.1,0.1,0.2,0.2,0.2h0.7c0.1,0,0.1-0.1,0.1-0.2v-1.9c0-0.1,0-0.2-0.1-0.2h-0.7c-0.1,0-0.2,0.1-0.2,0.2V254.4z M40.5,247.4
			C40.5,247.4,40.5,247.4,40.5,247.4C40.5,247.5,40.5,247.5,40.5,247.4l5.2,0.1c0,0,0,0,0,0c0,0,0,0,0-0.1c-1-1-1.9-1.9-2.6-2.9
			c0,0,0,0-0.1,0s-0.1,0-0.1,0.1C42.3,245.5,41.5,246.4,40.5,247.4z M42.6,254.4c0,0.1,0.1,0.2,0.2,0.2h0.7c0.1,0,0.2-0.1,0.2-0.2
			v-1.9c0-0.1-0.1-0.2-0.2-0.2h-0.7c-0.1,0-0.2,0.1-0.2,0.2V254.4z M45.1,254.4c0,0.1,0.1,0.2,0.2,0.2H46c0.1,0,0.2-0.1,0.2-0.2
			v-1.9c0-0.1-0.1-0.2-0.2-0.2h-0.7c-0.1,0-0.2,0.1-0.2,0.2V254.4z"/>
		<path class="st1" d="M35.6,278.9c0.1-0.1,0.2-0.1,0.4-0.1c0.2,0,0.3,0,0.4,0.1c0.3,0.1,0.4,0.3,0.5,0.6c0,0.1,0,0.2,0,0.3
			c0,0.2,0,0.4-0.1,0.6c-0.1,0.3-0.4,0.5-0.7,0.6c-1,0.4-2.2,1-3.8,1.6c-0.1,0.1-0.3,0.1-0.4,0.1c-0.1,0-0.3,0-0.4-0.1
			c-0.3-0.1-0.4-0.3-0.5-0.6l-0.1-0.2c0-0.1-0.1-0.2-0.1-0.4c0-0.2,0-0.3,0.1-0.5c0.1-0.3,0.4-0.5,0.7-0.6c0.3-0.1,0.7-0.3,1-0.4
			c0.1,0,0.1-0.1,0.1-0.2v-5.1c0-0.1,0-0.2-0.1-0.2h-0.6c-0.3,0-0.6-0.1-0.8-0.3c-0.2-0.2-0.3-0.5-0.3-0.8c0-0.3,0.1-0.6,0.3-0.8
			c0.2-0.2,0.5-0.3,0.8-0.3h0.6c0.1,0,0.1,0,0.1-0.1v-3.2c0-0.3,0.1-0.5,0.3-0.7c0.2-0.2,0.5-0.3,0.8-0.3s0.5,0.1,0.7,0.3
			c0.2,0.2,0.3,0.5,0.3,0.7v3.2c0,0.1,0,0.1,0.1,0.1h0.3c0.3,0,0.6,0.1,0.8,0.3c0.2,0.2,0.3,0.5,0.3,0.8c0,0.3-0.1,0.6-0.3,0.8
			c-0.2,0.2-0.5,0.3-0.8,0.3H35c-0.1,0-0.1,0.1-0.1,0.2v4.2c0,0,0,0.1,0,0.1c0,0,0.1,0,0.1,0C35.2,279,35.4,278.9,35.6,278.9z
			 M36,285.2c-0.2-0.2-0.2-0.4-0.2-0.6c0-0.2,0.1-0.4,0.2-0.6c0.2-0.2,0.4-0.2,0.6-0.2h11.6c0.2,0,0.4,0.1,0.6,0.2s0.2,0.4,0.2,0.6
			c0,0.2-0.1,0.4-0.2,0.6c-0.2,0.2-0.4,0.2-0.6,0.2H36.6C36.4,285.5,36.2,285.4,36,285.2z M48,269.1c0.2,0,0.4,0.1,0.6,0.2
			c0.2,0.2,0.2,0.4,0.2,0.6c0,0.2-0.1,0.4-0.2,0.6c-0.2,0.2-0.4,0.2-0.6,0.2H37.5c-0.2,0-0.4-0.1-0.6-0.2c-0.2-0.2-0.2-0.4-0.2-0.6
			c0-0.2,0.1-0.4,0.2-0.6c0.2-0.2,0.4-0.2,0.6-0.2h4c0.1,0,0.1,0,0.1-0.1v-0.1c0-0.3,0.1-0.6,0.3-0.8c0.2-0.2,0.5-0.3,0.8-0.3h0.1
			c0.3,0,0.6,0.1,0.8,0.3c0.2,0.2,0.3,0.5,0.3,0.8v0.1c0,0.1,0,0.1,0.1,0.1H48z M46.9,271.3c0.3,0,0.6,0.1,0.8,0.3
			c0.2,0.2,0.3,0.5,0.3,0.8v4.1c0,0.3-0.1,0.6-0.3,0.8c-0.2,0.2-0.5,0.3-0.8,0.3h-8.2c-0.3,0-0.6-0.1-0.8-0.3
			c-0.2-0.2-0.3-0.5-0.3-0.8v-4.1c0-0.3,0.1-0.6,0.3-0.8c0.2-0.2,0.5-0.3,0.8-0.3H46.9z M47.3,282.1c0,0.3-0.1,0.6-0.3,0.8
			s-0.5,0.3-0.8,0.3h-6.7c-0.3,0-0.6-0.1-0.8-0.3c-0.2-0.2-0.3-0.5-0.3-0.8v-2.7c0-0.3,0.1-0.6,0.3-0.8c0.2-0.2,0.5-0.3,0.8-0.3h6.7
			c0.3,0,0.6,0.1,0.8,0.3c0.2,0.2,0.3,0.5,0.3,0.8V282.1z M45.9,276.4c0.1,0,0.2,0,0.2-0.1v-3.4c0-0.1-0.1-0.1-0.2-0.1h-6.3
			c-0.1,0-0.1,0-0.1,0.1v3.4c0,0.1,0,0.1,0.1,0.1H45.9z M44.1,273.2c0.3,0,0.6,0.1,0.8,0.3c0.2,0.2,0.3,0.5,0.3,0.8v0.4
			c0,0.3-0.1,0.6-0.3,0.8c-0.2,0.2-0.5,0.3-0.8,0.3h-2.7c-0.3,0-0.6-0.1-0.8-0.3c-0.2-0.2-0.3-0.5-0.3-0.8v-0.4
			c0-0.3,0.1-0.6,0.3-0.8s0.5-0.3,0.8-0.3H44.1z M40.6,279.5c-0.1,0-0.1,0.1-0.1,0.2v0.4c0,0.1,0,0.2,0.1,0.2h4.3
			c0.1,0,0.1-0.1,0.1-0.2v-0.4c0-0.1,0-0.2-0.1-0.2H40.6z M40.6,281.3c-0.1,0-0.1,0.1-0.1,0.2v0.4c0,0.1,0,0.1,0.1,0.1h4.3
			c0.1,0,0.1,0,0.1-0.1v-0.4c0-0.1,0-0.2-0.1-0.2H40.6z M43.5,274.9c0.1,0,0.2,0,0.2-0.1v-0.4c0-0.1-0.1-0.1-0.2-0.1h-1.6
			c-0.1,0-0.2,0-0.2,0.1v0.4c0,0.1,0.1,0.1,0.2,0.1H43.5z"/>
	</g>
	<g id="TYPE_A">
		<g>
			<path class="st0" d="M61.5,0H13.7C6.2,0,0,6.1,0,13.6v47.8c0,7.5,6.1,13.7,13.6,13.7h47.8c7.5,0,13.7-6.1,13.7-13.6V13.7
				C75.1,6.2,69,0,61.5,0"/>
			<path class="st1" d="M64.8,34.2c0-12.2-12.3-22.2-27.3-22.2c-15.1,0-27.3,10-27.3,22.2c0,11,9.7,20.1,22.9,21.9
				c0.9,0.2,2.1,0.6,2.4,1.3c0.3,0.7,0.2,1.8,0.1,2.5c0,0-0.3,1.9-0.4,2.3c-0.1,0.7-0.5,2.7,2.4,1.5c2.9-1.2,15.7-9.3,21.5-15.9h0
				C62.9,43.5,64.8,39.1,64.8,34.2"/>
			<g>
				<path class="st0" d="M31.9,28.3H30c-0.3,0-0.5,0.2-0.5,0.5v11.9c0,0.3,0.2,0.5,0.5,0.5h1.9c0.3,0,0.5-0.2,0.5-0.5V28.9
					C32.4,28.6,32.2,28.3,31.9,28.3"/>
				<path class="st0" d="M45.1,28.3h-1.9c-0.3,0-0.5,0.2-0.5,0.5v7.1l-5.5-7.4c0,0,0,0,0-0.1c0,0,0,0,0,0c0,0,0,0,0,0c0,0,0,0,0,0
					c0,0,0,0,0,0c0,0,0,0,0,0c0,0,0,0,0,0c0,0,0,0,0,0c0,0,0,0,0,0c0,0,0,0,0,0c0,0,0,0,0,0c0,0,0,0,0,0c0,0,0,0,0,0c0,0,0,0,0,0
					c0,0,0,0,0,0c0,0,0,0,0,0c0,0,0,0,0,0c0,0,0,0,0,0c0,0,0,0,0,0h-1.9c-0.3,0-0.5,0.2-0.5,0.5v11.9c0,0.3,0.2,0.5,0.5,0.5h1.9
					c0.3,0,0.5-0.2,0.5-0.5v-7.1l5.5,7.4c0,0.1,0.1,0.1,0.1,0.1c0,0,0,0,0,0c0,0,0,0,0,0c0,0,0,0,0,0c0,0,0,0,0,0c0,0,0,0,0,0
					c0,0,0,0,0,0c0,0,0,0,0,0c0,0,0,0,0,0c0,0,0.1,0,0.1,0h1.9c0.3,0,0.5-0.2,0.5-0.5V28.9C45.6,28.6,45.4,28.3,45.1,28.3"/>
				<path class="st0" d="M27.2,38.3H22v-9.5c0-0.3-0.2-0.5-0.5-0.5h-1.9c-0.3,0-0.5,0.2-0.5,0.5v11.9v0c0,0.1,0.1,0.3,0.1,0.4
					c0,0,0,0,0,0c0,0,0,0,0,0c0.1,0.1,0.2,0.1,0.4,0.1h0h7.7c0.3,0,0.5-0.2,0.5-0.5v-1.9C27.8,38.6,27.5,38.3,27.2,38.3"/>
				<path class="st0" d="M55.7,31.3c0.3,0,0.5-0.2,0.5-0.5v-1.9c0-0.3-0.2-0.5-0.5-0.5H48h0c-0.1,0-0.3,0.1-0.4,0.2c0,0,0,0,0,0
					c0,0,0,0,0,0c-0.1,0.1-0.1,0.2-0.1,0.4v0v11.9v0c0,0.1,0.1,0.3,0.1,0.4c0,0,0,0,0,0c0,0,0,0,0,0c0.1,0.1,0.2,0.1,0.4,0.1h0h7.7
					c0.3,0,0.5-0.2,0.5-0.5v-1.9c0-0.3-0.2-0.5-0.5-0.5h-5.2v-2h5.2c0.3,0,0.5-0.2,0.5-0.5v-1.9c0-0.3-0.2-0.5-0.5-0.5h-5.2v-2H55.7
					z"/>
			</g>
		</g>
	</g>
</g>
</svg>
