<?xml version="1.0" encoding="utf-8"?>
<!-- Generator: Adobe Illustrator 21.0.0, SVG Export Plug-In . SVG Version: 6.00 Build 0)  -->
<svg version="1.1" id="圖層_1" xmlns="http://www.w3.org/2000/svg" xmlns:xlink="http://www.w3.org/1999/xlink" x="0px" y="0px"
	 viewBox="0 0 83 60" style="enable-background:new 0 0 83 60;" xml:space="preserve">
<style type="text/css">
	.st0{fill:#717071;}
	.st1{fill:#56300F;}
</style>
<g>
	<path class="st0" d="M13.7,51.9c-0.9,1.3-1.7,1.4-2.2,1.6h3.4l0.8,0C14.9,53.1,14.2,52.7,13.7,51.9 M9.7,57.3h5.2v-0.5H9.7V57.3z
		 M9.7,56h5.2v-0.5H9.7V56z M9.7,54.8h5.2v-0.5H9.7V54.8z M10.3,50.3l-0.4,0.9c-0.8-0.7-2.1-1.1-2.1-1.1l0.4-0.8
		C8.8,49.6,10.3,50.3,10.3,50.3 M17,59.1L16.4,60c0,0-1.8-1-3.5-1.3l0.5-0.7h-2.5l0.9,0.7c0,0-2.7,1.1-3.9,1.3
		c-0.1-0.4-0.3-0.6-0.6-0.9c0.9-0.1,2.5-0.6,3.4-1.1H9.6l-0.9,0l0-0.9v-2.7l0-0.9l1,0h0.7c0,0-0.1-0.3-0.5-0.5
		c1.9-0.2,2.9-0.8,3.3-2.1h-0.9l-0.9,0.9c0,0-0.2-0.3-0.9-0.4c0.9-0.7,1.4-1.9,1.7-2.4l1,0.5c0,0-0.3,0.3-0.5,0.6h2.9l1.2,0l-0.7,2
		c0,0-0.4-0.3-1-0.3l0.4-0.8h-1.6c0,0,0,0.2-0.1,0.3c0.8,1.1,2.8,1.7,3.6,1.7c0,0-0.5,0.6-0.5,1.1c-0.4-0.1-0.9-0.3-1.2-0.4l0,0.9
		v2.7l0,0.9L15,58h-1.3C14.5,58.2,16.2,58.7,17,59.1 M10.5,52.3c-1.3,0.6-3,1.4-3,1.4l-0.5-0.9c1.4-0.4,3.2-1.3,3.2-1.3L10.5,52.3z"
		/>
	<path class="st0" d="M31.6,51c0.2,0.2,0.4,0.4,0.6,0.5c0.2-0.1,0.5-0.3,0.6-0.5H31.6z M32.2,52.2c-0.4,0.2-0.9,0.3-1.4,0.4h2.7
		C32.9,52.6,32.5,52.4,32.2,52.2 M35.5,59.6h-5.6c-0.4,0-1.2,0-1.2,0v-1c0,0,0.7,0,1.2,0h2.3v-1.1h-1c-0.5,0-1.1,0.1-1.1,0.1v-1
		c0,0,0.8,0,1.1,0h1.1v-0.9l-1.9,0c-0.1,0.4-0.6,1.2-0.8,1.4c-0.4-0.4-0.9-0.5-0.9-0.5s1-1.1,1.3-3l1.2,0.4c0,0-0.2,0.3-0.4,0.8h1.6
		v-0.4l0-0.8h1.1l-0.1,0.8v0.4h1.9c0.5,0,0.8-0.1,0.8-0.1v0.9l-0.8,0h-1.9v0.9l1.3,0c0.6,0,1.1,0,1.1,0v1c0,0-0.7,0-1,0l-1.4,0v1.1
		h2.3l1.3-0.1v1C36.8,59.7,36.1,59.6,35.5,59.6 M35.7,53.5h-7.2c0,0,0,1.8,0,2.4c-0.1,2.4-1.3,3.9-1.3,3.9s-0.4-0.4-0.9-0.8
		c0,0,1.2-0.9,1.2-3.3v-2.2l0-0.8l1,0c-0.1-0.2-0.1-0.3-0.3-0.5c0,0,1.8-0.1,2.9-0.4c-0.1-0.1-0.6-0.4-0.9-0.8h-1.4l-1,0v-1l1,0h2.7
		c-0.1-0.2-0.1-0.4-0.3-0.6c0,0,0.8-0.3,1.1-0.4c0,0,0.3,0.5,0.5,1h2.5l0.9,0v1l-0.9,0h-1.1c-0.2,0.3-0.7,0.6-1,0.8
		c0.7,0.3,1.2,0.4,2.9,0.4c-0.2,0.1-0.3,0.2-0.4,0.4l1,0v0.9L35.7,53.5z"/>
	<path class="st0" d="M52.8,49c0,0,1,0.4,1.2,0.5c-0.3,0.2-0.6,0.6-0.6,0.6h2l1,0v0.9l-0.9,0h-1c0,0,0.3,0.8,0.4,1.1
		c0,0-0.7,0-1.1,0.2c0-0.5-0.2-1.3-0.2-1.3h-0.6c0,0-0.3,0.5-0.6,0.8C52,51.3,51.5,51,51.5,51C51.9,50.6,52.4,50.2,52.8,49 M49,58.4
		h4.7v-0.7H49V58.4z M49,55.3h4.3v-0.6H49V55.3z M54.3,53.8l0,0.9v0.5l0,1l-1,0H49v0.7h4.6l1.1,0l0,0.9v1l0,1.1h-1v-0.7H49V60h-1
		l0.1-1.4v-3.7l0-1.1l1.1,0h4L54.3,53.8z M48.2,48.9c0,0,1,0.5,1.2,0.5C49,49.7,48.8,50,48.8,50h1.3l1.1,0v0.9l-1,0h-0.4
		c0,0,0.2,0.6,0.3,1.1c0,0-0.6,0-1.1,0.2c0-0.4-0.1-1.3-0.1-1.3h-0.6c0,0-0.6,0.7-1.1,1.2c-0.3-0.4-0.7-0.7-0.7-0.7
		C46.9,51,47.6,50.2,48.2,48.9 M55.3,52.5l1-0.1l0,0.7v0.4l0.1,1h-1v-1.2h-7.9v0.6l0,0.5h-1l0.1-0.8v-0.4l-0.1-0.9l1,0.1H51
		c0,0-0.1-0.5-0.4-0.8l1.2-0.2c0.2,0.4,0.4,1,0.4,1H55.3z"/>
	<path class="st0" d="M73,54.4h1.3v-1.6H73V54.4z M73,52h1.3v-1.5H73V52z M70.7,54.4H72v-1.6h-1.3V54.4z M70.7,52H72v-1.5h-1.3V52z
		 M72,55.3h-1.3l-1,0l0.1-0.9v-3.8l-0.1-1.1l1,0h3.6l1.1,0l-0.1,1.1v4l0.1,0.8l-1-0.1H73v1.2h1.4l0.9,0v1l-0.9,0H73v1.3h2l1,0v1.1
		l-1.1,0h-5.1l-0.9,0v-1.1l0.9,0H72v-1.3h-1.3l-0.9,0v-1l0.9,0H72V55.3z M68.6,50l0.6,0V51l-0.5,0h-0.7v2.5h0.5l0.7,0v1.1l-0.6,0
		h-0.5v2.8l1.3-0.6c0,0,0,0.7,0,1.2c0,0-1.4,0.5-3.4,1.5l-0.3-1.3c0,0,0.6-0.1,1.5-0.5v-3.1h-0.6l-0.6,0v-1.1l0.7,0.1H67V51h-0.5
		l-0.8,0V50l0.8,0H68.6z"/>
	<path class="st1" d="M18.2,10.5c0,0.4,0,0.8-0.1,1.4c-0.1,0.5-1.1,1.4-3.2,2.8h-0.7c0.2-0.3,0.3-0.6,0.5-1c1.1-2.2,1.6-3.4,1.6-3.5
		c0-0.1,0-0.2-0.1-0.4c0.5-0.1,1.1-0.3,1.7-0.5C18.1,9.8,18.2,10.2,18.2,10.5 M27.5,13c-3.2,2.4-4.8,3.9-4.9,4.3
		c-0.1,0.3-0.1,0.7,0,1.1c0.1,0.4,0.3,0.6,0.4,0.6c0.1,0,1.4-1,4-2.9c-0.3,1.2-0.6,2.3-0.9,3.2c-0.7,0.3-1.6,0.7-2.6,1.2
		c-1.2,0.6-2.3,1.1-3.2,1.6c0.1-2.3,1.4-5,3.9-8.4L27.5,13z M27,9c0.1,0.5-0.6,1.6-2.3,3.3L24.5,12l-3.8,3.3
		c-0.2-0.8,0.2-1.5,1.3-2.4c1.1-0.8,1.6-1.4,1.6-1.6c-1.4-0.4-2.5-1.3-3.3-2.8c2.2-0.8,3.9-1.3,5.1-1.5C26.3,7.8,26.8,8.5,27,9
		 M36.7,17c-1.1-2-1.8-3.1-2.2-3.2c-0.4-0.1-2,0-4.8,0.3c0.4-1.5,1.2-2.5,2.2-3c1-0.4,1.4-0.8,1.3-1.2c-0.1-0.4-1.2-0.8-3.3-1.2
		c-0.3-0.7-0.6-1.2-0.8-1.3c-0.3-0.1-0.5-0.4-0.7-0.8c-0.1,0-0.1-0.1-0.2-0.1c0.4-0.1,0.7-0.1,0.9-0.1c0.5,0,1.5,0.1,2.9,0.2
		c1.4,0,2.2,0,2.5,0c0.2,0,0.6-0.1,1.1-0.4c-2.7-2-4.3-2.9-4.8-2.7l-2.3,0.6c-1,0.3-2.1,0.3-3.1,0.1c0.2-0.8,0-1.5-0.8-2.3
		c-0.8-0.8-2.5-1.3-5.3-2c0.8,1.8,1.5,2.8,2.3,3.2c-0.4,1-1.8,2-4.1,2.7c-2.3,0.7-3.6,1.1-3.9,1.3c-0.2,0.1-0.4,0.1-0.6,0.1
		c-0.1,0.1-1.2,0.3-3.2,0.9l0-1.1C8.9,7.6,8.5,8,8.5,8.1c0,0.1,0.1,0.3,0.2,0.7c0.1,0.4,0.9,0.8,2.4,1.3c0.9,0.3,2.1,0.2,3.8-0.1
		c-2.4,4-4.4,8-5.8,12C7.4,26.6,5.7,30.2,4,32.8c-1.7,2.7-2.9,3.8-3.7,3.3c-0.2,1.8-0.1,2.7,0.2,2.8c0.4,0.1,0.6,0.2,0.8,0.2
		c0.1,0,0.2-0.1,1.2-0.5c0.7-0.3,1.6-1.1,2.7-2.3c1-1.3,2.2-3.6,3.7-6.8c1.4-3.3,2.4-6.2,3.2-8.7c0.3-1.2,0.8-2.5,1.2-3.7
		c0.4,0.2,0.7,0.3,1,0.3c0.2,0,1.5-0.5,3.8-1.6c-0.5,1.1-1.3,2.3-2.4,3.4c-1.1,1-1.6,1.7-1.6,1.9c0,0.3,0,0.4,0.4,1
		c0.3,0.4,0.5,0.6,0.6,0.6c0.1-0.1,1.3-1.1,3.5-3.3l1.5,2.9c-1.3,0.6-2.4,1.2-3.2,1.6c0.5,0.2,1.1,0.3,1.7,0.3
		c0.6,0,1.3-0.1,1.9-0.2c0.6-0.1,1.5,0,2.5,0.5l-5.4,2.1c0,0.5,0.3,1,1,1.5c0.7,0.5,1.1,0.7,1.2,0.7c0.1,0,1.5-0.4,4.2-1.1
		c-0.8,0.9-1.3,1.3-5.1,2.9c-2.5,1-3.9,1.8-4.2,2.3c-0.2,0.5-0.3,0.9-0.3,1.1c0,0.3,0.1,0.5,0.4,0.8c0.3,0.2,0.5,0.3,0.6,0.3
		c0.1,0,1.2-0.5,3.2-1.5c2-0.9,4.1-1.8,6.1-2.7c0.3,1.8,0.3,3.7,0,5.6c-0.3,1.9-0.8,3-1.6,3.1c-0.8,0.2-2.9,0-6.2-0.7
		c0,0.2,1.4,1.1,4.2,2.7c2.7,1.6,4.2,2.4,4.3,2.4c0.1,0,0.7-1.2,1.5-3.5c0.8-2.4,1-4.3,0.8-5.7c-0.1-1.4-0.1-2.9,0.1-4.4
		c2.8-0.2,4.9-0.1,6.2,0.1c1.3,0.2,2.1,0.3,2.4,0.1c0.2-0.1,0.3-0.3,0.3-0.4c0-0.1-0.1-0.4-0.2-0.9c-0.2-0.5-0.7-1-1.8-1.3
		c-1-0.3-1.7-0.5-1.9-0.5c-0.3,0-2,0.3-5.1,0.9c0-0.7,0.1-1.2,0.1-1.5c0.1-0.3,0.4-0.5,0.9-0.8c0.5-0.3,0.8-0.7,0.8-1.2
		c0-0.5-0.3-0.9-0.9-1.2c-0.6-0.2-1.1-0.5-1.5-1c2.3-0.9,3.4-1.4,3.4-1.5c0-0.1-0.3-0.6-1-1.5c-0.1-0.1-0.2-0.2-0.2-0.3
		c0-0.4,0-0.8,0-1.4c0-1,0-1.7,0.1-1.9c0.1-0.2,1.2-0.1,3.3,0.3C35,16.8,36.2,17,36.7,17"/>
	<path class="st1" d="M71.5,14.4c-0.7,2.2-1.3,3.3-1.7,3.5c-0.4,0.1-2,0.8-5,2l0.4-2.9C66.5,17.1,68.6,16.3,71.5,14.4 M62,13.2
		l-4.1,5.5c0-0.5-0.3-1.3-0.9-2.5c-0.6-1.2-0.8-1.9-0.7-2c0.1-0.1,0.8-0.6,2.2-1.5c1.3-0.8,2-1.5,2-1.7c0-0.2-0.1-0.5-0.4-0.8
		c-0.2-0.3-0.6-0.5-1.1-0.7c-0.5-0.2-1.4-0.1-2.6,0.1c1-2,1.4-3.2,1.1-3.9c-0.3-0.6-0.9-1.1-2-1.5c-1.1-0.4-1.9-0.6-2.3-0.6
		c-0.3,0-0.6,0.2-0.7,0.6c-0.1,0.4-0.2,1.3-0.2,2.8c0.5-1,0.8-1.1,1.1-0.2c0.3,0.9,0.3,1.8,0.2,2.8c-0.1,0.9-1.9,2.5-5.5,4.9
		c-3.5,2.3-5.4,3.5-5.7,3.5c-0.3,0-0.7-0.1-1.3-0.4c-0.6-0.2-0.8,0-0.4,0.7c0.4,0.7,1.2,1.6,2.4,2.8c1.2,1.1,2,1.7,2.4,1.7
		c0.3,0,1.6-0.9,3.8-2.8c2.2-1.8,3.4-2.8,3.7-3.1c-0.5,3.2-1.4,5.3-2.8,6.5c-1.3,1.2-2.1,2.2-2.4,3c-0.2,0.8-0.4,1.4-0.4,1.9
		c0,0.5,0.1,1.2,0.4,2c0.2,0.9,0.5,1.3,0.7,1.3c0.3,0,1.4-1.4,3.3-4c0.2,2.7,0.3,4.2,0.1,4.6c0,0.3-0.1,0.7-0.1,0.9
		c0,0.2,0.3,1.3,0.9,3.3c0.7,2,1.3,2.7,1.7,2.3c0.4-0.5,0.6-0.8,0.6-1c0-0.1-0.1-0.8-0.5-2c-0.3-1.2-0.5-2.4-0.4-3.5
		c0.1-1.1,0.1-2.7,0.1-4.7c0-1.9,1-4.1,3-6.6C59.5,18.5,61,15.9,62,13.2 M82.9,35.2c0-0.7-0.3-1.7-1-3.3c-0.7-1.6-1.4-2.4-2.1-2.7
		l-7.2-2.4c3.1-2.1,4.6-3.2,4.6-3.4c0-0.2-0.2-0.7-0.5-1.4c-0.3-0.7-0.8-1.3-1.4-1.8c-0.6-0.5-1.4-0.1-2.4,1.2
		c-0.9,1.4-1.8,2.4-2.6,2.8c-0.8,0.5-1.7,0.8-2.8,0.9c-1,0.1-1.7,0.6-1.9,1.4c-0.2,0.8-0.4,1.5-0.4,1.8c0,0.4,0.8,0.6,2.2,0.6
		c0.8,0,1.7,0.1,2.6,0.4c-0.4,0.5-0.8,1.1-1.3,1.7c-1.6,2.3-2.9,3.5-3.9,3.9c-1,0.4-1.6,0-1.7-1.1c-0.1-1.1,0.3-4.7,1.3-10.9
		c0.5,0.2,0.9,0.3,1.4,0.1c0.4-0.1,0.9-0.3,1.4-0.5c0.5-0.2,0.8-0.4,3.6-1.6c1.9-0.8,2.8-1.3,2.8-1.5c0-0.1-0.4-0.5-1.1-0.9
		c3.2-5.3,4.8-8.1,5-8.6c0.1-0.4-0.7-1.3-2.5-2.8c-1.9-1.5-3.2-2.2-3.9-2.2c-0.7,0.1-2.1,0.5-4.1,1.5c-1.9,0.9-3.5,2.7-4.8,5.4
		c2.9-0.9,4.6-1.4,4.9-1.4c0.4,0,1.1-0.6,2.2-1.7c1.1-1.1,1.9-1.6,2.3-1.6c0.3,0,0.7,0.4,0.9,1.1c0.2,0.7,0,2.2-0.8,4.4
		c-1.5-1-2.3-1.5-2.4-1.5c-0.1,0-0.9,0.4-2.4,1.1c-1.5,0.8-2.4,1-2.8,0.8c-0.3-0.3-0.7-0.4-0.9-0.4c-0.2,0-0.5,0-0.7,0.2
		c-0.2,0.1-0.4,0.5-0.6,1.1c-0.1,0.6-0.2,1.4-0.2,2.4c0,0.9-0.2,3.2-0.6,6.8c-0.3,3.5-0.3,6.6,0,9.3c0.4,2.7,0.9,4.5,1.6,5.4
		c0.8,0.9,1.4,1.4,2,1.5c0.7,0.1,1.1,0.1,1.3,0c0.2-0.1,1-1.2,2.4-3.2c1-1.6,1.9-3.7,2.5-6.3c0.6,0.2,1.1,0.4,1.7,0.7
		c2.2,1.1,4,2.2,5.5,3.1c1.5,0.9,2.6,1.6,3.3,2C82.5,36,82.9,36.2,82.9,35.2"/>
	<path class="st0" d="M15.9,42.7H2.1c-0.4,0-0.6-0.3-0.6-0.7s0.3-0.7,0.6-0.7h13.8c0.4,0,0.6,0.3,0.6,0.7S16.2,42.7,15.9,42.7"/>
	<path class="st0" d="M80.8,42.7H30.3c-0.4,0-0.7-0.3-0.7-0.7s0.3-0.7,0.7-0.7h50.5c0.4,0,0.7,0.3,0.7,0.7S81.1,42.7,80.8,42.7"/>
</g>
</svg>
