<?xml version="1.0" encoding="utf-8"?>
<!-- Generator: Adobe Illustrator 21.0.0, SVG Export Plug-In . SVG Version: 6.00 Build 0)  -->
<svg version="1.1" id="圖層_1" xmlns="http://www.w3.org/2000/svg" xmlns:xlink="http://www.w3.org/1999/xlink" x="0px" y="0px"
	 viewBox="0 0 180 180" style="enable-background:new 0 0 180 180;" xml:space="preserve">
<style type="text/css">
	.st0{fill:#F2F2F2;}
	.st1{fill:#CCCCCC;}
</style>
<g>
	<g>
		<path class="st0" d="M90,180c-49.3,0-89.6-39.9-90-89.4l30-0.2c0.2,32.9,27.1,59.6,60,59.6c0.1,0,0.3,0,0.4,0l0.2,30
			C90.4,180,90.2,180,90,180z"/>
	</g>
	<g>
		<path class="st0" d="M150,89.6c-0.1-16-6.5-31-17.9-42.3C120.8,36.1,105.9,30,90,30c-0.1,0-0.3,0-0.4,0L89.4,0c0.2,0,0.4,0,0.7,0
			c23.8,0,46.2,9.2,63.2,25.9c17.1,16.9,26.6,39.4,26.8,63.4L150,89.6z"/>
	</g>
	<g>
		<path class="st1" d="M0,90.6c-0.2-24,9-46.7,25.9-63.8C42.8,9.7,65.3,0.2,89.4,0l0.2,30c-16,0.1-31,6.5-42.3,17.9
			S29.9,74.4,30,90.4L0,90.6z"/>
	</g>
</g>
</svg>
