<?xml version="1.0" encoding="utf-8"?>
<!-- Generator: Adobe Illustrator 21.0.0, SVG Export Plug-In . SVG Version: 6.00 Build 0)  -->
<svg version="1.1" id="圖層_1" xmlns="http://www.w3.org/2000/svg" xmlns:xlink="http://www.w3.org/1999/xlink" x="0px" y="0px"
	 viewBox="0 0 65 78" style="enable-background:new 0 0 65 78;" xml:space="preserve">
<style type="text/css">
	.st0{fill:#767D89;}
</style>
<g>
	<g>
		<path class="st0" d="M8.1,27.6c4.6,2.4,9.6,3.6,14.8,2.5c2.5-0.5,4.9-1.6,7.4-2.3c0.7-0.2,1.6-0.2,2.4,0c1.6,0.5,3.2,1.2,4.8,1.7
			c6.5,2,12.6,1,18.4-2.5c1.8-1.1,3.1-2.8,3.6-4.9c0.1-0.5,0-1,0-1.7c-1.4,0.9-2.4,1.8-3.6,2.3c-3.2,1.2-6.3,0.9-9.2-1
			C44.8,20.4,43,19.1,41,18c-2.1-1.2-4.4-1.4-6.7-0.4c-1,0.4-1.9,1.2-2.9,1.7c-3.6-2.9-6.4-3.1-10.4-0.7c-1.8,1.1-3.5,2.4-5.4,3.5
			c-3.7,2.2-8,1.7-11.2-1.1c-0.2-0.2-0.5-0.3-1-0.6c0,0.8-0.1,1.3,0,1.8C4.2,24.6,5.9,26.4,8.1,27.6z"/>
		<path class="st0" d="M56,48.2c2.6-3.3,4-8,2.5-15.3c-0.1-0.7-0.8-1.1-1.5-1c-0.7,0.1-1.1,0.8-1,1.5c1.3,6.7,0.2,10.7-2.6,13.9
			c-1.3-0.3-2.6-0.5-4-0.5c-8.5,0-15.5,6.9-15.5,15.5c0,1.4,0.2,2.8,0.6,4.2c-0.8,0.8-1.8,1.7-2.8,2.6c-3.2-2.7-10-8.9-8.8-14.8
			c0.1-0.7-0.3-1.3-1-1.5c-0.7-0.1-1.3,0.3-1.5,1c-0.4,2.2,0,4.4,0.8,6.4c-3.5-2.2-7.3-6.4-6.4-11.3c0.1-0.7-0.3-1.3-1-1.5
			c-0.7-0.1-1.3,0.3-1.5,1c-0.1,0.5-0.2,1-0.2,1.5C7.8,46.3,5.3,42,7.1,33.4c0.1-0.7-0.3-1.3-1-1.5c-0.7-0.1-1.3,0.3-1.5,1
			c-2.3,11.4,2.4,16.4,7.9,20c0.1,0.1,0.2,0.1,0.3,0.2c1.4,5.2,6.4,9.5,10.7,10.7c0,0,0,0,0,0c2.5,3.6,5.9,6.4,7.5,7.8
			c0.2,0.2,0.5,0.3,0.8,0.3c0.3,0,0.6-0.1,0.8-0.3c1.1-0.9,2-1.8,2.9-2.6c2.5,5.2,7.8,8.8,13.9,8.8c8.5,0,15.5-6.9,15.5-15.5
			C65,56,61.3,50.6,56,48.2z M56.3,59.7l-6.6,7.5c-0.2,0.3-0.6,0.4-0.9,0.4c-0.3,0-0.6-0.1-0.8-0.3l-4.7-3.8
			c-0.3-0.2-0.4-0.6-0.5-0.9c0-0.3,0.1-0.6,0.3-0.8c0.4-0.5,1-0.6,1.5-0.3c0.1,0,0.2,0.1,0.2,0.1l3.8,3l5.8-6.6
			c0.5-0.5,1.2-0.6,1.8-0.1C56.7,58.4,56.8,59.2,56.3,59.7z"/>
		<path class="st0" d="M23.6,11.2c0.6-0.1,1-0.6,1-1.2V1.6c0-0.7-0.6-1.3-1.3-1.3H1.3C0.6,0.3,0,0.9,0,1.6V10c0,0.6,0.4,1.1,1,1.2
			c0.3,0.1,7,1.6,11.3,1.6S23.3,11.2,23.6,11.2z M2.5,2.8h19.6v6.1c-2,0.4-6.7,1.3-9.8,1.3c-3.1,0-7.8-0.9-9.8-1.3V2.8z"/>
		<path class="st0" d="M39.5,11.2c0.3,0.1,7,1.6,11.3,1.6s11-1.5,11.3-1.6c0.6-0.1,1-0.6,1-1.2V1.6c0-0.7-0.6-1.3-1.3-1.3H39.8
			c-0.7,0-1.3,0.6-1.3,1.3V10C38.5,10.5,38.9,11.1,39.5,11.2z M41,2.8h19.6v6.1c-2,0.4-6.7,1.3-9.8,1.3S43,9.3,41,8.9V2.8z"/>
		<path class="st0" d="M29.5,7.4h4.2c0.7,0,1.3-0.6,1.3-1.3s-0.6-1.3-1.3-1.3h-4.2c-0.7,0-1.3,0.6-1.3,1.3S28.8,7.4,29.5,7.4z"/>
	</g>
</g>
</svg>
