<?xml version="1.0" encoding="utf-8"?>
<!-- Generator: Adobe Illustrator 21.0.0, SVG Export Plug-In . SVG Version: 6.00 Build 0)  -->
<svg version="1.1" id="圖層_1" xmlns="http://www.w3.org/2000/svg" xmlns:xlink="http://www.w3.org/1999/xlink" x="0px" y="0px"
	 viewBox="0 0 76 72" style="enable-background:new 0 0 76 72;" xml:space="preserve">
<style type="text/css">
	.st0{fill:#767D89;}
	.st1{fill:#FFFFFF;}
	.st2{fill:#ED8B00;}
</style>
<g>
	<g>
		<path class="st0" d="M72.7,32.7h-4.8C65.2,25,59,18.9,51.3,15.6c0.1-0.5,0.1-1.1,0.1-1.7c0-7.6-6.2-13.8-13.8-13.8
			C31,0.1,24,7.2,24,14c0,0.6-0.1,1-0.1,1.5C16.1,19,10,25.2,7.4,32.8c-2.3,0.3-4.6,2.1-6,4.9c-1.4,2.8-2.1,7,0.2,10.2
			c0.2,0.3,0.6,0.5,1,0.5c0.2,0,0.5-0.1,0.7-0.2c0.5-0.4,0.6-1.1,0.3-1.6c-1.7-2.4-1.1-5.7,0-7.8c0.8-1.6,2-2.8,3.2-3.3
			c-0.5,2-0.7,4-0.7,6.1c0,8.7,4.3,16.9,11.7,22.4l-0.5,2.9c-0.3,1.8,0.9,3.5,2.7,3.8l8.4,1.3c0.2,0,0.3,0,0.5,0
			c0.7,0,1.4-0.2,1.9-0.6c0.5-0.4,0.9-0.8,1.1-1.4c5,0.8,10,0.6,14.8-0.7c0.4,1.6,1.9,2.6,3.5,2.5l8.4-0.9c1.8-0.2,3.1-1.8,2.9-3.6
			l-0.6-5.9c3.3-3.2,5.8-7,7.2-11.2h4.7c1.8,0,3.3-1.5,3.3-3.3V36C76,34.2,74.5,32.7,72.7,32.7z M73.7,46.8c0,0.5-0.4,0.9-0.9,0.9
			h-5.6c-0.5,0-1,0.3-1.1,0.8c-1.3,4.3-3.8,8.2-7.2,11.4c-0.3,0.3-0.4,0.6-0.4,1l0.7,6.5c0.1,0.5-0.3,1-0.8,1l-8.4,0.9
			c-0.5,0.1-1-0.3-1-0.8l-0.1-0.9c0-0.3-0.2-0.7-0.5-0.9c-0.3-0.2-0.7-0.2-1-0.1c-5.1,1.6-10.7,1.9-16.1,0.8c-0.3-0.1-0.6,0-0.9,0.2
			c-0.3,0.2-0.4,0.5-0.5,0.8l-0.1,0.4c0,0.2-0.2,0.5-0.4,0.6c-0.2,0.1-0.5,0.2-0.7,0.2l-8.4-1.3c-0.5-0.1-0.9-0.6-0.8-1.1l0.6-3.6
			c0.1-0.4-0.1-0.9-0.5-1.1C12.3,57.4,8.2,49.8,8.2,41.6c0-10.3,6.6-19.3,16.2-23.7c1.7,5.6,7,9.8,13.2,9.8c6.2,0,11.5-4.1,13.2-9.8
			C58,21.2,63.6,27,65.9,34.3c0.2,0.5,0.6,0.8,1.1,0.8h5.7c0.5,0,0.9,0.4,0.9,0.9V46.8z"/>
		<path class="st1" d="M73.7,46.8c0,0.5-0.4,0.9-0.9,0.9h-5.6c-0.5,0-1,0.3-1.1,0.8c-1.3,4.3-3.8,8.2-7.2,11.4
			c-0.3,0.3-0.4,0.6-0.4,1l0.7,6.5c0.1,0.5-0.3,1-0.8,1l-8.4,0.9c-0.5,0.1-1-0.3-1-0.8l-0.1-0.9c0-0.3-0.2-0.7-0.5-0.9
			c-0.3-0.2-0.7-0.2-1-0.1c-5.1,1.6-10.7,1.9-16.1,0.8c-0.3-0.1-0.6,0-0.9,0.2c-0.3,0.2-0.4,0.5-0.5,0.8l-0.1,0.4
			c0,0.2-0.2,0.5-0.4,0.6c-0.2,0.1-0.5,0.2-0.7,0.2l-8.4-1.3c-0.5-0.1-0.9-0.6-0.8-1.1l0.6-3.6c0.1-0.4-0.1-0.9-0.5-1.1
			C12.3,57.4,8.2,49.8,8.2,41.6c0-10.3,6.6-19.3,16.2-23.7c1.7,5.6,7,9.8,13.2,9.8c6.2,0,11.5-4.1,13.2-9.8
			C58,21.2,63.6,27,65.9,34.3c0.2,0.5,0.6,0.8,1.1,0.8h5.7c0.5,0,0.9,0.4,0.9,0.9V46.8z"/>
		<circle class="st0" cx="55.1" cy="31.2" r="1.6"/>
		<circle class="st2" cx="37.9" cy="14.1" r="14"/>
		<g>
			<path class="st1" d="M37.2,20.8v-1.5c-0.7-0.1-1.4-0.3-1.8-0.5c-0.5-0.2-0.9-0.6-1.2-1.2c-0.3-0.5-0.5-1.2-0.6-2l1.5-0.3
				c0.1,0.8,0.3,1.4,0.6,1.8c0.4,0.5,0.9,0.8,1.5,0.9v-4.8c-0.6-0.1-1.2-0.4-1.9-0.7c-0.5-0.3-0.8-0.6-1.1-1.1
				c-0.3-0.5-0.4-1-0.4-1.6c0-1.1,0.4-1.9,1.1-2.6c0.5-0.4,1.3-0.7,2.2-0.8V5.8h0.9v0.7c0.9,0.1,1.6,0.3,2.1,0.8
				c0.7,0.5,1,1.3,1.2,2.2l-1.5,0.2c-0.1-0.6-0.3-1-0.6-1.3C39,8,38.6,7.8,38.1,7.7V12c0.8,0.2,1.3,0.3,1.5,0.4
				c0.5,0.2,0.8,0.5,1.1,0.7c0.3,0.3,0.5,0.6,0.7,1c0.2,0.4,0.2,0.8,0.2,1.3c0,1-0.3,1.9-1,2.6s-1.5,1.1-2.6,1.1v1.5H37.2z
				 M37.2,7.7c-0.6,0.1-1,0.3-1.4,0.7s-0.5,0.8-0.5,1.3c0,0.5,0.1,0.9,0.4,1.3s0.8,0.6,1.4,0.8V7.7z M38.1,18
				c0.6-0.1,1.1-0.3,1.4-0.8s0.6-1,0.6-1.6c0-0.5-0.1-1-0.4-1.3c-0.3-0.3-0.8-0.6-1.6-0.9V18z"/>
		</g>
	</g>
</g>
</svg>
