<?xml version="1.0" encoding="utf-8"?>
<!-- Generator: Adobe Illustrator 21.0.0, SVG Export Plug-In . SVG Version: 6.00 Build 0)  -->
<svg version="1.1" id="圖層_1" xmlns="http://www.w3.org/2000/svg" xmlns:xlink="http://www.w3.org/1999/xlink" x="0px" y="0px"
	 viewBox="0 0 95 95" style="enable-background:new 0 0 95 95;" xml:space="preserve">
<style type="text/css">
	.st0{fill:#767D89;}
</style>
<g>
	<path class="st0" d="M87.7,43.7h-5.6c-3.1-8.9-10.3-16-19.2-19.9c0.1-0.6,0.1-1.3,0.1-1.9c0-8.8-7.2-16-16-16s-16,7.2-16,16
		c0,0.7,0.1,1.3,0.1,1.9c-9.1,4-16.1,11.2-19.1,20c-2.7,0.4-5.3,2.5-7,5.7c-1.7,3.2-2.5,8.1,0.2,11.9c0.3,0.4,0.7,0.6,1.1,0.6
		c0.3,0,0.5-0.1,0.8-0.3c0.6-0.4,0.8-1.3,0.3-1.9c-2-2.8-1.3-6.6,0-9c0.9-1.8,2.3-3.2,3.7-3.8c-0.5,2.3-0.8,4.6-0.8,7.1
		c0,10.1,4.9,19.5,13.6,25.9l-0.5,3.3c-0.3,2.1,1.1,4,3.2,4.3l9.7,1.5c0.2,0,0.4,0,0.6,0c0.8,0,1.6-0.2,2.2-0.7c0.6-0.4,1-1,1.3-1.6
		c5.7,1,11.6,0.7,17.1-0.8c0.5,1.8,2.2,3.1,4.1,2.9l9.8-1c2.1-0.2,3.6-2.1,3.4-4.2l-0.7-6.9c3.8-3.7,6.7-8.2,8.3-13h5.5
		c2.1,0,3.8-1.7,3.8-3.8V47.5C91.5,45.4,89.8,43.7,87.7,43.7z M47,8.6c7.3,0,13.3,5.9,13.3,13.3c0,0.3,0,0.6,0,0.9
		c0,0.5-0.1,0.9-0.2,1.4c-0.1,0.5-0.2,0.9-0.3,1.4c-1.6,5.6-6.7,9.6-12.7,9.6c-6.1,0-11.2-4.1-12.7-9.6c-0.1-0.4-0.2-0.9-0.3-1.3
		c-0.1-0.5-0.1-0.9-0.2-1.4c0-0.3,0-0.6,0-0.9C33.8,14.6,39.7,8.6,47,8.6z M88.8,60c0,0.6-0.5,1.1-1.1,1.1h-6.5
		c-0.6,0-1.1,0.4-1.3,1c-1.5,4.9-4.4,9.5-8.4,13.2c-0.3,0.3-0.5,0.7-0.4,1.1l0.8,7.5c0.1,0.6-0.4,1.1-1,1.2l-9.8,1
		c-0.6,0.1-1.1-0.4-1.2-1l-0.1-1.1c0-0.4-0.3-0.8-0.6-1c-0.3-0.2-0.8-0.3-1.1-0.2c-6,1.8-12.4,2.2-18.6,0.9c-0.4-0.1-0.7,0-1,0.2
		c-0.3,0.2-0.5,0.5-0.6,0.9l-0.1,0.5c0,0.3-0.2,0.5-0.4,0.7c-0.2,0.2-0.5,0.2-0.8,0.2l-9.7-1.5c-0.6-0.1-1-0.7-0.9-1.2l0.7-4.1
		c0.1-0.5-0.1-1-0.6-1.3C17.8,72.2,13,63.4,13,53.9c0-12,7.6-22.3,18.7-27.4c2,6.5,8.1,11.3,15.3,11.3c7.2,0,13.3-4.8,15.3-11.3
		c8.3,3.8,14.8,10.5,17.5,18.9c0.2,0.6,0.7,0.9,1.3,0.9h6.6c0.6,0,1.1,0.5,1.1,1.1V60z"/>
	<circle class="st0" cx="67.4" cy="41.9" r="1.8"/>
	<path class="st0" d="M48.6,26.2c-0.5,0.3-1,0.4-1.5,0.4c-1.1-0.1-2-0.6-2.8-1.3c-0.3-0.2-0.4-0.2-0.6,0.1c-0.2,0.3-0.5,0.7-0.7,1
		c-0.4,0.5-0.3,0.6,0.1,1c0.9,0.8,1.9,1.2,3,1.5c0.2,0,0.3,0.1,0.3,0.3c0,0.3,0,0.6,0,1c0,0.8,0,0.8,0.8,0.8c1.3,0,1.1,0.1,1.1-1.1
		c0-0.3,0-0.6,0-0.9c0.2,0,0.3-0.1,0.5-0.1c2.2-0.6,3.5-2.8,2.9-4.9c0-0.1-0.1-0.2-0.1-0.3c-0.2-0.6-0.6-1.1-1.2-1.5
		c-0.2-0.1-0.4-0.3-0.6-0.4c-0.8-0.4-1.6-0.7-2.3-1c-0.1,0-0.1-0.1-0.2-0.1c-0.5-0.2-1-0.5-1.4-0.8c-0.8-0.6-0.7-1.6,0.2-2.2
		c0.5-0.3,1.1-0.4,1.7-0.4c0.9,0.1,1.7,0.5,2.4,1c0.3,0.2,0.4,0.2,0.6-0.1c0.2-0.4,0.4-0.8,0.6-1.1c0.3-0.5,0.2-0.5-0.2-0.9
		c-0.8-0.6-1.8-1-2.8-1.1c0-0.6,0-1.1,0-1.6c0-0.3-0.1-0.4-0.4-0.4c-0.4,0-0.7,0-1.1,0c-0.3,0-0.4,0.1-0.4,0.4c0,0.5,0,1,0,1.5
		c0,0.2-0.1,0.3-0.2,0.3c-0.3,0.1-0.5,0.1-0.8,0.3C43.9,16,43,17,42.9,18.5c-0.1,0.8,0.1,1.6,0.5,2.2c0.3,0.5,0.8,0.9,1.3,1.2
		c0,0,0.1,0,0.1,0.1c0.8,0.4,1.6,0.7,2.4,1.1c0.1,0.1,0.3,0.1,0.4,0.2c0.4,0.2,0.8,0.3,1.1,0.6C49.6,24.4,49.5,25.6,48.6,26.2z"/>
</g>
</svg>
