<?xml version="1.0" encoding="utf-8"?>
<!-- Generator: Adobe Illustrator 21.0.0, SVG Export Plug-In . SVG Version: 6.00 Build 0)  -->
<svg version="1.1" id="圖層_1" xmlns="http://www.w3.org/2000/svg" xmlns:xlink="http://www.w3.org/1999/xlink" x="0px" y="0px"
	 viewBox="0 0 95 95" style="enable-background:new 0 0 95 95;" xml:space="preserve">
<style type="text/css">
	.st0{fill:#767D89;}
</style>
<g>
	<path class="st0" d="M20.4,34.8c5.2,2.7,10.7,4,16.5,2.8c2.8-0.6,5.5-1.8,8.3-2.6c0.8-0.2,1.8-0.2,2.6,0c1.8,0.5,3.5,1.3,5.4,1.9
		c7.2,2.2,14.1,1.1,20.4-2.8c2-1.2,3.4-3.1,4-5.5c0.1-0.5,0-1.1,0-1.9c-1.5,1-2.7,2-4,2.6c-3.6,1.4-7,1-10.3-1.1
		c-2.1-1.4-4.2-2.8-6.4-4.1c-2.4-1.4-4.9-1.6-7.4-0.5c-1.1,0.5-2.1,1.3-3.2,1.9c-4.1-3.2-7.1-3.5-11.6-0.8c-2,1.2-3.9,2.7-6,3.9
		c-4.1,2.4-8.9,1.9-12.4-1.2c-0.2-0.2-0.5-0.3-1.1-0.7c0,0.8-0.1,1.4,0,2C16,31.5,17.9,33.5,20.4,34.8z"/>
	<path class="st0" d="M73.7,57.7c2.9-3.7,4.4-8.9,2.8-17c-0.2-0.8-0.9-1.2-1.6-1.1c-0.8,0.2-1.2,0.9-1.1,1.6
		c1.5,7.4,0.2,11.9-2.9,15.4c-1.4-0.4-2.9-0.6-4.4-0.6c-9.5,0-17.2,7.7-17.2,17.2c0,1.6,0.2,3.1,0.6,4.6c-0.9,0.9-1.9,1.9-3.1,2.9
		c-3.6-3-11.1-9.9-9.8-16.5c0.2-0.8-0.3-1.5-1.1-1.6c-0.7-0.1-1.5,0.3-1.6,1.1c-0.5,2.5-0.1,4.9,0.9,7.2c-3.9-2.4-8.2-7.2-7.1-12.6
		c0.2-0.8-0.3-1.5-1.1-1.6c-0.7-0.1-1.5,0.3-1.6,1.1c-0.1,0.6-0.2,1.1-0.2,1.7c-5.2-3.9-7.9-8.6-6-18.2c0.2-0.8-0.3-1.5-1.1-1.6
		c-0.7-0.2-1.5,0.3-1.6,1.1C14,53.4,19.2,58.9,25.3,63c0.1,0.1,0.2,0.1,0.4,0.2c1.6,5.8,7.2,10.5,11.9,11.9c0,0,0,0,0,0
		c2.8,4,6.6,7.1,8.4,8.6c0.3,0.2,0.6,0.3,0.9,0.3c0.3,0,0.6-0.1,0.9-0.3c1.2-1,2.3-1.9,3.3-2.9c2.8,5.8,8.7,9.7,15.5,9.7
		c9.5,0,17.2-7.7,17.2-17.2C83.6,66.4,79.5,60.5,73.7,57.7z M66.4,87.7c-6.1,0-11.3-3.8-13.4-9.1c-0.4-1-0.7-2.1-0.9-3.2
		C52.1,74.7,52,74,52,73.3c0-7.6,5.9-13.8,13.3-14.4c0.4,0,0.7-0.1,1.1-0.1c0.6,0,1.2,0,1.7,0.1c0.1,0,0.2,0,0.2,0
		c1.1,0.2,2.2,0.4,3.3,0.8c5.4,2.1,9.2,7.3,9.2,13.4C80.8,81.2,74.4,87.7,66.4,87.7z"/>
	<path class="st0" d="M71.9,68.7L65.5,76l-4.2-3.4c-0.1-0.1-0.2-0.1-0.2-0.1c-0.6-0.3-1.3-0.2-1.7,0.3c-0.2,0.3-0.3,0.6-0.3,0.9
		c0,0.4,0.2,0.8,0.5,1.1l5.2,4.2c0.3,0.2,0.6,0.3,0.9,0.3c0.4,0,0.8-0.2,1.1-0.5l7.3-8.4c0.5-0.6,0.4-1.5-0.1-2
		C73.3,68,72.4,68.1,71.9,68.7z"/>
	<path class="st0" d="M37.6,16.6c0.6-0.1,1.1-0.7,1.1-1.4V5.9c0-0.8-0.6-1.4-1.4-1.4H12.8c-0.8,0-1.4,0.6-1.4,1.4v9.3
		c0,0.7,0.5,1.2,1.1,1.4c0.3,0.1,7.8,1.7,12.6,1.7C29.8,18.3,37.3,16.6,37.6,16.6z M14.2,7.3h21.8v6.8c-2.2,0.5-7.5,1.4-10.9,1.4
		c-3.4,0-8.6-1-10.9-1.4V7.3z"/>
	<path class="st0" d="M55.3,16.6c0.3,0.1,7.8,1.7,12.6,1.7c4.8,0,12.3-1.7,12.6-1.7c0.6-0.1,1.1-0.7,1.1-1.4V5.9
		c0-0.8-0.6-1.4-1.4-1.4H55.6c-0.8,0-1.4,0.6-1.4,1.4v9.3C54.2,15.9,54.6,16.4,55.3,16.6z M57,7.3h21.8v6.8
		c-2.2,0.5-7.5,1.4-10.9,1.4c-3.4,0-8.6-1-10.9-1.4V7.3z"/>
	<path class="st0" d="M44.1,12.4h4.6c0.8,0,1.4-0.6,1.4-1.4c0-0.8-0.6-1.4-1.4-1.4h-4.6c-0.8,0-1.4,0.6-1.4,1.4
		C42.7,11.8,43.4,12.4,44.1,12.4z"/>
</g>
</svg>
