<?xml version="1.0" encoding="utf-8"?>
<!-- Generator: Adobe Illustrator 21.0.0, SVG Export Plug-In . SVG Version: 6.00 Build 0)  -->
<svg version="1.1" id="圖層_1" xmlns="http://www.w3.org/2000/svg" xmlns:xlink="http://www.w3.org/1999/xlink" x="0px" y="0px"
	 viewBox="0 0 95 95" style="enable-background:new 0 0 95 95;" xml:space="preserve">
<style type="text/css">
	.st0{fill:#767D89;}
</style>
<g>
	<g>
		<path class="st0" d="M81.6,76.4L81.6,76.4c-0.5,0.6-0.5,1.4,0.1,1.9c0.2,0.2,0.5,0.3,0.8,0.3c0.4,0,0.7-0.2,1-0.4l0.1-0.1
			c0.5-0.6,0.4-1.4-0.2-1.8C82.9,75.7,82.1,75.8,81.6,76.4z"/>
		<path class="st0" d="M89,24.6C89,24.6,88.9,24.5,89,24.6l-1.2,0.5l-1.1,0.7l1.2-0.6l-1.1,0.6c0.2,0.4,0.7,0.7,1.1,0.7
			c0.2,0,0.4,0,0.6-0.2C89.1,26.1,89.3,25.3,89,24.6z"/>
		<path class="st0" d="M90.4,64.2c-0.7-0.3-1.4,0-1.7,0.7L88.7,65c-0.3,0.7,0,1.4,0.7,1.7c0.2,0.1,0.3,0.1,0.5,0.1
			c0.5,0,1-0.3,1.2-0.8C91.4,65.3,91.1,64.5,90.4,64.2z"/>
		<path class="st0" d="M71.4,85.2L71.4,85.2c-0.7,0.4-0.9,1.2-0.5,1.8c0.2,0.4,0.7,0.6,1.1,0.6c0.2,0,0.5-0.1,0.7-0.2l0.1-0.1
			c0.6-0.4,0.8-1.2,0.4-1.8C72.8,85,72,84.8,71.4,85.2z"/>
		<path class="st0" d="M93.4,50.7c-0.7-0.1-1.3,0.5-1.4,1.2l0,0.1c-0.1,0.7,0.4,1.4,1.1,1.4c0,0,0.1,0,0.1,0c0.7,0,1.2-0.5,1.3-1.2
			l0-0.1C94.7,51.4,94.1,50.8,93.4,50.7z"/>
		<path class="st0" d="M92.9,39.5c0.7-0.1,1.2-0.8,1-1.5l0-0.1c-0.2-0.7-0.8-1.1-1.6-1c-0.7,0.2-1.1,0.9-1,1.6l0,0.1
			c0.1,0.6,0.7,1,1.3,1C92.7,39.5,92.8,39.5,92.9,39.5z"/>
		<path class="st0" d="M79.2,12.9l-1.1-9.8L74,8.3c-18.9-12.7-44.7-10-60.5,6.6C-4.6,33.7-3.9,63.6,15,81.6
			c8.9,8.5,20.5,13.1,32.5,13.1c4.1,0,8.2-0.5,12.2-1.6c0,0,0,0,0.1,0l0,0c0.7-0.2,1.1-0.9,0.9-1.6c-0.2-0.7-0.9-1.1-1.6-0.9
			c0,0,0,0,0,0c0,0,0,0,0,0c-15.1,4-31,0-42.3-10.9C-1,62.7-1.7,34.4,15.3,16.6C30.2,1,54.5-1.6,72.3,10.3l-4.1,5.2l9.8-1.1
			c0,0.3,0.2,0.6,0.4,0.8l0.9-0.9l0.9-1C79.9,13,79.5,12.9,79.2,12.9z"/>
		<path class="st0" d="M48.2,47l5-20c0.2-0.7-0.2-1.4-0.9-1.6c-0.7-0.2-1.4,0.2-1.6,0.9l-5.2,20.8c-0.1,0.5,0,1,0.4,1.3l20.8,18.2
			c0.2,0.2,0.6,0.3,0.9,0.3c0.4,0,0.7-0.2,1-0.4c0.5-0.5,0.4-1.4-0.1-1.8L48.2,47z"/>
	</g>
</g>
</svg>
