<?xml version="1.0" encoding="utf-8"?>
<!-- Generator: Adobe Illustrator 21.0.0, SVG Export Plug-In . SVG Version: 6.00 Build 0)  -->
<svg version="1.1" id="圖層_1" xmlns="http://www.w3.org/2000/svg" xmlns:xlink="http://www.w3.org/1999/xlink" x="0px" y="0px"
	 viewBox="0 0 95 95" style="enable-background:new 0 0 95 95;" xml:space="preserve">
<style type="text/css">
	.st0{fill:#767D89;}
</style>
<path class="st0" d="M93.3,44.4c0-0.3,0-0.6-0.1-0.9c0-0.6-0.1-1.2-0.2-1.7c0-0.4-0.1-0.8-0.1-1.1c-0.1-0.5-0.1-0.9-0.2-1.4
	c-0.1-0.4-0.1-0.9-0.2-1.3c-0.1-0.3-0.1-0.5-0.2-0.8C89.8,25.6,83,15.5,73.1,8.7c-0.1-0.1-0.2-0.1-0.3-0.2c-0.4-0.2-0.7-0.5-1.1-0.7
	c0,0-0.1,0-0.1-0.1c-7.1-4.5-15.5-7.1-24.6-7.1C21.5,0.7,0.7,21.5,0.7,47.1c0,3.5,0.4,6.9,1.1,10.2c0,0,0,0.1,0,0.1
	c0.1,0.4,0.2,0.7,0.3,1c0,0.1,0.1,0.2,0.1,0.3C6.9,76.9,21.8,90.1,40,92.9c0,0,0,0,0,0c0.7,0.1,1.4,0.2,2.1,0.3c0.1,0,0.3,0,0.4,0
	c0.6,0.1,1.2,0.1,1.8,0.1c0.2,0,0.4,0,0.5,0c0.7,0,1.5,0.1,2.3,0.1c0.9,0,1.8,0,2.7-0.1c0.2,0,0.5,0,0.7-0.1c0.6,0,1.3-0.1,1.9-0.2
	c0.3,0,0.5-0.1,0.8-0.1c0.7-0.1,1.3-0.2,1.9-0.3c0.2,0,0.5-0.1,0.7-0.1c0.7-0.1,1.5-0.3,2.2-0.5c0.1,0,0.2,0,0.3-0.1
	c0.9-0.2,1.8-0.5,2.6-0.7c0,0,0.1,0,0.1,0c0.8-0.2,1.5-0.5,2.3-0.8c0.3-0.1,0.5-0.2,0.8-0.3c0.5-0.2,1-0.4,1.5-0.6
	c0.3-0.1,0.7-0.3,1-0.4c0.4-0.2,0.8-0.4,1.2-0.6c0.4-0.2,0.8-0.4,1.1-0.6c0.2-0.1,0.5-0.3,0.7-0.4c1.7-1,3.3-2,4.9-3.2
	c0.1,0,0.1-0.1,0.2-0.1c4-3,7.6-6.7,10.5-10.9c3.5-5.1,5.9-10.7,7.1-16.7c0-0.1,0-0.2,0-0.2c0.3-1.4,0.5-2.9,0.7-4.3
	c0-0.2,0-0.3,0-0.5c0.1-0.6,0.1-1.1,0.1-1.7c0-0.2,0-0.4,0-0.6c0-0.7,0.1-1.4,0.1-2.1C93.4,46.2,93.4,45.3,93.3,44.4z M72.1,31.2
	c0.3-0.1,0.4-0.2,0.4-0.5c0-0.7,0-1.4,0-2.1c0-0.4,0.2-0.6,0.6-0.6c0.5,0,1.1,0,1.6,0c0.4,0,0.6,0.2,0.6,0.6c0,0.8,0,1.6,0,2.4
	c1.5,0.2,2.9,0.7,4.1,1.6c0.6,0.5,0.6,0.6,0.3,1.3c-0.3,0.5-0.6,1.1-0.9,1.6c-0.2,0.4-0.5,0.5-0.9,0.2c-1-0.8-2.1-1.3-3.4-1.5
	c-0.9-0.1-1.7,0.1-2.4,0.5c-1.2,0.8-1.3,2.2-0.2,3.1c0.7,0.5,1.5,0.9,2.2,1.2c1.1,0.5,2.3,0.9,3.4,1.5c1.3,0.7,2.3,1.6,2.8,3.1
	c0.9,3-1,6.2-4.2,7.1c-0.2,0.1-0.4,0.1-0.7,0.2c0,0.5,0,0.9,0,1.4c0,1.8,0.2,1.6-1.6,1.6c-1.2,0-1.2,0-1.2-1.2c0-0.5,0-0.9,0-1.4
	c0-0.3-0.1-0.4-0.4-0.5c-1.6-0.3-3.1-1-4.4-2.1c-0.7-0.6-0.7-0.7-0.2-1.4c0.4-0.5,0.7-0.9,1.1-1.4c0.3-0.4,0.5-0.4,0.9-0.1
	c1.2,1,2.5,1.7,4.1,1.8c0.8,0.1,1.6-0.1,2.2-0.5c1.3-0.8,1.4-2.5,0.1-3.4c-0.7-0.5-1.4-0.8-2.2-1.1c-1.2-0.6-2.4-1-3.6-1.7
	c-1.9-1.1-2.8-2.7-2.7-4.9c0.2-2.3,1.5-3.7,3.5-4.6C71.3,31.4,71.7,31.3,72.1,31.2z M3.3,47.1c0-24.1,19.6-43.8,43.8-43.8
	c8.1,0,15.7,2.2,22.2,6.1L45.8,45.5l-41.7,10C3.6,52.8,3.3,50,3.3,47.1z M4.7,58l7.8-1.9L8.4,67.5C6.8,64.5,5.6,61.3,4.7,58z
	 M10.3,70.8L16,55.3l8.6-2.1l-8.9,24.3C13.7,75.5,11.9,73.2,10.3,70.8z M18.1,79.8l10-27.4l8.6-2.1L24.3,84.4
	C22.1,83.1,20,81.5,18.1,79.8z M27,85.9l13.3-36.4l6.2-1.5l1.8,1.2L33.8,88.8C31.4,88,29.1,87.1,27,85.9z M44.2,90.7
	c-0.5,0-0.9-0.1-1.4-0.1c-0.1,0-0.3,0-0.4,0c-1.9-0.2-3.8-0.5-5.7-1l14-38.6l1.7,1.2l4.6,3.1L44.2,90.7z M55.5,90
	c-0.1,0-0.2,0-0.3,0.1c-0.2,0-0.5,0.1-0.7,0.1c-0.6,0.1-1.2,0.2-1.7,0.3c-0.2,0-0.5,0.1-0.7,0.1c-0.6,0.1-1.2,0.1-1.8,0.2
	c-0.2,0-0.5,0-0.7,0.1c-0.7,0-1.5,0.1-2.2,0.1l12.3-33.7l6.3,4.3L55.5,90z M68.3,85.3c-0.2,0.1-0.5,0.3-0.7,0.4
	c-0.4,0.2-0.8,0.4-1.1,0.6c-0.4,0.2-0.8,0.4-1.1,0.5c-0.3,0.1-0.6,0.3-0.9,0.4c-0.6,0.2-1.2,0.5-1.8,0.7c-0.1,0.1-0.3,0.1-0.4,0.2
	c-0.8,0.3-1.5,0.5-2.3,0.8c-0.1,0-0.2,0-0.3,0.1c-0.2,0.1-0.4,0.1-0.6,0.2l9.5-26l6.3,4.3L68.3,85.3z M72.4,82.7l4.9-13.5l5.1,3.5
	C79.7,76.6,76.3,80,72.4,82.7z"/>
</svg>
