<?xml version="1.0" encoding="utf-8"?>
<!-- Generator: Adobe Illustrator 21.0.0, SVG Export Plug-In . SVG Version: 6.00 Build 0)  -->
<svg version="1.1" id="圖層_1" xmlns="http://www.w3.org/2000/svg" xmlns:xlink="http://www.w3.org/1999/xlink" x="0px" y="0px"
	 viewBox="0 0 95 95" style="enable-background:new 0 0 95 95;" xml:space="preserve">
<style type="text/css">
	.st0{fill:#767D89;}
</style>
<g>
	<path class="st0" d="M47.5,0.3c-26,0-47.2,21.2-47.2,47.2s21.2,47.2,47.2,47.2s47.2-21.2,47.2-47.2S73.5,0.3,47.5,0.3z M47.5,92.1
		c-24.6,0-44.6-20-44.6-44.6s20-44.6,44.6-44.6s44.6,20,44.6,44.6S72.1,92.1,47.5,92.1z"/>
	<path class="st0" d="M84.3,45.8h-9.6c-0.9-14-12.3-25.1-26.4-25.5v-9.6c0-0.7-0.6-1.3-1.3-1.3c-0.7,0-1.3,0.6-1.3,1.3v9.6
		c-14,0.9-25.1,12.3-25.5,26.4h-9.6c-0.7,0-1.3,0.6-1.3,1.3c0,0.7,0.6,1.3,1.3,1.3h9.6c0.9,14,12.3,25.1,26.4,25.5v9.6
		c0,0.7,0.6,1.3,1.3,1.3c0.7,0,1.3-0.6,1.3-1.3v-9.6c14-0.9,25.1-12.3,25.5-26.4h9.6c0.7,0,1.3-0.6,1.3-1.3
		C85.6,46.3,85.1,45.8,84.3,45.8z M49.2,72.1v-8.6c0-0.7-0.6-1.3-1.3-1.3c-0.7,0-1.3,0.6-1.3,1.3v8.6C34,71.7,23.7,61.8,22.9,49.2
		h8.6c0.7,0,1.3-0.6,1.3-1.3c0-0.7-0.6-1.3-1.3-1.3h-8.6C23.3,34,33.2,23.7,45.8,22.9v8.6c0,0.7,0.6,1.3,1.3,1.3
		c0.7,0,1.3-0.6,1.3-1.3v-8.6C61,23.3,71.3,33.2,72.1,45.8h-8.6c-0.7,0-1.3,0.6-1.3,1.3c0,0.7,0.6,1.3,1.3,1.3h8.6
		C71.7,61,61.8,71.3,49.2,72.1z"/>
	<path class="st0" d="M50.1,47.7c-0.9-0.4-1.8-0.8-2.7-1.2c-0.6-0.3-1.3-0.6-1.8-1c-0.9-0.7-0.8-1.9,0.2-2.5
		c0.6-0.4,1.3-0.5,1.9-0.4c1,0.1,1.9,0.5,2.7,1.2c0.3,0.3,0.5,0.2,0.7-0.1c0.2-0.4,0.5-0.9,0.7-1.3c0.3-0.5,0.3-0.6-0.2-1
		c-0.9-0.8-2-1.1-3.3-1.3c0-0.7,0-1.3,0-1.9c0-0.4-0.2-0.5-0.5-0.5c-0.4,0-0.8,0-1.3,0c-0.3,0-0.5,0.2-0.5,0.5c0,0.6,0,1.1,0,1.7
		c0,0.2-0.1,0.3-0.3,0.4c-0.3,0.1-0.6,0.2-0.9,0.3c-1.6,0.7-2.7,1.9-2.8,3.7c-0.1,1.7,0.6,3,2.1,3.9c0.9,0.5,1.9,0.9,2.9,1.4
		c0.6,0.3,1.2,0.5,1.7,0.9c1,0.7,1,2-0.1,2.7c-0.5,0.4-1.1,0.5-1.8,0.4c-1.3-0.1-2.3-0.7-3.2-1.5c-0.3-0.3-0.5-0.3-0.7,0.1
		c-0.3,0.4-0.6,0.8-0.8,1.1c-0.4,0.6-0.4,0.7,0.1,1.1c1,0.9,2.2,1.4,3.5,1.7c0.3,0,0.3,0.2,0.3,0.4c0,0.4,0,0.7,0,1.1c0,1,0,1,1,1
		c1.4,0,1.3,0.1,1.3-1.3c0-0.4,0-0.7,0-1.1c0.2,0,0.4-0.1,0.5-0.1c2.6-0.7,4.1-3.2,3.4-5.6C52,48.9,51.2,48.2,50.1,47.7z"/>
</g>
</svg>
