<?xml version="1.0" encoding="utf-8"?>
<!-- Generator: Adobe Illustrator 21.0.0, SVG Export Plug-In . SVG Version: 6.00 Build 0)  -->
<svg version="1.1" id="圖層_1" xmlns="http://www.w3.org/2000/svg" xmlns:xlink="http://www.w3.org/1999/xlink" x="0px" y="0px"
	 viewBox="0 0 95 95" style="enable-background:new 0 0 95 95;" xml:space="preserve">
<style type="text/css">
	.st0{fill:#767D89;}
</style>
<g>
	<path class="st0" d="M93.3,38.1H82.1l-5.2-12.7c-0.2-0.5-0.7-0.8-1.3-0.8c-0.6,0-1,0.4-1.1,1l-6,26.7c0,0,0,0,0,0l-6-27.9
		c-0.1-0.6-0.6-1-1.2-1c-0.6,0-1.1,0.3-1.3,0.8l-6.5,17.7l-7.1-29.6c-0.1-0.6-0.7-1-1.3-1c-0.6,0-1.1,0.5-1.2,1.1l-6.5,47.3
		l-8.1-25.3c-0.2-0.5-0.6-0.9-1.2-0.9h0c-0.5,0-1,0.3-1.2,0.9l-5.5,15.9l-6.7-11.7c-0.2-0.4-0.6-0.6-1.1-0.6h-12
		c-0.7,0-1.3,0.6-1.3,1.3c0,0.7,0.6,1.3,1.3,1.3H13l7.7,13.6c0.2,0.4,0.7,0.7,1.2,0.6c0.5,0,0.9-0.4,1.1-0.9l5.1-15l8.6,27
		c0.2,0.5,0.7,0.9,1.2,0.9c0,0,0.1,0,0.1,0c0.6-0.1,1.1-0.5,1.1-1.1l6.3-46.2L52,46.6c0.1,0.5,0.6,0.9,1.2,1c0.6,0,1.1-0.3,1.3-0.8
		l6.4-17.5L66,52.8c-6.7,1.8-11.7,7.9-11.7,15.1c0,8.6,7,15.7,15.7,15.7c8.6,0,15.7-7,15.7-15.7c0-8.3-6.4-15-14.5-15.6L76,30.1
		l4,9.7c0.2,0.5,0.7,0.8,1.2,0.8h12c0.7,0,1.3-0.6,1.3-1.3C94.6,38.6,94,38.1,93.3,38.1z M70,81.1c-7.2,0-13.1-5.9-13.1-13.1
		c0-6,4.1-11.1,9.7-12.7c1.1-0.3,2.3-0.5,3.5-0.5c0.2,0,0.4,0,0.6,0c7,0.3,12.6,6.1,12.6,13.1C83.1,75.2,77.2,81.1,70,81.1z"/>
	<path class="st0" d="M69.5,64.9c-1.6-2.7-6-1.9-6,1.5c0,2.3,2.8,4.7,6,7.9c3.2-3.2,6-5.6,6-7.9C75.6,63,71.1,62.2,69.5,64.9z"/>
</g>
</svg>
