<?xml version="1.0" encoding="utf-8"?>
<!-- Generator: Adobe Illustrator 21.0.0, SVG Export Plug-In . SVG Version: 6.00 Build 0)  -->
<svg version="1.1" id="圖層_1" xmlns="http://www.w3.org/2000/svg" xmlns:xlink="http://www.w3.org/1999/xlink" x="0px" y="0px"
	 viewBox="0 0 95 95" style="enable-background:new 0 0 95 95;" xml:space="preserve">
<style type="text/css">
	.st0{fill:#767D89;}
</style>
<g>
	<g>
		<path class="st0" d="M93.9,47.5c0-25.6-20.8-46.4-46.4-46.4S1.1,21.9,1.1,47.5c0,11.3,4.1,21.7,10.8,29.7c0.8,1,1.7,1.9,2.6,2.9
			c4.2,4.2,9.1,7.6,14.6,10c0.9,0.4,1.7,0.7,2.6,1c4.9,1.8,10.2,2.7,15.7,2.7c5.2,0,10.1-0.9,14.8-2.4c0.5,0.2,0.9,0.4,1.4,0.6
			c0.7,0.3,1.4,0.5,2.1,0.6c1.1,0.2,2.2,0.4,3.3,0.4c4.6,0,8.8-2,11.7-5.1c1-1.1,1.9-2.4,2.6-3.7c1.1-2.2,1.7-4.6,1.7-7.2
			c0-0.8-0.1-1.5-0.2-2.3C90.6,67,93.9,57.7,93.9,47.5z M80.9,83.5c-2.3,4.1-6.7,6.9-11.7,6.9c-1,0-2-0.1-2.9-0.3
			c-0.1,0-0.2,0-0.2-0.1c-0.7-0.2-1.3-0.4-1.9-0.6c-0.2-0.1-0.3-0.1-0.5-0.2c-0.4-0.2-0.8-0.4-1.1-0.6c-4-2.3-6.8-6.7-6.8-11.6
			c0-5.4,3.3-10.1,7.9-12.2c0.8-0.4,1.7-0.7,2.6-0.9c0.9-0.2,1.9-0.3,2.9-0.3c5,0,9.4,2.8,11.7,6.9c0.6,1.1,1.1,2.4,1.4,3.7
			c0.1,0.6,0.2,1.2,0.3,1.8c0,0.4,0.1,0.8,0.1,1.1c0,0.3,0,0.6,0,0.8C82.4,79.9,81.8,81.8,80.9,83.5z M83.5,69.8V36.2
			c0-0.7-0.6-1.3-1.3-1.3c-0.7,0-1.3,0.6-1.3,1.3V66c-2.9-3.1-7.1-5.1-11.7-5.1c-1,0-2,0.1-2.9,0.3v-12c0-0.7-0.6-1.3-1.3-1.3
			c-0.7,0-1.3,0.6-1.3,1.3v12.7c-6.1,2.3-10.5,8.1-10.5,15c0,5.1,2.4,9.7,6.2,12.7c-3.3,0.9-6.8,1.5-10.3,1.6V54.4
			c0-0.7-0.6-1.3-1.3-1.3s-1.3,0.6-1.3,1.3v36.8c-5.1-0.1-10.1-1.1-14.6-2.9V67.4c0-0.7-0.6-1.3-1.3-1.3s-1.3,0.6-1.3,1.3v19.8
			c-5.6-2.6-10.6-6.4-14.6-11V57c0-0.7-0.6-1.3-1.3-1.3c-0.7,0-1.3,0.6-1.3,1.3v16c-5.2-7.2-8.2-16-8.2-25.5
			c0-24.1,19.6-43.8,43.8-43.8s43.8,19.6,43.8,43.8c0,8.8-2.6,17-7.1,23.9C84,70.8,83.7,70.3,83.5,69.8z"/>
		<path class="st0" d="M71.8,77.3c-0.7-0.4-1.5-0.6-2.2-1c-0.5-0.2-1-0.5-1.5-0.8c-0.7-0.6-0.6-1.6,0.1-2.1c0.5-0.3,1-0.4,1.6-0.4
			c0.9,0.1,1.6,0.4,2.3,1c0.3,0.2,0.4,0.2,0.6-0.1c0.2-0.4,0.4-0.7,0.6-1.1c0.2-0.5,0.2-0.5-0.2-0.8c-0.8-0.6-1.7-0.9-2.7-1.1
			c0-0.5,0-1.1,0-1.6c0-0.3-0.1-0.4-0.4-0.4c-0.3,0-0.7,0-1,0c-0.3,0-0.4,0.1-0.4,0.4c0,0.5,0,0.9,0,1.4c0,0.2-0.1,0.3-0.2,0.3
			c-0.3,0.1-0.5,0.1-0.8,0.2c-0.5,0.2-1,0.5-1.4,0.9c-0.5,0.5-0.9,1.2-1,2.1c-0.1,1.1,0.3,2,1,2.6c0.2,0.2,0.5,0.4,0.8,0.6
			c0.8,0.4,1.6,0.7,2.4,1.1c0.5,0.2,1,0.4,1.4,0.7c0.8,0.6,0.8,1.7-0.1,2.2c-0.5,0.3-1,0.4-1.5,0.3c-1-0.1-1.9-0.5-2.7-1.2
			c-0.1-0.1-0.3-0.2-0.4-0.1c-0.1,0-0.1,0.1-0.2,0.2c-0.2,0.3-0.5,0.6-0.7,0.9c-0.3,0.5-0.3,0.5,0.1,0.9c0.3,0.2,0.5,0.4,0.8,0.6
			c0.6,0.4,1.3,0.7,2.1,0.8c0.2,0,0.3,0.1,0.3,0.3c0,0.3,0,0.6,0,0.9c0,0.2,0,0.4,0,0.5c0,0.3,0.2,0.3,0.8,0.3
			c1.2,0,1.1,0.1,1.1-1.1c0-0.1,0-0.2,0-0.3c0-0.2,0-0.4,0-0.6c0.2,0,0.3-0.1,0.4-0.1c2.1-0.6,3.4-2.7,2.8-4.7
			C73.4,78.4,72.7,77.8,71.8,77.3z"/>
		<path class="st0" d="M74.4,24l-11,10.2l-16.5,3.4c-0.2,0-0.4,0.1-0.6,0.3L29.6,51.9l-15.2-9.9c-0.6-0.4-1.4-0.2-1.8,0.4
			c-0.4,0.6-0.2,1.4,0.4,1.8l16,10.4c0.2,0.1,0.5,0.2,0.7,0.2c0.3,0,0.6-0.1,0.8-0.3L47.7,40l16.6-3.4c0.2,0,0.4-0.2,0.6-0.3
			l11.3-10.4c0.5-0.5,0.6-1.3,0.1-1.8C75.7,23.6,74.9,23.5,74.4,24z"/>
	</g>
</g>
</svg>
