<?xml version="1.0" encoding="utf-8"?>
<!-- Generator: Adobe Illustrator 21.0.0, SVG Export Plug-In . SVG Version: 6.00 Build 0)  -->
<svg version="1.1" id="圖層_1" xmlns="http://www.w3.org/2000/svg" xmlns:xlink="http://www.w3.org/1999/xlink" x="0px" y="0px"
	 viewBox="0 0 95 95" style="enable-background:new 0 0 95 95;" xml:space="preserve">
<style type="text/css">
	.st0{fill:#767D89;}
</style>
<g>
	<path class="st0" d="M38.2,22.1h23.4c0.7,0,1.3-0.6,1.3-1.3c0-0.7-0.6-1.3-1.3-1.3H38.2c-0.7,0-1.3,0.6-1.3,1.3
		C36.9,21.6,37.5,22.1,38.2,22.1z"/>
	<circle class="st0" cx="28.7" cy="20.8" r="1.7"/>
	<path class="st0" d="M38.2,35.1h23.4c0.7,0,1.3-0.6,1.3-1.3c0-0.7-0.6-1.3-1.3-1.3H38.2c-0.7,0-1.3,0.6-1.3,1.3
		C36.9,34.6,37.5,35.1,38.2,35.1z"/>
	<circle class="st0" cx="28.7" cy="33.8" r="1.7"/>
	<path class="st0" d="M38.2,49h23.4c0.7,0,1.3-0.6,1.3-1.3c0-0.7-0.6-1.3-1.3-1.3H38.2c-0.7,0-1.3,0.6-1.3,1.3
		C36.9,48.4,37.5,49,38.2,49z"/>
	<circle class="st0" cx="28.7" cy="47.7" r="1.7"/>
	<circle class="st0" cx="28.7" cy="60.7" r="1.7"/>
	<path class="st0" d="M73.3,62V8.7c0-2.2-1.7-3.9-3.9-3.9H20c-2.2,0-3.9,1.7-3.9,3.9v73.7c0,2.2,1.7,3.9,3.9,3.9h32.4
		c2.8,2.4,6.5,3.9,10.5,3.9c8.8,0,16-7.2,16-16C78.9,69.3,76.7,64.9,73.3,62z M20,83.7c-0.7,0-1.3-0.6-1.3-1.3V8.7
		c0-0.7,0.6-1.3,1.3-1.3h49.4c0.7,0,1.3,0.6,1.3,1.3v51.4c-2.3-1.3-5-2-7.8-2c-2.2,0-4.4,0.5-6.3,1.3H38.2c-0.7,0-1.3,0.6-1.3,1.3
		c0,0.7,0.6,1.3,1.3,1.3h14.2c-3.4,2.9-5.6,7.3-5.6,12.1c0,3.6,1.2,6.9,3.2,9.5H20z M73.3,82.7c-1.3,1.5-2.8,2.8-4.6,3.6
		c-1.7,0.8-3.7,1.3-5.7,1.3c-2.1,0-4-0.5-5.7-1.3c-1.4-0.7-2.6-1.5-3.7-2.6c-2.5-2.4-4-5.8-4-9.5c0-5.4,3.2-10,7.7-12.1
		c1.7-0.8,3.7-1.3,5.7-1.3c2.9,0,5.6,0.9,7.8,2.5c1,0.7,1.8,1.5,2.6,2.4c1.9,2.3,3,5.3,3,8.5C76.3,77.4,75.2,80.4,73.3,82.7z"/>
	<path class="st0" d="M70.7,69.9c-0.5-0.2-1-0.1-1.4,0.3l-6.9,6.9L59,73.7c-0.5-0.5-1.3-0.5-1.8,0c-0.5,0.5-0.5,1.3,0,1.8l4.3,4.3
		c0.3,0.3,0.6,0.4,0.9,0.4c0.3,0,0.7-0.1,0.9-0.4l7.3-7.3l0.5-0.5c0.5-0.5,0.5-1.3,0-1.8C71,70.1,70.9,70,70.7,69.9z"/>
</g>
</svg>
