<?xml version="1.0" encoding="utf-8"?>
<!-- Generator: Adobe Illustrator 21.0.0, SVG Export Plug-In . SVG Version: 6.00 Build 0)  -->
<svg version="1.1" id="圖層_1" xmlns="http://www.w3.org/2000/svg" xmlns:xlink="http://www.w3.org/1999/xlink" x="0px" y="0px"
	 viewBox="0 0 45 45" style="enable-background:new 0 0 45 45;" xml:space="preserve">
<style type="text/css">
	.st0{fill:#3B5997;}
</style>
<path id="facebook-4" class="st0" d="M22.5,0C10.1,0,0,10.1,0,22.5C0,34.9,10.1,45,22.5,45S45,34.9,45,22.5C45,10.1,34.9,0,22.5,0z
	 M28.1,15c0,0-1.7,0-2.5,0c-1,0-1.2,0.4-1.2,1.5c0,0.9,0,2.3,0,2.3h3.8l-0.4,3.8h-3.4v13.1h-5.6V22.5H15v-3.8h3.8c0,0,0-1.4,0-4.3
	c0-3.3,1.7-5,5.7-5c0.6,0,3.7,0,3.7,0V15z"/>
</svg>
