<?xml version="1.0" encoding="utf-8"?>
<!-- Generator: Adobe Illustrator 21.0.0, SVG Export Plug-In . SVG Version: 6.00 Build 0)  -->
<svg version="1.1" id="圖層_1" xmlns="http://www.w3.org/2000/svg" xmlns:xlink="http://www.w3.org/1999/xlink" x="0px" y="0px"
	 viewBox="0 0 45 45" style="enable-background:new 0 0 45 45;" xml:space="preserve">
<style type="text/css">
	.st0{fill:#00B900;}
	.st1{fill:#FFFFFF;}
</style>
<g id="TYPE_A_2_">
	<g>
		<path class="st0" d="M36.9,0H8.2C3.7,0,0,3.6,0,8.1v28.7C0,41.3,3.6,45,8.1,45h28.7c4.5,0,8.2-3.6,8.2-8.1V8.2
			C45,3.7,41.4,0,36.9,0"/>
		<path class="st1" d="M38.8,20.5c0-7.3-7.3-13.3-16.4-13.3c-9,0-16.4,6-16.4,13.3c0,6.6,5.8,12.1,13.7,13.1
			c0.5,0.1,1.3,0.4,1.4,0.8c0.2,0.4,0.1,1.1,0.1,1.5c0,0-0.2,1.2-0.2,1.4c-0.1,0.4-0.3,1.6,1.4,0.9c1.7-0.7,9.4-5.6,12.9-9.5h0
			C37.7,26.1,38.8,23.5,38.8,20.5"/>
		<g>
			<path class="st0" d="M19.1,17h-1.1c-0.2,0-0.3,0.1-0.3,0.3v7.1c0,0.2,0.1,0.3,0.3,0.3h1.1c0.2,0,0.3-0.1,0.3-0.3v-7.1
				C19.4,17.1,19.3,17,19.1,17"/>
			<path class="st0" d="M27,17h-1.1c-0.2,0-0.3,0.1-0.3,0.3v4.2l-3.3-4.4c0,0,0,0,0,0c0,0,0,0,0,0c0,0,0,0,0,0c0,0,0,0,0,0
				c0,0,0,0,0,0c0,0,0,0,0,0c0,0,0,0,0,0c0,0,0,0,0,0c0,0,0,0,0,0c0,0,0,0,0,0c0,0,0,0,0,0c0,0,0,0,0,0c0,0,0,0,0,0c0,0,0,0,0,0
				c0,0,0,0,0,0c0,0,0,0,0,0c0,0,0,0,0,0c0,0,0,0,0,0c0,0,0,0,0,0h-1.1c-0.2,0-0.3,0.1-0.3,0.3v7.1c0,0.2,0.1,0.3,0.3,0.3H22
				c0.2,0,0.3-0.1,0.3-0.3v-4.2l3.3,4.4c0,0,0.1,0.1,0.1,0.1c0,0,0,0,0,0c0,0,0,0,0,0c0,0,0,0,0,0c0,0,0,0,0,0c0,0,0,0,0,0
				c0,0,0,0,0,0c0,0,0,0,0,0c0,0,0,0,0,0c0,0,0.1,0,0.1,0H27c0.2,0,0.3-0.1,0.3-0.3v-7.1C27.3,17.1,27.2,17,27,17"/>
			<path class="st0" d="M16.3,23h-3.1v-5.7c0-0.2-0.1-0.3-0.3-0.3h-1.1c-0.2,0-0.3,0.1-0.3,0.3v7.1v0c0,0.1,0,0.2,0.1,0.2
				c0,0,0,0,0,0c0,0,0,0,0,0c0.1,0.1,0.1,0.1,0.2,0.1h0h4.6c0.2,0,0.3-0.1,0.3-0.3v-1.1C16.6,23.1,16.5,23,16.3,23"/>
			<path class="st0" d="M33.4,18.8c0.2,0,0.3-0.1,0.3-0.3v-1.1c0-0.2-0.1-0.3-0.3-0.3h-4.6h0c-0.1,0-0.2,0-0.2,0.1c0,0,0,0,0,0
				c0,0,0,0,0,0c-0.1,0.1-0.1,0.1-0.1,0.2v0v7.1v0c0,0.1,0,0.2,0.1,0.2c0,0,0,0,0,0c0,0,0,0,0,0c0.1,0.1,0.1,0.1,0.2,0.1h0h4.6
				c0.2,0,0.3-0.1,0.3-0.3v-1.1c0-0.2-0.1-0.3-0.3-0.3h-3.1v-1.2h3.1c0.2,0,0.3-0.1,0.3-0.3v-1.1c0-0.2-0.1-0.3-0.3-0.3h-3.1v-1.2
				H33.4z"/>
		</g>
	</g>
</g>
</svg>
