<?xml version="1.0" encoding="utf-8"?>
<!-- Generator: Adobe Illustrator 21.0.0, SVG Export Plug-In . SVG Version: 6.00 Build 0)  -->
<svg version="1.1" id="圖層_1" xmlns="http://www.w3.org/2000/svg" xmlns:xlink="http://www.w3.org/1999/xlink" x="0px" y="0px"
	 viewBox="0 0 16 36" style="enable-background:new 0 0 16 36;" xml:space="preserve">
<style type="text/css">
	.st0{fill:#767D89;}
	.st1{fill:#FFFFFF;}
</style>
<g>
	<path class="st0" d="M8,33.6c-3.6,0-6.5-2.9-6.5-6.5V8.9c0-3.6,2.9-6.5,6.5-6.5s6.5,2.9,6.5,6.5v18.2C14.5,30.7,11.6,33.6,8,33.6z"
		/>
	<path class="st1" d="M8,3.9c2.8,0,5,2.3,5,5v18.2c0,2.8-2.3,5-5,5s-5-2.3-5-5V8.9C3,6.1,5.2,3.9,8,3.9 M8,0.9c-4.4,0-8,3.6-8,8
		v18.2c0,4.4,3.6,8,8,8s8-3.6,8-8V8.9C16,4.5,12.4,0.9,8,0.9L8,0.9z"/>
</g>
</svg>
