<?xml version="1.0" encoding="utf-8"?>
<!-- Generator: Adobe Illustrator 21.0.0, SVG Export Plug-In . SVG Version: 6.00 Build 0)  -->
<svg version="1.1" id="圖層_1" xmlns="http://www.w3.org/2000/svg" xmlns:xlink="http://www.w3.org/1999/xlink" x="0px" y="0px"
	 viewBox="0 0 200 115.072" style="enable-background:new 0 0 200 115.072;" xml:space="preserve">
<style type="text/css">
	.st0{opacity:0.3;fill:url(#SVGID_1_);}
</style>
<linearGradient id="SVGID_1_" gradientUnits="userSpaceOnUse" x1="100" y1="114.7566" x2="100" y2="-0.1845">
	<stop  offset="0" style="stop-color:#93A5CF"/>
	<stop  offset="0.6512" style="stop-color:#DCE2F0"/>
	<stop  offset="1" style="stop-color:#FFFFFF"/>
</linearGradient>
<path class="st0" d="M178.768,43.59c-0.506,0-1.006,0.024-1.503,0.059c-3.654-10.415-13.571-17.883-25.234-17.883
	c-0.798,0-1.587,0.037-2.368,0.106c-0.361-14.452-12.189-26.056-26.728-26.056c-10.675,0-19.888,6.257-24.174,15.303
	c-1.431-0.237-2.9-0.362-4.398-0.362c-14.766,0-26.737,11.97-26.737,26.737c0,0.359,0.009,0.716,0.023,1.072
	c-0.356-0.014-0.713-0.023-1.072-0.023c-7.605,0-14.468,3.175-19.336,8.272c-4.905-5.857-12.27-9.582-20.507-9.582
	C11.97,41.231,0,53.201,0,67.968C0,82.11,10.98,93.685,24.88,94.639c2.015,11.432,11.996,20.118,24.006,20.118
	c10.442,0,19.347-6.568,22.819-15.797c3.535,3.293,8.273,5.312,13.485,5.312c8.183,0,15.205-4.967,18.218-12.05
	c3.713,1.84,7.895,2.876,12.319,2.876c5.322,0,10.293-1.497,14.519-4.092c2.734,7.655,10.046,13.135,18.64,13.135
	c10.93,0,19.79-8.86,19.79-19.79c0-0.288-0.01-0.573-0.022-0.858c3.007,1.633,6.451,2.562,10.113,2.562
	c11.726,0,21.232-9.506,21.232-21.232S190.494,43.59,178.768,43.59z"/>
</svg>
