<?xml version="1.0" encoding="utf-8"?>
<!-- Generator: Adobe Illustrator 21.0.0, SVG Export Plug-In . SVG Version: 6.00 Build 0)  -->
<svg version="1.1" id="圖層_1" xmlns="http://www.w3.org/2000/svg" xmlns:xlink="http://www.w3.org/1999/xlink" x="0px" y="0px"
	 viewBox="0 0 300 240.614" style="enable-background:new 0 0 300 240.614;" xml:space="preserve">
<style type="text/css">
	.st0{opacity:0.3;}
	.st1{fill:#FFFFFF;}
</style>
<g class="st0">
	
		<rect x="135.556" y="6.265" transform="matrix(0.7072 -0.707 0.707 0.7072 28.9986 112.8074)" class="st1" width="30.261" height="30.261"/>
	<polygon class="st1" points="21.395,42.793 0,21.393 21.395,0 42.797,21.393 	"/>
	
		<rect x="263.471" y="6.265" transform="matrix(0.7071 -0.7071 0.7071 0.7071 66.4718 203.2674)" class="st1" width="30.261" height="30.261"/>
	<polygon class="st1" points="123.315,138.441 150.011,165.127 177.726,137.436 151.03,110.732 	"/>
	<polygon class="st1" points="141.305,101.01 151.03,91.284 160.754,101.01 187.461,127.709 206.394,108.794 151.03,53.431 
		94.665,109.802 113.596,128.722 	"/>
	<polygon class="st1" points="113.596,148.173 22.742,239.022 76.018,238.998 85.944,229.141 140.274,174.86 	"/>
	<polygon class="st1" points="86.205,119.514 23.06,183.068 23.06,220.911 104.701,138.441 	"/>
	<polygon class="st1" points="23.06,55.94 23.06,163.614 76.895,109.789 	"/>
	<polygon class="st1" points="150.023,184.62 95.699,238.991 204.33,238.946 	"/>
	<polygon class="st1" points="277.788,55.94 225,108.766 277.788,161.548 	"/>
	<polygon class="st1" points="277.788,218.852 277.788,181.002 215.689,118.492 196.562,137.428 	"/>
	<polygon class="st1" points="277.788,238.303 187.052,147.113 159.561,174.794 213.954,230.826 222.453,240.614 277.788,240.614 	
		"/>
</g>
</svg>
