<?xml version="1.0" encoding="utf-8"?>
<!-- Generator: Adobe Illustrator 21.0.0, SVG Export Plug-In . SVG Version: 6.00 Build 0)  -->
<svg version="1.1" id="圖層_1" xmlns="http://www.w3.org/2000/svg" xmlns:xlink="http://www.w3.org/1999/xlink" x="0px" y="0px"
	 viewBox="0 0 700 329.608" style="enable-background:new 0 0 700 329.608;" xml:space="preserve">
<style type="text/css">
	.st0{opacity:0.7;}
	.st1{opacity:0.3;fill:none;stroke:#FFFFFF;stroke-linecap:round;stroke-linejoin:round;stroke-miterlimit:10;}
	.st2{opacity:0.5;fill:none;stroke:#FFFFFF;stroke-linecap:round;stroke-linejoin:round;stroke-miterlimit:10;}
	.st3{opacity:0.8;fill:none;stroke:#FFFFFF;stroke-linecap:round;stroke-linejoin:round;stroke-miterlimit:10;}
</style>
<g class="st0">
	<g>
		<line class="st1" x1="174.738" y1="0" x2="71.039" y2="103.699"/>
		<line class="st1" x1="72.631" y1="114.447" x2="53.921" y2="133.157"/>
		<line class="st2" x1="80.394" y1="1.194" x2="24.663" y2="56.925"/>
		<line class="st3" x1="126.57" y1="1.194" x2="117.614" y2="10.151"/>
		<line class="st3" x1="111.045" y1="16.719" x2="34.217" y2="93.548"/>
		<line class="st1" x1="363.227" y1="4.18" x2="282.816" y2="84.592"/>
		<line class="st1" x1="62.616" y1="283.295" x2="16.303" y2="329.608"/>
		<line class="st2" x1="159.014" y1="62.697" x2="0" y2="221.711"/>
		<line class="st2" x1="180.908" y1="40.803" x2="167.174" y2="54.537"/>
		<line class="st3" x1="275.658" y1="35.62" x2="253.487" y2="57.791"/>
		<line class="st2" x1="182.429" y1="86.255" x2="108.526" y2="160.158"/>
		<line class="st3" x1="237.229" y1="74.05" x2="47.052" y2="264.227"/>
	</g>
	<g>
		<line class="st1" x1="511.511" y1="0" x2="407.812" y2="103.699"/>
		<line class="st1" x1="409.404" y1="114.447" x2="390.694" y2="133.157"/>
		<line class="st2" x1="417.166" y1="1.194" x2="361.436" y2="56.925"/>
		<line class="st3" x1="463.343" y1="1.194" x2="454.387" y2="10.151"/>
		<line class="st3" x1="447.818" y1="16.719" x2="370.99" y2="93.548"/>
		<line class="st1" x1="700" y1="4.18" x2="619.589" y2="84.592"/>
		<line class="st1" x1="399.389" y1="283.295" x2="353.076" y2="329.608"/>
		<line class="st2" x1="495.787" y1="62.697" x2="336.773" y2="221.711"/>
		<line class="st2" x1="517.681" y1="40.803" x2="503.947" y2="54.537"/>
		<line class="st3" x1="612.431" y1="35.62" x2="590.26" y2="57.791"/>
		<line class="st2" x1="519.202" y1="86.255" x2="445.299" y2="160.158"/>
		<line class="st3" x1="574.002" y1="74.05" x2="383.825" y2="264.227"/>
	</g>
</g>
</svg>
